<svg width="520" height="520" viewBox="0 0 520 520" fill="none" xmlns="http://www.w3.org/2000/svg">
<path d="M260 520C116.636 520 0 403.364 0 260C0 116.636 116.636 0 260 0C403.364 0 520 116.636 520 260C520 403.364 403.364 520 260 520ZM260 21.6736C128.596 21.6736 21.6736 128.596 21.6736 260C21.6736 391.383 128.596 498.326 260 498.326C391.383 498.326 498.326 391.383 498.326 260C498.326 128.596 391.383 21.6736 260 21.6736Z" fill="#19EF88"/>
<path d="M260 455C152.485 455 65 367.515 65 260C65 254.028 69.8547 249.174 75.8264 249.174C81.7981 249.174 86.6528 254.028 86.6528 260C86.6528 355.571 164.408 433.326 259.979 433.326C355.55 433.326 433.306 355.571 433.306 260C433.306 254.028 438.181 249.174 444.132 249.174C450.083 249.174 454.958 254.028 454.958 260C454.958 367.515 367.474 455 259.958 455H260Z" fill="#19EF88"/>
<path d="M170.768 236.314C146.373 236.314 130.001 221.953 130.001 200.564C130.001 194.633 134.856 189.738 140.827 189.738C146.799 189.738 151.654 194.613 151.654 200.564C151.654 213.28 165.019 214.64 170.768 214.64C176.517 214.64 189.862 213.279 189.862 200.564C189.862 192.886 188.257 191.342 170.687 182.669L161.262 178.017C143.773 169.445 129.981 162.641 129.981 140.703C129.981 119.517 146.759 104.709 170.748 104.709C194.859 104.709 211.068 119.151 211.068 140.703C211.068 146.675 206.213 151.529 200.242 151.529C194.27 151.529 189.415 146.675 189.415 140.703C189.415 127.764 176.375 126.383 170.769 126.383C165.02 126.383 151.654 127.764 151.654 140.703C151.654 148.422 153.279 149.925 170.829 158.578L180.275 163.23C197.744 171.863 211.515 178.646 211.515 200.564C211.536 221.953 195.164 236.314 170.789 236.314H170.768Z" fill="#19EF88"/>
<path d="M169.65 102.924C166.827 102.924 164.024 101.847 162.074 99.6736C159.9 97.7236 158.824 94.9001 158.824 92.0972C158.824 89.2737 159.9 86.4708 162.074 84.5208C166.4 80.3973 173.124 80.3973 177.247 84.277C179.421 86.4911 180.497 89.2536 180.497 92.077C180.497 94.9005 179.421 97.7034 177.471 99.6534C175.297 101.847 172.494 102.924 169.671 102.924L169.65 102.924Z" fill="#19EF88"/>
<path d="M158.844 92.0764H180.518V118.259H158.844V92.0764Z" fill="#19EF88"/>
<path d="M169.65 260C166.827 260 164.024 258.923 162.074 256.75C159.9 254.8 158.824 251.977 158.824 249.174C158.824 246.35 159.9 243.547 162.074 241.597C166.197 237.474 173.347 237.474 177.45 241.597C179.4 243.527 180.477 246.371 180.477 249.174C180.477 251.997 179.4 254.8 177.45 256.75C175.277 258.923 172.473 260 169.65 260Z" fill="#19EF88"/>
<path d="M158.844 222.971H180.518V249.154H158.844V222.971Z" fill="#19EF88"/>
<path d="M344.115 236.314C319.72 236.314 303.348 221.953 303.348 200.564C303.348 194.633 308.223 189.738 314.175 189.738C320.126 189.738 325.001 194.633 325.001 200.564C325.001 213.28 338.367 214.64 344.115 214.64C349.864 214.64 363.229 213.279 363.229 200.564C363.229 192.886 361.625 191.342 344.034 182.669L334.609 178.017C317.1 169.445 303.328 162.641 303.328 140.703C303.328 119.517 320.106 104.709 344.095 104.709C368.206 104.709 384.415 119.151 384.415 140.703C384.415 146.675 379.54 151.529 373.589 151.529C367.617 151.529 362.762 146.675 362.762 140.703C362.762 127.764 349.722 126.383 344.116 126.383C338.367 126.383 325.002 127.764 325.002 140.703C325.002 148.422 326.627 149.925 344.177 158.578L353.642 163.23C371.111 171.863 384.862 178.646 384.862 200.564C384.903 221.953 368.511 236.314 344.136 236.314H344.115Z" fill="#19EF88"/>
<path d="M342.976 102.924C340.153 102.924 337.35 101.847 335.176 99.6736C333.47 97.7236 332.15 95.1236 332.15 92.0972C332.15 89.2738 333.47 86.2472 335.4 84.2972C339.3 80.6207 346.45 80.3972 350.553 84.2972C352.747 86.5113 353.803 89.2738 353.803 92.0972C353.803 94.9207 352.706 97.7236 350.756 99.6736C348.623 101.847 345.82 102.924 342.997 102.924H342.976Z" fill="#19EF88"/>
<path d="M332.171 92.0764H353.844V118.259H332.171V92.0764Z" fill="#19EF88"/>
<path d="M342.976 260C340.153 260 337.35 258.923 335.4 256.75C333.206 254.8 332.15 251.977 332.15 249.174C332.15 246.35 333.227 243.547 335.4 241.597C339.3 237.474 346.45 237.474 350.553 241.353C352.747 243.568 353.803 246.33 353.803 249.153C353.803 251.977 352.706 254.78 350.756 256.73C348.624 258.924 345.82 260 342.997 260L342.976 260Z" fill="#19EF88"/>
<path d="M332.171 222.971H353.844V249.154H332.171V222.971Z" fill="#19EF88"/>
</svg>
