<svg width="13" height="13" viewBox="0 0 13 13" fill="none" xmlns="http://www.w3.org/2000/svg">
<path d="M6.5 0.000161446C4.77579 0.000161446 3.12291 0.684769 1.90383 1.90397C0.684633 3.12315 0 4.77605 0 6.50008C0 8.22411 0.684617 9.87713 1.90383 11.0962C3.12302 12.3154 4.77595 13 6.5 13C8.22405 13 9.87709 12.3154 11.0962 11.0962C12.3154 9.87701 13 8.22411 13 6.50008C12.9987 4.77654 12.3135 3.12368 11.0949 1.9051C9.87631 0.686545 8.22356 0.00145249 6.5 0.000161446ZM6.9438 9.45851C6.82781 9.57891 6.66706 9.647 6.5 9.647C6.41616 9.647 6.33358 9.62872 6.25793 9.59342C6.18228 9.56253 6.11356 9.51651 6.0562 9.45851C5.93831 9.34126 5.87213 9.18178 5.87213 9.01472C5.87276 8.8483 5.93895 8.68881 6.0562 8.57092C6.11483 8.51481 6.18354 8.46943 6.25793 8.43665C6.49306 8.34019 6.76288 8.39315 6.9438 8.57092C7.0018 8.62892 7.04719 8.69763 7.07808 8.77265C7.11212 8.84892 7.12914 8.93151 7.12788 9.01472C7.12788 9.18178 7.06168 9.34125 6.9438 9.45851ZM7.12787 6.50008C7.12787 6.84679 6.84671 7.12795 6.5 7.12795C6.15329 7.12795 5.87213 6.84679 5.87213 6.50008V3.98545C5.87086 3.81776 5.93643 3.65638 6.05431 3.53788C6.1722 3.41873 6.33232 3.35192 6.5 3.35192C6.66768 3.35192 6.8278 3.41874 6.94569 3.53788C7.06357 3.65639 7.12913 3.81778 7.12787 3.98545V6.50008Z" fill="#E10000"/>
</svg>
