<svg width="65" height="65" viewBox="0 0 65 65" fill="none" xmlns="http://www.w3.org/2000/svg">
<path d="M32.5 65C14.5795 65 0 50.4205 0 32.5C0 14.5795 14.5795 0 32.5 0C50.4205 0 65 14.5795 65 32.5C65 50.4205 50.4205 65 32.5 65ZM32.5 2.7092C16.0745 2.7092 2.7092 16.0745 2.7092 32.5C2.7092 48.9229 16.0745 62.2908 32.5 62.2908C48.9229 62.2908 62.2908 48.9229 62.2908 32.5C62.2908 16.0745 48.9229 2.7092 32.5 2.7092V2.7092Z" fill="white"/>
<path d="M32.5 56.875C19.0606 56.875 8.125 45.9394 8.125 32.5C8.125 31.7536 8.73183 31.1467 9.4783 31.1467C10.2248 31.1467 10.8316 31.7536 10.8316 32.5C10.8316 44.4464 20.551 54.1658 32.4974 54.1658C44.4437 54.1658 54.1632 44.4464 54.1632 32.5C54.1632 31.7536 54.7726 31.1467 55.5165 31.1467C56.2604 31.1467 56.8698 31.7536 56.8698 32.5C56.8698 45.9394 45.9342 56.875 32.4948 56.875H32.5Z" fill="white"/>
<path d="M21.346 29.5392C18.2966 29.5392 16.2501 27.7441 16.2501 25.0705C16.2501 24.3291 16.8569 23.7172 17.6034 23.7172C18.3499 23.7172 18.9567 24.3266 18.9567 25.0705C18.9567 26.6599 20.6274 26.83 21.346 26.83C22.0645 26.83 23.7327 26.6599 23.7327 25.0705C23.7327 24.1107 23.5321 23.9178 21.3358 22.8336L20.1577 22.2521C17.9716 21.1807 16.2476 20.3301 16.2476 17.5879C16.2476 14.9396 18.3448 13.0886 21.3434 13.0886C24.3573 13.0886 26.3835 14.8939 26.3835 17.5879C26.3835 18.3343 25.7766 18.9412 25.0302 18.9412C24.2837 18.9412 23.6769 18.3343 23.6769 17.5879C23.6769 15.9705 22.0468 15.7978 21.346 15.7978C20.6275 15.7978 18.9568 15.9705 18.9568 17.5879C18.9568 18.5527 19.1599 18.7406 21.3536 19.8222L22.5343 20.4037C24.7179 21.4828 26.4394 22.3308 26.4394 25.0705C26.4419 27.7441 24.3954 29.5392 21.3486 29.5392H21.346Z" fill="white"/>
<path d="M21.2063 12.8655C20.8533 12.8655 20.503 12.7309 20.2592 12.4593C19.9875 12.2155 19.853 11.8626 19.853 11.5122C19.853 11.1593 19.9875 10.8089 20.2592 10.5652C20.8 10.0497 21.6405 10.0497 22.1559 10.5347C22.4276 10.8114 22.5622 11.1568 22.5622 11.5097C22.5622 11.8626 22.4276 12.213 22.1838 12.4567C21.9122 12.731 21.5618 12.8655 21.2088 12.8655L21.2063 12.8655Z" fill="white"/>
<path d="M19.8555 11.5095H22.5647V14.7824H19.8555V11.5095Z" fill="white"/>
<path d="M21.2063 32.5C20.8533 32.5 20.503 32.3655 20.2592 32.0938C19.9875 31.85 19.853 31.4971 19.853 31.1467C19.853 30.7938 19.9875 30.4434 20.2592 30.1997C20.7746 29.6843 21.6684 29.6843 22.1813 30.1997C22.425 30.4409 22.5596 30.7964 22.5596 31.1467C22.5596 31.4997 22.425 31.85 22.1813 32.0938C21.9096 32.3655 21.5592 32.5 21.2063 32.5Z" fill="white"/>
<path d="M19.8555 27.8713H22.5647V31.1442H19.8555V27.8713Z" fill="white"/>
<path d="M43.0144 29.5392C39.965 29.5392 37.9186 27.7441 37.9186 25.0705C37.9186 24.3291 38.5279 23.7172 39.2719 23.7172C40.0158 23.7172 40.6252 24.3291 40.6252 25.0705C40.6252 26.6599 42.2958 26.83 43.0144 26.83C43.733 26.83 45.4037 26.6599 45.4037 25.0705C45.4037 24.1107 45.2031 23.9178 43.0043 22.8336L41.8262 22.2521C39.6375 21.1807 37.916 20.3301 37.916 17.5879C37.916 14.9396 40.0133 13.0886 43.0119 13.0886C46.0257 13.0886 48.0519 14.8939 48.0519 17.5879C48.0519 18.3343 47.4425 18.9412 46.6986 18.9412C45.9522 18.9412 45.3453 18.3343 45.3453 17.5879C45.3453 15.9705 43.7153 15.7978 43.0145 15.7978C42.2959 15.7978 40.6252 15.9705 40.6252 17.5879C40.6252 18.5527 40.8283 18.7406 43.0221 19.8222L44.2053 20.4037C46.3889 21.4828 48.1078 22.3308 48.1078 25.0705C48.1129 27.7441 46.0639 29.5392 43.017 29.5392H43.0144Z" fill="white"/>
<path d="M42.8721 12.8654C42.5191 12.8654 42.1688 12.7308 41.8971 12.4592C41.6838 12.2154 41.5187 11.8904 41.5187 11.5121C41.5187 11.1592 41.6838 10.7809 41.925 10.5371C42.4125 10.0775 43.3062 10.0496 43.8192 10.5371C44.0934 10.8139 44.2254 11.1592 44.2254 11.5121C44.2254 11.865 44.0883 12.2154 43.8445 12.4592C43.5779 12.7308 43.2275 12.8654 42.8746 12.8654H42.8721Z" fill="white"/>
<path d="M41.5214 11.5095H44.2306V14.7824H41.5214V11.5095Z" fill="white"/>
<path d="M42.872 32.5C42.5191 32.5 42.1687 32.3655 41.925 32.0938C41.6508 31.85 41.5187 31.4971 41.5187 31.1467C41.5187 30.7938 41.6533 30.4434 41.925 30.1997C42.4125 29.6842 43.3062 29.6842 43.8192 30.1692C44.0934 30.446 44.2254 30.7913 44.2254 31.1442C44.2254 31.4971 44.0883 31.8475 43.8445 32.0913C43.5779 32.3655 43.2275 32.5 42.8746 32.5L42.872 32.5Z" fill="white"/>
<path d="M41.5214 27.8713H44.2306V31.1442H41.5214V27.8713Z" fill="white"/>
</svg>
