<svg width="23" height="23" viewBox="0 0 23 23" fill="none" xmlns="http://www.w3.org/2000/svg">
<mask id="mask0_1851_2887" style="mask-type:alpha" maskUnits="userSpaceOnUse" x="0" y="0" width="23" height="23">
<rect width="23" height="23" fill="white"/>
</mask>
<g mask="url(#mask0_1851_2887)">
<path fill-rule="evenodd" clip-rule="evenodd" d="M0 0H23V23H0V0Z" fill="#E31D1C"/>
<path fill-rule="evenodd" clip-rule="evenodd" d="M0 1.91663V3.83329H23V1.91663H0ZM0 5.74996V7.66663H23V5.74996H0ZM0 11.5V9.58329H23V11.5H0ZM0 13.4166V15.3333H23V13.4166H0ZM0 19.1666V17.25H23V19.1666H0ZM0 23V21.0833H23V23H0Z" fill="#F7FCFF"/>
<rect width="12.9375" height="13.4167" fill="#2E42A5"/>
<path fill-rule="evenodd" clip-rule="evenodd" d="M1.49503 4.16639L2.25679 3.45889L2.84769 4.02609H2.51312L3.18971 4.824L2.96119 5.94276H2.60327L2.25573 4.91524L1.95934 5.94276H1.07562L1.75221 6.74066L1.49503 7.99972L2.25679 7.29222L2.84769 7.85943H2.51312L3.18971 8.65733L2.96119 9.77609H2.60327L2.25573 8.74858L1.95934 9.77609H1.07562L1.75221 10.574L1.49503 11.8331L2.25679 11.1256L2.99385 11.8331L2.76469 10.574L3.35661 9.77609H3.08359L3.69429 9.20889L4.28519 9.77609H3.95062L4.62721 10.574L4.37003 11.8331L5.13179 11.1256L5.86885 11.8331L5.63969 10.574L6.23161 9.77609H5.95859L6.56929 9.20889L7.16019 9.77609H6.82562L7.50221 10.574L7.24503 11.8331L8.00679 11.1256L8.74384 11.8331L8.51469 10.574L9.10661 9.77609H8.83359L9.44429 9.20889L10.0352 9.77609H9.70062L10.3772 10.574L10.12 11.8331L10.8818 11.1256L11.6188 11.8331L11.3897 10.574L11.9816 9.77609H11.2283L10.8807 8.74858L10.5843 9.77609H10.1558L9.95219 8.65733L10.5441 7.85943H10.2711L10.8818 7.29222L11.6188 7.99972L11.3897 6.74066L11.9816 5.94276H11.2283L10.8807 4.91524L10.5843 5.94276H10.1558L9.95219 4.824L10.5441 4.02609H10.2711L10.8818 3.45889L11.6188 4.16639L11.3897 2.90733L11.9816 2.10943H11.2283L10.8807 1.08191L10.5843 2.10943H9.70062L10.3772 2.90733L10.1487 4.02609H9.79077L9.44323 2.99858L9.14684 4.02609H8.71831L8.51469 2.90733L9.10661 2.10943H8.35327L8.00572 1.08191L7.70934 2.10943H6.82562L7.50221 2.90733L7.27369 4.02609H6.91577L6.56823 2.99858L6.27184 4.02609H5.84331L5.63969 2.90733L6.23161 2.10943H5.47827L5.13073 1.08191L4.83434 2.10943H3.95062L4.62721 2.90733L4.39869 4.02609H4.04077L3.69323 2.99858L3.39684 4.02609H2.96831L2.76469 2.90733L3.35661 2.10943H2.60327L2.25573 1.08191L1.95934 2.10943H1.07562L1.75221 2.90733L1.49503 4.16639ZM10.1487 7.85943L10.3772 6.74066L9.70062 5.94276H10.0352L9.44429 5.37556L8.83359 5.94276H9.10661L8.51469 6.74066L8.71831 7.85943H9.14684L9.44323 6.83191L9.79077 7.85943H10.1487ZM8.59769 7.85943L8.00679 7.29222L7.39609 7.85943H7.66911L7.07719 8.65733L7.28081 9.77609H7.70934L8.00572 8.74858L8.35327 9.77609H8.71119L8.93971 8.65733L8.26312 7.85943H8.59769ZM6.06471 8.65733L5.83619 9.77609H5.47827L5.13073 8.74858L4.83434 9.77609H4.40581L4.20219 8.65733L4.79411 7.85943H4.52109L5.13179 7.29222L5.72269 7.85943H5.38812L6.06471 8.65733ZM6.27184 7.85943H5.84331L5.63969 6.74066L6.23161 5.94276H5.95859L6.56929 5.37556L7.16019 5.94276H6.82562L7.50221 6.74066L7.27369 7.85943H6.91577L6.56823 6.83191L6.27184 7.85943ZM4.39869 7.85943L4.62721 6.74066L3.95062 5.94276H4.28519L3.69429 5.37556L3.08359 5.94276H3.35661L2.76469 6.74066L2.96831 7.85943H3.39684L3.69323 6.83191L4.04077 7.85943H4.39869ZM8.93971 4.824L8.71119 5.94276H8.35327L8.00572 4.91524L7.70934 5.94276H7.28081L7.07719 4.824L7.66911 4.02609H7.39609L8.00679 3.45889L8.59769 4.02609H8.26312L8.93971 4.824ZM5.72269 4.02609L5.13179 3.45889L4.52109 4.02609H4.79411L4.20219 4.824L4.40581 5.94276H4.83434L5.13073 4.91524L5.47827 5.94276H5.83619L6.06471 4.824L5.38812 4.02609H5.72269Z" fill="#F7FCFF"/>
</g>
<rect width="23" height="23" rx="11.5" fill="url(#paint0_linear_1851_2887)" style="mix-blend-mode:overlay"/>
<rect x="0.5" y="0.5" width="22" height="22" rx="11" stroke="black" stroke-opacity="0.1"/>
<defs>
<linearGradient id="paint0_linear_1851_2887" x1="11.5" y1="0" x2="11.5" y2="23" gradientUnits="userSpaceOnUse">
<stop stop-color="white" stop-opacity="0.7"/>
<stop offset="1" stop-opacity="0.3"/>
</linearGradient>
</defs>
</svg>
