<svg width="23" height="23" viewBox="0 0 23 23" fill="none" xmlns="http://www.w3.org/2000/svg">
<mask id="mask0_2402_3274" style="mask-type:alpha" maskUnits="userSpaceOnUse" x="0" y="0" width="23" height="23">
<rect width="23" height="23" rx="-1" fill="white"/>
</mask>
<g mask="url(#mask0_2402_3274)">
<path fill-rule="evenodd" clip-rule="evenodd" d="M0 0H23V23H0V0Z" fill="#F50100"/>
<path d="M11.416 14.3576C11.348 14.3431 11.2814 14.3223 11.2167 14.2954C10.2319 15.3167 9.28322 16.0101 8.36571 16.3692C7.98482 16.5183 7.58542 16.2274 7.47363 15.7196C7.36183 15.2117 7.57997 14.6792 7.96086 14.5301C8.5276 14.3083 9.13153 13.9095 9.77033 13.3308C9.35051 13.4209 8.91554 13.5196 8.65461 13.594C8.44117 13.6549 8.18488 13.8312 7.93937 14.0001C7.46106 14.3292 7.02366 14.6301 7.02366 13.9942C7.02366 13.0319 7.44353 12.7441 8.22264 12.3091C8.79579 11.9892 9.15747 11.999 9.50591 12.0084C9.63112 12.0118 9.75463 12.0151 9.88562 12.0031C9.95901 11.9964 10.0378 11.985 10.1187 11.9704L10.095 11.7912C10.0224 11.7787 9.95182 11.7688 9.88562 11.7627C9.75463 11.7507 9.63113 11.754 9.50592 11.7574C9.15748 11.7669 8.79579 11.7767 8.22264 11.4567C7.44353 11.0217 7.02366 10.7339 7.02366 9.77164C7.02366 9.13573 7.46106 9.43665 7.93937 9.76572C8.18488 9.93462 8.44116 10.1109 8.65461 10.1718C8.94671 10.2551 9.45692 10.3689 9.91983 10.4669L9.90861 10.3821C9.81284 10.3088 9.72369 10.2246 9.6461 10.1281C9.32303 9.72615 9.05896 9.65914 8.73117 9.57597C8.51254 9.5205 8.26557 9.45783 7.95384 9.28379C7.17473 8.84882 6.70555 7.9989 6.70555 7.03658C6.70555 6.41188 7.10949 6.81711 7.59037 7.29952C7.85025 7.56023 8.1326 7.84348 8.38581 7.9989C8.63543 8.15211 8.89046 8.27536 9.12372 8.38809C9.36289 8.50368 9.57916 8.6082 9.74323 8.7226C9.74637 8.6803 9.75057 8.63836 9.75578 8.59684C9.66944 8.51398 9.59499 8.41583 9.53902 8.29958C9.15693 7.50607 8.64424 7.21984 7.86994 6.78756L7.86133 6.78276C7.08222 6.34779 6.61304 5.49786 6.61304 4.53555C6.61304 3.91084 7.01698 4.31607 7.49786 4.79849C7.75774 5.0592 8.04009 5.34245 8.2933 5.49786C9.01503 5.94084 9.5699 6.32205 9.92251 7.21773C9.99116 7.39212 10.0613 7.51421 10.1298 7.59776C10.2181 7.47325 10.3188 7.36426 10.4294 7.27457C10.2808 5.8414 10.0295 5.12175 9.79176 5.06278C9.4015 4.96597 9.144 4.46567 9.2166 3.94533C9.28921 3.42498 9.66443 3.08164 10.0547 3.17845C11.0152 3.41671 11.5606 4.60523 11.8171 6.68666C12.0737 4.60523 12.619 3.41671 13.5795 3.17845C13.9698 3.08164 14.345 3.42498 14.4176 3.94533C14.4902 4.46567 14.2327 4.96597 13.8425 5.06278C13.6054 5.12159 13.3547 5.83768 13.206 7.26348C13.3324 7.33599 13.4488 7.43176 13.5526 7.54629C13.6086 7.4663 13.6653 7.35923 13.721 7.21773C14.0736 6.32205 14.6285 5.94084 15.3502 5.49786C15.6034 5.34245 15.8858 5.0592 16.1456 4.79849C16.6265 4.31608 17.0305 3.91084 17.0305 4.53555C17.0305 5.49786 16.5613 6.34779 15.7822 6.78276L15.7736 6.78757C14.9993 7.21984 14.4866 7.50607 14.1045 8.29958C14.0773 8.35596 14.0458 8.40809 14.0108 8.45627C14.0242 8.51358 14.0356 8.57194 14.0449 8.63116C14.1835 8.55061 14.3456 8.47229 14.5198 8.38809C14.753 8.27536 15.0081 8.1521 15.2577 7.9989C15.5109 7.84348 15.7933 7.56023 16.0531 7.29952C16.534 6.81711 16.938 6.41188 16.938 7.03658C16.938 7.9989 16.4688 8.84882 15.6897 9.28379C15.3779 9.45783 15.131 9.5205 14.9123 9.57597C14.5845 9.65914 14.3205 9.72615 13.9974 10.1281C13.9751 10.1558 13.952 10.1824 13.9279 10.2081L13.8952 10.4303C14.3081 10.3415 14.7325 10.2449 14.9889 10.1718C15.2023 10.1109 15.4586 9.93462 15.7041 9.76572C16.1824 9.43665 16.6198 9.13573 16.6198 9.77164C16.6198 10.7339 16.2 11.0217 15.4209 11.4567C14.8477 11.7767 14.486 11.7669 14.1376 11.7574C14.0124 11.754 13.8889 11.7507 13.7579 11.7627C13.7382 11.7645 13.7181 11.7667 13.6977 11.7691L13.6648 11.9925C13.6966 11.9968 13.7277 12.0003 13.7579 12.0031C13.8889 12.0151 14.0124 12.0118 14.1376 12.0084C14.486 11.999 14.8477 11.9892 15.4209 12.3091C16.2 12.7441 16.6198 13.0319 16.6198 13.9942C16.6198 14.6301 16.1824 14.3292 15.7041 14.0001C15.4586 13.8312 15.2023 13.6549 14.9889 13.594C14.7402 13.5231 14.3335 13.4301 13.9324 13.3435C14.566 13.9154 15.1652 14.3099 15.7278 14.5301C16.1087 14.6792 16.3268 15.2117 16.215 15.7196C16.1032 16.2274 15.7038 16.5183 15.3229 16.3692C14.4125 16.0129 13.4715 15.3275 12.4948 14.3192C12.4548 14.3332 12.4141 14.3449 12.3728 14.3543C12.5483 15.3978 13.9218 16.2587 13.9218 16.2587C13.9218 16.2587 12.1674 20.7601 11.889 20.7601C11.6107 20.7601 9.74461 16.2587 9.74461 16.2587C10.7216 15.7747 11.2299 14.7949 11.416 14.3576Z" fill="#1A1A1A"/>
</g>
<rect width="23" height="23" rx="11.5" fill="url(#paint0_linear_2402_3274)" style="mix-blend-mode:overlay"/>
<rect x="0.5" y="0.5" width="22" height="22" rx="11" stroke="black" stroke-opacity="0.1"/>
<defs>
<linearGradient id="paint0_linear_2402_3274" x1="11.5" y1="0" x2="11.5" y2="23" gradientUnits="userSpaceOnUse">
<stop stop-color="white" stop-opacity="0.7"/>
<stop offset="1" stop-opacity="0.3"/>
</linearGradient>
</defs>
</svg>
