<svg width="23" height="23" viewBox="0 0 23 23" fill="none" xmlns="http://www.w3.org/2000/svg">
<mask id="mask0_2402_3714" style="mask-type:alpha" maskUnits="userSpaceOnUse" x="0" y="0" width="23" height="23">
<rect width="23" height="23" fill="white"/>
</mask>
<g mask="url(#mask0_2402_3714)">
<path fill-rule="evenodd" clip-rule="evenodd" d="M0 0H10.0625V13.4167H0V0Z" fill="#3D58DB"/>
<path fill-rule="evenodd" clip-rule="evenodd" d="M10.0625 -1.9165H23V13.4168H10.0625V-1.9165Z" fill="#F7FCFF"/>
<path fill-rule="evenodd" clip-rule="evenodd" d="M0 13.417H23V23.0003H0V13.417Z" fill="#E31D1C"/>
<path fill-rule="evenodd" clip-rule="evenodd" d="M5.04157 9.37603L2.30769 11.5529L3.6569 7.84905L1.2677 5.44344L4.02589 5.40406L5.06642 2.11963L5.73638 5.40406L8.34705 5.42046L6.36141 7.77333L7.39251 11.5529L5.04157 9.37603Z" fill="#F7FCFF"/>
</g>
<rect width="23" height="23" rx="11.5" fill="url(#paint0_linear_2402_3714)" style="mix-blend-mode:overlay"/>
<rect x="0.5" y="0.5" width="22" height="22" rx="11" stroke="black" stroke-opacity="0.1"/>
<defs>
<linearGradient id="paint0_linear_2402_3714" x1="11.5" y1="0" x2="11.5" y2="23" gradientUnits="userSpaceOnUse">
<stop stop-color="white" stop-opacity="0.7"/>
<stop offset="1" stop-opacity="0.3"/>
</linearGradient>
</defs>
</svg>
