<svg width="23" height="23" viewBox="0 0 23 23" fill="none" xmlns="http://www.w3.org/2000/svg">
<mask id="mask0_2402_3849" style="mask-type:alpha" maskUnits="userSpaceOnUse" x="0" y="0" width="23" height="23">
<rect width="23" height="23" fill="white"/>
</mask>
<g mask="url(#mask0_2402_3849)">
<path fill-rule="evenodd" clip-rule="evenodd" d="M0 11.5H23V23H0V11.5Z" fill="#C51918"/>
<mask id="mask1_2402_3849" style="mask-type:alpha" maskUnits="userSpaceOnUse" x="0" y="11" width="23" height="12">
<path fill-rule="evenodd" clip-rule="evenodd" d="M0 11.5H23V23H0V11.5Z" fill="white"/>
</mask>
<g mask="url(#mask1_2402_3849)">
<path fill-rule="evenodd" clip-rule="evenodd" d="M8.625 19.1668C11.8006 19.1668 14.375 15.7343 14.375 11.5002C14.375 7.26598 11.8006 3.8335 8.625 3.8335C5.44936 3.8335 2.875 7.26598 2.875 11.5002C2.875 15.7343 5.44936 19.1668 8.625 19.1668Z" fill="#F7FCFF"/>
</g>
<path fill-rule="evenodd" clip-rule="evenodd" d="M0 0H23V11.5H0V0Z" fill="#F7FCFF"/>
<mask id="mask2_2402_3849" style="mask-type:alpha" maskUnits="userSpaceOnUse" x="0" y="0" width="23" height="12">
<path fill-rule="evenodd" clip-rule="evenodd" d="M0 0H23V11.5H0V0Z" fill="white"/>
</mask>
<g mask="url(#mask2_2402_3849)">
<path fill-rule="evenodd" clip-rule="evenodd" d="M8.625 19.1668C11.8006 19.1668 14.375 15.7343 14.375 11.5002C14.375 7.26598 11.8006 3.8335 8.625 3.8335C5.44936 3.8335 2.875 7.26598 2.875 11.5002C2.875 15.7343 5.44936 19.1668 8.625 19.1668Z" fill="#C51918"/>
</g>
</g>
<rect width="23" height="23" rx="11.5" fill="url(#paint0_linear_2402_3849)" style="mix-blend-mode:overlay"/>
<rect x="0.5" y="0.5" width="22" height="22" rx="11" stroke="black" stroke-opacity="0.1"/>
<defs>
<linearGradient id="paint0_linear_2402_3849" x1="11.5" y1="0" x2="11.5" y2="23" gradientUnits="userSpaceOnUse">
<stop stop-color="white" stop-opacity="0.7"/>
<stop offset="1" stop-opacity="0.3"/>
</linearGradient>
</defs>
</svg>
