<svg width="23" height="23" viewBox="0 0 23 23" fill="none" xmlns="http://www.w3.org/2000/svg">
<mask id="mask0_2441_4141" style="mask-type:alpha" maskUnits="userSpaceOnUse" x="0" y="0" width="23" height="23">
<rect width="23" height="23" fill="white"/>
</mask>
<g mask="url(#mask0_2441_4141)">
<path fill-rule="evenodd" clip-rule="evenodd" d="M0 0V23H23V0H0Z" fill="#F7FCFF"/>
<mask id="mask1_2441_4141" style="mask-type:alpha" maskUnits="userSpaceOnUse" x="0" y="0" width="23" height="23">
<path fill-rule="evenodd" clip-rule="evenodd" d="M0 0V23H23V0H0Z" fill="white"/>
</mask>
<g mask="url(#mask1_2441_4141)">
<path fill-rule="evenodd" clip-rule="evenodd" d="M0 0V7.66667H23V0H0Z" fill="#BF2714"/>
<path fill-rule="evenodd" clip-rule="evenodd" d="M0 15.3335V23.0002H23V15.3335H0Z" fill="#272727"/>
<path fill-rule="evenodd" clip-rule="evenodd" d="M3.8357 12.2774C4.48948 13.5284 3.59375 14.375 3.59375 14.375C3.59375 14.375 4.37682 14.375 4.67672 13.5371H11.0861V11.6915C11.0861 11.6915 10.952 10.8052 10.3813 10.8052C9.81059 10.8052 9.68199 11.6915 9.68199 11.6915H7.42765L9.60884 9.12416L9.18475 8.625L6.76201 11.4766V12.0812H10.2013V11.7253C10.2013 11.7253 10.2206 11.5193 10.3813 11.5193C10.542 11.5193 10.5029 11.7253 10.5029 11.7253V12.4855H6.16875V11.446L5.69946 11.7253V12.4855C5.69946 12.4855 5.1247 12.2774 4.76147 12.2774C4.39825 12.2774 4.37682 11.7253 4.37682 11.7253L3.8357 12.2774ZM12.5397 12.3484L12.8912 13.5154H11.4926V8.83044L12.0825 9.08225V12.3484H12.5397ZM19.0548 12.3484L19.4062 13.5154H18.0076V8.83044L18.5976 9.08225V12.3484H19.0548ZM17.3229 8.87892L16.9585 9.20781V12.3452H16.5873V9.82894L15.9758 10.299V12.3452H15.5654V10.9245L15.1005 11.3234V11.7091C15.1005 11.7091 14.2063 11.7913 14.2063 13.4769H17.3193L17.3229 8.87892ZM5.38472 14.3421C5.49716 14.3421 5.58831 14.2348 5.58831 14.1024C5.58831 13.9701 5.49716 13.8628 5.38472 13.8628C5.27228 13.8628 5.18112 13.9701 5.18112 14.1024C5.18112 14.2348 5.27228 14.3421 5.38472 14.3421ZM15.7511 9.23993C15.593 9.51776 15.1133 9.23993 15.1133 9.23993L16.4736 9.02979C16.3331 9.39548 15.7511 9.23993 15.7511 9.23993Z" fill="#009C4E"/>
<path d="M3.59375 14.375L3.42203 14.1933L2.96528 14.625H3.59375V14.375ZM3.8357 12.2774L3.65716 12.1024L3.52998 12.2322L3.61413 12.3932L3.8357 12.2774ZM4.67672 13.5371V13.2871H4.50067L4.44134 13.4528L4.67672 13.5371ZM11.0861 13.5371V13.7871H11.3361V13.5371H11.0861ZM11.0861 11.6915H11.3361V11.6727L11.3333 11.6541L11.0861 11.6915ZM9.68199 11.6915V11.9415H9.89834L9.9294 11.7274L9.68199 11.6915ZM7.42765 11.6915L7.23712 11.5296L6.8872 11.9415H7.42765V11.6915ZM9.60884 9.12416L9.79936 9.28603L9.93688 9.12416L9.79936 8.9623L9.60884 9.12416ZM9.18475 8.625L9.37527 8.46313L9.18475 8.23888L8.99423 8.46313L9.18475 8.625ZM6.76201 11.4766L6.57149 11.3148L6.51201 11.3848V11.4766H6.76201ZM6.76201 12.0812H6.51201V12.3312H6.76201V12.0812ZM10.2013 12.0812V12.3312H10.4513V12.0812H10.2013ZM10.2013 11.7253L9.9524 11.702L9.95131 11.7136V11.7253H10.2013ZM10.5029 11.7253L10.2573 11.6787L10.2529 11.7018V11.7253H10.5029ZM10.5029 12.4855V12.7355H10.7529V12.4855H10.5029ZM6.16875 12.4855H5.91875V12.7355H6.16875V12.4855ZM6.16875 11.446H6.41875V11.0063L6.0409 11.2312L6.16875 11.446ZM5.69946 11.7253L5.57161 11.5105L5.44946 11.5832V11.7253H5.69946ZM5.69946 12.4855L5.61434 12.7206L5.94946 12.8419V12.4855H5.69946ZM4.37682 11.7253L4.62663 11.7156L4.60414 11.1362L4.19828 11.5503L4.37682 11.7253ZM12.8912 13.5154V13.7654H13.2276L13.1306 13.4433L12.8912 13.5154ZM12.5397 12.3484L12.7791 12.2763L12.7255 12.0984H12.5397V12.3484ZM11.4926 13.5154H11.2426V13.7654H11.4926V13.5154ZM11.4926 8.83044L11.5907 8.60051L11.2426 8.45192V8.83044H11.4926ZM12.0825 9.08225H12.3325V8.91714L12.1807 8.85232L12.0825 9.08225ZM12.0825 12.3484H11.8325V12.5984H12.0825V12.3484ZM19.4062 13.5154V13.7654H19.7426L19.6456 13.4433L19.4062 13.5154ZM19.0548 12.3484L19.2941 12.2763L19.2406 12.0984H19.0548V12.3484ZM18.0076 13.5154H17.7576V13.7654H18.0076V13.5154ZM18.0076 8.83044L18.1057 8.60051L17.7576 8.45192V8.83044H18.0076ZM18.5976 9.08225H18.8476V8.91714L18.6957 8.85232L18.5976 9.08225ZM18.5976 12.3484H18.3476V12.5984H18.5976V12.3484ZM16.9585 9.20781L16.791 9.02222L16.7085 9.09667V9.20781H16.9585ZM17.3229 8.87892L17.5729 8.87912L17.5734 8.31615L17.1554 8.69333L17.3229 8.87892ZM16.9585 12.3452V12.5952H17.2085V12.3452H16.9585ZM16.5873 12.3452H16.3373V12.5952H16.5873V12.3452ZM16.5873 9.82894H16.8373V9.32144L16.4349 9.63074L16.5873 9.82894ZM15.9758 10.299L15.8234 10.1008L15.7258 10.1759V10.299H15.9758ZM15.9758 12.3452V12.5952H16.2258V12.3452H15.9758ZM15.5654 12.3452H15.3154V12.5952H15.5654V12.3452ZM15.5654 10.9245H15.8154V10.3806L15.4026 10.7348L15.5654 10.9245ZM15.1005 11.3234L14.9377 11.1337L14.8505 11.2085V11.3234H15.1005ZM15.1005 11.7091L15.1234 11.9581L15.3505 11.9372V11.7091H15.1005ZM14.2063 13.4769H13.9563V13.7269H14.2063V13.4769ZM17.3193 13.4769V13.7269H17.5691L17.5693 13.4771L17.3193 13.4769ZM15.1133 9.23993L15.0751 8.99286L14.3746 9.10106L14.988 9.45626L15.1133 9.23993ZM15.7511 9.23993L15.8156 8.9984L15.6292 8.94858L15.5338 9.11631L15.7511 9.23993ZM16.4736 9.02979L16.7069 9.11945L16.8616 8.71689L16.4354 8.78272L16.4736 9.02979ZM3.59375 14.375C3.76547 14.5567 3.76557 14.5566 3.76568 14.5565C3.76572 14.5565 3.76583 14.5564 3.76591 14.5563C3.76606 14.5561 3.76624 14.556 3.76642 14.5558C3.76679 14.5554 3.76722 14.555 3.7677 14.5546C3.76866 14.5536 3.76983 14.5525 3.77121 14.5512C3.77396 14.5485 3.77754 14.5449 3.78186 14.5405C3.7905 14.5317 3.80213 14.5196 3.81613 14.5041C3.84409 14.4733 3.88172 14.4292 3.92391 14.3726C4.008 14.2598 4.11205 14.0951 4.19309 13.8854C4.35781 13.4592 4.42163 12.8588 4.05727 12.1616L3.61413 12.3932C3.90354 12.947 3.84639 13.3955 3.7267 13.7052C3.66552 13.8635 3.5865 13.9887 3.52308 14.0737C3.49151 14.1161 3.46426 14.1479 3.4458 14.1682C3.43658 14.1784 3.4296 14.1856 3.42544 14.1899C3.42336 14.192 3.42198 14.1933 3.42139 14.1939C3.42109 14.1942 3.42099 14.1943 3.42109 14.1942C3.42115 14.1941 3.42125 14.194 3.4214 14.1939C3.42148 14.1938 3.42157 14.1937 3.42168 14.1936C3.42173 14.1936 3.42182 14.1935 3.42184 14.1935C3.42193 14.1934 3.42203 14.1933 3.59375 14.375ZM4.44134 13.4528C4.31779 13.798 4.10168 13.9608 3.92036 14.0422C3.8272 14.084 3.74128 14.105 3.67946 14.1153C3.64875 14.1205 3.62465 14.1229 3.60944 14.1241C3.60185 14.1246 3.59655 14.1249 3.59382 14.125C3.59246 14.125 3.59174 14.125 3.59172 14.125C3.59171 14.125 3.59187 14.125 3.5922 14.125C3.59237 14.125 3.59258 14.125 3.59284 14.125C3.59297 14.125 3.59311 14.125 3.59326 14.125C3.59334 14.125 3.59346 14.125 3.5935 14.125C3.59362 14.125 3.59375 14.125 3.59375 14.375C3.59375 14.625 3.59388 14.625 3.59402 14.625C3.59407 14.625 3.59421 14.625 3.59431 14.625C3.59451 14.625 3.59472 14.625 3.59494 14.625C3.59539 14.625 3.59589 14.625 3.59644 14.625C3.59753 14.625 3.59881 14.625 3.60029 14.6249C3.60325 14.6249 3.60697 14.6248 3.61142 14.6246C3.6203 14.6243 3.63212 14.6237 3.64653 14.6227C3.67531 14.6205 3.71473 14.6164 3.76212 14.6085C3.8565 14.5926 3.98509 14.5612 4.12518 14.4983C4.41037 14.3703 4.73575 14.114 4.9121 13.6213L4.44134 13.4528ZM11.0861 13.2871H4.67672V13.7871H11.0861V13.2871ZM10.8361 11.6915V13.5371H11.3361V11.6915H10.8361ZM10.3813 11.0552C10.5135 11.0552 10.6267 11.1545 10.7217 11.3553C10.7654 11.4474 10.7952 11.5422 10.8142 11.6156C10.8235 11.6518 10.83 11.6816 10.8339 11.7018C10.8359 11.7118 10.8373 11.7194 10.8381 11.7241C10.8385 11.7264 10.8388 11.728 10.8389 11.7288C10.8389 11.7292 10.839 11.7295 10.839 11.7295C10.839 11.7295 10.839 11.7294 10.839 11.7293C10.839 11.7293 10.8389 11.7292 10.8389 11.7291C10.8389 11.7291 10.8389 11.729 10.8389 11.729C10.8389 11.7289 10.8389 11.7289 11.0861 11.6915C11.3333 11.6541 11.3333 11.654 11.3332 11.6539C11.3332 11.6539 11.3332 11.6538 11.3332 11.6538C11.3332 11.6536 11.3332 11.6535 11.3332 11.6533C11.3331 11.653 11.333 11.6526 11.333 11.6522C11.3328 11.6514 11.3327 11.6503 11.3325 11.6491C11.3321 11.6465 11.3315 11.6431 11.3308 11.639C11.3294 11.6307 11.3273 11.6192 11.3245 11.605C11.3189 11.5767 11.3104 11.5373 11.2983 11.4904C11.2743 11.3976 11.2349 11.2708 11.1737 11.1414C11.059 10.899 10.8199 10.5552 10.3813 10.5552V11.0552ZM9.68199 11.6915C9.9294 11.7274 9.92939 11.7275 9.92938 11.7275C9.92938 11.7275 9.92937 11.7276 9.92936 11.7276C9.92935 11.7277 9.92934 11.7278 9.92934 11.7278C9.92932 11.7279 9.92931 11.728 9.92931 11.728C9.92932 11.728 9.92935 11.7278 9.92941 11.7274C9.92954 11.7265 9.92979 11.7249 9.93018 11.7226C9.93096 11.7179 9.93227 11.7104 9.93419 11.7003C9.93804 11.6802 9.94427 11.6504 9.9534 11.6142C9.97191 11.5408 10.0012 11.4462 10.0441 11.3541C10.1378 11.1537 10.2498 11.0552 10.3813 11.0552V10.5552C9.9421 10.5552 9.70447 10.8999 9.59112 11.1425C9.53061 11.2721 9.49204 11.399 9.46861 11.4918C9.45676 11.5387 9.44849 11.5782 9.44308 11.6065C9.44036 11.6207 9.43836 11.6321 9.43697 11.6405C9.43628 11.6446 9.43574 11.648 9.43535 11.6505C9.43515 11.6518 9.43499 11.6529 9.43486 11.6537C9.4348 11.6541 9.43474 11.6545 9.4347 11.6548C9.43467 11.655 9.43465 11.6551 9.43463 11.6552C9.43462 11.6553 9.43461 11.6554 9.43461 11.6554C9.43459 11.6555 9.43458 11.6556 9.68199 11.6915ZM7.42765 11.9415H9.68199V11.4415H7.42765V11.9415ZM9.41832 8.9623L7.23712 11.5296L7.61817 11.8534L9.79936 9.28603L9.41832 8.9623ZM8.99423 8.78687L9.41832 9.28603L9.79936 8.9623L9.37527 8.46313L8.99423 8.78687ZM6.95253 11.6385L9.37527 8.78687L8.99423 8.46313L6.57149 11.3148L6.95253 11.6385ZM7.01201 12.0812V11.4766H6.51201V12.0812H7.01201ZM10.2013 11.8312H6.76201V12.3312H10.2013V11.8312ZM9.95131 11.7253V12.0812H10.4513V11.7253H9.95131ZM10.3813 11.2693C10.1659 11.2693 10.0523 11.4176 10.006 11.5134C9.98266 11.5617 9.96991 11.6071 9.96286 11.6385C9.95922 11.6548 9.95679 11.6688 9.95519 11.6795C9.95439 11.6849 9.95379 11.6895 9.95333 11.6933C9.95311 11.6952 9.95292 11.6968 9.95277 11.6983C9.95269 11.699 9.95262 11.6997 9.95256 11.7003C9.95253 11.7006 9.9525 11.7009 9.95247 11.7012C9.95246 11.7013 9.95245 11.7015 9.95243 11.7016C9.95243 11.7017 9.95242 11.7018 9.95241 11.7018C9.95241 11.7019 9.9524 11.702 10.2013 11.7253C10.4502 11.7486 10.4502 11.7487 10.4502 11.7488C10.4502 11.7489 10.4502 11.749 10.4502 11.749C10.4502 11.7491 10.4502 11.7493 10.4501 11.7494C10.4501 11.7496 10.4501 11.7498 10.4501 11.75C10.45 11.7504 10.45 11.7508 10.45 11.7512C10.4499 11.7518 10.4498 11.7523 10.4498 11.7527C10.4497 11.7535 10.4497 11.7537 10.4497 11.7534C10.4498 11.7528 10.4501 11.7507 10.4508 11.7477C10.4524 11.7406 10.4545 11.7344 10.4561 11.7312C10.458 11.7272 10.4547 11.7363 10.4405 11.7475C10.4224 11.7619 10.3994 11.7693 10.3813 11.7693V11.2693ZM10.5029 11.7253C10.7485 11.7719 10.7485 11.7719 10.7485 11.7718C10.7485 11.7717 10.7486 11.7716 10.7486 11.7716C10.7486 11.7714 10.7486 11.7713 10.7486 11.7712C10.7487 11.7709 10.7487 11.7706 10.7488 11.7703C10.7489 11.7697 10.749 11.7691 10.7492 11.7684C10.7494 11.7669 10.7497 11.7653 10.75 11.7634C10.7506 11.7597 10.7513 11.7551 10.752 11.7497C10.7535 11.739 10.755 11.7248 10.756 11.7081C10.7579 11.6764 10.7583 11.6274 10.7475 11.5732C10.7369 11.5205 10.7117 11.4429 10.6466 11.3765C10.5751 11.3035 10.4802 11.2693 10.3813 11.2693V11.7693C10.3745 11.7693 10.3598 11.7681 10.3411 11.7608C10.3218 11.7532 10.304 11.7412 10.2895 11.7265C10.2624 11.6987 10.2575 11.6726 10.2572 11.6714C10.2567 11.6687 10.2573 11.6712 10.2569 11.6782C10.2568 11.6808 10.2565 11.6827 10.2565 11.6832C10.2564 11.6835 10.2565 11.6833 10.2566 11.6826C10.2566 11.6822 10.2567 11.6817 10.2568 11.6811C10.2569 11.6808 10.2569 11.6804 10.257 11.68C10.2571 11.6798 10.2571 11.6796 10.2571 11.6794C10.2572 11.6793 10.2572 11.6792 10.2572 11.679C10.2572 11.679 10.2572 11.6789 10.2572 11.6789C10.2573 11.6788 10.2573 11.6787 10.5029 11.7253ZM10.7529 12.4855V11.7253H10.2529V12.4855H10.7529ZM6.16875 12.7355H10.5029V12.2355H6.16875V12.7355ZM5.91875 11.446V12.4855H6.41875V11.446H5.91875ZM5.82731 11.9402L6.2966 11.6609L6.0409 11.2312L5.57161 11.5105L5.82731 11.9402ZM5.94946 12.4855V11.7253H5.44946V12.4855H5.94946ZM4.76147 12.5274C4.90707 12.5274 5.11386 12.5712 5.30035 12.6225C5.39015 12.6472 5.46941 12.672 5.52615 12.6906C5.55445 12.6999 5.57698 12.7075 5.59221 12.7128C5.59982 12.7154 5.6056 12.7175 5.60936 12.7188C5.61123 12.7195 5.6126 12.72 5.61344 12.7203C5.61386 12.7204 5.61415 12.7205 5.6143 12.7206C5.61438 12.7206 5.61442 12.7206 5.61442 12.7206C5.61443 12.7206 5.61442 12.7206 5.61441 12.7206C5.6144 12.7206 5.61439 12.7206 5.61438 12.7206C5.61436 12.7206 5.61434 12.7206 5.69946 12.4855C5.78458 12.2505 5.78455 12.2505 5.78452 12.2504C5.78451 12.2504 5.78448 12.2504 5.78446 12.2504C5.78441 12.2504 5.78435 12.2504 5.78429 12.2504C5.78415 12.2503 5.78399 12.2503 5.78378 12.2502C5.78338 12.25 5.78284 12.2498 5.78216 12.2496C5.7808 12.2491 5.7789 12.2484 5.77648 12.2476C5.77163 12.2459 5.76471 12.2434 5.7559 12.2404C5.73828 12.2343 5.71306 12.2257 5.68181 12.2154C5.61943 12.195 5.5323 12.1677 5.433 12.1404C5.2413 12.0877 4.9791 12.0274 4.76147 12.0274V12.5274ZM4.37682 11.7253C4.12701 11.735 4.12701 11.7351 4.12702 11.7352C4.12702 11.7352 4.12702 11.7353 4.12702 11.7354C4.12703 11.7355 4.12703 11.7356 4.12704 11.7358C4.12705 11.736 4.12706 11.7364 4.12708 11.7367C4.12711 11.7374 4.12715 11.7383 4.1272 11.7392C4.1273 11.7412 4.12743 11.7437 4.12761 11.7467C4.12797 11.7527 4.12853 11.7607 4.12937 11.7704C4.13104 11.7899 4.13385 11.8166 4.13856 11.8483C4.14779 11.9105 4.16512 11.9974 4.1983 12.0877C4.25971 12.2546 4.41667 12.5274 4.76147 12.5274V12.0274C4.74305 12.0274 4.70769 12.0241 4.66757 11.9151C4.64999 11.8673 4.63927 11.8162 4.63313 11.7749C4.63016 11.7548 4.62846 11.7384 4.62754 11.7277C4.62708 11.7223 4.62682 11.7185 4.62669 11.7164C4.62663 11.7153 4.6266 11.7147 4.62659 11.7146C4.62659 11.7145 4.62659 11.7145 4.6266 11.7147C4.6266 11.7148 4.62661 11.7149 4.62661 11.7151C4.62661 11.7152 4.62662 11.7152 4.62662 11.7153C4.62662 11.7154 4.62663 11.7154 4.62663 11.7155C4.62663 11.7155 4.62663 11.7156 4.37682 11.7253ZM4.01424 12.4524L4.55536 11.9003L4.19828 11.5503L3.65716 12.1024L4.01424 12.4524ZM13.1306 13.4433L12.7791 12.2763L12.3004 12.4205L12.6518 13.5875L13.1306 13.4433ZM11.4926 13.7654H12.8912V13.2654H11.4926V13.7654ZM11.2426 8.83044V13.5154H11.7426V8.83044H11.2426ZM12.1807 8.85232L11.5907 8.60051L11.3944 9.06038L11.9844 9.31218L12.1807 8.85232ZM12.3325 12.3484V9.08225H11.8325V12.3484H12.3325ZM12.5397 12.0984H12.0825V12.5984H12.5397V12.0984ZM19.6456 13.4433L19.2941 12.2763L18.8154 12.4205L19.1669 13.5875L19.6456 13.4433ZM18.0076 13.7654H19.4062V13.2654H18.0076V13.7654ZM17.7576 8.83044V13.5154H18.2576V8.83044H17.7576ZM18.6957 8.85232L18.1057 8.60051L17.9095 9.06038L18.4994 9.31218L18.6957 8.85232ZM18.8476 12.3484V9.08225H18.3476V12.3484H18.8476ZM19.0548 12.0984H18.5976V12.5984H19.0548V12.0984ZM17.126 9.3934L17.4904 9.06452L17.1554 8.69333L16.791 9.02222L17.126 9.3934ZM17.2085 12.3452V9.20781H16.7085V12.3452H17.2085ZM16.5873 12.5952H16.9585V12.0952H16.5873V12.5952ZM16.3373 9.82894V12.3452H16.8373V9.82894H16.3373ZM16.1281 10.4972L16.7396 10.0271L16.4349 9.63074L15.8234 10.1008L16.1281 10.4972ZM16.2258 12.3452V10.299H15.7258V12.3452H16.2258ZM15.5654 12.5952H15.9758V12.0952H15.5654V12.5952ZM15.3154 10.9245V12.3452H15.8154V10.9245H15.3154ZM15.2633 11.5132L15.7282 11.1142L15.4026 10.7348L14.9377 11.1337L15.2633 11.5132ZM15.3505 11.7091V11.3234H14.8505V11.7091H15.3505ZM14.4563 13.4769C14.4563 12.6781 14.6673 12.3062 14.8332 12.1347C14.9179 12.0471 14.9993 12.0025 15.0549 11.9799C15.0829 11.9685 15.1047 11.9626 15.1173 11.9598C15.1236 11.9583 15.1275 11.9577 15.1287 11.9575C15.1293 11.9574 15.1292 11.9574 15.1283 11.9576C15.1279 11.9576 15.1272 11.9577 15.1264 11.9578C15.126 11.9578 15.1256 11.9579 15.1251 11.9579C15.1248 11.9579 15.1245 11.958 15.1243 11.958C15.1241 11.958 15.1239 11.958 15.1238 11.958C15.1236 11.958 15.1234 11.9581 15.1005 11.7091C15.0776 11.4602 15.0774 11.4602 15.0772 11.4602C15.0771 11.4602 15.0768 11.4602 15.0767 11.4603C15.0763 11.4603 15.076 11.4603 15.0756 11.4604C15.0749 11.4604 15.0741 11.4605 15.0733 11.4606C15.0716 11.4608 15.0697 11.461 15.0676 11.4612C15.0633 11.4618 15.0582 11.4625 15.0522 11.4634C15.0403 11.4652 15.025 11.468 15.0068 11.4721C14.9705 11.4803 14.9225 11.494 14.8667 11.5167C14.7547 11.5622 14.6125 11.6435 14.4737 11.7871C14.1924 12.0781 13.9563 12.5901 13.9563 13.4769H14.4563ZM17.3193 13.2269H14.2063V13.7269H17.3193V13.2269ZM17.0729 8.87873L17.0693 13.4767L17.5693 13.4771L17.5729 8.87912L17.0729 8.87873ZM5.33831 14.1024C5.33831 14.1119 5.33498 14.1138 5.33816 14.11C5.33994 14.1079 5.34436 14.1035 5.35255 14.0994C5.36113 14.0952 5.37234 14.0921 5.38472 14.0921V14.5921C5.67189 14.5921 5.83831 14.3331 5.83831 14.1024H5.33831ZM5.38472 14.1128C5.37234 14.1128 5.36113 14.1097 5.35255 14.1054C5.34436 14.1014 5.33994 14.097 5.33816 14.0949C5.33498 14.0911 5.33831 14.093 5.33831 14.1024H5.83831C5.83831 13.8718 5.67189 13.6128 5.38472 13.6128V14.1128ZM5.43112 14.1024C5.43112 14.093 5.43446 14.0911 5.43128 14.0949C5.42949 14.097 5.42508 14.1014 5.41689 14.1054C5.4083 14.1097 5.3971 14.1128 5.38472 14.1128V13.6128C5.09755 13.6128 4.93112 13.8718 4.93112 14.1024H5.43112ZM5.38472 14.0921C5.3971 14.0921 5.4083 14.0952 5.41689 14.0994C5.42508 14.1035 5.42949 14.1079 5.43128 14.11C5.43446 14.1138 5.43112 14.1119 5.43112 14.1024H4.93112C4.93112 14.3331 5.09755 14.5921 5.38472 14.5921V14.0921ZM15.1133 9.23993C14.988 9.45626 14.988 9.4563 14.9881 9.45634C14.9881 9.45635 14.9882 9.45639 14.9882 9.45642C14.9883 9.45647 14.9884 9.45653 14.9886 9.4566C14.9888 9.45673 14.989 9.45687 14.9893 9.45704C14.9899 9.45736 14.9906 9.45775 14.9914 9.45821C14.993 9.45912 14.9951 9.46029 14.9976 9.46168C15.0026 9.46448 15.0095 9.4682 15.0179 9.47263C15.0347 9.48148 15.0582 9.49331 15.0867 9.50633C15.1425 9.53188 15.2227 9.56438 15.3126 9.58673C15.3995 9.60835 15.5146 9.62537 15.6323 9.60257C15.7598 9.57786 15.8874 9.50584 15.9684 9.36354L15.5338 9.11631C15.5326 9.1184 15.5341 9.1154 15.5388 9.11224C15.5427 9.10959 15.5435 9.11048 15.5372 9.1117C15.5204 9.11495 15.4859 9.11461 15.4332 9.1015C15.3834 9.08912 15.3338 9.06953 15.2947 9.05166C15.2757 9.04298 15.2605 9.03527 15.2505 9.03001C15.2455 9.02739 15.2419 9.02541 15.2398 9.02427C15.2388 9.0237 15.2381 9.02334 15.2379 9.02322C15.2378 9.02316 15.2378 9.02316 15.2379 9.02322C15.238 9.02325 15.238 9.02329 15.2381 9.02335C15.2382 9.02338 15.2383 9.02342 15.2383 9.02346C15.2384 9.02348 15.2384 9.02351 15.2384 9.02352C15.2385 9.02355 15.2386 9.02359 15.1133 9.23993ZM16.4354 8.78272L15.0751 8.99286L15.1514 9.48699L16.5117 9.27686L16.4354 8.78272ZM15.7511 9.23993C15.6865 9.48145 15.6866 9.48147 15.6867 9.48149C15.6867 9.4815 15.6868 9.48152 15.6868 9.48154C15.687 9.48157 15.6871 9.4816 15.6872 9.48164C15.6875 9.48171 15.6878 9.4818 15.6882 9.48189C15.6889 9.48207 15.6897 9.48229 15.6907 9.48254C15.6927 9.48305 15.6952 9.48369 15.6983 9.48444C15.7044 9.48594 15.7127 9.48789 15.7229 9.49013C15.7433 9.49458 15.7716 9.5002 15.8056 9.50552C15.8726 9.51598 15.967 9.52608 16.0701 9.52177C16.2602 9.51382 16.5807 9.44815 16.7069 9.11945L16.2402 8.94014C16.226 8.97712 16.1852 9.01652 16.0492 9.02221C15.9892 9.02472 15.9293 9.01879 15.8828 9.01151C15.8601 9.00796 15.8417 9.00429 15.8297 9.00166C15.8238 9.00036 15.8194 8.99933 15.817 8.99873C15.8157 8.99843 15.815 8.99824 15.8148 8.99818C15.8146 8.99815 15.8147 8.99815 15.8148 8.99819C15.8149 8.9982 15.815 8.99823 15.8151 8.99827C15.8152 8.99829 15.8152 8.99831 15.8153 8.99833C15.8154 8.99834 15.8154 8.99836 15.8155 8.99836C15.8155 8.99838 15.8156 8.9984 15.7511 9.23993Z" fill="#009C4E"/>
</g>
</g>
<rect width="23" height="23" rx="11.5" fill="url(#paint0_linear_2441_4141)" style="mix-blend-mode:overlay"/>
<rect x="0.5" y="0.5" width="22" height="22" rx="11" stroke="black" stroke-opacity="0.1"/>
<defs>
<linearGradient id="paint0_linear_2441_4141" x1="11.5" y1="0" x2="11.5" y2="23" gradientUnits="userSpaceOnUse">
<stop stop-color="white" stop-opacity="0.7"/>
<stop offset="1" stop-opacity="0.3"/>
</linearGradient>
</defs>
</svg>
