<svg width="23" height="23" viewBox="0 0 23 23" fill="none" xmlns="http://www.w3.org/2000/svg">
<mask id="mask0_2754_2811" style="mask-type:alpha" maskUnits="userSpaceOnUse" x="0" y="0" width="23" height="23">
<rect width="23" height="23" fill="white"/>
</mask>
<g mask="url(#mask0_2754_2811)">
<path fill-rule="evenodd" clip-rule="evenodd" d="M0 0H23V23H0V0Z" fill="#009933"/>
<path d="M-0.219171 -0.453923L-1.39375 -1.74664V0V23V24.7466L-0.219171 23.4539L10.2299 11.9539L10.6423 11.5L10.2299 11.0461L-0.219171 -0.453923Z" fill="#272727" stroke="#FECA00" stroke-width="1.35"/>
<path d="M23.2297 -0.465209L24.3938 -1.68905V0V23V24.689L23.2297 23.4652L12.2911 11.9652L11.8486 11.5L12.2911 11.0348L23.2297 -0.465209Z" fill="#272727" stroke="#FECA00" stroke-width="1.35"/>
</g>
<rect width="23" height="23" rx="11.5" fill="url(#paint0_linear_2754_2811)" style="mix-blend-mode:overlay"/>
<rect x="0.5" y="0.5" width="22" height="22" rx="11" stroke="black" stroke-opacity="0.1"/>
<defs>
<linearGradient id="paint0_linear_2754_2811" x1="11.5" y1="0" x2="11.5" y2="23" gradientUnits="userSpaceOnUse">
<stop stop-color="white" stop-opacity="0.7"/>
<stop offset="1" stop-opacity="0.3"/>
</linearGradient>
</defs>
</svg>
