<svg width="23" height="23" viewBox="0 0 23 23" fill="none" xmlns="http://www.w3.org/2000/svg">
<path d="M0 0H23V23H0V0Z" fill="#032EA1"/>
<path d="M0 5.75H23V17.25H0V5.75Z" fill="#E00025"/>
<path fill-rule="evenodd" clip-rule="evenodd" d="M7.42757 10.5801V10.6376H8.786V10.5801H10.6878V10.6951H11.9643V10.5801H13.8704V10.6376H15.2289V10.5801H15.387V13.0833H7.19325V10.5801H7.42757ZM7.19325 13.0833H6.75913V13.5605H7.751V13.5701H6.31925V14.386H7.751V14.3943H6.03894V15.113H16.6175V14.3943H14.9011V14.386H16.3415V13.5701H14.9011V13.5605H15.9016V13.0833H15.387V13.0986H7.19325V13.0833ZM15.2289 10.5801V8.9701C15.2084 8.9701 15.1947 9.0088 15.1781 9.05558C15.1528 9.12704 15.1207 9.21735 15.0478 9.21735C14.9831 9.21735 14.9874 9.11385 15.0262 9.03335C15.0564 8.9586 15.0952 8.86085 15.0434 8.6711C15.0046 8.81485 14.9098 8.86085 14.927 8.7746C14.9365 8.72558 14.9521 8.68918 14.9667 8.65489C14.9985 8.58056 15.026 8.51617 14.9788 8.35485C14.9572 8.55035 14.8623 8.5446 14.8839 8.4296C14.8902 8.39747 14.8982 8.36975 14.9059 8.34356C14.9296 8.26195 14.9491 8.19515 14.8968 8.05585C14.858 8.2686 14.8106 8.2571 14.8106 8.12485C14.8106 7.92935 14.8106 7.72235 14.6294 7.6476C14.6294 7.6476 14.6165 7.4751 14.5475 7.4751C14.4828 7.4751 14.4699 7.6476 14.4699 7.6476C14.2886 7.72069 14.2887 7.92573 14.2887 8.11219C14.2888 8.11642 14.2888 8.12064 14.2888 8.12485C14.2888 8.2571 14.2413 8.2686 14.2025 8.05585C14.1503 8.19515 14.1697 8.26195 14.1935 8.34356C14.2011 8.36975 14.2092 8.39747 14.2154 8.4296C14.237 8.5446 14.1421 8.55035 14.1206 8.35485C14.0733 8.51617 14.1008 8.58056 14.1326 8.65489C14.1472 8.68918 14.1628 8.72558 14.1723 8.7746C14.1896 8.86085 14.0947 8.81485 14.0559 8.6711C14.0041 8.86085 14.0429 8.9586 14.0731 9.03335C14.1076 9.11385 14.1163 9.21735 14.0516 9.21735C13.9786 9.21735 13.9466 9.12914 13.9212 9.05934C13.9046 9.01365 13.8909 8.97585 13.8704 8.97585V10.5801H15.2289ZM11.9643 10.5801H10.6878V10.3788C10.6878 10.2916 10.6523 10.2482 10.6199 10.2085C10.5924 10.175 10.5671 10.144 10.5671 10.0913C10.5671 10.0913 10.5498 9.91885 10.5843 9.83835C10.6318 10.0683 10.7137 10.0281 10.7137 9.93035C10.7137 9.85608 10.677 9.78181 10.5934 9.61271L10.5714 9.5681C10.5369 9.50485 10.5584 9.3036 10.6016 9.22885C10.6188 9.40135 10.6404 9.4876 10.6964 9.4876C10.7309 9.4876 10.7568 9.45885 10.7568 9.3726C10.7568 9.29932 10.7341 9.24939 10.7097 9.19603C10.6959 9.16564 10.6815 9.13415 10.6706 9.0966C10.6402 8.9914 10.6588 8.87225 10.718 8.79185C10.7218 8.8221 10.7248 8.84917 10.7274 8.87324C10.7399 8.98643 10.7451 9.03335 10.7913 9.03335C10.8988 8.98558 10.8079 8.79083 10.7729 8.71592L10.7654 8.69985C10.7396 8.6366 10.8086 8.50435 10.8086 8.50435C10.8431 8.6596 10.8517 8.6711 10.8948 8.65385C10.9466 8.6366 10.9379 8.53885 10.8776 8.45835C10.8388 8.40085 10.8431 8.3261 10.8862 8.2686C10.9293 8.37785 10.9811 8.3721 10.9854 8.3031L10.9509 8.0501L10.9983 8.0501L10.9811 7.85843H11.6668L11.6495 8.0501L11.7013 8.0501L11.6624 8.29735C11.6538 8.36635 11.7228 8.3836 11.7659 8.2686C11.8091 8.3261 11.8134 8.4066 11.7746 8.45835C11.7142 8.53885 11.7056 8.6366 11.7573 8.65385C11.8004 8.6711 11.8091 8.65385 11.8436 8.50435C11.8436 8.50435 11.9083 8.5906 11.8867 8.69985L11.8803 8.71382C11.8461 8.7877 11.7523 8.99047 11.8608 9.03335C11.907 9.03335 11.9122 8.98643 11.9247 8.87324C11.9274 8.84917 11.9303 8.8221 11.9341 8.79185C11.9919 8.8735 12.0087 8.9925 11.9773 9.0966C11.9671 9.13703 11.9518 9.17044 11.9368 9.203C11.9134 9.2538 11.891 9.30252 11.891 9.3726C11.891 9.45885 11.9212 9.4876 11.9557 9.4876C12.0118 9.4876 12.0333 9.4071 12.0506 9.22885C12.0937 9.3036 12.1153 9.50485 12.0808 9.57385L12.0444 9.64497C11.97 9.79042 11.9341 9.86039 11.9341 9.93035C11.9341 10.0281 12.0204 10.0683 12.0635 9.83835C12.1023 9.91885 12.0851 10.0913 12.0851 10.0913C12.0851 10.1445 12.0602 10.1756 12.033 10.2095C12.0014 10.2489 11.9666 10.2923 11.9643 10.3788V10.5801ZM7.42757 10.5801V8.9701C7.44804 8.9701 7.46176 9.0088 7.47835 9.05558C7.50369 9.12704 7.53571 9.21735 7.60869 9.21735C7.67338 9.21735 7.66907 9.11385 7.63025 9.03335C7.60007 8.9586 7.56125 8.86085 7.613 8.6711C7.65182 8.81485 7.74669 8.86085 7.72944 8.7746C7.71991 8.72558 7.70436 8.68918 7.68972 8.65489C7.65797 8.58056 7.63047 8.51617 7.67769 8.35485C7.69925 8.55035 7.79413 8.5446 7.77257 8.4296C7.76628 8.39747 7.75821 8.36975 7.75059 8.34356C7.72683 8.26195 7.70739 8.19515 7.75963 8.05585C7.79844 8.2686 7.84588 8.2571 7.84588 8.12485C7.84588 7.92935 7.84588 7.72235 8.027 7.6476C8.027 7.6476 8.03994 7.4751 8.10894 7.4751C8.17363 7.4751 8.18657 7.6476 8.18657 7.6476C8.36789 7.72069 8.36779 7.92573 8.3677 8.11219L8.36769 8.12485C8.36769 8.2571 8.41513 8.2686 8.45394 8.05585C8.50618 8.19515 8.48674 8.26195 8.46298 8.34356L8.46298 8.34357L8.46298 8.34357C8.45535 8.36976 8.44729 8.39747 8.441 8.4296C8.41944 8.5446 8.51432 8.55035 8.53588 8.35485C8.58309 8.51617 8.55559 8.58056 8.52385 8.65489C8.50921 8.68918 8.49366 8.72558 8.48413 8.7746C8.46688 8.86085 8.56175 8.81485 8.60057 8.6711C8.65232 8.86085 8.6135 8.9586 8.58332 9.03335C8.54882 9.11385 8.54019 9.21735 8.60488 9.21735C8.67785 9.21735 8.70988 9.12914 8.73522 9.05934C8.75181 9.01365 8.76553 8.97585 8.786 8.97585V10.5801H7.42757ZM11.2269 7.84501C11.2269 7.84501 11.2226 7.60926 11.3261 7.60351C11.4253 7.60351 11.4209 7.84501 11.4209 7.84501H11.2269Z" fill="white"/>
<path d="M7.42757 10.6376H7.41257L7.42757 10.6526V10.6376ZM8.786 10.6376V10.6526L8.801 10.6376H8.786ZM10.6878 10.6951H10.6728L10.6878 10.7101V10.6951ZM11.9643 10.6951V10.7101L11.9793 10.6951H11.9643ZM13.8704 10.6376H13.8554L13.8704 10.6526V10.6376ZM15.2289 10.6376V10.6526L15.2439 10.6376H15.2289ZM15.387 10.5801H15.402L15.387 10.5651V10.5801ZM7.19325 10.5801V10.5651L7.17825 10.5801H7.19325ZM6.75913 13.0833V13.0683L6.74413 13.0833H6.75913ZM6.75913 13.5605H6.74413L6.75913 13.5755V13.5605ZM7.751 13.5605H7.766L7.751 13.5455V13.5605ZM7.751 13.5701V13.5851L7.766 13.5701H7.751ZM6.31925 13.5701V13.5551L6.30425 13.5701H6.31925ZM6.31925 14.386H6.30425L6.31925 14.401V14.386ZM7.751 14.386H7.766L7.751 14.371V14.386ZM7.751 14.3943V14.4093L7.766 14.3943H7.751ZM6.03894 14.3943V14.3793L6.02394 14.3943H6.03894ZM6.03894 15.113H6.02394L6.03894 15.128V15.113ZM16.6175 15.113V15.128L16.6325 15.113H16.6175ZM16.6175 14.3943H16.6325L16.6175 14.3793V14.3943ZM14.9011 14.3943H14.8861L14.9011 14.4093V14.3943ZM14.9011 14.386V14.371L14.8861 14.386H14.9011ZM16.3415 14.386V14.401L16.3565 14.386H16.3415ZM16.3415 13.5701H16.3565L16.3415 13.5551V13.5701ZM14.9011 13.5701H14.8861L14.9011 13.5851V13.5701ZM14.9011 13.5605V13.5455L14.8861 13.5605H14.9011ZM15.9016 13.5605V13.5755L15.9166 13.5605H15.9016ZM15.9016 13.0833H15.9166L15.9016 13.0683V13.0833ZM15.387 13.0986V13.1136L15.402 13.0986H15.387ZM7.19325 13.0986H7.17825L7.19325 13.1136V13.0986ZM15.2289 8.9701H15.2439L15.2289 8.9551V8.9701ZM15.1781 9.05558L15.1922 9.06059L15.1781 9.05558ZM15.0262 9.03335L15.0397 9.03988L15.0401 9.03896L15.0262 9.03335ZM15.0434 8.6711L15.0579 8.66715L15.029 8.66719L15.0434 8.6711ZM14.927 8.7746L14.9417 8.77754L14.9417 8.77746L14.927 8.7746ZM14.9667 8.65489L14.9529 8.649V8.649L14.9667 8.65489ZM14.9788 8.35485L14.9931 8.35063L14.9638 8.3532L14.9788 8.35485ZM14.8839 8.4296L14.8692 8.42672L14.8691 8.42683L14.8839 8.4296ZM14.9059 8.34356L14.8915 8.33937V8.33937L14.9059 8.34356ZM14.8968 8.05585L14.9109 8.05058L14.8821 8.05316L14.8968 8.05585ZM14.6294 7.6476L14.6145 7.64872L14.6237 7.66146L14.6294 7.6476ZM14.4699 7.6476L14.4755 7.66151L14.4848 7.64872L14.4699 7.6476ZM14.2887 8.11219L14.3037 8.11219V8.11219L14.2887 8.11219ZM14.2025 8.05585L14.2173 8.05316L14.1885 8.05058L14.2025 8.05585ZM14.1935 8.34356L14.2079 8.33937V8.33937L14.1935 8.34356ZM14.2154 8.4296L14.2302 8.42683L14.2302 8.42672L14.2154 8.4296ZM14.1206 8.35485L14.1355 8.3532L14.1062 8.35063L14.1206 8.35485ZM14.1326 8.65489L14.1464 8.649V8.649L14.1326 8.65489ZM14.1723 8.7746L14.1576 8.77746L14.1576 8.77754L14.1723 8.7746ZM14.0559 8.6711L14.0704 8.66719L14.0414 8.66715L14.0559 8.6711ZM14.0731 9.03335L14.0592 9.03897L14.0593 9.03926L14.0731 9.03335ZM13.9212 9.05934L13.9071 9.06446V9.06446L13.9212 9.05934ZM13.8704 8.97585V8.96085L13.8554 8.97585H13.8704ZM10.6199 10.2085L10.6315 10.199L10.6199 10.2085ZM10.5671 10.0913H10.5821L10.582 10.0899L10.5671 10.0913ZM10.5843 9.83835L10.599 9.83532L10.5705 9.83244L10.5843 9.83835ZM10.5934 9.61271L10.58 9.61935L10.58 9.61936L10.5934 9.61271ZM10.5714 9.5681L10.5848 9.56145L10.5845 9.56091L10.5714 9.5681ZM10.6016 9.22885L10.6165 9.22736L10.5886 9.22135L10.6016 9.22885ZM10.7097 9.19603L10.7234 9.1898V9.1898L10.7097 9.19603ZM10.6706 9.0966L10.6562 9.10076L10.6562 9.1008L10.6706 9.0966ZM10.718 8.79185L10.7329 8.78999L10.7059 8.78295L10.718 8.79185ZM10.7274 8.87324L10.7125 8.87489L10.7274 8.87324ZM10.7913 9.03335V9.04976L10.7974 9.04705L10.7913 9.03335ZM10.7729 8.71592L10.7593 8.72222L10.7593 8.72227L10.7729 8.71592ZM10.7654 8.69985L10.7515 8.70553L10.7518 8.70614L10.7654 8.69985ZM10.8086 8.50435L10.8232 8.50109L10.7953 8.49741L10.8086 8.50435ZM10.8948 8.65385L10.8901 8.63959L10.8892 8.63992L10.8948 8.65385ZM10.8776 8.45835L10.8651 8.46675L10.8656 8.46735L10.8776 8.45835ZM10.8862 8.2686L10.9001 8.26309L10.8742 8.2596L10.8862 8.2686ZM10.9854 8.3031L11.0006 8.30405L11.0002 8.30107L10.9854 8.3031ZM10.9509 8.0501V8.0351L10.936 8.05212L10.9509 8.0501ZM10.9983 8.0501V8.0651L11.0133 8.04875L10.9983 8.0501ZM10.9811 7.85843V7.84343L10.9661 7.85978L10.9811 7.85843ZM11.6668 7.85843L11.6817 7.85978L11.6668 7.84343V7.85843ZM11.6495 8.0501L11.6346 8.04875L11.6495 8.0651V8.0501ZM11.7013 8.0501L11.7161 8.05242L11.7013 8.0351V8.0501ZM11.6624 8.29735L11.6476 8.29502L11.6476 8.29549L11.6624 8.29735ZM11.7659 8.2686L11.7779 8.2596L11.7519 8.26333L11.7659 8.2686ZM11.7746 8.45835L11.7866 8.46735V8.46735L11.7746 8.45835ZM11.7573 8.65385L11.7629 8.6399L11.7621 8.63962L11.7573 8.65385ZM11.8436 8.50435L11.8556 8.49535L11.8289 8.50097L11.8436 8.50435ZM11.8867 8.69985L11.9007 8.70628L11.9014 8.70275L11.8867 8.69985ZM11.8803 8.71382L11.8939 8.72012L11.8939 8.72008L11.8803 8.71382ZM11.8608 9.03335L11.8549 9.04835H11.8608V9.03335ZM11.9247 8.87324L11.9396 8.87489L11.9247 8.87324ZM11.9341 8.79185L11.9464 8.78319L11.9192 8.78999L11.9341 8.79185ZM11.9773 9.0966L11.9629 9.09225L11.9627 9.09296L11.9773 9.0966ZM11.9368 9.203L11.9504 9.20927V9.20927L11.9368 9.203ZM12.0506 9.22885L12.0636 9.22135L12.0356 9.2274L12.0506 9.22885ZM12.0808 9.57385L12.0941 9.58067L12.0942 9.58056L12.0808 9.57385ZM12.0444 9.64497L12.0578 9.65181L12.0578 9.65179L12.0444 9.64497ZM12.0635 9.83835L12.077 9.83183L12.0488 9.83558L12.0635 9.83835ZM12.0851 10.0913L12.0701 10.0898V10.0913H12.0851ZM12.033 10.2095L12.0447 10.2189L12.033 10.2095ZM11.9643 10.3788L11.9493 10.3784V10.3788H11.9643ZM7.42757 8.9701V8.9551L7.41257 8.9701H7.42757ZM7.47835 9.05558L7.46422 9.06059L7.47835 9.05558ZM7.63025 9.03335L7.61631 9.03898L7.61674 9.03986L7.63025 9.03335ZM7.613 8.6711L7.62748 8.66719L7.59853 8.66715L7.613 8.6711ZM7.72944 8.7746L7.71472 8.77746L7.71473 8.77754L7.72944 8.7746ZM7.68972 8.65489L7.70351 8.649V8.649L7.68972 8.65489ZM7.67769 8.35485L7.6926 8.3532L7.66329 8.35063L7.67769 8.35485ZM7.77257 8.4296L7.78731 8.42683L7.78729 8.42672L7.77257 8.4296ZM7.75059 8.34356L7.73619 8.34776L7.75059 8.34356ZM7.75963 8.05585L7.77438 8.05316L7.74558 8.05058L7.75963 8.05585ZM8.027 7.6476L8.03273 7.66146L8.04196 7.64872L8.027 7.6476ZM8.18657 7.6476L8.17161 7.64872L8.18096 7.66151L8.18657 7.6476ZM8.3677 8.11219L8.3527 8.11219V8.11219L8.3677 8.11219ZM8.36769 8.12485L8.35269 8.12484V8.12485H8.36769ZM8.45394 8.05585L8.46799 8.05058L8.43918 8.05316L8.45394 8.05585ZM8.46298 8.34356L8.44858 8.33937L8.44856 8.33944L8.46298 8.34356ZM8.46298 8.34357L8.44855 8.33945L8.44845 8.33982L8.46298 8.34357ZM8.46298 8.34357L8.47739 8.34777L8.4775 8.34732L8.46298 8.34357ZM8.441 8.4296L8.42628 8.42672L8.42626 8.42683L8.441 8.4296ZM8.53588 8.35485L8.55027 8.35063L8.52097 8.3532L8.53588 8.35485ZM8.52385 8.65489L8.51006 8.649V8.649L8.52385 8.65489ZM8.48413 8.7746L8.49884 8.77754L8.49885 8.77746L8.48413 8.7746ZM8.60057 8.6711L8.61504 8.66715L8.58608 8.66719L8.60057 8.6711ZM8.58332 9.03335L8.59711 9.03926L8.59722 9.03896L8.58332 9.03335ZM8.73522 9.05934L8.74932 9.06446L8.73522 9.05934ZM8.786 8.97585H8.801L8.786 8.96085V8.97585ZM11.3261 7.60351V7.58849L11.3252 7.58854L11.3261 7.60351ZM11.2269 7.84501L11.2119 7.84529L11.2269 7.86001V7.84501ZM11.4209 7.84501V7.86001L11.4359 7.84528L11.4209 7.84501ZM7.44257 10.6376V10.5801H7.41257V10.6376H7.44257ZM8.786 10.6226H7.42757V10.6526H8.786V10.6226ZM8.771 10.5801V10.6376H8.801V10.5801H8.771ZM10.6878 10.5651H8.786V10.5951H10.6878V10.5651ZM10.7028 10.6951V10.5801H10.6728V10.6951H10.7028ZM11.9643 10.6801H10.6878V10.7101H11.9643V10.6801ZM11.9493 10.5801V10.6951H11.9793V10.5801H11.9493ZM13.8704 10.5651H11.9643V10.5951H13.8704V10.5651ZM13.8854 10.6376V10.5801H13.8554V10.6376H13.8854ZM15.2289 10.6226H13.8704V10.6526H15.2289V10.6226ZM15.2139 10.5801V10.6376H15.2439V10.5801H15.2139ZM15.387 10.5651H15.2289V10.5951H15.387V10.5651ZM15.402 13.0833V10.5801H15.372V13.0833H15.402ZM15.387 13.0683H7.19325V13.0983H15.387V13.0683ZM7.17825 10.5801V13.0833H7.20825V10.5801H7.17825ZM7.42757 10.5651H7.19325V10.5951H7.42757V10.5651ZM7.19325 13.0683H6.75913V13.0983H7.19325V13.0683ZM6.74413 13.0833V13.5605H6.77413V13.0833H6.74413ZM6.75913 13.5755H7.751V13.5455H6.75913V13.5755ZM7.736 13.5605V13.5701H7.766V13.5605H7.736ZM7.751 13.5551H6.31925V13.5851H7.751V13.5551ZM6.30425 13.5701V14.386H6.33425V13.5701H6.30425ZM6.31925 14.401H7.751V14.371H6.31925V14.401ZM7.736 14.386V14.3943H7.766V14.386H7.736ZM7.751 14.3793H6.03894V14.4093H7.751V14.3793ZM6.02394 14.3943V15.113H6.05394V14.3943H6.02394ZM6.03894 15.128H16.6175V15.098H6.03894V15.128ZM16.6325 15.113V14.3943H16.6025V15.113H16.6325ZM16.6175 14.3793H14.9011V14.4093H16.6175V14.3793ZM14.9161 14.3943V14.386H14.8861V14.3943H14.9161ZM14.9011 14.401H16.3415V14.371H14.9011V14.401ZM16.3565 14.386V13.5701H16.3265V14.386H16.3565ZM16.3415 13.5551H14.9011V13.5851H16.3415V13.5551ZM14.9161 13.5701V13.5605H14.8861V13.5701H14.9161ZM14.9011 13.5755H15.9016V13.5455H14.9011V13.5755ZM15.9166 13.5605V13.0833H15.8866V13.5605H15.9166ZM15.9016 13.0683H15.387V13.0983H15.9016V13.0683ZM15.402 13.0986V13.0833H15.372V13.0986H15.402ZM7.19325 13.1136H15.387V13.0836H7.19325V13.1136ZM7.17825 13.0833V13.0986H7.20825V13.0833H7.17825ZM15.2139 8.9701V10.5801H15.2439V8.9701H15.2139ZM15.1922 9.06059C15.2007 9.03683 15.2079 9.0166 15.2153 9.00221C15.2191 8.99503 15.2224 8.99032 15.2252 8.98756C15.2265 8.98624 15.2275 8.98562 15.2281 8.98534C15.2286 8.9851 15.2288 8.9851 15.2289 8.9851V8.9551C15.2186 8.9551 15.2103 8.9601 15.2041 8.96619C15.1981 8.97215 15.1931 8.98004 15.1887 8.98838C15.1801 9.00504 15.1721 9.02755 15.164 9.05057L15.1922 9.06059ZM15.0478 9.23235C15.0916 9.23235 15.1219 9.20481 15.1434 9.17138C15.1648 9.13813 15.1797 9.09592 15.1922 9.06059L15.164 9.05057C15.1511 9.0867 15.1373 9.12537 15.1182 9.15514C15.0991 9.18473 15.0768 9.20235 15.0478 9.20235V9.23235ZM15.0127 9.02683C14.9925 9.06875 14.9808 9.11732 14.9832 9.15643C14.9844 9.17595 14.9891 9.19464 14.9996 9.20882C15.0106 9.22371 15.0269 9.23235 15.0478 9.23235V9.20235C15.0362 9.20235 15.0289 9.19804 15.0237 9.19101C15.018 9.18327 15.0141 9.17106 15.0131 9.15464C15.0112 9.12188 15.0211 9.07844 15.0397 9.03986L15.0127 9.02683ZM15.029 8.67504C15.0544 8.76831 15.0574 8.83821 15.0507 8.89353C15.0439 8.94891 15.0273 8.99045 15.0123 9.02773L15.0401 9.03896C15.0552 9.00149 15.0732 8.95678 15.0804 8.89716C15.0877 8.83748 15.0842 8.76364 15.0579 8.66715L15.029 8.67504ZM14.9123 8.77166C14.9099 8.78345 14.9093 8.79403 14.9106 8.80306C14.912 8.81206 14.9156 8.82088 14.9232 8.82681C14.931 8.83294 14.9403 8.83398 14.9488 8.8324C14.957 8.83086 14.9652 8.82676 14.9729 8.82134C15.0031 8.79993 15.038 8.74884 15.0579 8.67501L15.029 8.66719C15.0101 8.73711 14.9781 8.78089 14.9555 8.79685C14.95 8.80078 14.9458 8.80243 14.9433 8.80291C14.9409 8.80335 14.941 8.80269 14.9417 8.80324C14.9422 8.8036 14.941 8.80299 14.9403 8.79856C14.9396 8.79416 14.9398 8.78731 14.9417 8.77754L14.9123 8.77166ZM14.9529 8.649C14.9383 8.68332 14.9221 8.72101 14.9123 8.77173L14.9417 8.77746C14.9509 8.73016 14.9659 8.69504 14.9805 8.66078L14.9529 8.649ZM14.9644 8.35906C14.9876 8.43847 14.9921 8.49285 14.9874 8.53587C14.9828 8.57894 14.9688 8.61174 14.9529 8.649L14.9805 8.66078C14.9964 8.62371 15.0121 8.58715 15.0173 8.53911C15.0225 8.49103 15.0171 8.43255 14.9931 8.35063L14.9644 8.35906ZM14.8691 8.42683C14.8635 8.45708 14.8649 8.48252 14.8729 8.50013C14.877 8.50906 14.8832 8.51688 14.8919 8.52137C14.9009 8.52602 14.9109 8.52617 14.9203 8.52276C14.9379 8.51636 14.9533 8.49774 14.9654 8.47145C14.9779 8.44442 14.9882 8.40645 14.9937 8.35649L14.9638 8.3532C14.9586 8.401 14.9489 8.43562 14.9382 8.4589C14.9271 8.48293 14.9161 8.49234 14.91 8.49456C14.9075 8.49546 14.9063 8.49508 14.9056 8.4947C14.9045 8.49415 14.9024 8.49244 14.9002 8.48773C14.8958 8.47802 14.8935 8.45962 14.8986 8.43236L14.8691 8.42683ZM14.8915 8.33937C14.8838 8.36553 14.8756 8.39384 14.8692 8.42672L14.8986 8.43248C14.9047 8.4011 14.9126 8.37398 14.9203 8.34776L14.8915 8.33937ZM14.8828 8.06111C14.9084 8.12941 14.9161 8.17897 14.9148 8.2209C14.9136 8.26303 14.9034 8.29839 14.8915 8.33937L14.9203 8.34776C14.9321 8.30712 14.9435 8.26827 14.9448 8.22178C14.9462 8.17508 14.9375 8.12159 14.9109 8.05058L14.8828 8.06111ZM14.7956 8.12485C14.7956 8.15847 14.7985 8.18574 14.8043 8.20421C14.807 8.2132 14.811 8.22194 14.8171 8.22794C14.8204 8.23112 14.8246 8.23391 14.8299 8.23507C14.8353 8.23626 14.8405 8.23547 14.8451 8.2335C14.8535 8.22988 14.86 8.22221 14.8651 8.21406C14.8706 8.20546 14.8759 8.19412 14.881 8.18019C14.8914 8.15227 14.9018 8.11216 14.9116 8.05854L14.8821 8.05316C14.8724 8.10591 14.8624 8.14414 14.8529 8.16978C14.8481 8.18262 14.8437 8.19185 14.8398 8.19802C14.8356 8.20465 14.8331 8.20597 14.8332 8.20594C14.8336 8.20577 14.8348 8.20543 14.8363 8.20577C14.8378 8.20609 14.8383 8.20673 14.8381 8.20651C14.8373 8.20574 14.8352 8.20271 14.8329 8.19535C14.8285 8.18112 14.8256 8.15735 14.8256 8.12485H14.7956ZM14.6237 7.66146C14.7088 7.69656 14.7516 7.76237 14.7734 7.84478C14.7955 7.92806 14.7956 8.02659 14.7956 8.12485H14.8256C14.8256 8.02761 14.8257 7.92489 14.8024 7.8371C14.779 7.74845 14.7312 7.67338 14.6352 7.63373L14.6237 7.66146ZM14.5475 7.4901C14.5576 7.4901 14.5674 7.49619 14.577 7.51044C14.5866 7.52463 14.5941 7.54437 14.5999 7.56533C14.6056 7.58606 14.6093 7.60695 14.6115 7.62275C14.6126 7.63062 14.6134 7.63717 14.6138 7.64173C14.6141 7.64401 14.6142 7.64579 14.6143 7.64698C14.6144 7.64758 14.6144 7.64803 14.6145 7.64832C14.6145 7.64847 14.6145 7.64857 14.6145 7.64864C14.6145 7.64868 14.6145 7.6487 14.6145 7.64871C14.6145 7.64872 14.6145 7.64872 14.6145 7.64872C14.6145 7.64872 14.6145 7.64872 14.6145 7.64872C14.6145 7.64872 14.6145 7.64872 14.6294 7.6476C14.6444 7.64648 14.6444 7.64647 14.6444 7.64647C14.6444 7.64647 14.6444 7.64646 14.6444 7.64646C14.6444 7.64645 14.6444 7.64644 14.6444 7.64642C14.6444 7.64639 14.6444 7.64635 14.6444 7.6463C14.6444 7.6462 14.6444 7.64606 14.6444 7.64589C14.6443 7.64553 14.6443 7.64501 14.6442 7.64434C14.6441 7.64301 14.6439 7.64108 14.6437 7.63864C14.6432 7.63377 14.6424 7.62684 14.6412 7.61854C14.6388 7.602 14.635 7.57976 14.6288 7.55737C14.6227 7.5352 14.6141 7.51181 14.6018 7.49366C14.5896 7.47557 14.5719 7.4601 14.5475 7.4601V7.4901ZM14.4699 7.6476C14.4848 7.64872 14.4848 7.64872 14.4848 7.64872C14.4848 7.64872 14.4848 7.64872 14.4848 7.64872C14.4848 7.64872 14.4848 7.64872 14.4848 7.64871C14.4848 7.6487 14.4848 7.64867 14.4848 7.64864C14.4848 7.64857 14.4849 7.64846 14.4849 7.64831C14.4849 7.64802 14.4849 7.64757 14.485 7.64697C14.4851 7.64577 14.4852 7.64399 14.4855 7.6417C14.4859 7.63714 14.4867 7.63057 14.4878 7.62269C14.4899 7.60686 14.4935 7.58594 14.4989 7.56516C14.5045 7.54416 14.5117 7.52435 14.5207 7.51011C14.53 7.49564 14.5389 7.4901 14.5475 7.4901V7.4601C14.5237 7.4601 14.5068 7.47612 14.4954 7.49399C14.4839 7.5121 14.4757 7.53541 14.4699 7.55754C14.4641 7.57988 14.4603 7.60208 14.458 7.6186C14.4569 7.62689 14.4561 7.6338 14.4556 7.63867C14.4554 7.6411 14.4552 7.64302 14.4551 7.64435C14.455 7.64502 14.455 7.64553 14.455 7.64589C14.455 7.64607 14.4549 7.64621 14.4549 7.64631C14.4549 7.64636 14.4549 7.64639 14.4549 7.64642C14.4549 7.64644 14.4549 7.64645 14.4549 7.64646C14.4549 7.64646 14.4549 7.64647 14.4549 7.64647C14.4549 7.64647 14.4549 7.64648 14.4699 7.6476ZM14.3037 8.11219C14.3037 8.01845 14.3038 7.92271 14.3258 7.8413C14.3475 7.76077 14.3903 7.69583 14.4755 7.66151L14.4643 7.63369C14.3681 7.67246 14.3203 7.74658 14.2968 7.83347C14.2736 7.91947 14.2737 8.01947 14.2737 8.1122L14.3037 8.11219ZM14.3038 8.12485C14.3038 8.12064 14.3038 8.11641 14.3037 8.11219L14.2737 8.1122C14.2738 8.11643 14.2738 8.12064 14.2738 8.12485H14.3038ZM14.1877 8.05854C14.1975 8.11216 14.208 8.15227 14.2183 8.18019C14.2234 8.19412 14.2287 8.20546 14.2342 8.21406C14.2393 8.22221 14.2458 8.22988 14.2543 8.2335C14.2588 8.23547 14.2641 8.23626 14.2694 8.23507C14.2747 8.23391 14.2789 8.23112 14.2822 8.22794C14.2883 8.22194 14.2923 8.2132 14.2951 8.20421C14.3008 8.18574 14.3038 8.15847 14.3038 8.12485H14.2738C14.2738 8.15735 14.2708 8.18112 14.2664 8.19535C14.2641 8.20271 14.262 8.20574 14.2612 8.20651C14.261 8.20673 14.2616 8.20609 14.263 8.20577C14.2645 8.20543 14.2657 8.20577 14.2661 8.20594C14.2662 8.20597 14.2637 8.20465 14.2595 8.19802C14.2556 8.19185 14.2512 8.18262 14.2464 8.16978C14.2369 8.14414 14.2269 8.10591 14.2173 8.05316L14.1877 8.05854ZM14.2079 8.33937C14.1959 8.29839 14.1857 8.26303 14.1845 8.2209C14.1832 8.17897 14.1909 8.12941 14.2165 8.06111L14.1885 8.05058C14.1618 8.12159 14.1531 8.17508 14.1545 8.22178C14.1559 8.26827 14.1672 8.30712 14.1791 8.34776L14.2079 8.33937ZM14.2302 8.42672C14.2237 8.39384 14.2155 8.36553 14.2079 8.33937L14.1791 8.34776C14.1867 8.37398 14.1946 8.4011 14.2007 8.43248L14.2302 8.42672ZM14.1057 8.35649C14.1112 8.40645 14.1214 8.44442 14.1339 8.47145C14.146 8.49774 14.1614 8.51636 14.179 8.52276C14.1884 8.52617 14.1984 8.52602 14.2074 8.52137C14.2162 8.51688 14.2223 8.50906 14.2264 8.50013C14.2344 8.48252 14.2359 8.45708 14.2302 8.42683L14.2007 8.43236C14.2058 8.45962 14.2035 8.47802 14.1991 8.48773C14.1969 8.49244 14.1948 8.49415 14.1937 8.4947C14.193 8.49508 14.1918 8.49546 14.1893 8.49456C14.1832 8.49234 14.1722 8.48293 14.1611 8.4589C14.1504 8.43562 14.1407 8.401 14.1355 8.3532L14.1057 8.35649ZM14.1464 8.649C14.1305 8.61174 14.1166 8.57894 14.1119 8.53587C14.1072 8.49285 14.1117 8.43847 14.135 8.35906L14.1062 8.35063C14.0822 8.43255 14.0768 8.49103 14.0821 8.53911C14.0873 8.58715 14.103 8.62371 14.1188 8.66078L14.1464 8.649ZM14.187 8.77173C14.1772 8.72101 14.161 8.68332 14.1464 8.649L14.1188 8.66078C14.1334 8.69504 14.1484 8.73016 14.1576 8.77746L14.187 8.77173ZM14.0414 8.67501C14.0613 8.74884 14.0962 8.79993 14.1265 8.82134C14.1341 8.82676 14.1423 8.83086 14.1505 8.8324C14.159 8.83398 14.1684 8.83294 14.1761 8.82681C14.1837 8.82088 14.1873 8.81206 14.1887 8.80306C14.1901 8.79403 14.1894 8.78345 14.187 8.77166L14.1576 8.77754C14.1596 8.78731 14.1597 8.79416 14.159 8.79856C14.1584 8.80299 14.1571 8.8036 14.1576 8.80324C14.1583 8.80269 14.1584 8.80335 14.156 8.80291C14.1535 8.80243 14.1493 8.80078 14.1438 8.79685C14.1212 8.78089 14.0892 8.73711 14.0704 8.66719L14.0414 8.67501ZM14.087 9.02773C14.072 8.99045 14.0554 8.94891 14.0487 8.89353C14.0419 8.83821 14.0449 8.76831 14.0703 8.67504L14.0414 8.66715C14.0151 8.76364 14.0116 8.83748 14.0189 8.89716C14.0262 8.95678 14.0441 9.00149 14.0592 9.03896L14.087 9.02773ZM14.0516 9.23235C14.0724 9.23235 14.0887 9.22366 14.0993 9.20858C14.1094 9.19431 14.1137 9.17559 14.1145 9.15621C14.1163 9.11731 14.1047 9.069 14.0869 9.02744L14.0593 9.03926C14.076 9.0782 14.086 9.12189 14.0846 9.15486C14.0838 9.17141 14.0802 9.1836 14.0748 9.19126C14.07 9.19809 14.0631 9.20235 14.0516 9.20235V9.23235ZM13.9071 9.06446C13.9197 9.09896 13.9346 9.14025 13.956 9.17278C13.9776 9.20554 14.0079 9.23235 14.0516 9.23235V9.20235C14.0223 9.20235 14 9.18505 13.9811 9.15626C13.9619 9.12724 13.9481 9.08952 13.9353 9.05422L13.9071 9.06446ZM13.8704 8.99085C13.8705 8.99085 13.8717 8.99075 13.8743 8.99328C13.8771 8.99595 13.8803 9.00052 13.884 9.0075C13.8915 9.02152 13.8987 9.04124 13.9071 9.06446L13.9353 9.05422C13.9272 9.03175 13.9192 9.00972 13.9105 8.99342C13.9062 8.98524 13.9012 8.9775 13.8951 8.97166C13.8889 8.96567 13.8806 8.96085 13.8704 8.96085V8.99085ZM13.8854 10.5801V8.97585H13.8554V10.5801H13.8854ZM15.2289 10.5651H13.8704V10.5951H15.2289V10.5651ZM10.6878 10.5951H11.9643V10.5651H10.6878V10.5951ZM10.6728 10.3788V10.5801H10.7028V10.3788H10.6728ZM10.6082 10.218C10.6246 10.238 10.6405 10.2575 10.6525 10.2824C10.6644 10.307 10.6728 10.3374 10.6728 10.3788H10.7028C10.7028 10.333 10.6935 10.2981 10.6795 10.2693C10.6657 10.2408 10.6476 10.2188 10.6315 10.199L10.6082 10.218ZM10.5521 10.0913C10.5521 10.1499 10.5809 10.1846 10.6082 10.218L10.6315 10.199C10.6039 10.1654 10.5821 10.1381 10.5821 10.0913H10.5521ZM10.5705 9.83244C10.5519 9.87582 10.5478 9.94192 10.5478 9.99504C10.5478 10.022 10.5488 10.0464 10.5499 10.0641C10.5505 10.0729 10.551 10.0801 10.5514 10.085C10.5516 10.0875 10.5518 10.0894 10.5519 10.0908C10.552 10.0914 10.5521 10.0919 10.5521 10.0923C10.5521 10.0925 10.5521 10.0926 10.5521 10.0927C10.5521 10.0927 10.5521 10.0928 10.5521 10.0928C10.5521 10.0928 10.5521 10.0928 10.5521 10.0928C10.5521 10.0928 10.5521 10.0928 10.5521 10.0928C10.5521 10.0928 10.5521 10.0928 10.5671 10.0913C10.582 10.0899 10.582 10.0899 10.582 10.0899C10.582 10.0899 10.582 10.0899 10.582 10.0899C10.582 10.0899 10.582 10.0898 10.582 10.0898C10.582 10.0898 10.582 10.0898 10.582 10.0898C10.582 10.0897 10.582 10.0896 10.5819 10.0894C10.5819 10.0891 10.5819 10.0886 10.5818 10.088C10.5817 10.0868 10.5815 10.0849 10.5813 10.0825C10.5809 10.0778 10.5804 10.0708 10.5799 10.0622C10.5788 10.045 10.5778 10.0212 10.5778 9.99504C10.5778 9.94178 10.5822 9.88137 10.5981 9.84426L10.5705 9.83244ZM10.6987 9.93035C10.6987 9.95301 10.6939 9.97091 10.6873 9.98179C10.6808 9.99257 10.6748 9.99377 10.6704 9.99268C10.6636 9.99103 10.6516 9.98252 10.6378 9.95647C10.6244 9.93115 10.6107 9.89206 10.599 9.83532L10.5696 9.84138C10.5816 9.89963 10.596 9.94176 10.6113 9.97053C10.6262 9.99857 10.6436 10.017 10.6632 10.0218C10.6852 10.0272 10.7027 10.0144 10.713 9.99732C10.7232 9.98035 10.7287 9.95656 10.7287 9.93035H10.6987ZM10.58 9.61936C10.6219 9.70413 10.6516 9.76435 10.671 9.81267C10.6902 9.86076 10.6987 9.89589 10.6987 9.93035H10.7287C10.7287 9.89054 10.7188 9.85139 10.6988 9.80151C10.6789 9.75185 10.6485 9.69039 10.6069 9.60606L10.58 9.61936ZM10.5579 9.57474L10.58 9.61935L10.6069 9.60607L10.5848 9.56146L10.5579 9.57474ZM10.5886 9.22135C10.5654 9.26158 10.549 9.3332 10.5424 9.40136C10.5391 9.43577 10.5383 9.47006 10.5405 9.50003C10.5427 9.52954 10.548 9.55659 10.5582 9.57528L10.5845 9.56091C10.5775 9.54798 10.5725 9.52616 10.5704 9.4978C10.5684 9.46991 10.5691 9.43737 10.5723 9.40421C10.5787 9.33725 10.5946 9.27087 10.6146 9.23634L10.5886 9.22135ZM10.6964 9.4726C10.6869 9.4726 10.6789 9.46916 10.6713 9.46113C10.6633 9.4526 10.6556 9.43875 10.6487 9.41811C10.6347 9.3768 10.6251 9.31369 10.6165 9.22736L10.5866 9.23034C10.5953 9.31651 10.6051 9.38277 10.6202 9.42771C10.6278 9.45019 10.6372 9.46869 10.6495 9.48172C10.6623 9.49525 10.678 9.5026 10.6964 9.5026V9.4726ZM10.7418 9.3726C10.7418 9.41471 10.7354 9.44021 10.7267 9.45472C10.7187 9.46802 10.7086 9.4726 10.6964 9.4726V9.5026C10.7188 9.5026 10.7388 9.4928 10.7524 9.47016C10.7653 9.44873 10.7718 9.41673 10.7718 9.3726H10.7418ZM10.6961 9.20225C10.7204 9.25556 10.7418 9.30287 10.7418 9.3726H10.7718C10.7718 9.29577 10.7477 9.24322 10.7234 9.1898L10.6961 9.20225ZM10.6562 9.1008C10.6675 9.13952 10.6823 9.17193 10.6961 9.20225L10.7234 9.1898C10.7095 9.15936 10.6956 9.12877 10.685 9.0924L10.6562 9.1008ZM10.7059 8.78295C10.6436 8.8675 10.6246 8.99157 10.6562 9.10076L10.685 9.09244C10.6558 8.99122 10.6739 8.877 10.7301 8.80075L10.7059 8.78295ZM10.7423 8.8716C10.7397 8.84753 10.7367 8.82036 10.7329 8.78999L10.7031 8.79371C10.7069 8.82384 10.7099 8.85081 10.7125 8.87489L10.7423 8.8716ZM10.7913 9.01835C10.7825 9.01835 10.7772 9.0162 10.7734 9.01287C10.7691 9.0092 10.7648 9.00269 10.7609 8.99099C10.7529 8.96702 10.7487 8.92903 10.7423 8.8716L10.7125 8.87489C10.7187 8.93064 10.7232 8.9727 10.7325 9.00049C10.7372 9.01466 10.7437 9.02696 10.7538 9.03563C10.7643 9.04463 10.777 9.04835 10.7913 9.04835V9.01835ZM10.7593 8.72227C10.7769 8.75995 10.8076 8.82585 10.8208 8.88794C10.8275 8.91903 10.8294 8.9477 10.8241 8.97075C10.8189 8.99307 10.8071 9.00991 10.7852 9.01964L10.7974 9.04705C10.8293 9.0329 10.8464 9.00748 10.8533 8.97751C10.8601 8.94827 10.8572 8.91461 10.8502 8.88168C10.8361 8.81572 10.8038 8.7468 10.7865 8.70958L10.7593 8.72227ZM10.7518 8.70614L10.7593 8.72222L10.7865 8.70963L10.7791 8.69355L10.7518 8.70614ZM10.8086 8.50435C10.7953 8.49741 10.7953 8.49741 10.7953 8.49742C10.7953 8.49742 10.7953 8.49742 10.7953 8.49742C10.7953 8.49743 10.7953 8.49744 10.7952 8.49745C10.7952 8.49747 10.7952 8.4975 10.7952 8.49754C10.7952 8.49762 10.7951 8.49773 10.795 8.49787C10.7949 8.49814 10.7947 8.49854 10.7944 8.49906C10.7939 8.5001 10.7931 8.50161 10.7922 8.50354C10.7903 8.5074 10.7876 8.51296 10.7845 8.51981C10.7783 8.53349 10.7703 8.55246 10.7631 8.57352C10.7559 8.59452 10.7494 8.61801 10.7464 8.64064C10.7434 8.66298 10.7436 8.68617 10.7516 8.70553L10.7793 8.69417C10.7743 8.6819 10.7734 8.66484 10.7761 8.64459C10.7788 8.62464 10.7847 8.60321 10.7915 8.58323C10.7983 8.56333 10.8059 8.54528 10.8119 8.53219C10.8148 8.52565 10.8173 8.52038 10.8191 8.51676C10.82 8.51496 10.8207 8.51356 10.8212 8.51263C10.8214 8.51217 10.8216 8.51182 10.8217 8.51159C10.8218 8.51148 10.8218 8.5114 10.8218 8.51135C10.8218 8.51132 10.8219 8.5113 10.8219 8.51129C10.8219 8.51129 10.8219 8.51128 10.8219 8.51128C10.8219 8.51128 10.8219 8.51128 10.8219 8.51128C10.8219 8.51128 10.8219 8.51129 10.8086 8.50435ZM10.8892 8.63992C10.8783 8.64428 10.8732 8.64519 10.8702 8.64475C10.8689 8.64457 10.866 8.64399 10.8614 8.63617C10.8565 8.6279 10.8513 8.61407 10.845 8.59159C10.8388 8.56938 10.8318 8.5399 10.8232 8.50109L10.7939 8.5076C10.8025 8.54642 10.8096 8.5766 10.8161 8.59967C10.8225 8.62247 10.8285 8.63954 10.8355 8.6514C10.8428 8.66371 10.8523 8.67247 10.8658 8.67444C10.8777 8.67616 10.8897 8.67204 10.9004 8.66777L10.8892 8.63992ZM10.8656 8.46735C10.8944 8.50575 10.9103 8.54771 10.9133 8.58113C10.9164 8.61576 10.9056 8.63443 10.8901 8.63962L10.8996 8.66808C10.9358 8.65601 10.9466 8.61718 10.9432 8.5785C10.9397 8.53861 10.9211 8.49144 10.8896 8.44935L10.8656 8.46735ZM10.8742 8.2596C10.8276 8.32173 10.8224 8.40346 10.8651 8.46674L10.89 8.44996C10.8551 8.39823 10.8585 8.33046 10.8982 8.2776L10.8742 8.2596ZM10.9704 8.30216C10.9694 8.31794 10.9658 8.32807 10.9619 8.33343C10.9586 8.33802 10.9559 8.33849 10.9531 8.33796C10.9488 8.33713 10.941 8.33295 10.931 8.32042C10.9212 8.3082 10.9106 8.28953 10.9001 8.26309L10.8722 8.27411C10.8834 8.30229 10.8954 8.32387 10.9076 8.33914C10.9195 8.3541 10.933 8.36466 10.9475 8.36743C10.9636 8.37049 10.9773 8.36341 10.9863 8.35093C10.9947 8.33922 10.9992 8.32276 11.0003 8.30403L10.9704 8.30216ZM10.936 8.05212L10.9705 8.30512L11.0002 8.30107L10.9657 8.04807L10.936 8.05212ZM10.9983 8.0351L10.9509 8.0351V8.0651L10.9983 8.0651V8.0351ZM10.9661 7.85978L10.9834 8.05144L11.0133 8.04875L10.996 7.85709L10.9661 7.85978ZM11.6668 7.84343H10.9811V7.87343H11.6668V7.84343ZM11.6644 8.05144L11.6817 7.85978L11.6518 7.85709L11.6346 8.04875L11.6644 8.05144ZM11.7013 8.0351L11.6495 8.0351V8.0651L11.7013 8.0651V8.0351ZM11.6773 8.29967L11.7161 8.05242L11.6864 8.04777L11.6476 8.29502L11.6773 8.29967ZM11.7519 8.26333C11.7416 8.29085 11.7301 8.30949 11.7193 8.32115C11.7085 8.33296 11.6994 8.33663 11.6938 8.33701C11.689 8.33733 11.6849 8.33544 11.6816 8.33021C11.6781 8.32445 11.6755 8.31419 11.6773 8.29921L11.6476 8.29549C11.6451 8.31501 11.6479 8.33278 11.6562 8.34606C11.6648 8.35988 11.679 8.36806 11.6958 8.36694C11.7117 8.36588 11.7275 8.35661 11.7414 8.34146C11.7555 8.32617 11.7687 8.30385 11.78 8.27386L11.7519 8.26333ZM11.7866 8.46735C11.8301 8.40934 11.8243 8.32144 11.7779 8.2596L11.7539 8.2776C11.7938 8.33075 11.7967 8.40386 11.7626 8.44935L11.7866 8.46735ZM11.7621 8.63962C11.7465 8.63443 11.7358 8.61576 11.7388 8.58113C11.7418 8.54771 11.7578 8.50575 11.7866 8.46735L11.7626 8.44935C11.731 8.49144 11.7125 8.53861 11.709 8.5785C11.7055 8.61718 11.7164 8.65601 11.7526 8.66808L11.7621 8.63962ZM11.8289 8.50097C11.8203 8.53836 11.8134 8.56714 11.8072 8.58912C11.8009 8.61133 11.7956 8.62547 11.7906 8.63421C11.7858 8.6427 11.7826 8.64379 11.7811 8.6441C11.7784 8.64466 11.7734 8.64414 11.7629 8.63992L11.7517 8.66777C11.7628 8.67218 11.775 8.67598 11.7872 8.67348C11.8005 8.67073 11.8097 8.6614 11.8167 8.64905C11.8236 8.63695 11.8297 8.61982 11.836 8.59729C11.8425 8.57452 11.8496 8.54509 11.8582 8.50772L11.8289 8.50097ZM11.9014 8.70275C11.9129 8.64454 11.9014 8.59272 11.8872 8.55577C11.8801 8.53726 11.8723 8.52232 11.8663 8.51196C11.8633 8.50677 11.8606 8.50271 11.8588 8.49991C11.8578 8.4985 11.8571 8.49741 11.8565 8.49665C11.8562 8.49626 11.856 8.49596 11.8559 8.49575C11.8558 8.49564 11.8557 8.49555 11.8557 8.49548C11.8556 8.49545 11.8556 8.49542 11.8556 8.4954C11.8556 8.49539 11.8556 8.49538 11.8556 8.49537C11.8556 8.49537 11.8556 8.49536 11.8556 8.49536C11.8556 8.49535 11.8556 8.49535 11.8436 8.50435C11.8316 8.51335 11.8316 8.51334 11.8316 8.51334C11.8316 8.51334 11.8316 8.51334 11.8316 8.51333C11.8316 8.51333 11.8316 8.51333 11.8316 8.51333C11.8315 8.51333 11.8316 8.51333 11.8316 8.51334C11.8316 8.51335 11.8316 8.51339 11.8316 8.51345C11.8317 8.51357 11.8319 8.51376 11.8321 8.51404C11.8325 8.51459 11.8331 8.51546 11.8338 8.51663C11.8354 8.51897 11.8377 8.5225 11.8404 8.5271C11.8458 8.53633 11.8528 8.54978 11.8592 8.56649C11.872 8.59998 11.882 8.6459 11.872 8.69694L11.9014 8.70275ZM11.8939 8.72008L11.9003 8.70611L11.8731 8.69359L11.8666 8.70756L11.8939 8.72008ZM11.8663 9.0194C11.8446 9.01081 11.8329 8.99465 11.8279 8.97241C11.8227 8.94934 11.8248 8.92017 11.8317 8.88839C11.8454 8.82497 11.8767 8.75727 11.8939 8.72012L11.8667 8.70752C11.8497 8.74424 11.8169 8.81487 11.8024 8.88203C11.7951 8.91553 11.792 8.94972 11.7986 8.97904C11.8055 9.00918 11.8228 9.03445 11.8553 9.0473L11.8663 9.0194ZM11.9098 8.8716C11.9035 8.92903 11.8992 8.96702 11.8912 8.99099C11.8873 9.00269 11.883 9.0092 11.8788 9.01287C11.8749 9.0162 11.8696 9.01835 11.8608 9.01835V9.04835C11.8751 9.04835 11.8878 9.04463 11.8983 9.03563C11.9084 9.02696 11.9149 9.01466 11.9196 9.00049C11.9289 8.9727 11.9335 8.93064 11.9396 8.87489L11.9098 8.8716ZM11.9192 8.78999C11.9154 8.82036 11.9125 8.84753 11.9098 8.8716L11.9396 8.87489C11.9423 8.85081 11.9452 8.82384 11.949 8.79371L11.9192 8.78999ZM11.9916 9.10094C12.0243 8.99286 12.0071 8.86898 11.9464 8.78319L11.9219 8.80051C11.9767 8.87802 11.9932 8.99214 11.9629 9.09226L11.9916 9.10094ZM11.9504 9.20927C11.9654 9.1768 11.9813 9.1422 11.9918 9.10024L11.9627 9.09296C11.953 9.13185 11.9382 9.16408 11.9232 9.19673L11.9504 9.20927ZM11.906 9.3726C11.906 9.30611 11.9271 9.26004 11.9504 9.20927L11.9232 9.19673C11.8998 9.24755 11.876 9.29893 11.876 9.3726H11.906ZM11.9557 9.4726C11.9433 9.4726 11.9319 9.46777 11.9229 9.45418C11.9134 9.43971 11.906 9.41437 11.906 9.3726H11.876C11.876 9.41708 11.8837 9.44923 11.8979 9.4707C11.9126 9.49305 11.9336 9.5026 11.9557 9.5026V9.4726ZM12.0356 9.2274C12.027 9.31663 12.0174 9.37967 12.0035 9.4202C11.9966 9.44042 11.989 9.45366 11.9811 9.46171C11.9736 9.46927 11.9656 9.4726 11.9557 9.4726V9.5026C11.9739 9.5026 11.9895 9.49586 12.0024 9.48276C12.0148 9.47015 12.0243 9.45212 12.0319 9.42994C12.0471 9.38565 12.0569 9.31932 12.0655 9.23029L12.0356 9.2274ZM12.0942 9.58056C12.1041 9.56066 12.1094 9.53281 12.1116 9.50243C12.1138 9.47168 12.113 9.43686 12.1097 9.40209C12.1032 9.33321 12.0868 9.26158 12.0636 9.22135L12.0376 9.23634C12.0575 9.27086 12.0734 9.33723 12.0798 9.40492C12.083 9.43843 12.0838 9.47153 12.0817 9.50026C12.0796 9.52936 12.0746 9.55253 12.0673 9.56714L12.0942 9.58056ZM12.0578 9.65179L12.0941 9.58067L12.0674 9.56703L12.0311 9.63815L12.0578 9.65179ZM11.9491 9.93035C11.9491 9.8981 11.9573 9.86517 11.9752 9.82167C11.9932 9.77797 12.0204 9.72476 12.0578 9.65181L12.0311 9.63814C11.994 9.71063 11.966 9.76513 11.9475 9.81026C11.9288 9.8556 11.9191 9.89264 11.9191 9.93035H11.9491ZM12.0488 9.83558C12.0381 9.89229 12.025 9.93131 12.0118 9.95655C11.9982 9.98246 11.9861 9.99099 11.9791 9.99267C11.9742 9.99386 11.9677 9.99231 11.961 9.98157C11.9541 9.97071 11.9491 9.95288 11.9491 9.93035H11.9191C11.9191 9.95669 11.9249 9.98055 11.9356 9.99754C11.9463 10.0147 11.9642 10.0271 11.9861 10.0218C12.0061 10.0171 12.0236 9.99863 12.0384 9.97045C12.0535 9.94161 12.0673 9.89941 12.0782 9.84111L12.0488 9.83558ZM12.0851 10.0913C12.1 10.0928 12.1 10.0928 12.1 10.0928C12.1 10.0928 12.1 10.0928 12.1 10.0928C12.1 10.0928 12.1 10.0928 12.1 10.0928C12.1 10.0928 12.1 10.0927 12.1 10.0927C12.1 10.0926 12.1 10.0925 12.1 10.0923C12.1001 10.0919 12.1001 10.0914 12.1002 10.0908C12.1003 10.0894 12.1005 10.0875 12.1007 10.085C12.1011 10.08 12.1016 10.0728 12.1021 10.064C12.1032 10.0463 12.1041 10.0219 12.1038 9.99488C12.1033 9.94173 12.098 9.8754 12.077 9.83183L12.05 9.84486C12.0678 9.88179 12.0733 9.94197 12.0738 9.99519C12.0741 10.0214 12.0732 10.0451 12.0722 10.0623C12.0717 10.0709 12.0712 10.0778 12.0708 10.0826C12.0706 10.0849 12.0704 10.0868 12.0703 10.088C12.0703 10.0886 12.0702 10.0891 12.0702 10.0894C12.0702 10.0896 12.0702 10.0897 12.0701 10.0898C12.0701 10.0898 12.0701 10.0898 12.0701 10.0898C12.0701 10.0898 12.0701 10.0899 12.0701 10.0899C12.0701 10.0899 12.0701 10.0899 12.0701 10.0899C12.0701 10.0899 12.0701 10.0899 12.0851 10.0913ZM12.0447 10.2189C12.0718 10.185 12.1001 10.1503 12.1001 10.0913H12.0701C12.0701 10.1387 12.0485 10.1661 12.0213 10.2001L12.0447 10.2189ZM11.9793 10.3792C11.9815 10.2978 12.0136 10.2577 12.0447 10.2189L12.0213 10.2001C11.9892 10.2402 11.9518 10.2868 11.9493 10.3784L11.9793 10.3792ZM11.9793 10.5801V10.3788H11.9493V10.5801H11.9793ZM7.41257 8.9701V10.5801H7.44257V8.9701H7.41257ZM7.49249 9.05057C7.48433 9.02755 7.47638 9.00504 7.46773 8.98838C7.46339 8.98004 7.45838 8.97215 7.45233 8.96619C7.44615 8.9601 7.43788 8.9551 7.42757 8.9551V8.9851C7.42767 8.9851 7.42789 8.9851 7.42839 8.98534C7.42897 8.98562 7.42994 8.98624 7.43128 8.98756C7.43408 8.99032 7.43738 8.99503 7.44111 9.00221C7.44858 9.0166 7.45579 9.03683 7.46422 9.06059L7.49249 9.05057ZM7.60869 9.20235C7.57959 9.20235 7.55733 9.18473 7.53827 9.15514C7.5191 9.12537 7.5053 9.0867 7.49249 9.05057L7.46422 9.06059C7.47674 9.09592 7.49163 9.13813 7.51305 9.17138C7.53458 9.20481 7.56481 9.23235 7.60869 9.23235V9.20235ZM7.61674 9.03986C7.63534 9.07844 7.64528 9.12188 7.64331 9.15464C7.64233 9.17106 7.63845 9.18327 7.63274 9.19101C7.62755 9.19804 7.62022 9.20235 7.60869 9.20235V9.23235C7.6295 9.23235 7.64589 9.22371 7.65688 9.20882C7.66734 9.19464 7.67209 9.17595 7.67326 9.15643C7.6756 9.11732 7.66398 9.06875 7.64376 9.02683L7.61674 9.03986ZM7.59853 8.66715C7.57222 8.76364 7.56874 8.83748 7.57601 8.89716C7.58328 8.95678 7.60121 9.00149 7.61634 9.03896L7.64416 9.02773C7.62911 8.99045 7.61254 8.94891 7.60579 8.89353C7.59905 8.83821 7.60204 8.76831 7.62747 8.67504L7.59853 8.66715ZM7.71473 8.77754C7.71669 8.78731 7.71682 8.79416 7.71615 8.79856C7.71548 8.80299 7.71424 8.8036 7.7147 8.80324C7.71541 8.80269 7.71551 8.80335 7.71317 8.80291C7.71061 8.80243 7.70645 8.80078 7.70091 8.79685C7.67835 8.78089 7.64636 8.73711 7.62748 8.66719L7.59852 8.67501C7.61846 8.74884 7.65331 8.79993 7.68358 8.82134C7.69124 8.82676 7.69942 8.83086 7.70765 8.8324C7.71612 8.83398 7.72548 8.83294 7.73326 8.82681C7.7408 8.82088 7.74445 8.81206 7.74581 8.80306C7.74718 8.79403 7.74651 8.78345 7.74415 8.77166L7.71473 8.77754ZM7.67592 8.66078C7.69055 8.69504 7.70552 8.73016 7.71472 8.77746L7.74416 8.77173C7.7343 8.72101 7.71817 8.68332 7.70351 8.649L7.67592 8.66078ZM7.66329 8.35063C7.63932 8.43255 7.63397 8.49103 7.63918 8.53911C7.64439 8.58715 7.66009 8.62371 7.67592 8.66078L7.70351 8.649C7.6876 8.61174 7.67368 8.57894 7.66901 8.53587C7.66434 8.49285 7.66884 8.43847 7.69209 8.35906L7.66329 8.35063ZM7.75782 8.43236C7.76293 8.45962 7.76062 8.47802 7.75621 8.48773C7.75407 8.49244 7.7519 8.49415 7.75084 8.4947C7.7501 8.49508 7.7489 8.49546 7.74643 8.49456C7.74031 8.49234 7.72934 8.48293 7.71827 8.4589C7.70754 8.43562 7.69787 8.401 7.6926 8.3532L7.66278 8.35649C7.66829 8.40645 7.67857 8.44442 7.69102 8.47145C7.70313 8.49774 7.71857 8.51636 7.73617 8.52276C7.74556 8.52617 7.75555 8.52602 7.76458 8.52137C7.77329 8.51688 7.77947 8.50906 7.78353 8.50013C7.79152 8.48252 7.79298 8.45708 7.78731 8.42683L7.75782 8.43236ZM7.73619 8.34776C7.74382 8.37398 7.75171 8.4011 7.75784 8.43248L7.78729 8.42672C7.78085 8.39384 7.7726 8.36552 7.76499 8.33937L7.73619 8.34776ZM7.74558 8.05058C7.71895 8.12159 7.71025 8.17508 7.71162 8.22178C7.71298 8.26827 7.72436 8.30712 7.73619 8.34776L7.76499 8.33937C7.75306 8.29839 7.74284 8.26303 7.7416 8.2209C7.74037 8.17897 7.74806 8.12941 7.77367 8.06111L7.74558 8.05058ZM7.83088 8.12485C7.83088 8.15735 7.82793 8.18112 7.82353 8.19535C7.82125 8.20271 7.81912 8.20574 7.81832 8.20651C7.81811 8.20673 7.81868 8.20609 7.8201 8.20577C7.82164 8.20543 7.82283 8.20577 7.82323 8.20594C7.8233 8.20597 7.82084 8.20465 7.81665 8.19802C7.81274 8.19185 7.8083 8.18262 7.80355 8.16978C7.79406 8.14414 7.78401 8.10591 7.77438 8.05316L7.74487 8.05854C7.75465 8.11216 7.76508 8.15227 7.77541 8.18019C7.78056 8.19412 7.78586 8.20546 7.7913 8.21406C7.79645 8.22221 7.80296 8.22988 7.81138 8.2335C7.81596 8.23547 7.82118 8.23626 7.82656 8.23507C7.83183 8.23391 7.83607 8.23112 7.83932 8.22794C7.84545 8.22194 7.84941 8.2132 7.85219 8.20421C7.8579 8.18574 7.86088 8.15847 7.86088 8.12485H7.83088ZM8.02128 7.63373C7.9252 7.67338 7.87749 7.74845 7.85402 7.8371C7.83078 7.92489 7.83088 8.02761 7.83088 8.12485H7.86088C7.86088 8.02659 7.86098 7.92806 7.88302 7.84478C7.90483 7.76237 7.94768 7.69656 8.03273 7.66146L8.02128 7.63373ZM8.10894 7.4601C8.08453 7.4601 8.06681 7.47557 8.0546 7.49366C8.04234 7.51181 8.03373 7.5352 8.02763 7.55737C8.02148 7.57976 8.01759 7.602 8.01525 7.61854C8.01408 7.62684 8.01328 7.63377 8.01277 7.63864C8.01252 7.64108 8.01234 7.64301 8.01222 7.64434C8.01216 7.64501 8.01212 7.64553 8.01209 7.64589C8.01208 7.64606 8.01207 7.6462 8.01206 7.6463C8.01205 7.64635 8.01205 7.64639 8.01205 7.64642C8.01205 7.64644 8.01205 7.64645 8.01205 7.64646C8.01205 7.64646 8.01205 7.64647 8.01205 7.64647C8.01205 7.64647 8.01205 7.64648 8.027 7.6476C8.04196 7.64872 8.04196 7.64872 8.04196 7.64872C8.04196 7.64872 8.04196 7.64872 8.04196 7.64872C8.04196 7.64872 8.04196 7.64872 8.04196 7.64871C8.04196 7.6487 8.04196 7.64868 8.04197 7.64864C8.04197 7.64857 8.04198 7.64847 8.04199 7.64832C8.04202 7.64803 8.04205 7.64758 8.04211 7.64698C8.04221 7.64579 8.04238 7.64401 8.04261 7.64173C8.04309 7.63717 8.04384 7.63062 8.04495 7.62275C8.04719 7.60695 8.05086 7.58606 8.05656 7.56532C8.06232 7.54437 8.06988 7.52463 8.07946 7.51044C8.08908 7.49619 8.09886 7.4901 8.10894 7.4901V7.4601ZM8.18657 7.6476C8.20152 7.64648 8.20152 7.64647 8.20152 7.64647C8.20152 7.64647 8.20152 7.64646 8.20152 7.64646C8.20152 7.64645 8.20152 7.64644 8.20152 7.64642C8.20152 7.64639 8.20151 7.64636 8.20151 7.64631C8.2015 7.64621 8.20149 7.64607 8.20148 7.64589C8.20145 7.64553 8.20141 7.64502 8.20135 7.64435C8.20123 7.64302 8.20105 7.6411 8.20081 7.63867C8.20031 7.6338 8.19953 7.62689 8.19839 7.6186C8.19612 7.60208 8.19238 7.57988 8.18652 7.55754C8.18071 7.53541 8.17255 7.5121 8.16101 7.49399C8.14962 7.47612 8.13272 7.4601 8.10894 7.4601V7.4901C8.11751 7.4901 8.12649 7.49564 8.13571 7.51011C8.14478 7.52435 8.15199 7.54416 8.1575 7.56516C8.16296 7.58594 8.1665 7.60686 8.16867 7.62269C8.16976 7.63057 8.1705 7.63714 8.17096 7.6417C8.17119 7.64399 8.17136 7.64577 8.17146 7.64697C8.17151 7.64757 8.17155 7.64802 8.17158 7.64831C8.17159 7.64846 8.1716 7.64857 8.1716 7.64864C8.1716 7.64867 8.17161 7.6487 8.17161 7.64871C8.17161 7.64872 8.17161 7.64872 8.17161 7.64872C8.17161 7.64872 8.17161 7.64872 8.17161 7.64872C8.17161 7.64872 8.17161 7.64872 8.18657 7.6476ZM8.3827 8.1122C8.38274 8.01948 8.38289 7.91947 8.35964 7.83347C8.33616 7.74658 8.28836 7.67246 8.19217 7.63369L8.18096 7.66151C8.2661 7.69583 8.30891 7.76077 8.33068 7.8413C8.35269 7.92271 8.35274 8.01845 8.3527 8.11219L8.3827 8.1122ZM8.38269 8.12485L8.3827 8.1122L8.3527 8.11219L8.35269 8.12484L8.38269 8.12485ZM8.43918 8.05316C8.42956 8.10591 8.41951 8.14414 8.41002 8.16978C8.40527 8.18262 8.40083 8.19185 8.39692 8.19802C8.39273 8.20465 8.39027 8.20597 8.39033 8.20594C8.39074 8.20577 8.39193 8.20543 8.39346 8.20577C8.39489 8.20609 8.39546 8.20673 8.39524 8.20651C8.39445 8.20574 8.39232 8.20271 8.39004 8.19535C8.38564 8.18112 8.38269 8.15735 8.38269 8.12485H8.35269C8.35269 8.15847 8.35567 8.18574 8.36138 8.20421C8.36416 8.2132 8.36812 8.22194 8.37425 8.22794C8.3775 8.23112 8.38174 8.23391 8.38701 8.23507C8.39239 8.23626 8.39761 8.23547 8.40219 8.2335C8.41061 8.22988 8.41711 8.22221 8.42227 8.21406C8.42771 8.20546 8.433 8.19412 8.43816 8.18019C8.44849 8.15227 8.45892 8.11216 8.4687 8.05854L8.43918 8.05316ZM8.47738 8.34776C8.48921 8.30712 8.50059 8.26827 8.50195 8.22178C8.50332 8.17508 8.49461 8.12159 8.46799 8.05058L8.4399 8.06111C8.46551 8.12941 8.4732 8.17897 8.47196 8.2209C8.47073 8.26303 8.46051 8.29839 8.44858 8.33937L8.47738 8.34776ZM8.4774 8.34769L8.4774 8.34768L8.44856 8.33944L8.44856 8.33945L8.4774 8.34769ZM8.4775 8.34732L8.4775 8.34732L8.44845 8.33982L8.44845 8.33983L8.4775 8.34732ZM8.45572 8.43248C8.46186 8.4011 8.46975 8.37399 8.47738 8.34777L8.44857 8.33938C8.44096 8.36553 8.43271 8.39385 8.42628 8.42672L8.45572 8.43248ZM8.52097 8.3532C8.5157 8.401 8.50603 8.43562 8.4953 8.4589C8.48423 8.48293 8.47326 8.49234 8.46714 8.49456C8.46467 8.49546 8.46347 8.49508 8.46273 8.4947C8.46167 8.49415 8.4595 8.49244 8.45736 8.48773C8.45295 8.47802 8.45064 8.45962 8.45575 8.43236L8.42626 8.42683C8.42059 8.45708 8.42205 8.48252 8.43004 8.50013C8.4341 8.50906 8.44028 8.51688 8.44899 8.52137C8.45802 8.52602 8.46801 8.52617 8.4774 8.52276C8.49499 8.51636 8.51044 8.49774 8.52255 8.47145C8.535 8.44442 8.54528 8.40645 8.55079 8.35649L8.52097 8.3532ZM8.53765 8.66078C8.55348 8.62371 8.56918 8.58715 8.57439 8.53911C8.5796 8.49103 8.57425 8.43255 8.55027 8.35063L8.52148 8.35906C8.54472 8.43847 8.54923 8.49285 8.54456 8.53587C8.53989 8.57894 8.52597 8.61174 8.51006 8.649L8.53765 8.66078ZM8.49885 8.77746C8.50805 8.73016 8.52302 8.69504 8.53765 8.66078L8.51006 8.649C8.4954 8.68332 8.47927 8.72101 8.4694 8.77173L8.49885 8.77746ZM8.58608 8.66719C8.56721 8.73711 8.53522 8.78089 8.51266 8.79685C8.50712 8.80078 8.50296 8.80243 8.5004 8.80291C8.49806 8.80335 8.49816 8.80269 8.49887 8.80324C8.49932 8.8036 8.49809 8.80299 8.49742 8.79856C8.49675 8.79416 8.49688 8.78731 8.49884 8.77754L8.46942 8.77166C8.46706 8.78345 8.46639 8.79403 8.46776 8.80306C8.46912 8.81206 8.47277 8.82088 8.48031 8.82681C8.48809 8.83294 8.49745 8.83398 8.50592 8.8324C8.51415 8.83086 8.52233 8.82676 8.52999 8.82134C8.56025 8.79993 8.59511 8.74884 8.61505 8.67501L8.58608 8.66719ZM8.59722 9.03896C8.61236 9.00149 8.63029 8.95678 8.63756 8.89716C8.64483 8.83748 8.64135 8.76364 8.61504 8.66715L8.58609 8.67504C8.61153 8.76831 8.61452 8.83821 8.60778 8.89353C8.60103 8.94891 8.58446 8.99045 8.56941 9.02773L8.59722 9.03896ZM8.60488 9.20235C8.59339 9.20235 8.58645 9.19809 8.58162 9.19126C8.5762 9.1836 8.57263 9.17141 8.57189 9.15486C8.5704 9.12189 8.58041 9.0782 8.5971 9.03926L8.56953 9.02744C8.55172 9.069 8.54017 9.11731 8.54192 9.15621C8.54279 9.17559 8.54704 9.19431 8.55712 9.20858C8.56779 9.22366 8.58402 9.23235 8.60488 9.23235V9.20235ZM8.72112 9.05422C8.7083 9.08952 8.69453 9.12724 8.67539 9.15626C8.6564 9.18505 8.63414 9.20235 8.60488 9.20235V9.23235C8.64859 9.23235 8.67883 9.20554 8.70043 9.17278C8.72189 9.14025 8.73679 9.09896 8.74932 9.06446L8.72112 9.05422ZM8.786 8.96085C8.77581 8.96085 8.76758 8.96567 8.76136 8.97166C8.75529 8.9775 8.75026 8.98524 8.74591 8.99342C8.73724 9.00972 8.72928 9.03175 8.72112 9.05422L8.74932 9.06446C8.75775 9.04124 8.76494 9.02152 8.7724 9.0075C8.77611 9.00052 8.77939 8.99595 8.78216 8.99328C8.78479 8.99075 8.78596 8.99085 8.786 8.99085V8.96085ZM8.801 10.5801V8.97585H8.771V10.5801H8.801ZM7.42757 10.5951H8.786V10.5651H7.42757V10.5951ZM11.3252 7.58854C11.2927 7.59034 11.2698 7.61045 11.2541 7.63579C11.2386 7.66092 11.229 7.69296 11.2229 7.7235C11.2168 7.75426 11.2141 7.78466 11.2128 7.80727C11.2122 7.8186 11.212 7.82804 11.2119 7.83468C11.2119 7.838 11.2118 7.84061 11.2119 7.84242C11.2119 7.84332 11.2119 7.84402 11.2119 7.84451C11.2119 7.84475 11.2119 7.84493 11.2119 7.84507C11.2119 7.84513 11.2119 7.84518 11.2119 7.84522C11.2119 7.84524 11.2119 7.84525 11.2119 7.84526C11.2119 7.84527 11.2119 7.84528 11.2119 7.84528C11.2119 7.84528 11.2119 7.84529 11.2269 7.84501C11.2419 7.84474 11.2419 7.84474 11.2419 7.84474C11.2419 7.84474 11.2419 7.84474 11.2419 7.84474C11.2419 7.84474 11.2419 7.84473 11.2419 7.84472C11.2419 7.8447 11.2419 7.84467 11.2419 7.84462C11.2419 7.84453 11.2419 7.84437 11.2419 7.84417C11.2419 7.84376 11.2419 7.84314 11.2419 7.84231C11.2418 7.84066 11.2419 7.83821 11.2419 7.83507C11.242 7.82879 11.2422 7.81977 11.2428 7.80891C11.244 7.78713 11.2466 7.75824 11.2524 7.72934C11.2582 7.70023 11.2669 7.67224 11.2797 7.65156C11.2923 7.63108 11.3077 7.61956 11.3269 7.61849L11.3252 7.58854ZM11.4209 7.84501C11.4359 7.84528 11.4359 7.84528 11.4359 7.84527C11.4359 7.84527 11.4359 7.84526 11.4359 7.84526C11.4359 7.84525 11.4359 7.84523 11.4359 7.84521C11.4359 7.84518 11.4359 7.84512 11.4359 7.84506C11.4359 7.84493 11.4359 7.84474 11.4359 7.84449C11.436 7.844 11.436 7.84329 11.436 7.84236C11.436 7.84052 11.436 7.83785 11.4359 7.83446C11.4359 7.8277 11.4356 7.81807 11.435 7.80652C11.4339 7.78349 11.4313 7.75258 11.4254 7.7215C11.4197 7.69067 11.4105 7.65844 11.3956 7.63355C11.3806 7.60847 11.3582 7.58851 11.3261 7.58851V7.61851C11.3435 7.61851 11.3578 7.62874 11.3699 7.64895C11.3821 7.66934 11.3904 7.69748 11.396 7.72703C11.4014 7.75632 11.404 7.78579 11.4051 7.80804C11.4056 7.81913 11.4059 7.82837 11.4059 7.83481C11.406 7.83803 11.406 7.84054 11.406 7.84224C11.406 7.84309 11.406 7.84373 11.406 7.84415C11.4059 7.84436 11.4059 7.84452 11.4059 7.84462C11.4059 7.84467 11.4059 7.84471 11.4059 7.84473C11.4059 7.84474 11.4059 7.84474 11.4059 7.84475C11.4059 7.84475 11.4059 7.84475 11.4059 7.84475C11.4059 7.84475 11.4059 7.84475 11.4209 7.84501ZM11.2269 7.86001H11.4209V7.83001H11.2269V7.86001Z" fill="white"/>
<rect width="23" height="23" rx="11.5" fill="url(#paint0_linear_2754_2886)" style="mix-blend-mode:overlay"/>
<rect x="0.5" y="0.5" width="22" height="22" rx="11" stroke="black" stroke-opacity="0.1"/>
<defs>
<linearGradient id="paint0_linear_2754_2886" x1="11.5" y1="0" x2="11.5" y2="23" gradientUnits="userSpaceOnUse">
<stop stop-color="white" stop-opacity="0.7"/>
<stop offset="1" stop-opacity="0.3"/>
</linearGradient>
</defs>
</svg>
