<svg width="23" height="23" viewBox="0 0 23 23" fill="none" xmlns="http://www.w3.org/2000/svg">
<mask id="mask0_2754_2916" style="mask-type:alpha" maskUnits="userSpaceOnUse" x="0" y="0" width="23" height="23">
<rect width="23" height="23" fill="white"/>
</mask>
<g mask="url(#mask0_2754_2916)">
<path fill-rule="evenodd" clip-rule="evenodd" d="M0 0V23H23V0H0Z" fill="#3D58DB"/>
<mask id="mask1_2754_2916" style="mask-type:alpha" maskUnits="userSpaceOnUse" x="0" y="0" width="23" height="23">
<path fill-rule="evenodd" clip-rule="evenodd" d="M0 0V23H23V0H0Z" fill="white"/>
</mask>
<g mask="url(#mask1_2754_2916)">
<path d="M0 5.25H-0.5V5.75V17.25V17.75H0H23H23.5V17.25V5.75V5.25H23H0Z" fill="#C51918" stroke="#F7FCFF"/>
<path fill-rule="evenodd" clip-rule="evenodd" d="M7.1875 16.2918C9.17227 16.2918 10.7812 14.1465 10.7812 11.5002C10.7812 8.8538 9.17227 6.7085 7.1875 6.7085C5.20273 6.7085 3.59375 8.8538 3.59375 11.5002C3.59375 14.1465 5.20273 16.2918 7.1875 16.2918Z" fill="#F7FCFF"/>
<path fill-rule="evenodd" clip-rule="evenodd" d="M7.18395 13.292L5.23159 15.1035L5.92036 12.068L4.02496 10.152L6.40301 10.0874L7.18395 7.0918L7.96489 10.0874L10.3429 10.152L8.44754 12.068L9.13631 15.1035L7.18395 13.292Z" fill="#C51918"/>
</g>
</g>
<rect width="23" height="23" rx="11.5" fill="url(#paint0_linear_2754_2916)" style="mix-blend-mode:overlay"/>
<rect x="0.5" y="0.5" width="22" height="22" rx="11" stroke="black" stroke-opacity="0.1"/>
<defs>
<linearGradient id="paint0_linear_2754_2916" x1="11.5" y1="0" x2="11.5" y2="23" gradientUnits="userSpaceOnUse">
<stop stop-color="white" stop-opacity="0.7"/>
<stop offset="1" stop-opacity="0.3"/>
</linearGradient>
</defs>
</svg>
