<svg width="23" height="23" viewBox="0 0 23 23" fill="none" xmlns="http://www.w3.org/2000/svg">
<mask id="mask0_2754_2931" style="mask-type:alpha" maskUnits="userSpaceOnUse" x="0" y="0" width="23" height="23">
<rect width="23" height="23" fill="white"/>
</mask>
<g mask="url(#mask0_2754_2931)">
<path fill-rule="evenodd" clip-rule="evenodd" d="M0 0V23H23V0H0Z" fill="#F7FCFF"/>
<mask id="mask1_2754_2931" style="mask-type:alpha" maskUnits="userSpaceOnUse" x="0" y="0" width="23" height="23">
<path fill-rule="evenodd" clip-rule="evenodd" d="M0 0V23H23V0H0Z" fill="white"/>
</mask>
<g mask="url(#mask1_2754_2931)">
<path fill-rule="evenodd" clip-rule="evenodd" d="M11.3466 17.7979C13.802 17.7979 15.7926 15.08 15.7926 11.7273C15.7926 8.37462 13.802 5.65674 11.3466 5.65674C8.89121 5.65674 6.9007 8.37462 6.9007 11.7273C6.9007 15.08 8.89121 17.7979 11.3466 17.7979Z" fill="#3D58DB"/>
<mask id="mask2_2754_2931" style="mask-type:alpha" maskUnits="userSpaceOnUse" x="6" y="5" width="10" height="13">
<path fill-rule="evenodd" clip-rule="evenodd" d="M11.3466 17.7979C13.802 17.7979 15.7926 15.08 15.7926 11.7273C15.7926 8.37462 13.802 5.65674 11.3466 5.65674C8.89121 5.65674 6.9007 8.37462 6.9007 11.7273C6.9007 15.08 8.89121 17.7979 11.3466 17.7979Z" fill="white"/>
</mask>
<g mask="url(#mask2_2754_2931)">
<path fill-rule="evenodd" clip-rule="evenodd" d="M15.9481 12.1924C15.9481 12.1924 15.6985 9.32992 13.8503 9.17453C12.0022 9.01913 11.5038 11.2737 11.3972 11.871C11.2905 12.4683 11.0206 14.0617 9.07469 14.0617C7.12878 14.0617 6.95325 10.01 6.95325 10.01V5.23242H15.9481V12.1924Z" fill="#E31D1C"/>
</g>
<path fill-rule="evenodd" clip-rule="evenodd" d="M5.24641 1.9668L5.90404 2.75984L2.85636 7.50542L2.19873 6.71237L5.24641 1.9668ZM6.331 3.25016L6.98863 4.0432L4.05019 8.72003L3.39256 7.92698L6.331 3.25016ZM8.06825 5.34237L7.41062 4.54933L4.46402 9.26165L5.12165 10.0547L8.06825 5.34237Z" fill="#272727"/>
<path d="M5.90404 2.75984L5.96715 2.80037L5.9968 2.7542L5.96178 2.71197L5.90404 2.75984ZM5.24641 1.9668L5.30415 1.91892L5.23871 1.84001L5.18331 1.92627L5.24641 1.9668ZM2.85636 7.50542L2.79863 7.55329L2.86407 7.63221L2.91947 7.54595L2.85636 7.50542ZM2.19873 6.71237L2.13562 6.67184L2.10597 6.71801L2.141 6.76025L2.19873 6.71237ZM6.98863 4.0432L7.05214 4.0831L7.08102 4.03713L7.04636 3.99533L6.98863 4.0432ZM6.331 3.25016L6.38873 3.20228L6.32261 3.12254L6.2675 3.21026L6.331 3.25016ZM4.05019 8.72003L3.99246 8.7679L4.05859 8.84765L4.1137 8.75993L4.05019 8.72003ZM3.39256 7.92698L3.32906 7.88708L3.30017 7.93306L3.33483 7.97486L3.39256 7.92698ZM7.41062 4.54933L7.46835 4.50145L7.40208 4.42153L7.34703 4.50956L7.41062 4.54933ZM8.06825 5.34237L8.13184 5.38214L8.16056 5.3362L8.12598 5.2945L8.06825 5.34237ZM4.46402 9.26165L4.40042 9.22188L4.3717 9.26782L4.40628 9.30952L4.46402 9.26165ZM5.12165 10.0547L5.06391 10.1026L5.13019 10.1825L5.18524 10.0945L5.12165 10.0547ZM5.96178 2.71197L5.30415 1.91892L5.18868 2.01467L5.84631 2.80772L5.96178 2.71197ZM2.91947 7.54595L5.96715 2.80037L5.84094 2.71931L2.79325 7.46489L2.91947 7.54595ZM2.141 6.76025L2.79863 7.55329L2.91409 7.45754L2.25646 6.6645L2.141 6.76025ZM5.18331 1.92627L2.13562 6.67184L2.26184 6.7529L5.30952 2.00733L5.18331 1.92627ZM7.04636 3.99533L6.38873 3.20228L6.27327 3.29803L6.9309 4.09108L7.04636 3.99533ZM4.1137 8.75993L7.05214 4.0831L6.92512 4.0033L3.98669 8.68013L4.1137 8.75993ZM3.33483 7.97486L3.99246 8.7679L4.10793 8.67215L3.4503 7.87911L3.33483 7.97486ZM6.2675 3.21026L3.32906 7.88708L3.45607 7.96688L6.39451 3.29006L6.2675 3.21026ZM7.35289 4.5972L8.01052 5.39025L8.12598 5.2945L7.46835 4.50145L7.35289 4.5972ZM4.52761 9.30141L7.47421 4.58909L7.34703 4.50956L4.40042 9.22188L4.52761 9.30141ZM5.17938 10.0068L4.52175 9.21377L4.40628 9.30952L5.06391 10.1026L5.17938 10.0068ZM8.00466 5.30261L5.05805 10.0149L5.18524 10.0945L8.13184 5.38214L8.00466 5.30261Z" fill="#272727"/>
<path fill-rule="evenodd" clip-rule="evenodd" d="M17.6706 1.9668L17.0129 2.75984L20.0606 7.50542L20.7183 6.71237L17.6706 1.9668ZM16.586 3.25016L15.9284 4.0432L18.8668 8.72003L19.5244 7.92698L16.586 3.25016ZM14.8487 5.34237L15.5064 4.54933L18.453 9.26165L17.7953 10.0547L14.8487 5.34237Z" fill="#272727"/>
<path d="M17.0129 2.75984L16.9498 2.80037L16.9202 2.7542L16.9552 2.71197L17.0129 2.75984ZM17.6706 1.9668L17.6128 1.91892L17.6783 1.84001L17.7337 1.92627L17.6706 1.9668ZM20.0606 7.50542L20.1184 7.55329L20.0529 7.63221L19.9975 7.54595L20.0606 7.50542ZM20.7183 6.71237L20.7814 6.67184L20.811 6.71801L20.776 6.76025L20.7183 6.71237ZM15.9284 4.0432L15.8649 4.0831L15.836 4.03713L15.8706 3.99533L15.9284 4.0432ZM16.586 3.25016L16.5283 3.20228L16.5944 3.12254L16.6495 3.21026L16.586 3.25016ZM18.8668 8.72003L18.9245 8.7679L18.8584 8.84765L18.8033 8.75993L18.8668 8.72003ZM19.5244 7.92698L19.5879 7.88708L19.6168 7.93306L19.5822 7.97486L19.5244 7.92698ZM15.5064 4.54933L15.4486 4.50145L15.5149 4.42153L15.57 4.50956L15.5064 4.54933ZM14.8487 5.34237L14.7852 5.38214L14.7564 5.3362L14.791 5.2945L14.8487 5.34237ZM18.453 9.26165L18.5166 9.22188L18.5453 9.26782L18.5107 9.30952L18.453 9.26165ZM17.7953 10.0547L17.8531 10.1026L17.7868 10.1825L17.7318 10.0945L17.7953 10.0547ZM16.9552 2.71197L17.6128 1.91892L17.7283 2.01467L17.0707 2.80772L16.9552 2.71197ZM19.9975 7.54595L16.9498 2.80037L17.0761 2.71931L20.1237 7.46489L19.9975 7.54595ZM20.776 6.76025L20.1184 7.55329L20.0029 7.45754L20.6605 6.6645L20.776 6.76025ZM17.7337 1.92627L20.7814 6.67184L20.6552 6.7529L17.6075 2.00733L17.7337 1.92627ZM15.8706 3.99533L16.5283 3.20228L16.6437 3.29803L15.9861 4.09108L15.8706 3.99533ZM18.8033 8.75993L15.8649 4.0831L15.9919 4.0033L18.9303 8.68013L18.8033 8.75993ZM19.5822 7.97486L18.9245 8.7679L18.8091 8.67215L19.4667 7.87911L19.5822 7.97486ZM16.6495 3.21026L19.5879 7.88708L19.4609 7.96688L16.5225 3.29006L16.6495 3.21026ZM15.5641 4.5972L14.9065 5.39025L14.791 5.2945L15.4486 4.50145L15.5641 4.5972ZM18.3894 9.30141L15.4428 4.58909L15.57 4.50956L18.5166 9.22188L18.3894 9.30141ZM17.7376 10.0068L18.3952 9.21377L18.5107 9.30952L17.8531 10.1026L17.7376 10.0068ZM14.9123 5.30261L17.8589 10.0149L17.7318 10.0945L14.7852 5.38214L14.9123 5.30261Z" fill="#272727"/>
<path fill-rule="evenodd" clip-rule="evenodd" d="M5.24641 21.5547L5.90404 20.7616L2.85636 16.0161L2.19873 16.8091L5.24641 21.5547ZM6.331 20.2713L6.98863 19.4783L4.05019 14.8015L3.39256 15.5945L6.331 20.2713ZM8.06825 18.1791L7.41062 18.9722L4.46402 14.2598L5.12165 13.4668L8.06825 18.1791Z" fill="#272727"/>
<path d="M5.90404 20.7616L5.96715 20.7211L5.9968 20.7673L5.96178 20.8095L5.90404 20.7616ZM5.24641 21.5547L5.30415 21.6026L5.23871 21.6815L5.18331 21.5952L5.24641 21.5547ZM2.85636 16.0161L2.79863 15.9682L2.86407 15.8893L2.91947 15.9755L2.85636 16.0161ZM2.19873 16.8091L2.13562 16.8496L2.10597 16.8035L2.141 16.7612L2.19873 16.8091ZM6.98863 19.4783L7.05214 19.4384L7.08102 19.4844L7.04636 19.5262L6.98863 19.4783ZM6.331 20.2713L6.38873 20.3192L6.32261 20.3989L6.2675 20.3112L6.331 20.2713ZM4.05019 14.8015L3.99246 14.7536L4.05859 14.6738L4.1137 14.7616L4.05019 14.8015ZM3.39256 15.5945L3.32906 15.6344L3.30017 15.5884L3.33483 15.5466L3.39256 15.5945ZM7.41062 18.9722L7.46835 19.02L7.40208 19.1L7.34703 19.0119L7.41062 18.9722ZM8.06825 18.1791L8.13184 18.1393L8.16056 18.1853L8.12598 18.227L8.06825 18.1791ZM4.46402 14.2598L4.40042 14.2996L4.3717 14.2537L4.40628 14.212L4.46402 14.2598ZM5.12165 13.4668L5.06391 13.4189L5.13019 13.339L5.18524 13.427L5.12165 13.4668ZM5.96178 20.8095L5.30415 21.6026L5.18868 21.5068L5.84631 20.7138L5.96178 20.8095ZM2.91947 15.9755L5.96715 20.7211L5.84094 20.8022L2.79325 16.0566L2.91947 15.9755ZM2.141 16.7612L2.79863 15.9682L2.91409 16.0639L2.25646 16.857L2.141 16.7612ZM5.18331 21.5952L2.13562 16.8496L2.26184 16.7686L5.30952 21.5142L5.18331 21.5952ZM7.04636 19.5262L6.38873 20.3192L6.27327 20.2235L6.9309 19.4304L7.04636 19.5262ZM4.1137 14.7616L7.05214 19.4384L6.92512 19.5182L3.98669 14.8414L4.1137 14.7616ZM3.33483 15.5466L3.99246 14.7536L4.10793 14.8493L3.4503 15.6424L3.33483 15.5466ZM6.2675 20.3112L3.32906 15.6344L3.45607 15.5546L6.39451 20.2314L6.2675 20.3112ZM7.35289 18.9243L8.01052 18.1312L8.12598 18.227L7.46835 19.02L7.35289 18.9243ZM4.52761 14.2201L7.47421 18.9324L7.34703 19.0119L4.40042 14.2996L4.52761 14.2201ZM5.17938 13.5147L4.52175 14.3077L4.40628 14.212L5.06391 13.4189L5.17938 13.5147ZM8.00466 18.2189L5.05805 13.5066L5.18524 13.427L8.13184 18.1393L8.00466 18.2189Z" fill="#272727"/>
<path fill-rule="evenodd" clip-rule="evenodd" d="M17.6706 21.5547L17.0129 20.7616L20.0606 16.0161L20.7183 16.8091L17.6706 21.5547ZM16.586 20.2713L15.9284 19.4783L18.8668 14.8015L19.5244 15.5945L16.586 20.2713ZM14.8487 18.1791L15.5064 18.9722L18.453 14.2598L17.7953 13.4668L14.8487 18.1791Z" fill="#272727"/>
<path d="M17.0129 20.7616L16.9498 20.7211L16.9202 20.7673L16.9552 20.8095L17.0129 20.7616ZM17.6706 21.5547L17.6128 21.6026L17.6783 21.6815L17.7337 21.5952L17.6706 21.5547ZM20.0606 16.0161L20.1184 15.9682L20.0529 15.8893L19.9975 15.9755L20.0606 16.0161ZM20.7183 16.8091L20.7814 16.8496L20.811 16.8035L20.776 16.7612L20.7183 16.8091ZM15.9284 19.4783L15.8649 19.4384L15.836 19.4844L15.8706 19.5262L15.9284 19.4783ZM16.586 20.2713L16.5283 20.3192L16.5944 20.3989L16.6495 20.3112L16.586 20.2713ZM18.8668 14.8015L18.9245 14.7536L18.8584 14.6738L18.8033 14.7616L18.8668 14.8015ZM19.5244 15.5945L19.5879 15.6344L19.6168 15.5884L19.5822 15.5466L19.5244 15.5945ZM15.5064 18.9722L15.4486 19.02L15.5149 19.1L15.57 19.0119L15.5064 18.9722ZM14.8487 18.1791L14.7852 18.1393L14.7564 18.1853L14.791 18.227L14.8487 18.1791ZM18.453 14.2598L18.5166 14.2996L18.5453 14.2537L18.5107 14.212L18.453 14.2598ZM17.7953 13.4668L17.8531 13.4189L17.7868 13.339L17.7318 13.427L17.7953 13.4668ZM16.9552 20.8095L17.6128 21.6026L17.7283 21.5068L17.0707 20.7138L16.9552 20.8095ZM19.9975 15.9755L16.9498 20.7211L17.0761 20.8022L20.1237 16.0566L19.9975 15.9755ZM20.776 16.7612L20.1184 15.9682L20.0029 16.0639L20.6605 16.857L20.776 16.7612ZM17.7337 21.5952L20.7814 16.8496L20.6552 16.7686L17.6075 21.5142L17.7337 21.5952ZM15.8706 19.5262L16.5283 20.3192L16.6437 20.2235L15.9861 19.4304L15.8706 19.5262ZM18.8033 14.7616L15.8649 19.4384L15.9919 19.5182L18.9303 14.8414L18.8033 14.7616ZM19.5822 15.5466L18.9245 14.7536L18.8091 14.8493L19.4667 15.6424L19.5822 15.5466ZM16.6495 20.3112L19.5879 15.6344L19.4609 15.5546L16.5225 20.2314L16.6495 20.3112ZM15.5641 18.9243L14.9065 18.1312L14.791 18.227L15.4486 19.02L15.5641 18.9243ZM18.3894 14.2201L15.4428 18.9324L15.57 19.0119L18.5166 14.2996L18.3894 14.2201ZM17.7376 13.5147L18.3952 14.3077L18.5107 14.212L17.8531 13.4189L17.7376 13.5147ZM14.9123 18.2189L17.8589 13.5066L17.7318 13.427L14.7852 18.1393L14.9123 18.2189Z" fill="#272727"/>
</g>
</g>
<rect width="23" height="23" rx="11.5" fill="url(#paint0_linear_2754_2931)" style="mix-blend-mode:overlay"/>
<rect x="0.5" y="0.5" width="22" height="22" rx="11" stroke="black" stroke-opacity="0.1"/>
<defs>
<linearGradient id="paint0_linear_2754_2931" x1="11.5" y1="0" x2="11.5" y2="23" gradientUnits="userSpaceOnUse">
<stop stop-color="white" stop-opacity="0.7"/>
<stop offset="1" stop-opacity="0.3"/>
</linearGradient>
</defs>
</svg>
