<svg width="23" height="23" viewBox="0 0 23 23" fill="none" xmlns="http://www.w3.org/2000/svg">
<mask id="mask0_2754_2961" style="mask-type:alpha" maskUnits="userSpaceOnUse" x="0" y="0" width="23" height="23">
<rect width="23" height="23" fill="white"/>
</mask>
<g mask="url(#mask0_2754_2961)">
</g>
<path fill-rule="evenodd" clip-rule="evenodd" d="M0 0H23V23H0V0Z" fill="#2E42A5"/>
<g clip-path="url(#clip0_2754_2961)">
<path d="M15.2873 12.2314H15.1623V12.3564V13.8452C15.1623 14.831 15.5753 15.4897 15.9974 15.9003C16.2076 16.1048 16.4197 16.2474 16.5835 16.3393C16.6655 16.3853 16.736 16.4188 16.7889 16.4413C16.8153 16.4525 16.8381 16.4612 16.8564 16.4674C16.8654 16.4705 16.8743 16.4733 16.8827 16.4755L16.8832 16.4756C16.8879 16.4769 16.9051 16.4814 16.9243 16.4814C16.9439 16.4814 16.9611 16.4768 16.9662 16.4754L16.9666 16.4753C16.9753 16.4729 16.9843 16.47 16.9932 16.4668C17.0111 16.4604 17.0331 16.4515 17.0583 16.4402C17.1087 16.4175 17.1752 16.3836 17.252 16.3374C17.4057 16.2451 17.6035 16.1019 17.7991 15.897C18.192 15.4855 18.5731 14.8277 18.5731 13.8452V13.8432V13.8411V13.839V13.8369V13.8348V13.8327V13.8306V13.8285V13.8264V13.8242V13.8221V13.8199V13.8178V13.8156V13.8134V13.8112V13.8091V13.8069V13.8047V13.8024V13.8002V13.798V13.7957V13.7935V13.7913V13.789V13.7867V13.7845V13.7822V13.7799V13.7776V13.7753V13.773V13.7706V13.7683V13.766V13.7636V13.7613V13.7589V13.7566V13.7542V13.7518V13.7495V13.7471V13.7447V13.7423V13.7398V13.7374V13.735V13.7326V13.7301V13.7277V13.7252V13.7228V13.7203V13.7178V13.7154V13.7129V13.7104V13.7079V13.7054V13.7029V13.7003V13.6978V13.6953V13.6928V13.6902V13.6877V13.6851V13.6825V13.68V13.6774V13.6748V13.6722V13.6696V13.667V13.6644V13.6618V13.6592V13.6566V13.6539V13.6513V13.6487V13.646V13.6434V13.6407V13.638V13.6354V13.6327V13.63V13.6273V13.6246V13.6219V13.6192V13.6165V13.6138V13.6111V13.6084V13.6056V13.6029V13.6002V13.5974V13.5947V13.5919V13.5891V13.5864V13.5836V13.5808V13.578V13.5752V13.5724V13.5696V13.5668V13.564V13.5612V13.5584V13.5556V13.5527V13.5499V13.5471V13.5442V13.5414V13.5385V13.5357V13.5328V13.5299V13.5271V13.5242V13.5213V13.5184V13.5155V13.5126V13.5098V13.5068V13.5039V13.501V13.4981V13.4952V13.4923V13.4893V13.4864V13.4835V13.4805V13.4776V13.4746V13.4717V13.4687V13.4658V13.4628V13.4598V13.4569V13.4539V13.4509V13.4479V13.4449V13.4419V13.4389V13.4359V13.4329V13.4299V13.4269V13.4239V13.4209V13.4179V13.4148V13.4118V13.4088V13.4057V13.4027V13.3997V13.3966V13.3936V13.3905V13.3875V13.3844V13.3813V13.3783V13.3752V13.3721V13.3691V13.366V13.3629V13.3598V13.3567V13.3536V13.3505V13.3475V13.3444V13.3413V13.3382V13.335V13.3319V13.3288V13.3257V13.3226V13.3195V13.3164V13.3132V13.3101V13.307V13.3038V13.3007V13.2976V13.2944V13.2913V13.2881V13.285V13.2818V13.2787V13.2755V13.2724V13.2692V13.2661V13.2629V13.2597V13.2566V13.2534V13.2502V13.2471V13.2439V13.2407V13.2375V13.2344V13.2312V13.228V13.2248V13.2216V13.2184V13.2153V13.2121V13.2089V13.2057V13.2025V13.1993V13.1961V13.1929V13.1897V13.1865V13.1833V13.1801V13.1769V13.1737V13.1704V13.1672V13.164V13.1608V13.1576V13.1544V13.1512V13.1479V13.1447V13.1415V13.1383V13.1351V13.1318V13.1286V13.1254V13.1222V13.1189V13.1157V13.1125V13.1093V13.106V13.1028V13.0996V13.0963V13.0931V13.0899V13.0866V13.0834V13.0802V13.077V13.0737V13.0705V13.0672V13.064V13.0608V13.0575V13.0543V13.0511V13.0478V13.0446V13.0414V13.0381V13.0349V13.0317V13.0284V13.0252V13.0219V13.0187V13.0155V13.0122V13.009V13.0058V13.0025V12.9993V12.9961V12.9928V12.9896V12.9864V12.9831V12.9799V12.9767V12.9734V12.9702V12.967V12.9637V12.9605V12.9573V12.9541V12.9508V12.9476V12.9444V12.9412V12.9379V12.9347V12.9315V12.9283V12.925V12.9218V12.9186V12.9154V12.9122V12.909V12.9057V12.9025V12.8993V12.8961V12.8929V12.8897V12.8865V12.8833V12.8801V12.8769V12.8737V12.8705V12.8673V12.8641V12.8609V12.8577V12.8545V12.8513V12.8481V12.8449V12.8417V12.8386V12.8354V12.8322V12.829V12.8258V12.8227V12.8195V12.8163V12.8132V12.81V12.8068V12.8037V12.8005V12.7973V12.7942V12.791V12.7879V12.7847V12.7816V12.7784V12.7753V12.7722V12.769V12.7659V12.7627V12.7596V12.7565V12.7534V12.7502V12.7471V12.744V12.7409V12.7378V12.7347V12.7316V12.7284V12.7253V12.7222V12.7191V12.7161V12.713V12.7099V12.7068V12.7037V12.7006V12.6976V12.6945V12.6914V12.6883V12.6853V12.6822V12.6792V12.6761V12.6731V12.67V12.667V12.6639V12.6609V12.6579V12.6548V12.6518V12.6488V12.6457V12.6427V12.6397V12.6367V12.6337V12.6307V12.6277V12.6247V12.6217V12.6187V12.6157V12.6128V12.6098V12.6068V12.6039V12.6009V12.5979V12.595V12.592V12.5891V12.5861V12.5832V12.5803V12.5773V12.5744V12.5715V12.5686V12.5656V12.5627V12.5598V12.5569V12.554V12.5511V12.5482V12.5454V12.5425V12.5396V12.5367V12.5339V12.531V12.5282V12.5253V12.5225V12.5196V12.5168V12.514V12.5111V12.5083V12.5055V12.5027V12.4999V12.4971V12.4943V12.4915V12.4887V12.4859V12.4831V12.4804V12.4776V12.4748V12.4721V12.4693V12.4666V12.4638V12.4611V12.4584V12.4556V12.4529V12.4502V12.4475V12.4448V12.4421V12.4394V12.4367V12.4341V12.4314V12.4287V12.4261V12.4234V12.4207V12.4181V12.4155V12.4128V12.4102V12.4076V12.405V12.4024V12.3997V12.3972V12.3946V12.392V12.3894V12.3868V12.3843V12.3817V12.3791V12.3766V12.3741V12.3715V12.369V12.3665V12.364V12.3614V12.3589V12.3564V12.2314H18.4481H15.2873Z" fill="white" stroke="#F7FCFF" stroke-width="0.25"/>
<mask id="mask1_2754_2961" style="mask-type:alpha" maskUnits="userSpaceOnUse" x="15" y="12" width="4" height="5">
<path d="M15.2873 12.2314H15.1623V12.3564V13.8452C15.1623 14.831 15.5753 15.4897 15.9974 15.9003C16.2076 16.1048 16.4197 16.2474 16.5835 16.3393C16.6655 16.3853 16.736 16.4188 16.7889 16.4413C16.8153 16.4525 16.8381 16.4612 16.8564 16.4674C16.8654 16.4705 16.8743 16.4733 16.8827 16.4755L16.8832 16.4756C16.8879 16.4769 16.9051 16.4814 16.9243 16.4814C16.9439 16.4814 16.9611 16.4768 16.9662 16.4754L16.9666 16.4753C16.9753 16.4729 16.9843 16.47 16.9932 16.4668C17.0111 16.4604 17.0331 16.4515 17.0583 16.4402C17.1087 16.4175 17.1752 16.3836 17.252 16.3374C17.4057 16.2451 17.6035 16.1019 17.7991 15.897C18.192 15.4855 18.5731 14.8277 18.5731 13.8452V13.8432V13.8411V13.839V13.8369V13.8348V13.8327V13.8306V13.8285V13.8264V13.8242V13.8221V13.8199V13.8178V13.8156V13.8134V13.8112V13.8091V13.8069V13.8047V13.8024V13.8002V13.798V13.7957V13.7935V13.7913V13.789V13.7867V13.7845V13.7822V13.7799V13.7776V13.7753V13.773V13.7706V13.7683V13.766V13.7636V13.7613V13.7589V13.7566V13.7542V13.7518V13.7495V13.7471V13.7447V13.7423V13.7398V13.7374V13.735V13.7326V13.7301V13.7277V13.7252V13.7228V13.7203V13.7178V13.7154V13.7129V13.7104V13.7079V13.7054V13.7029V13.7003V13.6978V13.6953V13.6928V13.6902V13.6877V13.6851V13.6825V13.68V13.6774V13.6748V13.6722V13.6696V13.667V13.6644V13.6618V13.6592V13.6566V13.6539V13.6513V13.6487V13.646V13.6434V13.6407V13.638V13.6354V13.6327V13.63V13.6273V13.6246V13.6219V13.6192V13.6165V13.6138V13.6111V13.6084V13.6056V13.6029V13.6002V13.5974V13.5947V13.5919V13.5891V13.5864V13.5836V13.5808V13.578V13.5752V13.5724V13.5696V13.5668V13.564V13.5612V13.5584V13.5556V13.5527V13.5499V13.5471V13.5442V13.5414V13.5385V13.5357V13.5328V13.5299V13.5271V13.5242V13.5213V13.5184V13.5155V13.5126V13.5098V13.5068V13.5039V13.501V13.4981V13.4952V13.4923V13.4893V13.4864V13.4835V13.4805V13.4776V13.4746V13.4717V13.4687V13.4658V13.4628V13.4598V13.4569V13.4539V13.4509V13.4479V13.4449V13.4419V13.4389V13.4359V13.4329V13.4299V13.4269V13.4239V13.4209V13.4179V13.4148V13.4118V13.4088V13.4057V13.4027V13.3997V13.3966V13.3936V13.3905V13.3875V13.3844V13.3813V13.3783V13.3752V13.3721V13.3691V13.366V13.3629V13.3598V13.3567V13.3536V13.3505V13.3475V13.3444V13.3413V13.3382V13.335V13.3319V13.3288V13.3257V13.3226V13.3195V13.3164V13.3132V13.3101V13.307V13.3038V13.3007V13.2976V13.2944V13.2913V13.2881V13.285V13.2818V13.2787V13.2755V13.2724V13.2692V13.2661V13.2629V13.2597V13.2566V13.2534V13.2502V13.2471V13.2439V13.2407V13.2375V13.2344V13.2312V13.228V13.2248V13.2216V13.2184V13.2153V13.2121V13.2089V13.2057V13.2025V13.1993V13.1961V13.1929V13.1897V13.1865V13.1833V13.1801V13.1769V13.1737V13.1704V13.1672V13.164V13.1608V13.1576V13.1544V13.1512V13.1479V13.1447V13.1415V13.1383V13.1351V13.1318V13.1286V13.1254V13.1222V13.1189V13.1157V13.1125V13.1093V13.106V13.1028V13.0996V13.0963V13.0931V13.0899V13.0866V13.0834V13.0802V13.077V13.0737V13.0705V13.0672V13.064V13.0608V13.0575V13.0543V13.0511V13.0478V13.0446V13.0414V13.0381V13.0349V13.0317V13.0284V13.0252V13.0219V13.0187V13.0155V13.0122V13.009V13.0058V13.0025V12.9993V12.9961V12.9928V12.9896V12.9864V12.9831V12.9799V12.9767V12.9734V12.9702V12.967V12.9637V12.9605V12.9573V12.9541V12.9508V12.9476V12.9444V12.9412V12.9379V12.9347V12.9315V12.9283V12.925V12.9218V12.9186V12.9154V12.9122V12.909V12.9057V12.9025V12.8993V12.8961V12.8929V12.8897V12.8865V12.8833V12.8801V12.8769V12.8737V12.8705V12.8673V12.8641V12.8609V12.8577V12.8545V12.8513V12.8481V12.8449V12.8417V12.8386V12.8354V12.8322V12.829V12.8258V12.8227V12.8195V12.8163V12.8132V12.81V12.8068V12.8037V12.8005V12.7973V12.7942V12.791V12.7879V12.7847V12.7816V12.7784V12.7753V12.7722V12.769V12.7659V12.7627V12.7596V12.7565V12.7534V12.7502V12.7471V12.744V12.7409V12.7378V12.7347V12.7316V12.7284V12.7253V12.7222V12.7191V12.7161V12.713V12.7099V12.7068V12.7037V12.7006V12.6976V12.6945V12.6914V12.6883V12.6853V12.6822V12.6792V12.6761V12.6731V12.67V12.667V12.6639V12.6609V12.6579V12.6548V12.6518V12.6488V12.6457V12.6427V12.6397V12.6367V12.6337V12.6307V12.6277V12.6247V12.6217V12.6187V12.6157V12.6128V12.6098V12.6068V12.6039V12.6009V12.5979V12.595V12.592V12.5891V12.5861V12.5832V12.5803V12.5773V12.5744V12.5715V12.5686V12.5656V12.5627V12.5598V12.5569V12.554V12.5511V12.5482V12.5454V12.5425V12.5396V12.5367V12.5339V12.531V12.5282V12.5253V12.5225V12.5196V12.5168V12.514V12.5111V12.5083V12.5055V12.5027V12.4999V12.4971V12.4943V12.4915V12.4887V12.4859V12.4831V12.4804V12.4776V12.4748V12.4721V12.4693V12.4666V12.4638V12.4611V12.4584V12.4556V12.4529V12.4502V12.4475V12.4448V12.4421V12.4394V12.4367V12.4341V12.4314V12.4287V12.4261V12.4234V12.4207V12.4181V12.4155V12.4128V12.4102V12.4076V12.405V12.4024V12.3997V12.3972V12.3946V12.392V12.3894V12.3868V12.3843V12.3817V12.3791V12.3766V12.3741V12.3715V12.369V12.3665V12.364V12.3614V12.3589V12.3564V12.2314H18.4481H15.2873Z" fill="white" stroke="white" stroke-width="0.25"/>
</mask>
<g mask="url(#mask1_2754_2961)">
<rect x="15.0843" y="12.1064" width="3.6" height="1.7" fill="#F50100"/>
<path d="M16.6891 14.1562C16.8043 14.1562 17.0347 13.9995 17.0923 13.9634C17.3035 13.8066 17.4571 13.9513 17.5819 14.0236C17.7163 14.096 17.9659 14.1804 18.1195 14.0236C18.2731 13.8669 18.3595 13.879 18.4651 13.879C18.4843 13.6981 18.4843 13.5173 18.4843 13.3123V13.1676C18.3499 13.1315 18.2827 13.1797 18.1387 13.3364C17.9947 13.4932 17.8315 13.457 17.6203 13.3605C17.4187 13.252 17.2171 13.0591 17.0155 13.3605C16.9579 13.4449 16.8235 13.5655 16.6891 13.5655C16.5451 13.5655 16.4203 13.4449 16.3627 13.3605C16.1515 13.0591 15.9595 13.252 15.7579 13.3605C15.5467 13.457 15.3739 13.4932 15.2299 13.3364C15.0955 13.1797 15.0283 13.1315 14.8843 13.1676V13.3123C14.8843 13.5173 14.8939 13.6981 14.9131 13.879C15.0187 13.879 15.0955 13.8669 15.2491 14.0236C15.4027 14.1804 15.6619 14.096 15.7867 14.0236C15.9211 13.9513 16.0747 13.8066 16.2859 13.9634C16.3435 13.9995 16.5643 14.1562 16.6891 14.1562H16.6891Z" fill="#F50100"/>
<path fill-rule="evenodd" clip-rule="evenodd" d="M15.7178 12.8809C15.7178 12.8809 15.8046 12.8859 15.9073 13.0185C16.01 13.1511 16.3881 13.0667 16.3881 12.9867C16.3881 12.9068 16.1587 12.859 16.2468 12.7222C16.335 12.5855 16.4843 12.5852 16.6043 12.6565C16.6387 12.6565 16.6349 13.1243 16.7135 13.0986C16.9622 13.0173 17.3634 12.8561 17.4811 12.9253C17.6359 13.0162 17.7544 12.9936 17.7151 12.8631C17.6757 12.7326 17.5746 12.651 17.3798 12.7222C17.185 12.7935 17.2309 12.8631 17.0626 12.8631C16.8942 12.8631 16.6054 12.9769 16.7337 12.7222C16.8486 12.494 16.9857 12.4896 17.0381 12.5855C17.0648 12.6346 16.8464 12.743 16.8464 12.7935C16.8464 12.8631 17.409 12.6566 17.4811 12.6566C17.5532 12.6566 17.7516 12.651 17.7713 12.7222C17.791 12.7935 17.9108 12.8589 17.8195 12.9253C17.7281 12.9917 17.5775 13.0333 17.6812 13.1184C17.7848 13.2035 18.0474 13.2421 18.0588 13.3307C18.0703 13.4192 18.1832 13.5513 18.1379 13.5513C18.0926 13.5513 18.0107 13.676 17.9344 13.638C17.8581 13.6001 17.8492 13.5667 17.9223 13.536C17.9954 13.5053 17.9947 13.376 17.9344 13.376C17.8741 13.376 17.8792 13.3662 17.7419 13.3209C17.6045 13.2756 17.4227 13.2252 17.4337 13.3209C17.4446 13.4165 17.5376 13.6218 17.3726 13.6414C17.2076 13.661 17.1304 13.7396 17.0983 13.6763C17.0662 13.613 16.9514 13.5287 17.0416 13.5017C17.1319 13.4746 17.2181 13.5936 17.2507 13.5741C17.2832 13.5547 17.3533 13.4854 17.2916 13.4031C17.2298 13.3209 17.11 13.3181 17.2043 13.2565C17.2986 13.1949 17.2423 13.148 17.0626 13.2756C16.8829 13.4031 16.7829 13.5116 16.6251 13.4962C16.4673 13.4809 16.3965 13.5511 16.3458 13.5304C16.2951 13.5097 16.0481 13.7589 15.977 13.6957C15.9058 13.6324 15.6762 13.6081 15.7176 13.5304C15.7589 13.4526 15.8144 13.4126 15.8762 13.4526C15.938 13.4927 15.9994 13.5327 16.0411 13.4927C16.0828 13.4526 16.2149 13.2658 16.1846 13.2383C16.1543 13.2108 16.0476 13.1638 15.8762 13.1638C15.7048 13.1638 15.7008 13.0214 15.6601 12.9565C15.6194 12.8916 15.7178 12.8809 15.7178 12.8809Z" fill="#FFD100"/>
<path d="M16.6891 15.3564C16.8043 15.3564 17.0347 15.1997 17.0923 15.1635C17.3035 15.0068 17.4571 15.1515 17.5819 15.2238C17.7163 15.2962 17.9659 15.3806 18.1195 15.2238C18.2731 15.0671 18.3595 15.0792 18.4651 15.0792C18.4843 14.8983 18.4843 14.7175 18.4843 14.5125V14.3678C18.3499 14.3317 18.2827 14.3799 18.1387 14.5366C17.9947 14.6934 17.8315 14.6572 17.6203 14.5607C17.4187 14.4522 17.2171 14.2593 17.0155 14.5607C16.9579 14.6451 16.8235 14.7657 16.6891 14.7657C16.5451 14.7657 16.4203 14.6451 16.3627 14.5607C16.1515 14.2593 15.9595 14.4522 15.7579 14.5607C15.5467 14.6572 15.3739 14.6934 15.2299 14.5366C15.0955 14.3799 15.0283 14.3317 14.8843 14.3678V14.5125C14.8843 14.7175 14.8939 14.8983 14.9131 15.0792C15.0187 15.0792 15.0955 15.0671 15.2491 15.2238C15.4027 15.3806 15.6619 15.2962 15.7867 15.2238C15.9211 15.1515 16.0747 15.0068 16.2859 15.1635C16.3435 15.1997 16.5643 15.3564 16.6891 15.3564H16.6891Z" fill="#0B50A0"/>
<path d="M16.6891 16.5063C16.8043 16.5063 17.0347 16.3496 17.0923 16.3135C17.3035 16.1567 17.4571 16.3014 17.5819 16.3737C17.7163 16.4461 17.9659 16.5305 18.1195 16.3737C18.2731 16.217 18.3595 16.2291 18.4651 16.2291C18.4843 16.0482 18.4843 15.8674 18.4843 15.6624V15.5177C18.3499 15.4816 18.2827 15.5298 18.1387 15.6865C17.9947 15.8433 17.8315 15.8071 17.6203 15.7106C17.4187 15.6021 17.2171 15.4092 17.0155 15.7106C16.9579 15.795 16.8235 15.9156 16.6891 15.9156C16.5451 15.9156 16.4203 15.795 16.3627 15.7106C16.1515 15.4092 15.9595 15.6021 15.7579 15.7106C15.5467 15.8071 15.3739 15.8433 15.2299 15.6865C15.0955 15.5298 15.0283 15.4816 14.8843 15.5177V15.6624C14.8843 15.8674 14.8939 16.0482 14.9131 16.2291C15.0187 16.2291 15.0955 16.217 15.2491 16.3737C15.4027 16.5305 15.6619 16.4461 15.7867 16.3737C15.9211 16.3014 16.0747 16.1567 16.2859 16.3135C16.3435 16.3496 16.5643 16.5063 16.6891 16.5063H16.6891Z" fill="#0B50A0"/>
<mask id="path-11-inside-1_2754_2961" fill="white">
<path fill-rule="evenodd" clip-rule="evenodd" d="M16.9008 16.149L16.6147 16.3185L16.6964 15.9739L16.4223 15.7207H16.7803L16.9003 15.3945L17.0411 15.7207H17.3463L17.1065 15.9739L17.2218 16.3185L16.9008 16.149Z"/>
</mask>
<path fill-rule="evenodd" clip-rule="evenodd" d="M16.9008 16.149L16.6147 16.3185L16.6964 15.9739L16.4223 15.7207H16.7803L16.9003 15.3945L17.0411 15.7207H17.3463L17.1065 15.9739L17.2218 16.3185L16.9008 16.149Z" fill="#059334"/>
<path d="M16.9008 16.149L17.1577 15.6626L16.8853 15.5188L16.6204 15.6758L16.9008 16.149ZM16.6147 16.3185L16.0795 16.1916L15.7806 17.4522L16.8951 16.7917L16.6147 16.3185ZM16.6964 15.9739L17.2315 16.1008L17.3057 15.7881L17.0696 15.5699L16.6964 15.9739ZM16.4223 15.7207V15.1707H15.0166L16.049 16.1246L16.4223 15.7207ZM16.7803 15.7207V16.2707H17.1639L17.2964 15.9107L16.7803 15.7207ZM16.9003 15.3945L17.4053 15.1765L16.8598 13.9128L16.3842 15.2045L16.9003 15.3945ZM17.0411 15.7207L16.5362 15.9386L16.6795 16.2707H17.0411V15.7207ZM17.3463 15.7207L17.7457 16.0988L18.6245 15.1707H17.3463V15.7207ZM17.1065 15.9739L16.7071 15.5958L16.4802 15.8354L16.5849 16.1484L17.1065 15.9739ZM17.2218 16.3185L16.9649 16.8049L18.179 17.4461L17.7434 16.144L17.2218 16.3185ZM16.6204 15.6758L16.3343 15.8454L16.8951 16.7917L17.1812 16.6221L16.6204 15.6758ZM17.1498 16.4454L17.2315 16.1008L16.1612 15.847L16.0795 16.1916L17.1498 16.4454ZM17.0696 15.5699L16.7956 15.3167L16.049 16.1246L16.3231 16.3779L17.0696 15.5699ZM16.4223 16.2707H16.7803V15.1707H16.4223V16.2707ZM17.2964 15.9107L17.4165 15.5845L16.3842 15.2045L16.2642 15.5306L17.2964 15.9107ZM16.3954 15.6125L16.5362 15.9386L17.5461 15.5027L17.4053 15.1765L16.3954 15.6125ZM17.0411 16.2707H17.3463V15.1707H17.0411V16.2707ZM16.9469 15.3425L16.7071 15.5958L17.5059 16.352L17.7457 16.0988L16.9469 15.3425ZM16.5849 16.1484L16.7002 16.493L17.7434 16.144L17.6281 15.7994L16.5849 16.1484ZM17.4787 15.8322L17.1577 15.6626L16.6439 16.6353L16.9649 16.8049L17.4787 15.8322Z" fill="#FFD100" mask="url(#path-11-inside-1_2754_2961)"/>
<mask id="path-13-inside-2_2754_2961" fill="white">
<path fill-rule="evenodd" clip-rule="evenodd" d="M16.1008 15.149L15.8147 15.3185L15.8964 14.9739L15.6223 14.7207H15.9803L16.1004 14.3945L16.2411 14.7207H16.5463L16.3065 14.9739L16.4218 15.3185L16.1008 15.149Z"/>
</mask>
<path fill-rule="evenodd" clip-rule="evenodd" d="M16.1008 15.149L15.8147 15.3185L15.8964 14.9739L15.6223 14.7207H15.9803L16.1004 14.3945L16.2411 14.7207H16.5463L16.3065 14.9739L16.4218 15.3185L16.1008 15.149Z" fill="#059334"/>
<path d="M16.1008 15.149L16.3577 14.6626L16.0853 14.5188L15.8204 14.6758L16.1008 15.149ZM15.8147 15.3185L15.2795 15.1916L14.9806 16.4522L16.0951 15.7917L15.8147 15.3185ZM15.8964 14.9739L16.4316 15.1008L16.5057 14.7881L16.2696 14.5699L15.8964 14.9739ZM15.6223 14.7207V14.1707H14.2166L15.2491 15.1246L15.6223 14.7207ZM15.9803 14.7207V15.2707H16.3639L16.4964 14.9107L15.9803 14.7207ZM16.1004 14.3945L16.6053 14.1765L16.0598 12.9128L15.5842 14.2045L16.1004 14.3945ZM16.2411 14.7207L15.7362 14.9386L15.8795 15.2707H16.2411V14.7207ZM16.5463 14.7207L16.9457 15.0988L17.8245 14.1707H16.5463V14.7207ZM16.3065 14.9739L15.9072 14.5958L15.6802 14.8354L15.7849 15.1484L16.3065 14.9739ZM16.4218 15.3185L16.165 15.8049L17.379 16.4461L16.9434 15.144L16.4218 15.3185ZM15.8204 14.6758L15.5343 14.8454L16.0951 15.7917L16.3812 15.6221L15.8204 14.6758ZM16.3498 15.4454L16.4316 15.1008L15.3612 14.847L15.2795 15.1916L16.3498 15.4454ZM16.2696 14.5699L15.9956 14.3167L15.2491 15.1246L15.5231 15.3779L16.2696 14.5699ZM15.6223 15.2707H15.9803V14.1707H15.6223V15.2707ZM16.4964 14.9107L16.6165 14.5845L15.5842 14.2045L15.4642 14.5306L16.4964 14.9107ZM15.5954 14.6125L15.7362 14.9386L16.7461 14.5027L16.6053 14.1765L15.5954 14.6125ZM16.2411 15.2707H16.5463V14.1707H16.2411V15.2707ZM16.1469 14.3425L15.9072 14.5958L16.7059 15.352L16.9457 15.0988L16.1469 14.3425ZM15.7849 15.1484L15.9002 15.493L16.9434 15.144L16.8281 14.7994L15.7849 15.1484ZM16.6787 14.8322L16.3577 14.6626L15.8439 15.6353L16.165 15.8049L16.6787 14.8322Z" fill="#FFD100" mask="url(#path-13-inside-2_2754_2961)"/>
<mask id="path-15-inside-3_2754_2961" fill="white">
<path fill-rule="evenodd" clip-rule="evenodd" d="M17.7008 15.149L17.4147 15.3185L17.4964 14.9739L17.2223 14.7207H17.5803L17.7003 14.3945L17.8411 14.7207H18.1463L17.9065 14.9739L18.0218 15.3185L17.7008 15.149Z"/>
</mask>
<path fill-rule="evenodd" clip-rule="evenodd" d="M17.7008 15.149L17.4147 15.3185L17.4964 14.9739L17.2223 14.7207H17.5803L17.7003 14.3945L17.8411 14.7207H18.1463L17.9065 14.9739L18.0218 15.3185L17.7008 15.149Z" fill="#059334"/>
<path d="M17.7008 15.149L17.9576 14.6626L17.6853 14.5188L17.4204 14.6758L17.7008 15.149ZM17.4147 15.3185L16.8795 15.1916L16.5806 16.4522L17.6951 15.7917L17.4147 15.3185ZM17.4964 14.9739L18.0315 15.1008L18.1057 14.7881L17.8696 14.5699L17.4964 14.9739ZM17.2223 14.7207V14.1707H15.8166L16.849 15.1246L17.2223 14.7207ZM17.5803 14.7207V15.2707H17.9639L18.0964 14.9107L17.5803 14.7207ZM17.7003 14.3945L18.2053 14.1765L17.6597 12.9128L17.1842 14.2045L17.7003 14.3945ZM17.8411 14.7207L17.3362 14.9386L17.4795 15.2707H17.8411V14.7207ZM18.1463 14.7207L18.5457 15.0988L19.4245 14.1707H18.1463V14.7207ZM17.9065 14.9739L17.5071 14.5958L17.2802 14.8354L17.3849 15.1484L17.9065 14.9739ZM18.0218 15.3185L17.7649 15.8049L18.979 16.4461L18.5434 15.144L18.0218 15.3185ZM17.4204 14.6758L17.1342 14.8454L17.6951 15.7917L17.9812 15.6221L17.4204 14.6758ZM17.9498 15.4454L18.0315 15.1008L16.9612 14.847L16.8795 15.1916L17.9498 15.4454ZM17.8696 14.5699L17.5955 14.3167L16.849 15.1246L17.1231 15.3779L17.8696 14.5699ZM17.2223 15.2707H17.5803V14.1707H17.2223V15.2707ZM18.0964 14.9107L18.2165 14.5845L17.1842 14.2045L17.0641 14.5306L18.0964 14.9107ZM17.1954 14.6125L17.3362 14.9386L18.3461 14.5027L18.2053 14.1765L17.1954 14.6125ZM17.8411 15.2707H18.1463V14.1707H17.8411V15.2707ZM17.7469 14.3425L17.5071 14.5958L18.3059 15.352L18.5457 15.0988L17.7469 14.3425ZM17.3849 15.1484L17.5002 15.493L18.5434 15.144L18.4281 14.7994L17.3849 15.1484ZM18.2787 14.8322L17.9576 14.6626L17.4439 15.6353L17.7649 15.8049L18.2787 14.8322Z" fill="#FFD100" mask="url(#path-15-inside-3_2754_2961)"/>
</g>
</g>
<path d="M14.5238 16.3899C14.5698 16.521 14.8989 16.693 15.2817 16.4718C15.542 16.3162 15.7104 16.095 15.8712 15.7018C15.9171 15.6034 15.9401 15.4806 15.8329 15.4068C15.7487 15.3413 15.6109 15.2676 15.5497 15.202C15.519 15.1693 15.4884 15.1447 15.4655 15.1201C15.4808 15.1365 15.4961 15.1529 15.5114 15.1775C15.6645 15.3741 15.5037 15.6608 15.3353 15.8328C15.2128 15.9557 14.9908 16.2588 14.6693 15.9721C14.6004 15.9066 14.4396 16.1769 14.5238 16.3899L14.5238 16.3899Z" fill="#FFD100"/>
<path d="M19.1783 16.3899C19.1247 16.521 18.7956 16.693 18.4204 16.4718C18.1602 16.3162 17.9917 16.095 17.8233 15.7018C17.785 15.6034 17.7621 15.4806 17.8692 15.4068C17.9535 15.3413 18.0913 15.2676 18.1525 15.202C18.1831 15.1693 18.2061 15.1447 18.2367 15.1201C18.2214 15.1365 18.2061 15.1529 18.1908 15.1775C18.0377 15.3741 18.1984 15.6608 18.3592 15.8328C18.4817 15.9557 18.7113 16.2588 19.0329 15.9721C19.1018 15.9066 19.2549 16.1769 19.1783 16.3899L19.1783 16.3899Z" fill="#FFD100"/>
<path d="M16.8511 17.0941C17.4636 17.0941 18.4052 16.7992 18.9105 15.767C18.9947 15.595 18.9105 15.5049 18.8109 15.4475C18.7038 15.3984 18.5736 15.2837 18.5047 15.21C18.6272 15.341 18.6042 15.4311 18.52 15.5786C18.1296 16.2749 17.5937 16.6272 16.8511 16.6272C16.1085 16.6272 15.5727 16.2749 15.1822 15.5786C15.098 15.4311 15.075 15.341 15.1899 15.21C15.1286 15.2837 14.9908 15.3984 14.8837 15.4475C14.7841 15.5049 14.6999 15.595 14.7841 15.767C15.2894 16.7992 16.2387 17.0941 16.8511 17.0941H16.8511Z" fill="#FFD100"/>
<path d="M15.4348 15.7097C15.4195 15.6278 15.32 15.6606 15.2894 15.7589C15.2511 15.7016 15.2128 15.6442 15.1822 15.5787C15.0903 15.4312 15.075 15.3329 15.2052 15.1936C15.2664 15.1281 15.3889 15.0544 15.4731 15.1363C15.6492 15.2919 15.5573 15.5459 15.4348 15.7097L15.4348 15.7097Z" fill="#F50100"/>
<path d="M18.2597 15.7097C18.275 15.6278 18.3822 15.6606 18.4128 15.7589C18.4511 15.7016 18.4894 15.6442 18.52 15.5787C18.6119 15.4312 18.6272 15.3329 18.4894 15.1936C18.4358 15.1281 18.3133 15.0544 18.2215 15.1363C18.053 15.2919 18.1372 15.5459 18.2597 15.7097L18.2597 15.7097Z" fill="#F50100"/>
<path fill-rule="evenodd" clip-rule="evenodd" d="M16.4916 10.2721C16.265 9.94599 15.979 9.72042 15.8102 9.58728C15.7227 9.5183 15.6667 9.47412 15.6667 9.45362C15.6667 9.39603 16.122 9.55 16.5872 9.94217C16.5974 9.91873 16.6082 9.89618 16.6195 9.87458C16.483 9.6008 16.2481 9.35831 16.1145 9.22041L16.1145 9.22041C16.0512 9.15502 16.0106 9.11315 16.0141 9.10261C16.0242 9.07226 16.4071 9.31971 16.746 9.69575C16.7789 9.66226 16.8139 9.63507 16.8506 9.61506L16.6267 9.24193H17.4267L17.1883 9.63932C17.2403 9.67613 17.2884 9.72774 17.3312 9.79143C17.6872 9.36246 18.135 9.06975 18.1459 9.10261L17.8757 9.71636C17.7483 9.79989 17.6119 9.90298 17.4771 10.0263L17.4534 10.0482L17.4613 10.0731C17.4629 10.0711 17.464 10.069 17.4646 10.0668C17.4685 10.0533 17.4726 10.0397 17.4771 10.0263L17.5318 10.4974C17.5328 10.5215 17.5333 10.5458 17.5333 10.5704C17.7626 10.3155 18.0058 10.2143 18.0058 10.2483C18.0058 10.2595 17.9801 10.2837 17.9402 10.3215C17.8365 10.4193 17.6363 10.6084 17.5349 10.8995C17.5308 10.9112 17.5189 10.9106 17.504 10.9034C17.4315 11.2945 17.2333 11.5753 17 11.5753C16.7092 11.5753 16.4727 11.1387 16.4668 10.596C16.3778 10.4705 16.2817 10.3798 16.2199 10.3215L16.2199 10.3215C16.1799 10.2837 16.1543 10.2595 16.1543 10.2483C16.1543 10.2219 16.3004 10.2768 16.4729 10.4216C16.4772 10.3704 16.4834 10.3205 16.4916 10.2721ZM17.5318 10.4974C17.7662 10.0476 18.1446 9.74915 18.3499 9.58728C18.4373 9.5183 18.4934 9.47412 18.4934 9.45362C18.4934 9.40878 18.2174 9.49217 17.8757 9.71636L17.5318 10.4974Z" fill="#FFD100"/>
<path d="M15.8928 11.1517C15.8287 11.0422 15.6545 10.9935 15.5812 11.0909C15.5537 11.1152 15.517 11.1152 15.4895 11.1274C15.4437 11.1274 15.3851 11.158 15.4035 11.2797C15.4528 11.2797 15.4528 11.3099 15.4803 11.3099C15.4987 11.2977 15.5463 11.521 15.638 11.5088C15.7388 11.5088 15.8287 11.5655 15.847 11.5898C15.8745 11.6263 15.9112 11.7236 15.8653 11.7723C15.8012 11.8453 15.7553 12.0157 15.8653 12.1496C15.9845 12.2712 16.287 12.4538 16.6262 12.1009C16.9562 11.7602 17.4696 11.9549 17.5062 12.0765C17.5521 12.1982 17.5704 12.2712 17.5796 12.3321C17.5887 12.3808 17.8362 12.4538 17.8729 12.4903C17.9188 12.5268 17.9829 12.5146 17.9646 12.4051C17.9279 12.0644 17.7721 12.0157 17.7537 11.8575C17.8454 11.8697 17.9096 11.8697 17.9463 11.821C17.9738 11.7723 18.0104 11.6871 18.0471 11.6628C18.0746 11.6385 18.0746 11.6141 18.0379 11.6263C17.9921 11.6385 17.9646 11.6628 17.8821 11.6506C17.6869 11.6225 17.7352 10.6994 17.0897 10.5198C16.6908 10.4089 16.1935 11.1698 16.0571 11.2451C16.0541 11.2468 16.0513 11.2481 16.0487 11.2491C15.9845 11.2491 15.9295 11.2126 15.8928 11.1517Z" fill="#059334"/>
<mask id="mask2_2754_2961" style="mask-type:alpha" maskUnits="userSpaceOnUse" x="0" y="0" width="13" height="14">
<rect width="12.9375" height="13.4167" fill="white"/>
</mask>
<g mask="url(#mask2_2754_2961)">
<path d="M-1.44061 12.4582L1.40632 14.123L13.0021 1.81011L14.5037 -0.663855L11.4594 -1.22029L6.72974 4.08571L2.92288 7.66071L-1.44061 12.4582Z" fill="#F7FCFF"/>
<path d="M-1.05084 13.6247L0.399539 14.5908L13.9645 -0.893656H11.928L-1.05084 13.6247Z" fill="#F50100"/>
<path d="M14.3781 12.4582L11.5311 14.123L-0.0646162 1.81011L-1.56631 -0.663855L1.47808 -1.22029L6.2077 4.08571L10.0146 7.66071L14.3781 12.4582Z" fill="#F7FCFF"/>
<path d="M14.2809 13.2956L12.8305 14.2617L7.05439 7.63201L5.3419 6.89129L-1.71083 -0.655139H0.325672L7.37444 6.71217L9.24675 7.60037L14.2809 13.2956Z" fill="#F50100"/>
<mask id="path-29-outside-4_2754_2961" maskUnits="userSpaceOnUse" x="-1" y="-1" width="15" height="16" fill="black">
<rect fill="white" x="-1" y="-1" width="15" height="16"/>
<path fill-rule="evenodd" clip-rule="evenodd" d="M7.17637 0H5.73887V5.75H0V7.66667H5.73887V13.4167H7.17637V7.66667H12.9375V5.75H7.17637V0Z"/>
</mask>
<path fill-rule="evenodd" clip-rule="evenodd" d="M7.17637 0H5.73887V5.75H0V7.66667H5.73887V13.4167H7.17637V7.66667H12.9375V5.75H7.17637V0Z" fill="#F50100"/>
<path d="M5.73887 0V-0.75H4.98887V0H5.73887ZM7.17637 0H7.92637V-0.75H7.17637V0ZM5.73887 5.75V6.5H6.48887V5.75H5.73887ZM0 5.75V5H-0.75V5.75H0ZM0 7.66667H-0.75V8.41667H0V7.66667ZM5.73887 7.66667H6.48887V6.91667H5.73887V7.66667ZM5.73887 13.4167H4.98887V14.1667H5.73887V13.4167ZM7.17637 13.4167V14.1667H7.92637V13.4167H7.17637ZM7.17637 7.66667V6.91667H6.42637V7.66667H7.17637ZM12.9375 7.66667V8.41667H13.6875V7.66667H12.9375ZM12.9375 5.75H13.6875V5H12.9375V5.75ZM7.17637 5.75H6.42637V6.5H7.17637V5.75ZM5.73887 0.75H7.17637V-0.75H5.73887V0.75ZM6.48887 5.75V0H4.98887V5.75H6.48887ZM0 6.5H5.73887V5H0V6.5ZM0.75 7.66667V5.75H-0.75V7.66667H0.75ZM5.73887 6.91667H0V8.41667H5.73887V6.91667ZM6.48887 13.4167V7.66667H4.98887V13.4167H6.48887ZM7.17637 12.6667H5.73887V14.1667H7.17637V12.6667ZM6.42637 7.66667V13.4167H7.92637V7.66667H6.42637ZM12.9375 6.91667H7.17637V8.41667H12.9375V6.91667ZM12.1875 5.75V7.66667H13.6875V5.75H12.1875ZM7.17637 6.5H12.9375V5H7.17637V6.5ZM6.42637 0V5.75H7.92637V0H6.42637Z" fill="#F7FCFF" mask="url(#path-29-outside-4_2754_2961)"/>
</g>
<rect width="23" height="23" rx="11.5" fill="url(#paint0_linear_2754_2961)" style="mix-blend-mode:overlay"/>
<rect x="0.5" y="0.5" width="22" height="22" rx="11" stroke="black" stroke-opacity="0.1"/>
<defs>
<linearGradient id="paint0_linear_2754_2961" x1="11.5" y1="0" x2="11.5" y2="23" gradientUnits="userSpaceOnUse">
<stop stop-color="white" stop-opacity="0.7"/>
<stop offset="1" stop-opacity="0.3"/>
</linearGradient>
<clipPath id="clip0_2754_2961">
<rect width="4" height="4" fill="white" transform="translate(15.2843 12.3564)"/>
</clipPath>
</defs>
</svg>
