<svg width="23" height="23" viewBox="0 0 23 23" fill="none" xmlns="http://www.w3.org/2000/svg">
<mask id="mask0_2754_2976" style="mask-type:alpha" maskUnits="userSpaceOnUse" x="0" y="0" width="23" height="23">
<rect width="23" height="23" fill="white"/>
</mask>
<g mask="url(#mask0_2754_2976)">
<path fill-rule="evenodd" clip-rule="evenodd" d="M0 0V23H23V0H0Z" fill="#4EC7EE"/>
<mask id="mask1_2754_2976" style="mask-type:alpha" maskUnits="userSpaceOnUse" x="0" y="0" width="23" height="23">
<path fill-rule="evenodd" clip-rule="evenodd" d="M0 0V23H23V0H0Z" fill="white"/>
</mask>
<g mask="url(#mask1_2754_2976)">
<path d="M2.93964 22.2684C2.89403 22.7188 3.11041 23.0397 3.47339 23.2461C3.96137 23.5237 4.45374 23.2638 4.90665 22.5947L4.31971 21.8884C4.11852 22.1856 3.97314 22.3001 3.86091 22.2982C4.08065 22.0889 4.3622 21.8305 4.70514 21.5234L4.86974 21.2055C5.00194 20.4494 4.59086 20.0397 3.96394 20.0397C3.59468 20.0397 3.29946 20.1371 3.11215 20.3465C2.80443 20.6905 2.85711 21.2397 3.18094 21.5254C3.20662 21.548 3.2327 21.5684 3.25912 21.5866C3.07746 21.7912 2.96659 22.0023 2.93964 22.2684Z" fill="#FFE402"/>
<path d="M3.28101 21.5576C3.28101 21.5576 3.37069 21.2926 3.32585 21.1547" stroke="#FFE402" stroke-width="0.55"/>
<path d="M6.15924 22.2684C6.20485 22.7188 5.98847 23.0397 5.62548 23.2461C5.13751 23.5237 4.64514 23.2638 4.19223 22.5947L4.77916 21.8884C4.98035 22.1856 5.12574 22.3001 5.23797 22.2982C5.01822 22.0889 4.73668 21.8305 4.39374 21.5234L4.22914 21.2055C4.09694 20.4494 4.50801 20.0397 5.13494 20.0397C5.5042 20.0397 5.79942 20.1371 5.98673 20.3465C6.29445 20.6905 6.24177 21.2397 5.91794 21.5254C5.89225 21.548 5.86618 21.5684 5.83976 21.5866C6.02142 21.7912 6.13229 22.0023 6.15924 22.2684Z" fill="#FFE402"/>
<path d="M6.17822 21.3409L5.45756 21.7744C5.3564 21.4755 5.32618 21.2039 5.41036 20.945L6.13574 21.3644C6.16013 21.2894 6.1598 21.2864 6.17822 21.3409Z" fill="#FFE402"/>
<path d="M2.93964 0.731095C2.89403 0.280679 3.11041 -0.0401398 3.47339 -0.246619C3.96137 -0.524193 4.45374 -0.264271 4.90665 0.404848L4.31971 1.11113C4.11852 0.813897 3.97314 0.699381 3.86091 0.701328C4.08065 0.910647 4.3622 1.16905 4.70514 1.47612L4.86974 1.79403C5.00194 2.55015 4.59086 2.95986 3.96394 2.95986C3.59468 2.95986 3.29946 2.86244 3.11215 2.65304C2.80443 2.30902 2.85711 1.75985 3.18094 1.47413C3.20662 1.45147 3.2327 1.43108 3.25912 1.4129C3.07746 1.20836 2.96659 0.997182 2.93964 0.731095Z" fill="#FFE402"/>
<path d="M6.15924 0.731095C6.20485 0.280679 5.98847 -0.0401398 5.62548 -0.246619C5.13751 -0.524193 4.64514 -0.264271 4.19223 0.404848L4.77916 1.11113C4.98035 0.813897 5.12574 0.699381 5.23797 0.701328C5.01822 0.910647 4.73668 1.16905 4.39374 1.47612L4.22914 1.79403C4.09694 2.55015 4.50801 2.95986 5.13494 2.95986C5.5042 2.95986 5.79942 2.86244 5.98673 2.65304C6.29445 2.30902 6.24177 1.75985 5.91794 1.47413C5.89225 1.45147 5.86618 1.43108 5.83976 1.4129C6.02142 1.20836 6.13229 0.997182 6.15924 0.731095Z" fill="#FFE402"/>
<path fill-rule="evenodd" clip-rule="evenodd" d="M3.66113 19.2269C3.20759 19.2443 2.9254 19.3691 2.9254 19.952C2.9254 20.5948 3.39377 20.7959 3.89207 20.7959C4.34346 20.7959 4.85198 20.4224 4.85198 19.7534C4.85198 19.3464 4.46389 18.5252 3.48665 16.7449C3.45278 16.7028 3.43413 16.6814 3.41919 16.6812C3.47845 16.6372 3.58282 16.5857 3.72054 16.5857C3.76835 16.5857 3.83048 16.618 3.89207 16.6593V17.3575H4.92669V16.8304C4.92669 16.2349 4.26647 15.5315 3.72054 15.5315C3.24375 15.5315 2.86098 15.834 2.6671 16.269C2.4755 16.699 2.62201 17.1117 2.89718 17.44C3.30664 18.1929 3.62456 18.8162 3.82394 19.2257C3.75069 19.2249 3.71047 19.225 3.66113 19.2269ZM3.70973 19.713C3.69538 19.7087 3.68158 19.7041 3.66869 19.6991C3.67829 19.7125 3.71602 19.7725 3.71602 19.952C3.71602 20.0497 3.71249 20.1185 3.70776 20.1668C3.57437 20.0099 3.53708 19.7364 3.63469 19.5259L3.63711 19.5206L3.70973 19.713ZM3.66869 19.6991L3.65498 19.6935C3.65646 19.6941 3.65839 19.6953 3.66065 19.6973L3.66869 19.6991ZM4.06136 19.7534C4.06136 19.7354 4.05677 19.7247 4.04884 19.719L4.05344 19.7257C4.05869 19.7401 4.06136 19.7494 4.06136 19.7534ZM3.63711 19.5206L3.62222 19.4812C3.6242 19.4799 3.62617 19.4785 3.62812 19.4772C3.6511 19.4614 3.66999 19.4484 3.63711 19.5206Z" fill="#FFE402"/>
<path fill-rule="evenodd" clip-rule="evenodd" d="M5.43768 19.2269C5.89122 19.2443 6.17342 19.3691 6.17342 19.952C6.17342 20.5948 5.70505 20.7959 5.20675 20.7959C4.75536 20.7959 4.24683 20.4224 4.24683 19.7534C4.24683 19.3464 4.63493 18.5252 5.61217 16.7449C5.64604 16.7028 5.66469 16.6814 5.67963 16.6812C5.62036 16.6372 5.516 16.5857 5.37828 16.5857C5.33047 16.5857 5.26834 16.618 5.20675 16.6593V17.3575H4.17213V16.8304C4.17213 16.2349 4.83234 15.5315 5.37828 15.5315C5.85506 15.5315 6.23783 15.834 6.43171 16.269C6.62332 16.699 6.4768 17.1117 6.20164 17.44C5.79218 18.1929 5.47426 18.8162 5.27487 19.2257C5.34813 19.2249 5.38835 19.225 5.43768 19.2269ZM5.38909 19.713C5.40343 19.7087 5.41723 19.7041 5.43013 19.6991C5.42053 19.7125 5.38279 19.7725 5.38279 19.952C5.38279 20.0497 5.38632 20.1185 5.39106 20.1668C5.52445 20.0099 5.56174 19.7364 5.46413 19.5259L5.46171 19.5206L5.38909 19.713ZM5.43013 19.6991L5.44384 19.6935C5.44236 19.6941 5.44043 19.6953 5.43816 19.6973L5.43013 19.6991ZM5.03746 19.7534C5.03746 19.7354 5.04205 19.7247 5.04998 19.719L5.04538 19.7257C5.04012 19.7401 5.03746 19.7494 5.03746 19.7534ZM5.46171 19.5206L5.4766 19.4812C5.47462 19.4799 5.47264 19.4785 5.4707 19.4772C5.44772 19.4614 5.42883 19.4484 5.46171 19.5206Z" fill="#FFE402"/>
<path fill-rule="evenodd" clip-rule="evenodd" d="M3.66113 12.798C3.20759 12.7806 2.9254 12.6558 2.9254 12.0729C2.9254 11.4301 3.39377 11.229 3.89207 11.229C4.34346 11.229 4.85198 11.6025 4.85198 12.2715C4.85198 12.6785 4.46389 13.4997 3.48665 15.28C3.45278 15.3221 3.43413 15.3435 3.41919 15.3437C3.47845 15.3877 3.58282 15.4392 3.72054 15.4392C3.76835 15.4392 3.83048 15.407 3.89207 15.3656V14.6674H4.92669V15.1945C4.92669 15.79 4.26647 16.4934 3.72054 16.4934C3.24375 16.4934 2.86098 16.191 2.6671 15.7559C2.4755 15.3259 2.62201 14.9132 2.89718 14.5849C3.30664 13.832 3.62456 13.2087 3.82394 12.7992C3.75069 12.8 3.71047 12.7999 3.66113 12.798ZM3.70973 12.3119C3.69538 12.3162 3.68158 12.3208 3.66869 12.3258C3.67829 12.3124 3.71602 12.2524 3.71602 12.0729C3.71602 11.9752 3.71249 11.9064 3.70776 11.8581C3.57437 12.015 3.53708 12.2885 3.63469 12.499L3.63711 12.5043L3.70973 12.3119ZM3.66869 12.3258L3.65498 12.3314C3.65646 12.3308 3.65839 12.3296 3.66065 12.3276L3.66869 12.3258ZM4.06136 12.2715C4.06136 12.2895 4.05677 12.3002 4.04884 12.3059L4.05344 12.2992C4.05869 12.2848 4.06136 12.2755 4.06136 12.2715ZM3.63711 12.5043L3.62222 12.5437C3.6242 12.545 3.62617 12.5464 3.62812 12.5477C3.6511 12.5635 3.66999 12.5765 3.63711 12.5043Z" fill="#FFE402"/>
<path fill-rule="evenodd" clip-rule="evenodd" d="M5.43768 12.798C5.89122 12.7806 6.17342 12.6558 6.17342 12.0729C6.17342 11.4301 5.70505 11.229 5.20675 11.229C4.75536 11.229 4.24683 11.6025 4.24683 12.2715C4.24683 12.6785 4.63493 13.4997 5.61217 15.28C5.64604 15.3221 5.66469 15.3435 5.67963 15.3437C5.62036 15.3877 5.516 15.4392 5.37828 15.4392C5.33047 15.4392 5.26834 15.407 5.20675 15.3656V14.6674H4.17213V15.1945C4.17213 15.79 4.83234 16.4934 5.37828 16.4934C5.85506 16.4934 6.23783 16.191 6.43171 15.7559C6.62332 15.3259 6.4768 14.9132 6.20164 14.5849C5.79218 13.832 5.47426 13.2087 5.27487 12.7992C5.34813 12.8 5.38835 12.7999 5.43768 12.798ZM5.38909 12.3119C5.40343 12.3162 5.41723 12.3208 5.43013 12.3258C5.42053 12.3124 5.38279 12.2524 5.38279 12.0729C5.38279 11.9752 5.38632 11.9064 5.39106 11.8581C5.52445 12.015 5.56174 12.2885 5.46413 12.499L5.46171 12.5043L5.38909 12.3119ZM5.43013 12.3258L5.44384 12.3314C5.44236 12.3308 5.44043 12.3296 5.43816 12.3276L5.43013 12.3258ZM5.03746 12.2715C5.03746 12.2895 5.04205 12.3002 5.04998 12.3059L5.04538 12.2992C5.04012 12.2848 5.03746 12.2755 5.03746 12.2715ZM5.46171 12.5043L5.4766 12.5437C5.47462 12.545 5.47264 12.5464 5.4707 12.5477C5.44772 12.5635 5.42883 12.5765 5.46171 12.5043Z" fill="#FFE402"/>
<path fill-rule="evenodd" clip-rule="evenodd" d="M3.66113 10.2015C3.20759 10.2189 2.9254 10.3437 2.9254 10.9266C2.9254 11.5694 3.39377 11.7705 3.89207 11.7705C4.34346 11.7705 4.85198 11.397 4.85198 10.728C4.85198 10.321 4.46389 9.49976 3.48665 7.71947C3.45278 7.67741 3.43413 7.65598 3.41919 7.65584C3.47845 7.61184 3.58282 7.56032 3.72054 7.56032C3.76835 7.56032 3.83048 7.59256 3.89207 7.63386V8.33207H4.92669V7.80499C4.92669 7.20949 4.26647 6.50615 3.72054 6.50615C3.24375 6.50615 2.86098 6.80856 2.6671 7.24361C2.4755 7.67356 2.62201 8.08628 2.89718 8.41457C3.30664 9.16753 3.62456 9.7908 3.82394 10.2003C3.75069 10.1995 3.71047 10.1996 3.66113 10.2015ZM3.70973 10.6876C3.69538 10.6833 3.68158 10.6787 3.66869 10.6737C3.67829 10.6871 3.71602 10.7471 3.71602 10.9266C3.71602 11.0243 3.71249 11.0931 3.70776 11.1414C3.57437 10.9846 3.53708 10.711 3.63469 10.5005L3.63711 10.4952L3.70973 10.6876ZM3.66869 10.6737L3.65498 10.6681C3.65646 10.6687 3.65839 10.6699 3.66065 10.6719L3.66869 10.6737ZM4.06136 10.728C4.06136 10.71 4.05677 10.6993 4.04884 10.6936L4.05344 10.7003C4.05869 10.7147 4.06136 10.724 4.06136 10.728ZM3.63711 10.4952L3.62222 10.4558C3.6242 10.4545 3.62617 10.4531 3.62812 10.4518C3.6511 10.436 3.66999 10.4231 3.63711 10.4952Z" fill="#FFE402"/>
<path fill-rule="evenodd" clip-rule="evenodd" d="M5.43768 10.2015C5.89122 10.2189 6.17342 10.3437 6.17342 10.9266C6.17342 11.5694 5.70505 11.7705 5.20675 11.7705C4.75536 11.7705 4.24683 11.397 4.24683 10.728C4.24683 10.321 4.63493 9.49976 5.61217 7.71947C5.64604 7.67741 5.66469 7.65598 5.67963 7.65584C5.62036 7.61184 5.516 7.56032 5.37828 7.56032C5.33047 7.56032 5.26834 7.59256 5.20675 7.63386V8.33207H4.17213V7.80499C4.17213 7.20949 4.83234 6.50615 5.37828 6.50615C5.85506 6.50615 6.23783 6.80856 6.43171 7.24361C6.62332 7.67356 6.4768 8.08628 6.20164 8.41457C5.79218 9.16753 5.47426 9.7908 5.27487 10.2003C5.34813 10.1995 5.38835 10.1996 5.43768 10.2015ZM5.38909 10.6876C5.40343 10.6833 5.41723 10.6787 5.43013 10.6737C5.42053 10.6871 5.38279 10.7471 5.38279 10.9266C5.38279 11.0243 5.38632 11.0931 5.39106 11.1414C5.52445 10.9846 5.56174 10.711 5.46413 10.5005L5.46171 10.4952L5.38909 10.6876ZM5.43013 10.6737L5.44384 10.6681C5.44236 10.6687 5.44043 10.6699 5.43816 10.6719L5.43013 10.6737ZM5.03746 10.728C5.03746 10.71 5.04205 10.6993 5.04998 10.6936L5.04538 10.7003C5.04012 10.7147 5.03746 10.724 5.03746 10.728ZM5.46171 10.4952L5.4766 10.4558C5.47462 10.4545 5.47264 10.4531 5.4707 10.4518C5.44772 10.436 5.42883 10.4231 5.46171 10.4952Z" fill="#FFE402"/>
<path fill-rule="evenodd" clip-rule="evenodd" d="M3.66113 3.7726C3.20759 3.75519 2.9254 3.63045 2.9254 3.04752C2.9254 2.40472 3.39377 2.20361 3.89207 2.20361C4.34346 2.20361 4.85198 2.57715 4.85198 3.24613C4.85198 3.65311 4.46389 4.47436 3.48665 6.25465C3.45278 6.29671 3.43413 6.31814 3.41919 6.31828C3.47845 6.36228 3.58282 6.41381 3.72054 6.41381C3.76835 6.41381 3.83048 6.38156 3.89207 6.34026V5.64205H4.92669V6.16913C4.92669 6.76463 4.26647 7.46797 3.72054 7.46797C3.24375 7.46797 2.86098 7.16556 2.6671 6.73051C2.4755 6.30056 2.62201 5.88784 2.89718 5.55956C3.30664 4.80659 3.62456 4.18332 3.82394 3.77381C3.75069 3.77462 3.71047 3.77449 3.66113 3.7726ZM3.70973 3.28654C3.69538 3.2908 3.68158 3.29545 3.66869 3.30044C3.67829 3.28702 3.71602 3.22704 3.71602 3.04752C3.71602 2.94978 3.71249 2.88102 3.70776 2.83267C3.57437 2.98957 3.53708 3.26308 3.63469 3.47363L3.63711 3.47888L3.62222 3.5183C3.6242 3.51963 3.62617 3.52099 3.62812 3.52232C3.6511 3.5381 3.66999 3.55107 3.63711 3.47888L3.70973 3.28654ZM3.66869 3.30044L3.65498 3.30603C3.65646 3.30539 3.65839 3.30418 3.66065 3.30223L3.66869 3.30044ZM4.06136 3.24613C4.06136 3.26413 4.05677 3.27483 4.04884 3.28056L4.05344 3.27384C4.05869 3.25943 4.06136 3.25012 4.06136 3.24613Z" fill="#FFE402"/>
<path fill-rule="evenodd" clip-rule="evenodd" d="M5.43768 3.7726C5.89122 3.75519 6.17342 3.63045 6.17342 3.04752C6.17342 2.40472 5.70505 2.20361 5.20675 2.20361C4.75536 2.20361 4.24683 2.57715 4.24683 3.24613C4.24683 3.65311 4.63493 4.47436 5.61217 6.25465C5.64604 6.29671 5.66469 6.31814 5.67963 6.31828C5.62036 6.36228 5.516 6.41381 5.37828 6.41381C5.33047 6.41381 5.26834 6.38156 5.20675 6.34026V5.64205H4.17213V6.16913C4.17213 6.76463 4.83234 7.46797 5.37828 7.46797C5.85506 7.46797 6.23783 7.16556 6.43171 6.73051C6.62332 6.30056 6.4768 5.88784 6.20164 5.55956C5.79218 4.80659 5.47426 4.18332 5.27487 3.77381C5.34813 3.77462 5.38835 3.77449 5.43768 3.7726ZM5.38909 3.28654C5.40343 3.2908 5.41723 3.29545 5.43013 3.30044C5.42053 3.28702 5.38279 3.22704 5.38279 3.04752C5.38279 2.94978 5.38632 2.88102 5.39106 2.83267C5.52445 2.98957 5.56174 3.26308 5.46413 3.47363L5.46171 3.47888L5.4766 3.5183C5.47462 3.51963 5.47264 3.52099 5.4707 3.52232C5.44772 3.5381 5.42883 3.55107 5.46171 3.47888L5.38909 3.28654ZM5.43013 3.30044L5.44384 3.30603C5.44236 3.30539 5.44043 3.30418 5.43816 3.30223L5.43013 3.30044ZM5.03746 3.24613C5.03746 3.26413 5.04205 3.27483 5.04998 3.28056L5.04538 3.27384C5.04012 3.25943 5.03746 3.25012 5.03746 3.24613Z" fill="#FFE402"/>
<path fill-rule="evenodd" clip-rule="evenodd" d="M13.6467 2.66846L13.941 4.13251C13.941 4.13251 13.9444 4.46514 13.6626 4.46514C13.3808 4.46514 13.3666 4.13251 13.3666 4.13251L13.6467 2.66846ZM16.1362 8.2605C16.1362 10.1659 15.0453 11.7105 13.6996 11.7105C12.3539 11.7105 11.263 10.1659 11.263 8.2605C11.263 6.35512 12.3539 4.8105 13.6996 4.8105C15.0453 4.8105 16.1362 6.35512 16.1362 8.2605ZM14.7927 4.42775L14.8323 2.91294L14.2434 4.20383C14.2434 4.20383 14.1841 4.52746 14.4536 4.63732C14.7231 4.74719 14.7927 4.42775 14.7927 4.42775ZM15.9136 3.63026L15.5435 5.06344C15.5435 5.06344 15.4069 5.34178 15.1732 5.13165C14.9396 4.92152 15.0673 4.63517 15.0673 4.63517L15.9136 3.63026ZM16.1264 5.98315L16.7945 4.75684L15.7649 5.38795C15.7649 5.38795 15.58 5.612 15.7573 5.90403C15.9347 6.19606 16.1264 5.98315 16.1264 5.98315ZM17.4016 6.20738L16.482 7.09838C16.482 7.09838 16.2503 7.22189 16.1493 6.87107C16.0483 6.52026 16.2761 6.38337 16.2761 6.38337L17.4016 6.20738ZM16.5944 8.32019L17.6692 7.82663L16.5543 7.55618C16.5543 7.55618 16.3064 7.59829 16.3261 7.97314C16.3457 8.348 16.5944 8.32019 16.5944 8.32019ZM17.581 9.48328L16.4449 9.53627C16.4449 9.53627 16.201 9.46594 16.2644 9.0998C16.3278 8.73366 16.5741 8.79002 16.5741 8.79002L17.581 9.48328ZM16.0467 10.6383L17.1448 11.0305L16.3339 9.97502C16.3339 9.97502 16.1107 9.82512 15.9698 10.1505C15.8289 10.476 16.0467 10.6383 16.0467 10.6383ZM16.3992 12.3312L15.4351 11.5281C15.4351 11.5281 15.2625 11.2879 15.4686 11.0317C15.6747 10.7754 15.8552 11.0057 15.8552 11.0057L16.3992 12.3312ZM14.6646 12.1262L15.4104 13.2701L15.1808 11.7905C15.1808 11.7905 15.0587 11.4998 14.8054 11.6645C14.5521 11.8293 14.6646 12.1262 14.6646 12.1262ZM14.266 13.764L13.8035 12.3793C13.8035 12.3793 13.7611 12.0515 14.0394 11.9927C14.3178 11.9339 14.3709 12.2595 14.3709 12.2595L14.266 13.764ZM12.9368 12.2595L13.0556 13.7669L13.5041 12.3793C13.5041 12.3793 13.5291 12.0478 13.2507 11.989C12.9724 11.9303 12.9368 12.2595 12.9368 12.2595ZM11.9099 13.2784L12.1268 11.7905C12.1268 11.7905 12.233 11.4895 12.4863 11.6542C12.7396 11.819 12.6431 12.1262 12.6431 12.1262L11.9099 13.2784ZM11.4524 11.0058L10.9188 12.3441L11.8725 11.5281C11.8725 11.5281 12.0322 11.2719 11.8261 11.0156C11.62 10.7594 11.4524 11.0058 11.4524 11.0058ZM10.1699 11.0469L10.9737 9.97507C10.9737 9.97507 11.188 9.80476 11.3289 10.1302C11.4699 10.4556 11.2609 10.6383 11.2609 10.6383L10.1699 11.0469ZM10.7335 8.79007L9.72981 9.50175L10.8627 9.53632C10.8627 9.53632 11.1026 9.44304 11.0392 9.07689C10.9758 8.71075 10.7335 8.79007 10.7335 8.79007ZM9.63739 7.84554L10.7533 7.55624C10.7533 7.55624 11.0024 7.57484 10.9827 7.94969C10.9631 8.32455 10.7132 8.32025 10.7132 8.32025L9.63739 7.84554ZM11.0314 6.38342L9.90086 6.22507L10.8256 7.09843C10.8256 7.09843 11.0636 7.19994 11.1646 6.84912C11.2656 6.49831 11.0314 6.38342 11.0314 6.38342ZM10.5041 4.77158L11.5426 5.38799C11.5426 5.38799 11.7387 5.59373 11.5613 5.88576C11.384 6.17779 11.1812 5.98319 11.1812 5.98319L10.5041 4.77158ZM12.2402 4.6352L11.3822 3.64086L11.764 5.06347C11.764 5.06347 11.9153 5.32863 12.149 5.1185C12.3826 4.90837 12.2402 4.6352 12.2402 4.6352ZM12.4616 2.91848L13.0641 4.20384C13.0641 4.20384 13.1404 4.52058 12.8708 4.63045C12.6013 4.74031 12.5148 4.42776 12.5148 4.42776L12.4616 2.91848Z" fill="#FFE402"/>
<path d="M8.29987 7.66615L9.33715 7.80603C8.83936 12.3045 10.1819 14.3313 13.6758 14.3313C17.2126 14.3313 18.8504 12.2126 18.8504 7.66615C18.8504 7.66615 19.5867 7.61046 19.5808 7.80603C19.4219 13.0369 17.7382 16.3946 13.5728 16.3946C9.20903 16.3946 7.67287 13.3323 8.29987 7.66615Z" fill="#FFE402"/>
<path d="M8.60943 10.3497L9.58909 10.4896C9.11895 14.9881 10.3869 17.0149 13.6868 17.0149C17.0271 17.0149 18.5739 14.8962 18.5739 10.3497C18.5739 10.3497 19.2694 10.2941 19.2638 10.4896C19.1137 15.7205 17.5235 19.0782 13.5895 19.0782C9.46808 19.0782 8.01725 16.0159 8.60943 10.3497Z" fill="#FFE402"/>
</g>
</g>
<rect width="23" height="23" rx="11.5" fill="url(#paint0_linear_2754_2976)" style="mix-blend-mode:overlay"/>
<rect x="0.5" y="0.5" width="22" height="22" rx="11" stroke="black" stroke-opacity="0.1"/>
<defs>
<linearGradient id="paint0_linear_2754_2976" x1="11.5" y1="0" x2="11.5" y2="23" gradientUnits="userSpaceOnUse">
<stop stop-color="white" stop-opacity="0.7"/>
<stop offset="1" stop-opacity="0.3"/>
</linearGradient>
</defs>
</svg>
