<svg width="23" height="23" viewBox="0 0 23 23" fill="none" xmlns="http://www.w3.org/2000/svg">
<mask id="mask0_2755_4586" style="mask-type:alpha" maskUnits="userSpaceOnUse" x="0" y="0" width="23" height="23">
<rect width="23" height="23" fill="white"/>
</mask>
<g mask="url(#mask0_2755_4586)">
<path fill-rule="evenodd" clip-rule="evenodd" d="M0 0H23V23H0V0Z" fill="#FECA00"/>
<rect x="1.4375" y="1.9165" width="4.3125" height="19.1667" fill="#1F8A6E"/>
<rect x="5.75" y="1.9165" width="4.3125" height="19.1667" fill="#F56800"/>
<rect x="10.0625" y="1.9165" width="11.5" height="19.1667" fill="#B01D00"/>
<path fill-rule="evenodd" clip-rule="evenodd" d="M12.1776 5.75C12.1776 5.75 11.2525 5.74642 11.2525 7.89415V11.0436C11.2525 11.0436 10.8121 11.1483 10.8121 11.513C10.8121 11.8778 10.9054 12.1969 11.0789 12.1969C11.2525 12.1969 11.426 13.2669 11.2525 13.2669C11.0789 13.2669 10.9054 13.726 11.0789 13.726C11.1204 13.726 11.152 13.7185 11.1761 13.7128C11.1987 13.7074 11.2147 13.7036 11.2259 13.7093C11.2525 13.7226 11.2525 13.7888 11.2525 14.0118C11.2525 14.4288 11.0789 14.5974 11.0789 14.5974C11.0789 14.5974 10.9155 14.5366 10.9155 14.782C10.9155 15.0274 11.0789 15.0895 11.0789 15.0895C11.0789 15.0895 11.1725 15.1434 10.9923 15.2596C10.8121 15.3758 10.8121 15.4319 10.8121 15.4319H11.2525L11.473 15.9699L11.6834 15.4319H12.1182C12.1182 15.4319 11.8993 15.2453 11.8736 15.2061C11.8479 15.167 11.8169 15.1099 11.8736 15.0444C11.8901 15.0254 11.9143 15.0108 11.9403 14.9951C12.0035 14.9571 12.0772 14.9127 12.0772 14.782C12.0772 14.5974 11.7998 14.5974 11.7998 14.5974C11.7998 14.5974 11.6304 14.1898 11.6834 14.0118C11.6983 13.9621 11.7067 13.9178 11.714 13.8798C11.7326 13.782 11.7433 13.726 11.8344 13.726C11.9607 13.726 12.0333 13.5133 11.8736 13.2669C11.8736 13.2669 12.0566 13.5293 12.0028 13.8697C11.9491 14.2101 12.0588 14.3643 12.1182 14.3643C12.1776 14.3643 12.2721 14.2472 12.2721 14.2472C12.2721 14.2472 12.7655 14.8355 12.9824 14.8355C13.1993 14.8355 13.5103 14.3643 13.5103 14.3643L13.9567 14.6986C13.9567 14.6986 14.2835 15.3089 14.2353 15.7286C14.1871 16.1482 14.0009 16.382 13.7817 16.3171C13.5625 16.2522 13.206 16.3853 13.1788 16.5663C13.1747 16.5937 13.1686 16.6271 13.1619 16.6637C13.1244 16.8692 13.0682 17.1767 13.24 17.1008C13.4425 17.0114 13.4821 16.9428 13.4821 16.9428C13.4821 16.9428 13.4555 17.1008 13.6186 17.1008C13.7817 17.1008 13.8288 16.9428 13.8288 16.9428C13.8288 16.9428 13.9979 17.1008 14.1166 17.1008C14.2353 17.1008 14.3683 16.9791 14.3683 16.9791C14.3683 16.9791 14.4558 17.1599 14.6494 17.1008C14.843 17.0417 14.9893 16.3681 14.8485 16.2172C14.8485 16.2172 15.3154 16.1269 15.4353 15.5857C15.4353 15.5857 14.9836 15.5767 15.0301 15.2061C15.0767 14.8355 15.3152 14.5974 15.3152 14.5974C15.3152 14.5974 16.0021 14.154 16.2977 14.0118C16.5932 13.8697 17.0844 13.726 17.2062 13.726C17.2557 13.726 17.2911 13.8802 17.339 14.0892C17.4089 14.3937 17.5055 14.8147 17.7115 15.0444C18.0589 15.4319 17.822 16.3171 17.822 16.3171C17.822 16.3171 17.0489 16.421 17.0489 16.7C17.0489 16.9791 17.0614 17.1008 17.2062 17.1008C17.351 17.1008 17.348 16.9428 17.348 16.9428C17.348 16.9428 17.434 17.1008 17.5727 17.1008C17.7115 17.1008 17.822 16.9428 17.822 16.9428C17.822 16.9428 17.8589 17.1008 18.0407 17.1008C18.2225 17.1008 18.2212 16.9428 18.2212 16.9428C18.2212 16.9428 18.2539 17.1008 18.4142 17.1008C18.5744 17.1008 18.9033 16.9428 18.9033 16.9428C18.9033 16.9428 18.9548 17.1008 19.1212 17.1008C19.2876 17.1008 19.2915 16.9428 19.2915 16.9428C19.2915 16.9428 19.3804 17.1008 19.5245 17.1008C19.6686 17.1008 19.7531 16.9428 19.7531 16.9428C19.7531 16.9428 19.9603 17.1008 20.1033 17.1008C20.2462 17.1008 20.1949 16.8156 20.1033 16.5663C20.0801 16.5033 20.0533 16.4494 20.0287 16.4002C19.9563 16.2549 19.9042 16.1503 20.0269 15.9699C20.0616 15.9189 20.1014 15.8672 20.1413 15.8156C20.2898 15.6229 20.4391 15.4292 20.3298 15.2596C20.2973 15.2092 20.2593 15.174 20.221 15.1386C20.0958 15.0226 19.9683 14.9046 20.0269 14.2472C20.0619 13.8536 20.1285 13.5336 20.1904 13.2364L20.1904 13.2364C20.2634 12.8858 20.3298 12.5671 20.3298 12.1969C20.3298 11.513 20.0269 10.731 20.0269 10.731C20.0269 10.731 20.4347 10.3514 20.4347 9.57931C20.4347 8.80721 19.5245 8.72301 19.5245 8.72301C19.5245 8.72301 18.6204 9.03331 18.2212 8.87816C18.1311 8.84314 18.0557 8.81796 17.993 8.79701C17.7778 8.72512 17.7115 8.70299 17.7115 8.50407C17.7115 8.24717 17.4209 8.72301 17.4209 8.72301C17.4209 8.72301 17.1932 8.60112 17.348 8.34892C17.5029 8.09673 17.5727 7.99785 17.5727 7.99785C17.5727 7.99785 17.4363 7.79044 17.2062 7.89415C16.976 7.99786 16.935 8.16971 16.935 8.16971C16.935 8.16971 16.6725 7.81155 16.8361 7.55149C16.9996 7.29144 17.2062 7.55149 17.2062 7.55149C17.2062 7.55149 17.4412 7.71513 17.4601 7.50034C17.4791 7.28554 17.4601 7.11426 17.4601 7.11426C17.4601 7.11426 18.0499 7.33979 17.8833 7.69057C17.7166 8.04136 17.822 8.16971 17.822 8.16971C17.822 8.16971 18.2273 8.20297 18.3006 7.83015C18.3283 7.68914 18.3237 7.5524 18.3035 7.44493C18.4203 7.51828 18.5525 7.60519 18.5156 7.74938C18.4478 8.01428 18.3006 8.34892 18.3006 8.34892C18.3006 8.34892 18.7056 8.31736 18.8263 7.89415C18.947 7.47094 18.9033 7.99785 18.9033 7.99785C18.9033 7.99785 19.0585 7.99049 19.2915 8.16971C19.5245 8.34892 19.2915 7.89415 19.2915 7.89415C19.2915 7.89415 19.7751 8.69368 20.2326 8.59887C20.69 8.50407 20.6646 7.99785 20.6646 7.99785C20.6646 7.99785 20.5563 7.74938 20.3298 7.74938C20.1033 7.74938 20.2326 7.99785 20.2326 7.99785C20.2326 7.99785 20.4534 8.16556 20.1033 7.99785C20.0018 7.94928 19.8505 7.79248 19.6627 7.59791C19.2022 7.12073 18.5224 6.41639 17.822 6.52425C16.8361 6.67611 16.492 7.26358 16.492 7.26358V6.77442C16.492 6.77442 16.3264 7.11426 16.1719 7.11426C16.0174 7.11426 15.5885 6.77442 15.5885 6.77442L15.3152 7.11426C15.3152 7.11426 15.2118 6.77442 15.0301 6.77442C14.8485 6.77442 14.8485 7.11426 14.8485 7.11426C14.8485 7.11426 14.62 6.96444 14.3683 6.96444C14.2652 6.96444 14.1775 6.91423 14.1099 6.87553C14.0124 6.81975 13.9567 6.78785 13.9567 6.96444C13.9567 7.00028 13.9573 7.03449 13.9579 7.06704V7.06705C13.9623 7.30613 13.9651 7.45531 13.7042 7.50034C13.4077 7.55149 13.1788 7.55149 13.1788 7.55149C13.1788 7.55149 13.0014 7.26358 12.8633 7.26358C12.7253 7.26358 12.5653 7.487 12.5653 7.69057C12.5653 7.89415 12.7442 8.47474 12.8633 8.59887C12.8947 8.63157 12.8889 8.62799 12.8633 8.61227C12.7917 8.5683 12.5653 8.4293 12.5653 8.72301C12.5653 8.9255 12.6032 8.97612 12.6309 9.0131C12.6577 9.04892 12.675 9.07193 12.6388 9.20789C12.6238 9.26447 12.6031 9.32991 12.5815 9.39821C12.4978 9.66338 12.4005 9.97164 12.5653 9.97164C12.6543 9.97164 12.7386 9.94549 12.7985 9.92688C12.8782 9.90215 12.915 9.89071 12.8633 9.97164C12.8427 10.0039 12.815 10.0427 12.787 10.0819C12.6919 10.2149 12.5941 10.3518 12.7634 10.2479C12.8524 10.1933 12.9275 10.1141 12.9894 10.0488C13.08 9.95324 13.1425 9.88742 13.1788 9.97164C13.2018 10.0249 13.1834 10.0961 13.1676 10.1571C13.1413 10.2585 13.1224 10.3319 13.3131 10.2479C13.38 10.2185 13.4192 10.1955 13.441 10.179C13.4419 10.1955 13.4521 10.2185 13.4821 10.2479C13.5461 10.3106 13.5339 10.3699 13.5245 10.4153C13.5139 10.4667 13.507 10.5001 13.6186 10.5001C13.7254 10.5001 13.8761 10.3897 13.9655 10.3243C14.052 10.2609 14.0809 10.2398 13.9567 10.4017C13.8784 10.5038 13.7652 10.5718 13.6395 10.6474C13.3597 10.8155 13.0182 11.0206 12.8633 11.7205C12.6542 12.6651 12.7479 12.8598 12.7618 12.882L12.1182 11.9425C12.1182 11.9425 12.2721 11.7821 12.2721 11.513C12.2721 11.2439 11.8736 11.0436 11.8736 11.0436C11.8736 11.0436 11.8875 7.69507 12.0028 6.96444C12.1182 6.23381 12.1776 5.75 12.1776 5.75ZM13.461 10.1474C13.4538 10.1474 13.4398 10.158 13.441 10.179C13.4689 10.1579 13.4683 10.1474 13.461 10.1474ZM18.3035 7.44493L18.2949 7.43958C18.2007 7.38048 18.1196 7.32964 18.1508 7.26358C18.1946 7.17073 18.2702 7.26826 18.3035 7.44493ZM18.7293 14.6905C18.7293 14.6905 18.4243 15.0894 18.618 15.177C18.6767 15.2036 18.7482 15.2185 18.8146 15.2322C18.9672 15.2639 19.0932 15.2901 18.9776 15.4407C18.8117 15.6568 18.6712 15.9488 18.6712 16.2148C18.6712 16.4808 18.676 16.7053 18.7293 16.5931C18.7587 16.5314 18.8791 16.4669 19.0089 16.3974C19.1155 16.3403 19.2284 16.2798 19.3021 16.2148C19.4415 16.092 19.4395 15.9591 19.4359 15.7204L19.4359 15.7203C19.4353 15.6791 19.4346 15.6347 19.4346 15.5866C19.4346 15.2603 18.7293 14.6905 18.7293 14.6905ZM16.3629 9.34867C16.434 9.27333 16.4386 8.3435 16.4386 8.3435C16.4386 8.3435 16.688 8.4542 16.688 8.59945C16.688 8.68991 16.6691 8.74165 16.6406 8.81974C16.6233 8.86705 16.6026 8.92402 16.5803 9.00512C16.5255 9.20487 16.6746 9.33001 16.8131 9.44625C16.8237 9.45512 16.8342 9.46393 16.8445 9.47272C16.9384 9.55254 16.9648 9.37937 16.9852 9.24569C16.9964 9.17158 17.0059 9.10962 17.024 9.10962C17.0746 9.10962 17.4526 9.22386 17.737 9.4166C17.9852 9.58476 18.2288 9.5022 18.7866 9.31312C18.8681 9.28549 18.9563 9.25559 19.0522 9.22386C19.8045 8.975 19.9033 9.34867 19.9804 9.64285C20.0575 9.93704 19.4735 10.3447 19.0522 10.4186C18.8671 10.451 18.7067 10.4407 18.5592 10.4312C18.371 10.4191 18.2036 10.4083 18.0324 10.4895C17.764 10.6167 16.9247 10.604 16.5971 10.5991C16.5519 10.5984 16.5164 10.5979 16.4935 10.5979C16.3431 10.5979 16.3146 10.5346 16.2575 10.4076C16.243 10.3753 16.2267 10.3389 16.206 10.2984C16.1039 10.0984 16.2278 9.96773 16.3081 9.96773C16.3883 9.96773 16.3629 9.73371 16.3081 9.64285C16.2532 9.552 16.2918 9.424 16.3629 9.34867Z" fill="#FECA00"/>
<rect x="8.625" y="1.9165" width="1.4375" height="19.1667" fill="#E8AA00"/>
<path fill-rule="evenodd" clip-rule="evenodd" d="M10.1856 2.03394V2.37994C10.1856 2.42254 10.1718 2.48065 10.1563 2.54579C10.1073 2.75226 10.0416 3.02935 10.3451 3.10722C10.7444 3.20966 11.0386 3.44247 11.128 3.66226C11.1853 3.80311 11.1692 3.5684 11.1502 3.29235C11.1395 3.13765 11.128 2.96995 11.128 2.8481C11.128 2.50881 10.8429 1.84765 10.641 2.03394C10.439 2.22023 10.1856 2.03394 10.1856 2.03394ZM10.1856 20.6112V20.9572C10.1856 20.9572 10.439 20.7709 10.641 20.9572C10.8429 21.1435 11.128 20.4823 11.128 20.1431C11.128 20.0212 11.1395 19.8535 11.1502 19.6988C11.1692 19.4228 11.1853 19.188 11.128 19.3289C11.0386 19.5487 10.7444 19.7815 10.3451 19.8839C10.0416 19.9618 10.1073 20.2389 10.1563 20.4454C10.1718 20.5105 10.1856 20.5686 10.1856 20.6112ZM21.4444 20.6112V20.9572C21.4444 20.9572 21.191 20.7709 20.989 20.9572C20.787 21.1435 20.502 20.4823 20.502 20.1431C20.502 20.0212 20.4904 19.8535 20.4798 19.6988C20.4608 19.4228 20.4447 19.188 20.502 19.3289C20.5914 19.5487 20.8855 19.7815 21.2848 19.8839C21.5884 19.9618 21.5226 20.2389 21.4736 20.4454C21.4582 20.5105 21.4444 20.5686 21.4444 20.6112ZM21.4444 2.37994V2.03394C21.4444 2.03394 21.191 2.22023 20.989 2.03394C20.787 1.84765 20.502 2.50881 20.502 2.8481C20.502 2.96995 20.4904 3.13765 20.4798 3.29235C20.4608 3.5684 20.4447 3.80311 20.502 3.66226C20.5914 3.44247 20.8855 3.20966 21.2848 3.10722C21.5884 3.02935 21.5226 2.75226 21.4736 2.54579C21.4582 2.48065 21.4444 2.42254 21.4444 2.37994Z" fill="#FECA00"/>
</g>
<rect width="23" height="23" rx="11.5" fill="url(#paint0_linear_2755_4586)" style="mix-blend-mode:overlay"/>
<rect x="0.5" y="0.5" width="22" height="22" rx="11" stroke="black" stroke-opacity="0.1"/>
<defs>
<linearGradient id="paint0_linear_2755_4586" x1="11.5" y1="0" x2="11.5" y2="23" gradientUnits="userSpaceOnUse">
<stop stop-color="white" stop-opacity="0.7"/>
<stop offset="1" stop-opacity="0.3"/>
</linearGradient>
</defs>
</svg>
