<svg width="23" height="23" viewBox="0 0 23 23" fill="none" xmlns="http://www.w3.org/2000/svg">
<mask id="mask0_2755_4661" style="mask-type:alpha" maskUnits="userSpaceOnUse" x="0" y="0" width="23" height="23">
<rect width="23" height="23" fill="white"/>
</mask>
<g mask="url(#mask0_2755_4661)">
<path fill-rule="evenodd" clip-rule="evenodd" d="M0 17.25H23V23H0V17.25Z" fill="#55BB07"/>
<path fill-rule="evenodd" clip-rule="evenodd" d="M0 5.75H23V17.25H0V5.75Z" fill="#1C1C1C"/>
<path fill-rule="evenodd" clip-rule="evenodd" d="M0 0H23V5.75H0V0Z" fill="#E01A1A"/>
<path fill-rule="evenodd" clip-rule="evenodd" d="M11.3545 14.4384C10.0664 14.0834 9.73875 13.0576 9.75256 11.6715C9.75256 10.2047 10.3253 8.84724 11.3414 8.68493C12.3574 8.52263 13.1896 9.02798 13.6258 9.73317C13.261 7.8189 12.0523 7.60953 11.1244 7.60953C9.72726 7.59325 8.25256 8.88247 8.25256 11.8147C8.25256 14.4384 9.55739 15.7355 11.1647 15.7786C13.1742 15.7786 13.4886 13.9284 13.5465 13.2981C13.4296 13.4099 13.3213 13.5436 13.2101 13.6808C12.8085 14.1767 12.3699 14.7182 11.3545 14.4384ZM14.5297 10.7468L13.6125 11.2201L14.564 11.7808L14.5297 13.2652L15.2519 12.2405L16.2998 12.5282L15.6638 11.3909L16.2185 10.2964L15.3434 10.5427L14.725 9.61097L14.5297 10.7468Z" fill="white"/>
</g>
<rect width="23" height="23" rx="11.5" fill="url(#paint0_linear_2755_4661)" style="mix-blend-mode:overlay"/>
<rect x="0.5" y="0.5" width="22" height="22" rx="11" stroke="black" stroke-opacity="0.1"/>
<defs>
<linearGradient id="paint0_linear_2755_4661" x1="11.5" y1="0" x2="11.5" y2="23" gradientUnits="userSpaceOnUse">
<stop stop-color="white" stop-opacity="0.7"/>
<stop offset="1" stop-opacity="0.3"/>
</linearGradient>
</defs>
</svg>
