<svg width="23" height="23" viewBox="0 0 23 23" fill="none" xmlns="http://www.w3.org/2000/svg">
<mask id="mask0_2754_3441" style="mask-type:alpha" maskUnits="userSpaceOnUse" x="0" y="0" width="23" height="23">
<rect width="23" height="23" fill="white"/>
</mask>
<g mask="url(#mask0_2754_3441)">
<path fill-rule="evenodd" clip-rule="evenodd" d="M5.75 0H17.9688V23H5.75V0Z" fill="#F7FCFF"/>
<path fill-rule="evenodd" clip-rule="evenodd" d="M17.25 0H23V23H17.25V0Z" fill="#F50101"/>
<path fill-rule="evenodd" clip-rule="evenodd" d="M0 0H5.75V23H0V0Z" fill="#F50101"/>
<path d="M11.3141 8.3807L11.3382 8.72757C10.6206 8.82434 10.2328 8.35681 10.2328 7.38647C10.2328 6.42362 10.6122 5.91182 11.3254 5.90576L11.3269 6.25424C10.7491 6.25915 10.4828 6.61832 10.4828 7.38647C10.4828 8.14712 10.7407 8.45803 11.3141 8.3807Z" fill="#A2BB6A"/>
<path d="M11.6319 8.3807L11.6079 8.72757C12.3255 8.82434 12.7132 8.35681 12.7132 7.38647C12.7132 6.42362 12.3339 5.91182 11.6207 5.90576L11.6191 6.25424C12.197 6.25915 12.4632 6.61832 12.4632 7.38647C12.4632 8.14712 12.2054 8.45803 11.6319 8.3807Z" fill="#A2BB6A"/>
<mask id="path-8-outside-1_2754_3441" maskUnits="userSpaceOnUse" x="8.47095" y="6.51172" width="6" height="10" fill="black">
<rect fill="white" x="8.47095" y="6.51172" width="6" height="10"/>
<path fill-rule="evenodd" clip-rule="evenodd" d="M11.5624 8.53466C11.5815 8.52021 11.5922 8.51172 11.5922 8.51172V8.55688C11.7305 8.65867 12.079 8.89718 12.3055 8.89718C12.5935 8.89718 12.9849 8.51172 12.9849 8.51172L13.6399 9.74484C13.6399 9.74484 13.1988 10.9775 13.5363 12.4839C13.8739 13.9902 13.5185 15.1517 12.0175 15.2806C12.0175 15.2806 11.7217 15.3555 11.5922 15.475V15.5853C11.5922 15.5578 11.5811 15.5317 11.5624 15.5072C11.5436 15.5317 11.5326 15.5578 11.5326 15.5853V15.475C11.403 15.3555 11.1072 15.2806 11.1072 15.2806C9.60626 15.1517 9.25086 13.9902 9.58839 12.4839C9.92592 10.9775 9.48481 9.74484 9.48481 9.74484L10.1398 8.51172C10.1398 8.51172 10.5312 8.89718 10.8192 8.89718C11.0458 8.89718 11.3942 8.65867 11.5326 8.55688V8.51172C11.5326 8.51172 11.5432 8.52021 11.5624 8.53466Z"/>
</mask>
<path fill-rule="evenodd" clip-rule="evenodd" d="M11.5624 8.53466C11.5815 8.52021 11.5922 8.51172 11.5922 8.51172V8.55688C11.7305 8.65867 12.079 8.89718 12.3055 8.89718C12.5935 8.89718 12.9849 8.51172 12.9849 8.51172L13.6399 9.74484C13.6399 9.74484 13.1988 10.9775 13.5363 12.4839C13.8739 13.9902 13.5185 15.1517 12.0175 15.2806C12.0175 15.2806 11.7217 15.3555 11.5922 15.475V15.5853C11.5922 15.5578 11.5811 15.5317 11.5624 15.5072C11.5436 15.5317 11.5326 15.5578 11.5326 15.5853V15.475C11.403 15.3555 11.1072 15.2806 11.1072 15.2806C9.60626 15.1517 9.25086 13.9902 9.58839 12.4839C9.92592 10.9775 9.48481 9.74484 9.48481 9.74484L10.1398 8.51172C10.1398 8.51172 10.5312 8.89718 10.8192 8.89718C11.0458 8.89718 11.3942 8.65867 11.5326 8.55688V8.51172C11.5326 8.51172 11.5432 8.52021 11.5624 8.53466Z" fill="#E8AA00"/>
<path d="M11.5922 8.51172H12.0922V7.47558L11.2811 8.1203L11.5922 8.51172ZM11.5624 8.53466L11.2609 8.93356L11.5624 9.1614L11.8638 8.93356L11.5624 8.53466ZM11.5922 8.55688H11.0922V8.80979L11.2959 8.95965L11.5922 8.55688ZM12.9849 8.51172L13.4265 8.27717L13.1119 7.68494L12.6341 8.15545L12.9849 8.51172ZM13.6399 9.74484L14.1107 9.9133L14.1851 9.70535L14.0815 9.51029L13.6399 9.74484ZM13.5363 12.4839L14.0242 12.3745V12.3745L13.5363 12.4839ZM12.0175 15.2806L11.9747 14.7825L11.9341 14.7859L11.8947 14.7959L12.0175 15.2806ZM11.5922 15.475L11.2533 15.1073L11.0922 15.2558V15.475H11.5922ZM11.5624 15.5072L11.9596 15.2035L11.5624 14.6841L11.1652 15.2035L11.5624 15.5072ZM11.5326 15.475H12.0326V15.2558L11.8714 15.1073L11.5326 15.475ZM11.1072 15.2806L11.23 14.7959L11.1906 14.7859L11.15 14.7825L11.1072 15.2806ZM9.58839 12.4839L10.0763 12.5932H10.0763L9.58839 12.4839ZM9.48481 9.74484L9.04323 9.51029L8.93963 9.70535L9.01404 9.9133L9.48481 9.74484ZM10.1398 8.51172L10.4906 8.15545L10.0128 7.68494L9.69822 8.27717L10.1398 8.51172ZM11.5326 8.55688L11.8288 8.95965L12.0326 8.80979V8.55688H11.5326ZM11.5326 8.51172L11.8437 8.1203L11.0326 7.47558V8.51172H11.5326ZM11.5922 8.51172C11.2811 8.1203 11.2811 8.1203 11.2811 8.12029C11.2811 8.12029 11.2811 8.12028 11.2811 8.12028C11.2811 8.12027 11.2811 8.12026 11.2811 8.12025C11.2811 8.12024 11.2812 8.12022 11.2812 8.12021C11.2812 8.12018 11.2813 8.12015 11.2813 8.12012C11.2814 8.12007 11.2814 8.12002 11.2815 8.11998C11.2816 8.11991 11.2816 8.11986 11.2816 8.11985C11.2817 8.11983 11.2815 8.11992 11.2813 8.12014C11.2807 8.12058 11.2795 8.12148 11.2778 8.12283C11.2743 8.12552 11.2686 8.12993 11.2609 8.13577L11.8638 8.93356C11.8752 8.92494 11.8844 8.91788 11.8911 8.91271C11.8944 8.91013 11.8971 8.90801 11.8992 8.9064C11.9002 8.9056 11.901 8.90492 11.9017 8.90437C11.9021 8.9041 11.9024 8.90386 11.9026 8.90365C11.9028 8.90355 11.9029 8.90345 11.903 8.90337C11.9031 8.90332 11.9031 8.90328 11.9032 8.90324C11.9032 8.90322 11.9032 8.9032 11.9032 8.90319C11.9032 8.90318 11.9032 8.90317 11.9033 8.90316C11.9033 8.90315 11.9033 8.90315 11.9033 8.90315C11.9033 8.90314 11.9033 8.90313 11.5922 8.51172ZM12.0922 8.55688V8.51172H11.0922V8.55688H12.0922ZM11.2959 8.95965C11.3736 9.01684 11.5157 9.11658 11.6764 9.2042C11.8144 9.2794 12.0554 9.39718 12.3055 9.39718V8.39718C12.3293 8.39718 12.3262 8.40185 12.2869 8.38776C12.2521 8.37523 12.2073 8.35465 12.1551 8.3262C12.0504 8.26912 11.9491 8.19871 11.8885 8.15412L11.2959 8.95965ZM12.3055 9.39718C12.481 9.39718 12.6359 9.34094 12.7451 9.28979C12.8599 9.23607 12.9634 9.16922 13.0453 9.11024C13.1287 9.05024 13.1994 8.99134 13.249 8.94784C13.2741 8.92584 13.2944 8.90715 13.3091 8.89341C13.3165 8.88652 13.3225 8.88083 13.3269 8.87654C13.3292 8.87439 13.331 8.87259 13.3325 8.87116C13.3332 8.87044 13.3339 8.86982 13.3344 8.86929C13.3347 8.86902 13.3349 8.86878 13.3352 8.86856C13.3353 8.86846 13.3354 8.86835 13.3355 8.86826C13.3355 8.86821 13.3356 8.86814 13.3356 8.86812C13.3357 8.86805 13.3358 8.86799 12.9849 8.51172C12.6341 8.15545 12.6342 8.15539 12.6342 8.15533C12.6343 8.15531 12.6343 8.15525 12.6344 8.15522C12.6344 8.15514 12.6345 8.15508 12.6346 8.15501C12.6347 8.15489 12.6348 8.15479 12.6349 8.15471C12.635 8.15455 12.6351 8.15448 12.6351 8.15449C12.6351 8.15452 12.6347 8.15488 12.634 8.15556C12.6326 8.15691 12.6299 8.1595 12.626 8.16316C12.6181 8.17049 12.6057 8.18192 12.5896 8.19606C12.5568 8.22483 12.5116 8.2623 12.4611 8.29866C12.4092 8.33605 12.3608 8.36557 12.3212 8.38411C12.276 8.40524 12.274 8.39718 12.3055 8.39718V9.39718ZM12.5434 8.74627L13.1983 9.97939L14.0815 9.51029L13.4265 8.27717L12.5434 8.74627ZM13.6399 9.74484C13.1692 9.57638 13.1691 9.57653 13.169 9.57668C13.169 9.57674 13.169 9.5769 13.1689 9.57702C13.1688 9.57725 13.1688 9.5775 13.1687 9.57777C13.1685 9.57831 13.1683 9.57893 13.168 9.57962C13.1675 9.581 13.1669 9.58269 13.1662 9.58468C13.1649 9.58866 13.1631 9.59384 13.161 9.6002C13.1567 9.61291 13.151 9.63033 13.1442 9.65221C13.1306 9.69596 13.1125 9.75768 13.0923 9.83545C13.052 9.99082 13.0033 10.2113 12.9662 10.4815C12.8923 11.0203 12.8634 11.7674 13.0484 12.5932L14.0242 12.3745C13.8718 11.694 13.8946 11.0715 13.9569 10.6174C13.988 10.3912 14.0284 10.2094 14.0603 10.0865C14.0762 10.0252 14.0899 9.97884 14.0991 9.94929C14.1036 9.93453 14.1071 9.92399 14.1091 9.91791C14.1102 9.91487 14.1108 9.91294 14.1111 9.91216C14.1112 9.91178 14.1113 9.91167 14.1112 9.91186C14.1112 9.91196 14.1111 9.91212 14.111 9.91236C14.111 9.91248 14.1109 9.91262 14.1109 9.91278C14.1108 9.91285 14.1108 9.91299 14.1108 9.91302C14.1107 9.91316 14.1107 9.9133 13.6399 9.74484ZM13.0484 12.5932C13.207 13.3007 13.1793 13.8367 13.0145 14.1848C12.8706 14.4886 12.584 14.7301 11.9747 14.7825L12.0603 15.7788C12.952 15.7022 13.5936 15.2984 13.9183 14.6127C14.222 13.9712 14.2032 13.1733 14.0242 12.3745L13.0484 12.5932ZM12.0175 15.2806C11.8947 14.7959 11.8946 14.796 11.8946 14.796C11.8945 14.796 11.8945 14.796 11.8944 14.796C11.8943 14.796 11.8942 14.7961 11.8941 14.7961C11.8939 14.7961 11.8937 14.7962 11.8934 14.7963C11.8929 14.7964 11.8924 14.7965 11.8917 14.7967C11.8904 14.797 11.8888 14.7974 11.887 14.7979C11.8833 14.7989 11.8784 14.8002 11.8726 14.8018C11.8609 14.805 11.8451 14.8095 11.8261 14.8151C11.7885 14.8264 11.7365 14.8429 11.6785 14.8646C11.5826 14.9004 11.3953 14.9764 11.2533 15.1073L11.931 15.8426C11.9177 15.8549 11.9173 15.8516 11.9434 15.8381C11.966 15.8264 11.9954 15.8137 12.0283 15.8014C12.0605 15.7894 12.0905 15.7798 12.1124 15.7733C12.1232 15.77 12.1315 15.7677 12.1365 15.7663C12.139 15.7657 12.1406 15.7652 12.1413 15.765C12.1416 15.765 12.1417 15.7649 12.1416 15.765C12.1415 15.765 12.1413 15.765 12.1411 15.7651C12.141 15.7651 12.1409 15.7652 12.1408 15.7652C12.1407 15.7652 12.1406 15.7652 12.1405 15.7652C12.1405 15.7653 12.1404 15.7653 12.1404 15.7653C12.1404 15.7653 12.1403 15.7653 12.0175 15.2806ZM12.0922 15.5853V15.475H11.0922V15.5853H12.0922ZM11.1652 15.8109C11.1389 15.7766 11.0922 15.6986 11.0922 15.5853H12.0922C12.0922 15.4171 12.0233 15.2869 11.9596 15.2035L11.1652 15.8109ZM11.1652 15.2035C11.1014 15.2869 11.0326 15.4171 11.0326 15.5853H12.0326C12.0326 15.6986 11.9858 15.7766 11.9596 15.8109L11.1652 15.2035ZM12.0326 15.5853V15.475H11.0326V15.5853H12.0326ZM11.1072 15.2806C10.9844 15.7653 10.9844 15.7653 10.9843 15.7653C10.9843 15.7653 10.9842 15.7653 10.9842 15.7652C10.9841 15.7652 10.984 15.7652 10.984 15.7652C10.9838 15.7652 10.9837 15.7651 10.9836 15.7651C10.9834 15.765 10.9832 15.765 10.9832 15.765C10.983 15.7649 10.9831 15.765 10.9834 15.765C10.9841 15.7652 10.9857 15.7657 10.9882 15.7663C10.9932 15.7677 11.0015 15.77 11.0123 15.7733C11.0343 15.7798 11.0643 15.7894 11.0964 15.8014C11.1293 15.8137 11.1587 15.8264 11.1813 15.8381C11.2074 15.8516 11.207 15.8549 11.1937 15.8426L11.8714 15.1073C11.7294 14.9764 11.5421 14.9004 11.4462 14.8646C11.3882 14.8429 11.3362 14.8264 11.2986 14.8151C11.2796 14.8095 11.2638 14.805 11.2522 14.8018C11.2463 14.8002 11.2415 14.7989 11.2377 14.7979C11.2359 14.7974 11.2343 14.797 11.233 14.7967C11.2324 14.7965 11.2318 14.7964 11.2313 14.7963C11.2311 14.7962 11.2308 14.7961 11.2306 14.7961C11.2305 14.7961 11.2304 14.796 11.2303 14.796C11.2303 14.796 11.2302 14.796 11.2302 14.796C11.2301 14.796 11.23 14.7959 11.1072 15.2806ZM9.10049 12.3745C8.9215 13.1733 8.90271 13.9712 9.20647 14.6127C9.53115 15.2984 10.1727 15.7022 11.0644 15.7788L11.15 14.7825C10.5408 14.7301 10.2542 14.4886 10.1103 14.1848C9.94548 13.8367 9.91776 13.3007 10.0763 12.5932L9.10049 12.3745ZM9.48481 9.74484C9.01404 9.9133 9.01399 9.91316 9.01394 9.91302C9.01393 9.91299 9.01388 9.91285 9.01385 9.91278C9.0138 9.91262 9.01375 9.91248 9.01371 9.91236C9.01362 9.91212 9.01356 9.91196 9.01353 9.91186C9.01346 9.91167 9.0135 9.91178 9.01363 9.91216C9.0139 9.91294 9.01457 9.91487 9.01558 9.91791C9.01762 9.92399 9.02108 9.93453 9.02568 9.94929C9.03487 9.97884 9.04857 10.0252 9.06447 10.0865C9.09633 10.2094 9.13678 10.3912 9.16781 10.6174C9.23009 11.0715 9.25298 11.694 9.10049 12.3745L10.0763 12.5932C10.2613 11.7674 10.2324 11.0203 10.1585 10.4815C10.1215 10.2113 10.0727 9.99082 10.0324 9.83545C10.0123 9.75768 9.99414 9.69596 9.98053 9.65221C9.97372 9.63033 9.96803 9.61291 9.96377 9.6002C9.96164 9.59384 9.95987 9.58866 9.95849 9.58468C9.9578 9.58269 9.95721 9.581 9.95672 9.57962C9.95648 9.57893 9.95626 9.57831 9.95607 9.57777C9.95597 9.5775 9.95588 9.57725 9.9558 9.57702C9.95576 9.5769 9.9557 9.57674 9.95568 9.57668C9.95563 9.57653 9.95557 9.57638 9.48481 9.74484ZM9.69822 8.27717L9.04323 9.51029L9.92638 9.97939L10.5814 8.74627L9.69822 8.27717ZM10.8192 8.39718C10.8507 8.39718 10.8487 8.40524 10.8036 8.38411C10.7639 8.36556 10.7156 8.33605 10.6636 8.29866C10.6131 8.2623 10.568 8.22483 10.5352 8.19606C10.5191 8.18192 10.5066 8.17049 10.4988 8.16316C10.4949 8.1595 10.4921 8.15691 10.4907 8.15556C10.49 8.15488 10.4897 8.15452 10.4896 8.15449C10.4896 8.15448 10.4897 8.15455 10.4899 8.15471C10.4899 8.15479 10.49 8.15489 10.4902 8.15501C10.4902 8.15508 10.4903 8.15514 10.4904 8.15522C10.4904 8.15525 10.4905 8.15531 10.4905 8.15533C10.4906 8.15539 10.4906 8.15545 10.1398 8.51172C9.78898 8.86799 9.78905 8.86805 9.78911 8.86812C9.78914 8.86814 9.78921 8.86821 9.78925 8.86826C9.78935 8.86835 9.78946 8.86846 9.78957 8.86856C9.78979 8.86878 9.79003 8.86902 9.7903 8.86929C9.79084 8.86982 9.79148 8.87044 9.79222 8.87116C9.79369 8.87259 9.79555 8.87439 9.79779 8.87654C9.80225 8.88083 9.80823 8.88652 9.81559 8.89341C9.83028 8.90715 9.85067 8.92584 9.87575 8.94784C9.92534 8.99134 9.99605 9.05024 10.0794 9.11024C10.1613 9.16922 10.2648 9.23607 10.3796 9.28979C10.4889 9.34094 10.6438 9.39718 10.8192 9.39718V8.39718ZM11.2363 8.15412C11.1757 8.19871 11.0743 8.26912 10.9696 8.3262C10.9174 8.35465 10.8727 8.37523 10.8378 8.38776C10.7985 8.40185 10.7954 8.39718 10.8192 8.39718V9.39718C11.0693 9.39718 11.3104 9.2794 11.4483 9.2042C11.609 9.11658 11.7511 9.01684 11.8288 8.95965L11.2363 8.15412ZM12.0326 8.55688V8.51172H11.0326V8.55688H12.0326ZM11.5326 8.51172C11.2214 8.90313 11.2214 8.90314 11.2215 8.90315C11.2215 8.90315 11.2215 8.90316 11.2215 8.90316C11.2215 8.90317 11.2215 8.90318 11.2215 8.90319C11.2215 8.90321 11.2216 8.90322 11.2216 8.90324C11.2216 8.90328 11.2217 8.90332 11.2217 8.90337C11.2218 8.90345 11.222 8.90355 11.2221 8.90365C11.2224 8.90386 11.2227 8.9041 11.223 8.90437C11.2237 8.90492 11.2246 8.9056 11.2256 8.9064C11.2276 8.90801 11.2303 8.91013 11.2337 8.91271C11.2403 8.91788 11.2495 8.92494 11.2609 8.93356L11.8638 8.13577C11.8561 8.12993 11.8504 8.12552 11.8469 8.12283C11.8452 8.12148 11.844 8.12058 11.8435 8.12014C11.8432 8.11992 11.8431 8.11983 11.8431 8.11985C11.8431 8.11986 11.8432 8.11991 11.8433 8.11998C11.8433 8.12002 11.8434 8.12007 11.8434 8.12012C11.8435 8.12015 11.8435 8.12018 11.8436 8.12021C11.8436 8.12022 11.8436 8.12024 11.8436 8.12025C11.8436 8.12026 11.8436 8.12027 11.8436 8.12028C11.8436 8.12028 11.8437 8.12029 11.8437 8.12029C11.8437 8.1203 11.8437 8.1203 11.5326 8.51172Z" fill="#E8AA00" mask="url(#path-8-outside-1_2754_3441)"/>
<mask id="mask1_2754_3441" style="mask-type:alpha" maskUnits="userSpaceOnUse" x="8" y="7" width="7" height="9">
<mask id="path-10-outside-2_2754_3441" maskUnits="userSpaceOnUse" x="8.47095" y="6.51172" width="6" height="10" fill="black">
<rect fill="white" x="8.47095" y="6.51172" width="6" height="10"/>
<path fill-rule="evenodd" clip-rule="evenodd" d="M11.5624 8.53466C11.5815 8.52021 11.5922 8.51172 11.5922 8.51172V8.55688C11.7305 8.65867 12.079 8.89718 12.3055 8.89718C12.5935 8.89718 12.9849 8.51172 12.9849 8.51172L13.6399 9.74484C13.6399 9.74484 13.1988 10.9775 13.5363 12.4839C13.8739 13.9902 13.5185 15.1517 12.0175 15.2806C12.0175 15.2806 11.7217 15.3555 11.5922 15.475V15.5853C11.5922 15.5578 11.5811 15.5317 11.5624 15.5072C11.5436 15.5317 11.5326 15.5578 11.5326 15.5853V15.475C11.403 15.3555 11.1072 15.2806 11.1072 15.2806C9.60626 15.1517 9.25086 13.9902 9.58839 12.4839C9.92592 10.9775 9.48481 9.74484 9.48481 9.74484L10.1398 8.51172C10.1398 8.51172 10.5312 8.89718 10.8192 8.89718C11.0458 8.89718 11.3942 8.65867 11.5326 8.55688V8.51172C11.5326 8.51172 11.5432 8.52021 11.5624 8.53466Z"/>
</mask>
<path fill-rule="evenodd" clip-rule="evenodd" d="M11.5624 8.53466C11.5815 8.52021 11.5922 8.51172 11.5922 8.51172V8.55688C11.7305 8.65867 12.079 8.89718 12.3055 8.89718C12.5935 8.89718 12.9849 8.51172 12.9849 8.51172L13.6399 9.74484C13.6399 9.74484 13.1988 10.9775 13.5363 12.4839C13.8739 13.9902 13.5185 15.1517 12.0175 15.2806C12.0175 15.2806 11.7217 15.3555 11.5922 15.475V15.5853C11.5922 15.5578 11.5811 15.5317 11.5624 15.5072C11.5436 15.5317 11.5326 15.5578 11.5326 15.5853V15.475C11.403 15.3555 11.1072 15.2806 11.1072 15.2806C9.60626 15.1517 9.25086 13.9902 9.58839 12.4839C9.92592 10.9775 9.48481 9.74484 9.48481 9.74484L10.1398 8.51172C10.1398 8.51172 10.5312 8.89718 10.8192 8.89718C11.0458 8.89718 11.3942 8.65867 11.5326 8.55688V8.51172C11.5326 8.51172 11.5432 8.52021 11.5624 8.53466Z" fill="white"/>
<path d="M11.5922 8.51172H12.0922V7.47558L11.2811 8.1203L11.5922 8.51172ZM11.5624 8.53466L11.2609 8.93356L11.5624 9.1614L11.8638 8.93356L11.5624 8.53466ZM11.5922 8.55688H11.0922V8.80979L11.2959 8.95965L11.5922 8.55688ZM12.9849 8.51172L13.4265 8.27717L13.1119 7.68494L12.6341 8.15545L12.9849 8.51172ZM13.6399 9.74484L14.1107 9.9133L14.1851 9.70535L14.0815 9.51029L13.6399 9.74484ZM13.5363 12.4839L14.0242 12.3745V12.3745L13.5363 12.4839ZM12.0175 15.2806L11.9747 14.7825L11.9341 14.7859L11.8947 14.7959L12.0175 15.2806ZM11.5922 15.475L11.2533 15.1073L11.0922 15.2558V15.475H11.5922ZM11.5624 15.5072L11.9596 15.2035L11.5624 14.6841L11.1652 15.2035L11.5624 15.5072ZM11.5326 15.475H12.0326V15.2558L11.8714 15.1073L11.5326 15.475ZM11.1072 15.2806L11.23 14.7959L11.1906 14.7859L11.15 14.7825L11.1072 15.2806ZM9.58839 12.4839L10.0763 12.5932H10.0763L9.58839 12.4839ZM9.48481 9.74484L9.04323 9.51029L8.93963 9.70535L9.01404 9.9133L9.48481 9.74484ZM10.1398 8.51172L10.4906 8.15545L10.0128 7.68494L9.69822 8.27717L10.1398 8.51172ZM11.5326 8.55688L11.8288 8.95965L12.0326 8.80979V8.55688H11.5326ZM11.5326 8.51172L11.8437 8.1203L11.0326 7.47558V8.51172H11.5326ZM11.5922 8.51172C11.2811 8.1203 11.2811 8.1203 11.2811 8.12029C11.2811 8.12029 11.2811 8.12028 11.2811 8.12028C11.2811 8.12027 11.2811 8.12026 11.2811 8.12025C11.2811 8.12024 11.2812 8.12022 11.2812 8.12021C11.2812 8.12018 11.2813 8.12015 11.2813 8.12012C11.2814 8.12007 11.2814 8.12002 11.2815 8.11998C11.2816 8.11991 11.2816 8.11986 11.2816 8.11985C11.2817 8.11983 11.2815 8.11992 11.2813 8.12014C11.2807 8.12058 11.2795 8.12148 11.2778 8.12283C11.2743 8.12552 11.2686 8.12993 11.2609 8.13577L11.8638 8.93356C11.8752 8.92494 11.8844 8.91788 11.8911 8.91271C11.8944 8.91013 11.8971 8.90801 11.8992 8.9064C11.9002 8.9056 11.901 8.90492 11.9017 8.90437C11.9021 8.9041 11.9024 8.90386 11.9026 8.90365C11.9028 8.90355 11.9029 8.90345 11.903 8.90337C11.9031 8.90332 11.9031 8.90328 11.9032 8.90324C11.9032 8.90322 11.9032 8.9032 11.9032 8.90319C11.9032 8.90318 11.9032 8.90317 11.9033 8.90316C11.9033 8.90315 11.9033 8.90315 11.9033 8.90315C11.9033 8.90314 11.9033 8.90313 11.5922 8.51172ZM12.0922 8.55688V8.51172H11.0922V8.55688H12.0922ZM11.2959 8.95965C11.3736 9.01684 11.5157 9.11658 11.6764 9.2042C11.8144 9.2794 12.0554 9.39718 12.3055 9.39718V8.39718C12.3293 8.39718 12.3262 8.40185 12.2869 8.38776C12.2521 8.37523 12.2073 8.35465 12.1551 8.3262C12.0504 8.26912 11.9491 8.19871 11.8885 8.15412L11.2959 8.95965ZM12.3055 9.39718C12.481 9.39718 12.6359 9.34094 12.7451 9.28979C12.8599 9.23607 12.9634 9.16922 13.0453 9.11024C13.1287 9.05024 13.1994 8.99134 13.249 8.94784C13.2741 8.92584 13.2944 8.90715 13.3091 8.89341C13.3165 8.88652 13.3225 8.88083 13.3269 8.87654C13.3292 8.87439 13.331 8.87259 13.3325 8.87116C13.3332 8.87044 13.3339 8.86982 13.3344 8.86929C13.3347 8.86902 13.3349 8.86878 13.3352 8.86856C13.3353 8.86846 13.3354 8.86835 13.3355 8.86826C13.3355 8.86821 13.3356 8.86814 13.3356 8.86812C13.3357 8.86805 13.3358 8.86799 12.9849 8.51172C12.6341 8.15545 12.6342 8.15539 12.6342 8.15533C12.6343 8.15531 12.6343 8.15525 12.6344 8.15522C12.6344 8.15514 12.6345 8.15508 12.6346 8.15501C12.6347 8.15489 12.6348 8.15479 12.6349 8.15471C12.635 8.15455 12.6351 8.15448 12.6351 8.15449C12.6351 8.15452 12.6347 8.15488 12.634 8.15556C12.6326 8.15691 12.6299 8.1595 12.626 8.16316C12.6181 8.17049 12.6057 8.18192 12.5896 8.19606C12.5568 8.22483 12.5116 8.2623 12.4611 8.29866C12.4092 8.33605 12.3608 8.36557 12.3212 8.38411C12.276 8.40524 12.274 8.39718 12.3055 8.39718V9.39718ZM12.5434 8.74627L13.1983 9.97939L14.0815 9.51029L13.4265 8.27717L12.5434 8.74627ZM13.6399 9.74484C13.1692 9.57638 13.1691 9.57653 13.169 9.57668C13.169 9.57674 13.169 9.5769 13.1689 9.57702C13.1688 9.57725 13.1688 9.5775 13.1687 9.57777C13.1685 9.57831 13.1683 9.57893 13.168 9.57962C13.1675 9.581 13.1669 9.58269 13.1662 9.58468C13.1649 9.58866 13.1631 9.59384 13.161 9.6002C13.1567 9.61291 13.151 9.63033 13.1442 9.65221C13.1306 9.69596 13.1125 9.75768 13.0923 9.83545C13.052 9.99082 13.0033 10.2113 12.9662 10.4815C12.8923 11.0203 12.8634 11.7674 13.0484 12.5932L14.0242 12.3745C13.8718 11.694 13.8946 11.0715 13.9569 10.6174C13.988 10.3912 14.0284 10.2094 14.0603 10.0865C14.0762 10.0252 14.0899 9.97884 14.0991 9.94929C14.1036 9.93453 14.1071 9.92399 14.1091 9.91791C14.1102 9.91487 14.1108 9.91294 14.1111 9.91216C14.1112 9.91178 14.1113 9.91167 14.1112 9.91186C14.1112 9.91196 14.1111 9.91212 14.111 9.91236C14.111 9.91248 14.1109 9.91262 14.1109 9.91278C14.1108 9.91285 14.1108 9.91299 14.1108 9.91302C14.1107 9.91316 14.1107 9.9133 13.6399 9.74484ZM13.0484 12.5932C13.207 13.3007 13.1793 13.8367 13.0145 14.1848C12.8706 14.4886 12.584 14.7301 11.9747 14.7825L12.0603 15.7788C12.952 15.7022 13.5936 15.2984 13.9183 14.6127C14.222 13.9712 14.2032 13.1733 14.0242 12.3745L13.0484 12.5932ZM12.0175 15.2806C11.8947 14.7959 11.8946 14.796 11.8946 14.796C11.8945 14.796 11.8945 14.796 11.8944 14.796C11.8943 14.796 11.8942 14.7961 11.8941 14.7961C11.8939 14.7961 11.8937 14.7962 11.8934 14.7963C11.8929 14.7964 11.8924 14.7965 11.8917 14.7967C11.8904 14.797 11.8888 14.7974 11.887 14.7979C11.8833 14.7989 11.8784 14.8002 11.8726 14.8018C11.8609 14.805 11.8451 14.8095 11.8261 14.8151C11.7885 14.8264 11.7365 14.8429 11.6785 14.8646C11.5826 14.9004 11.3953 14.9764 11.2533 15.1073L11.931 15.8426C11.9177 15.8549 11.9173 15.8516 11.9434 15.8381C11.966 15.8264 11.9954 15.8137 12.0283 15.8014C12.0605 15.7894 12.0905 15.7798 12.1124 15.7733C12.1232 15.77 12.1315 15.7677 12.1365 15.7663C12.139 15.7657 12.1406 15.7652 12.1413 15.765C12.1416 15.765 12.1417 15.7649 12.1416 15.765C12.1415 15.765 12.1413 15.765 12.1411 15.7651C12.141 15.7651 12.1409 15.7652 12.1408 15.7652C12.1407 15.7652 12.1406 15.7652 12.1405 15.7652C12.1405 15.7653 12.1404 15.7653 12.1404 15.7653C12.1404 15.7653 12.1403 15.7653 12.0175 15.2806ZM12.0922 15.5853V15.475H11.0922V15.5853H12.0922ZM11.1652 15.8109C11.1389 15.7766 11.0922 15.6986 11.0922 15.5853H12.0922C12.0922 15.4171 12.0233 15.2869 11.9596 15.2035L11.1652 15.8109ZM11.1652 15.2035C11.1014 15.2869 11.0326 15.4171 11.0326 15.5853H12.0326C12.0326 15.6986 11.9858 15.7766 11.9596 15.8109L11.1652 15.2035ZM12.0326 15.5853V15.475H11.0326V15.5853H12.0326ZM11.1072 15.2806C10.9844 15.7653 10.9844 15.7653 10.9843 15.7653C10.9843 15.7653 10.9842 15.7653 10.9842 15.7652C10.9841 15.7652 10.984 15.7652 10.984 15.7652C10.9838 15.7652 10.9837 15.7651 10.9836 15.7651C10.9834 15.765 10.9832 15.765 10.9832 15.765C10.983 15.7649 10.9831 15.765 10.9834 15.765C10.9841 15.7652 10.9857 15.7657 10.9882 15.7663C10.9932 15.7677 11.0015 15.77 11.0123 15.7733C11.0343 15.7798 11.0643 15.7894 11.0964 15.8014C11.1293 15.8137 11.1587 15.8264 11.1813 15.8381C11.2074 15.8516 11.207 15.8549 11.1937 15.8426L11.8714 15.1073C11.7294 14.9764 11.5421 14.9004 11.4462 14.8646C11.3882 14.8429 11.3362 14.8264 11.2986 14.8151C11.2796 14.8095 11.2638 14.805 11.2522 14.8018C11.2463 14.8002 11.2415 14.7989 11.2377 14.7979C11.2359 14.7974 11.2343 14.797 11.233 14.7967C11.2324 14.7965 11.2318 14.7964 11.2313 14.7963C11.2311 14.7962 11.2308 14.7961 11.2306 14.7961C11.2305 14.7961 11.2304 14.796 11.2303 14.796C11.2303 14.796 11.2302 14.796 11.2302 14.796C11.2301 14.796 11.23 14.7959 11.1072 15.2806ZM9.10049 12.3745C8.9215 13.1733 8.90271 13.9712 9.20647 14.6127C9.53115 15.2984 10.1727 15.7022 11.0644 15.7788L11.15 14.7825C10.5408 14.7301 10.2542 14.4886 10.1103 14.1848C9.94548 13.8367 9.91776 13.3007 10.0763 12.5932L9.10049 12.3745ZM9.48481 9.74484C9.01404 9.9133 9.01399 9.91316 9.01394 9.91302C9.01393 9.91299 9.01388 9.91285 9.01385 9.91278C9.0138 9.91262 9.01375 9.91248 9.01371 9.91236C9.01362 9.91212 9.01356 9.91196 9.01353 9.91186C9.01346 9.91167 9.0135 9.91178 9.01363 9.91216C9.0139 9.91294 9.01457 9.91487 9.01558 9.91791C9.01762 9.92399 9.02108 9.93453 9.02568 9.94929C9.03487 9.97884 9.04857 10.0252 9.06447 10.0865C9.09633 10.2094 9.13678 10.3912 9.16781 10.6174C9.23009 11.0715 9.25298 11.694 9.10049 12.3745L10.0763 12.5932C10.2613 11.7674 10.2324 11.0203 10.1585 10.4815C10.1215 10.2113 10.0727 9.99082 10.0324 9.83545C10.0123 9.75768 9.99414 9.69596 9.98053 9.65221C9.97372 9.63033 9.96803 9.61291 9.96377 9.6002C9.96164 9.59384 9.95987 9.58866 9.95849 9.58468C9.9578 9.58269 9.95721 9.581 9.95672 9.57962C9.95648 9.57893 9.95626 9.57831 9.95607 9.57777C9.95597 9.5775 9.95588 9.57725 9.9558 9.57702C9.95576 9.5769 9.9557 9.57674 9.95568 9.57668C9.95563 9.57653 9.95557 9.57638 9.48481 9.74484ZM9.69822 8.27717L9.04323 9.51029L9.92638 9.97939L10.5814 8.74627L9.69822 8.27717ZM10.8192 8.39718C10.8507 8.39718 10.8487 8.40524 10.8036 8.38411C10.7639 8.36556 10.7156 8.33605 10.6636 8.29866C10.6131 8.2623 10.568 8.22483 10.5352 8.19606C10.5191 8.18192 10.5066 8.17049 10.4988 8.16316C10.4949 8.1595 10.4921 8.15691 10.4907 8.15556C10.49 8.15488 10.4897 8.15452 10.4896 8.15449C10.4896 8.15448 10.4897 8.15455 10.4899 8.15471C10.4899 8.15479 10.49 8.15489 10.4902 8.15501C10.4902 8.15508 10.4903 8.15514 10.4904 8.15522C10.4904 8.15525 10.4905 8.15531 10.4905 8.15533C10.4906 8.15539 10.4906 8.15545 10.1398 8.51172C9.78898 8.86799 9.78905 8.86805 9.78911 8.86812C9.78914 8.86814 9.78921 8.86821 9.78925 8.86826C9.78935 8.86835 9.78946 8.86846 9.78957 8.86856C9.78979 8.86878 9.79003 8.86902 9.7903 8.86929C9.79084 8.86982 9.79148 8.87044 9.79222 8.87116C9.79369 8.87259 9.79555 8.87439 9.79779 8.87654C9.80225 8.88083 9.80823 8.88652 9.81559 8.89341C9.83028 8.90715 9.85067 8.92584 9.87575 8.94784C9.92534 8.99134 9.99605 9.05024 10.0794 9.11024C10.1613 9.16922 10.2648 9.23607 10.3796 9.28979C10.4889 9.34094 10.6438 9.39718 10.8192 9.39718V8.39718ZM11.2363 8.15412C11.1757 8.19871 11.0743 8.26912 10.9696 8.3262C10.9174 8.35465 10.8727 8.37523 10.8378 8.38776C10.7985 8.40185 10.7954 8.39718 10.8192 8.39718V9.39718C11.0693 9.39718 11.3104 9.2794 11.4483 9.2042C11.609 9.11658 11.7511 9.01684 11.8288 8.95965L11.2363 8.15412ZM12.0326 8.55688V8.51172H11.0326V8.55688H12.0326ZM11.5326 8.51172C11.2214 8.90313 11.2214 8.90314 11.2215 8.90315C11.2215 8.90315 11.2215 8.90316 11.2215 8.90316C11.2215 8.90317 11.2215 8.90318 11.2215 8.90319C11.2215 8.90321 11.2216 8.90322 11.2216 8.90324C11.2216 8.90328 11.2217 8.90332 11.2217 8.90337C11.2218 8.90345 11.222 8.90355 11.2221 8.90365C11.2224 8.90386 11.2227 8.9041 11.223 8.90437C11.2237 8.90492 11.2246 8.9056 11.2256 8.9064C11.2276 8.90801 11.2303 8.91013 11.2337 8.91271C11.2403 8.91788 11.2495 8.92494 11.2609 8.93356L11.8638 8.13577C11.8561 8.12993 11.8504 8.12552 11.8469 8.12283C11.8452 8.12148 11.844 8.12058 11.8435 8.12014C11.8432 8.11992 11.8431 8.11983 11.8431 8.11985C11.8431 8.11986 11.8432 8.11991 11.8433 8.11998C11.8433 8.12002 11.8434 8.12007 11.8434 8.12012C11.8435 8.12015 11.8435 8.12018 11.8436 8.12021C11.8436 8.12022 11.8436 8.12024 11.8436 8.12025C11.8436 8.12026 11.8436 8.12027 11.8436 8.12028C11.8436 8.12028 11.8437 8.12029 11.8437 8.12029C11.8437 8.1203 11.8437 8.1203 11.5326 8.51172Z" fill="white" mask="url(#path-10-outside-2_2754_3441)"/>
</mask>
<g mask="url(#mask1_2754_3441)">
<rect x="9.5625" y="8.36377" width="2" height="3.65909" fill="#67BAFF"/>
<rect x="11.5625" y="8.36377" width="2" height="3.65909" fill="white"/>
<rect x="9.3125" y="12.3716" width="5" height="4.18182" fill="#C51918"/>
<path d="M12.5312 11.7636H12.2812V9.25781H12.5312V11.7636Z" fill="#C9A951"/>
<path d="M12.4299 10.624L12.308 10.915L11.8765 10.5938L11.9984 10.3027L12.4299 10.624Z" fill="#C9A951"/>
<path d="M12.4299 9.92721L12.308 10.2183L11.8765 9.897L11.9984 9.60596L12.4299 9.92721Z" fill="#C9A951"/>
<path d="M12.3765 10.624L12.4984 10.915L12.9299 10.5938L12.8081 10.3027L12.3765 10.624Z" fill="#C9A951"/>
<path d="M12.3765 9.92721L12.4984 10.2183L12.9299 9.897L12.8081 9.60596L12.3765 9.92721Z" fill="#C9A951"/>
<path fill-rule="evenodd" clip-rule="evenodd" d="M11.0516 9.17139C10.9009 9.34713 10.9981 9.98937 10.7512 9.98937C10.5043 9.98937 10.1568 9.50845 10.0693 9.82579C9.98175 10.1431 10.0693 10.0365 10.0693 10.3068C10.0693 10.5771 9.85967 11.3281 9.96446 11.4551C10.0693 11.5821 10.1766 11.9166 10.158 11.76C10.1394 11.6034 10.0602 11.3734 10.0932 11.1236C10.0613 10.8655 10.2698 10.6172 10.2698 10.6172C10.2698 10.6172 10.2472 10.8852 10.2308 10.9851C10.2308 10.9851 10.162 11.1867 10.1899 11.3207C10.1899 11.3207 10.2605 11.6982 10.2896 11.7243C10.2896 11.7243 10.3085 10.8304 10.33 10.6831C10.3515 10.5358 10.5048 10.8493 10.5558 10.8138C10.5558 10.8138 10.5733 11.425 10.5468 11.4978C10.5468 11.4978 10.493 11.6424 10.513 11.6885C10.513 11.6885 10.5629 11.8559 10.6054 11.8071C10.6054 11.8071 10.6069 11.8037 10.6285 11.6408C10.6285 11.6408 10.6034 11.5424 10.6426 11.3185C10.6426 11.3185 10.6839 10.8254 10.701 10.9324C10.701 10.9324 10.6933 11.1652 10.713 11.2852C10.713 11.2852 10.7445 11.5831 10.7508 11.6158C10.7508 11.6158 10.9016 11.9023 10.9057 11.7813C10.9057 11.7813 10.761 11.5514 10.792 11.3764C10.792 11.3764 10.7092 10.8807 10.8248 10.7702C10.8248 10.7702 11.1314 10.5811 11.1499 10.2574C11.1499 10.2574 11.1943 9.88849 11.2023 9.71938C11.2023 9.71938 11.135 9.66965 11.274 9.58234C11.274 9.58234 11.4979 9.46779 11.3584 9.30851" fill="#D18219"/>
</g>
<path d="M8.76874 7.36621L9.32457 7.96007C8.60057 9.54853 8.76874 11.0432 8.76874 12.0043C8.76874 13.7766 9.76758 15.8221 11.5076 15.8221C12.8009 15.8221 14.2065 14.4798 14.5383 12.8396C14.7996 11.5482 14.2001 8.51355 13.7478 7.72153L14.2828 7.36621C14.9848 8.59545 16.316 11.4122 15.9262 13.3388C15.4201 15.8407 13.4325 17.7388 11.5076 17.7388C8.81197 17.7388 7.33124 14.7064 7.33124 12.0043C7.33124 10.632 7.92029 9.22772 8.76874 7.36621Z" fill="#00A854"/>
<path fill-rule="evenodd" clip-rule="evenodd" d="M11.5 14.5671C12.2939 14.5671 12.9375 14.138 12.9375 13.6087C12.9375 13.0795 12.2939 12.6504 11.5 12.6504C10.7061 12.6504 10.0625 13.0795 10.0625 13.6087C10.0625 14.138 10.7061 14.5671 11.5 14.5671Z" fill="#FDD200"/>
<rect x="9.34375" y="15.3335" width="4.3125" height="1.91667" fill="#CA0000"/>
</g>
<rect width="23" height="23" rx="11.5" fill="url(#paint0_linear_2754_3441)" style="mix-blend-mode:overlay"/>
<rect x="0.5" y="0.5" width="22" height="22" rx="11" stroke="black" stroke-opacity="0.1"/>
<defs>
<linearGradient id="paint0_linear_2754_3441" x1="11.5" y1="0" x2="11.5" y2="23" gradientUnits="userSpaceOnUse">
<stop stop-color="white" stop-opacity="0.7"/>
<stop offset="1" stop-opacity="0.3"/>
</linearGradient>
</defs>
</svg>
