<svg width="23" height="23" viewBox="0 0 23 23" fill="none" xmlns="http://www.w3.org/2000/svg">
<mask id="mask0_2754_3471" style="mask-type:alpha" maskUnits="userSpaceOnUse" x="0" y="0" width="23" height="23">
<rect width="23" height="23" fill="white"/>
</mask>
<g mask="url(#mask0_2754_3471)">
<path fill-rule="evenodd" clip-rule="evenodd" d="M0 0V23H23V0H0Z" fill="#BF2714"/>
<mask id="mask1_2754_3471" style="mask-type:alpha" maskUnits="userSpaceOnUse" x="0" y="0" width="23" height="23">
<path fill-rule="evenodd" clip-rule="evenodd" d="M0 0V23H23V0H0Z" fill="white"/>
</mask>
<g mask="url(#mask1_2754_3471)">
<path fill-rule="evenodd" clip-rule="evenodd" d="M0 -1.9165V11.5002H23V-1.9165H0Z" fill="#3D58DB"/>
</g>
<path fill-rule="evenodd" clip-rule="evenodd" d="M0 0V23L12.9375 11.5L0 0Z" fill="#F7FCFF"/>
<mask id="mask2_2754_3471" style="mask-type:alpha" maskUnits="userSpaceOnUse" x="0" y="0" width="13" height="23">
<path fill-rule="evenodd" clip-rule="evenodd" d="M0 0V23L12.9375 11.5L0 0Z" fill="white"/>
</mask>
<g mask="url(#mask2_2754_3471)">
<path fill-rule="evenodd" clip-rule="evenodd" d="M9.77862 10.4649L10.6957 10.9364L11.2413 10.0803L11.2557 11.2253L12.0997 11.5913L11.2114 11.9934L11.2699 13.0456L10.6848 12.2396L9.76506 12.4728L10.3081 11.5445L9.77862 10.4649Z" fill="#FECA00"/>
<path fill-rule="evenodd" clip-rule="evenodd" d="M1.15362 16.2149L1.99655 16.7118L2.61627 15.8303L2.55663 17.0007L3.47474 17.3413L2.51225 17.7688L2.64491 18.7956L1.97478 18.0619L1.14006 18.2228L1.60896 17.3199L1.15362 16.2149Z" fill="#FECA00"/>
<path fill-rule="evenodd" clip-rule="evenodd" d="M1.15362 4.71491L2.08638 5.17321L2.61627 4.33033L2.64646 5.46208L3.47474 5.84134L2.60209 6.23017L2.64491 7.29555L2.06461 6.52326L1.14006 6.72283L1.69879 5.78131L1.15362 4.71491Z" fill="#FECA00"/>
<path fill-rule="evenodd" clip-rule="evenodd" d="M5.83734 13.9274C6.82973 13.9274 7.63422 12.8548 7.63422 11.5316C7.63422 10.2084 6.82973 9.13574 5.83734 9.13574C4.84495 9.13574 4.04047 10.2084 4.04047 11.5316C4.04047 12.8548 4.84495 13.9274 5.83734 13.9274Z" fill="#FECA00"/>
<path fill-rule="evenodd" clip-rule="evenodd" d="M5.62493 7.8966L5.72148 9.43569C5.73072 9.52915 5.78464 9.60361 5.85437 9.61917C5.94197 9.63872 6.02487 9.55989 6.03953 9.44309L6.16697 7.90922C6.16921 7.89138 6.17045 7.87335 6.17069 7.85527C6.17333 7.65347 6.05278 7.48703 5.90144 7.48351C5.88788 7.48319 5.87432 7.48422 5.86087 7.48658C5.7108 7.51294 5.60516 7.69651 5.62493 7.8966ZM5.32441 8.64043L5.47363 9.30995C5.48749 9.3721 5.53404 9.41059 5.58668 9.39821C5.62984 9.38461 5.65656 9.32694 5.64636 9.2694L5.52727 8.59746C5.51357 8.52019 5.45742 8.47015 5.39863 8.48284C5.39471 8.48368 5.39082 8.48487 5.38701 8.48638C5.33782 8.50587 5.30979 8.57484 5.32441 8.64043ZM6.13144 9.33785C6.11974 9.39488 6.14493 9.45376 6.1924 9.47087C6.24 9.48418 6.28752 9.44788 6.303 9.38641L6.46965 8.72424C6.48598 8.65938 6.45977 8.58914 6.41112 8.56737C6.40735 8.56569 6.4035 8.56432 6.3996 8.56329C6.34118 8.54788 6.28375 8.59527 6.26804 8.67186L6.13144 9.33785ZM7.62436 8.66494L6.82101 9.84772C6.77797 9.92251 6.77662 10.026 6.81767 10.1028C6.86924 10.1992 6.96967 10.2216 7.04198 10.1528L8.00096 9.18491C8.012 9.17441 8.02244 9.16283 8.0322 9.15026C8.14109 9.01006 8.14412 8.77872 8.03897 8.63354C8.02954 8.62053 8.01941 8.60847 8.00865 8.59746C7.88856 8.47461 7.71651 8.50482 7.62436 8.66494ZM7.37998 11.1757L8.57954 11.0519C8.72961 11.0256 8.86729 11.1664 8.88706 11.3665C8.88883 11.3845 8.8896 11.4025 8.88936 11.4206C8.88672 11.6224 8.76189 11.7831 8.61055 11.7796C8.59698 11.7793 8.58346 11.7777 8.57008 11.7747L7.37443 11.5998C7.28683 11.5802 7.22771 11.4697 7.24237 11.3529C7.25404 11.2599 7.30989 11.188 7.37998 11.1757ZM8.00254 13.7232L7.07095 12.6418C7.01486 12.5844 6.93724 12.5826 6.87968 12.6373C6.80737 12.7061 6.79056 12.84 6.84213 12.9364L7.61257 14.2253C7.62044 14.24 7.62913 14.2539 7.63855 14.2669C7.7437 14.4121 7.91721 14.4162 8.02609 14.276C8.03585 14.2634 8.0449 14.2499 8.05315 14.2355C8.14529 14.0754 8.12263 13.846 8.00254 13.7232ZM6.07495 13.3871L6.14608 15.0019C6.16584 15.202 6.06021 15.3855 5.91013 15.4119C5.89669 15.4143 5.88313 15.4153 5.86956 15.415C5.71822 15.4114 5.59767 15.245 5.60031 15.0432C5.60055 15.0251 5.60179 15.0071 5.60403 14.9893L5.7569 13.3796C5.77157 13.2629 5.85447 13.184 5.94206 13.2036C6.01179 13.2191 6.06572 13.2936 6.07495 13.3871ZM4.18387 14.2594L4.97542 12.975C5.01846 12.9002 5.01982 12.7967 4.97876 12.72C4.92719 12.6236 4.82676 12.6012 4.75446 12.6699L3.80727 13.7395C3.79623 13.75 3.78579 13.7616 3.77603 13.7741C3.66715 13.9143 3.66412 14.1457 3.76927 14.2908C3.77869 14.3039 3.78882 14.3159 3.79958 14.3269C3.91968 14.4498 4.09173 14.4196 4.18387 14.2594ZM4.41646 11.647L3.20953 11.7796C3.05945 11.806 2.92177 11.6651 2.90201 11.465C2.90024 11.4471 2.89947 11.429 2.8997 11.4109C2.90235 11.2091 3.02718 11.0484 3.17852 11.0519C3.19208 11.0523 3.20561 11.0539 3.21899 11.0569L4.42201 11.223C4.50961 11.2425 4.56873 11.353 4.55407 11.4698C4.54239 11.5628 4.48655 11.6347 4.41646 11.647ZM3.70182 9.12557L4.72548 10.181C4.78158 10.2384 4.8592 10.2402 4.91676 10.1854C4.98907 10.1167 5.00588 9.98277 4.9543 9.88635L4.09179 8.62345C4.08392 8.60872 4.07523 8.5948 4.06581 8.58179C3.96066 8.43661 3.78715 8.43257 3.67827 8.57277C3.66851 8.58533 3.65946 8.59884 3.65121 8.61319C3.55907 8.77332 3.58173 9.00272 3.70182 9.12557ZM6.71244 9.52514L6.96199 8.91103C6.98644 8.85087 7.04283 8.82852 7.08795 8.86112C7.09145 8.86364 7.09482 8.86647 7.09805 8.86957C7.14635 8.91603 7.15951 9.00435 7.12822 9.0719L6.85608 9.65931C6.83277 9.70962 6.7833 9.7252 6.74557 9.69413C6.70178 9.65325 6.68927 9.58215 6.71244 9.52514ZM7.97642 10.6463L7.47428 10.8453C7.42767 10.8637 7.3988 10.9258 7.40809 10.996C7.41829 11.0535 7.46154 11.0892 7.5047 11.0756L8.00865 10.9168C8.06661 10.8985 8.10413 10.8236 8.09462 10.7453C8.09398 10.74 8.09309 10.7348 8.09196 10.7298C8.07734 10.6642 8.02562 10.6268 7.97642 10.6463ZM7.31289 12.497L7.77347 12.8297C7.81859 12.8623 7.83535 12.9375 7.81091 12.9977C7.80901 13.0023 7.80689 13.0068 7.80457 13.0111C7.76972 13.0755 7.70349 13.0931 7.65282 13.0514L7.21226 12.6885C7.17453 12.6574 7.16284 12.5915 7.18615 12.5412C7.21681 12.4828 7.27013 12.4661 7.31289 12.497ZM6.47202 14.1823L6.3228 13.5128C6.30895 13.4506 6.2624 13.4122 6.20975 13.4245C6.1666 13.4381 6.13988 13.4958 6.15008 13.5533L6.26917 14.2253C6.28286 14.3026 6.33901 14.3526 6.3978 14.3399C6.40173 14.3391 6.40561 14.3379 6.40943 14.3364C6.45862 14.3169 6.48664 14.2479 6.47202 14.1823ZM5.084 13.2976L4.83445 13.9117C4.81 13.9719 4.75361 13.9942 4.70849 13.9616C4.70499 13.9591 4.70162 13.9563 4.69839 13.9532C4.65009 13.9067 4.63692 13.8184 4.66822 13.7508L4.94036 13.1634C4.96366 13.1131 5.01314 13.0975 5.05087 13.1286C5.09466 13.1695 5.10716 13.2406 5.084 13.2976ZM3.82001 12.1764L4.32215 11.9775C4.36877 11.959 4.39763 11.8969 4.38835 11.8267C4.37815 11.7692 4.3349 11.7336 4.29174 11.7472L3.78779 11.906C3.72983 11.9242 3.6923 11.9991 3.70182 12.0775C3.70245 12.0827 3.70334 12.0879 3.70447 12.093C3.71909 12.1586 3.77082 12.1959 3.82001 12.1764ZM4.48355 10.3257L4.02296 9.99301C3.97784 9.96041 3.96108 9.88522 3.98553 9.82506C3.98742 9.8204 3.98954 9.8159 3.99187 9.8116C4.02671 9.7472 4.09295 9.72964 4.14362 9.77137L4.58418 10.1342C4.6219 10.1653 4.63359 10.2313 4.61029 10.2816C4.57963 10.34 4.5263 10.3566 4.48355 10.3257ZM7.16278 10.1651C7.12426 10.1944 7.11085 10.2597 7.13534 10.3166C7.16194 10.3709 7.2148 10.39 7.25833 10.3611L7.72735 10.05C7.77329 10.0196 7.79201 9.94519 7.76915 9.88393C7.76738 9.87918 7.76538 9.87459 7.76317 9.87018C7.73003 9.8042 7.6643 9.78357 7.61257 9.82292L7.16278 10.1651ZM7.35359 11.8036C7.36643 11.7403 7.41058 11.7067 7.45336 11.7223L7.95285 11.9045C8.01029 11.9254 8.04584 12.002 8.03427 12.0799C8.0335 12.0851 8.03248 12.0902 8.03121 12.0952C8.01489 12.1601 7.96221 12.1951 7.91356 12.1733L7.41693 11.9511C7.37083 11.9304 7.34361 11.8671 7.35359 11.8036ZM6.83296 13.0975C6.81098 13.0461 6.76194 13.0282 6.7193 13.0609C6.67859 13.0963 6.66423 13.1668 6.68589 13.2249L6.91922 13.8502C6.94207 13.9115 6.99785 13.9364 7.0438 13.906C7.04736 13.9036 7.0508 13.9009 7.05411 13.898C7.10359 13.8538 7.11906 13.7661 7.08955 13.6972L6.83296 13.0975ZM5.60403 13.3519C5.6515 13.369 5.6767 13.4279 5.665 13.4849L5.52839 14.1509C5.51268 14.2275 5.45526 14.2749 5.39684 14.2594C5.39293 14.2584 5.38908 14.2571 5.38531 14.2554C5.33666 14.2336 5.31046 14.1634 5.32678 14.0985L5.49344 13.4363C5.50891 13.3749 5.55644 13.3386 5.60403 13.3519ZM4.63366 12.6577C4.67217 12.6284 4.68558 12.563 4.66109 12.5061C4.6345 12.4519 4.58164 12.4327 4.5381 12.4616L4.06909 12.7727C4.02314 12.8032 4.00443 12.8775 4.02728 12.9388C4.02905 12.9436 4.03105 12.9481 4.03327 12.9526C4.0664 13.0185 4.13214 13.0392 4.18387 12.9998L4.63366 12.6577ZM4.44284 11.0191C4.43001 11.0824 4.38585 11.116 4.34308 11.1004L3.84359 10.9183C3.78614 10.8973 3.7506 10.8208 3.76216 10.7429C3.76293 10.7377 3.76396 10.7325 3.76522 10.7275C3.78155 10.6626 3.83422 10.6277 3.88287 10.6495L4.3795 10.8717C4.4256 10.8923 4.45282 10.9557 4.44284 11.0191ZM4.96348 9.72529C4.98545 9.77664 5.03449 9.79453 5.07713 9.76187C5.11784 9.72641 5.1322 9.65593 5.11054 9.59788L4.87722 8.97253C4.85436 8.91127 4.79859 8.88631 4.75264 8.91679C4.74908 8.91915 4.74563 8.92182 4.74233 8.92477C4.69284 8.96895 4.67737 9.0566 4.70688 9.12557L4.96348 9.72529Z" fill="#FECA00"/>
</g>
</g>
<rect width="23" height="23" rx="11.5" fill="url(#paint0_linear_2754_3471)" style="mix-blend-mode:overlay"/>
<rect x="0.5" y="0.5" width="22" height="22" rx="11" stroke="black" stroke-opacity="0.1"/>
<defs>
<linearGradient id="paint0_linear_2754_3471" x1="11.5" y1="0" x2="11.5" y2="23" gradientUnits="userSpaceOnUse">
<stop stop-color="white" stop-opacity="0.7"/>
<stop offset="1" stop-opacity="0.3"/>
</linearGradient>
</defs>
</svg>
