<svg width="23" height="23" viewBox="0 0 23 23" fill="none" xmlns="http://www.w3.org/2000/svg">
<mask id="mask0_2754_3561" style="mask-type:alpha" maskUnits="userSpaceOnUse" x="0" y="0" width="23" height="23">
<rect width="23" height="23" fill="white"/>
</mask>
<g mask="url(#mask0_2754_3561)">
<path fill-rule="evenodd" clip-rule="evenodd" d="M0 0V23H23V0H0Z" fill="#4857A1"/>
<mask id="mask1_2754_3561" style="mask-type:alpha" maskUnits="userSpaceOnUse" x="0" y="0" width="23" height="23">
<path fill-rule="evenodd" clip-rule="evenodd" d="M0 0V23H23V0H0Z" fill="white"/>
</mask>
<g mask="url(#mask1_2754_3561)">
<path fill-rule="evenodd" clip-rule="evenodd" d="M0 0V7.66667H23V0H0Z" fill="#C51918"/>
<path fill-rule="evenodd" clip-rule="evenodd" d="M0 15.3335V23.0002H23V15.3335H0Z" fill="#F7FCFF"/>
<path fill-rule="evenodd" clip-rule="evenodd" d="M7.56195 2.58323L7.46901 2.11523C7.54536 2.1447 7.62805 2.1749 7.71523 2.20593L7.71254 2.1881C8.79662 2.32188 10.4753 3.04331 10.7912 3.79589C10.9133 4.08678 10.7948 4.33268 10.6396 4.65492C10.6164 4.70308 10.5924 4.75294 10.5682 4.80491C10.4902 4.97273 10.4195 5.13319 10.3529 5.28442C10.1097 5.83649 9.92076 6.26545 9.62734 6.47972L9.63304 7.70537L4.79028 7.65305L4.78409 6.41818C4.53275 6.18878 4.35627 5.78815 4.13483 5.28543C4.06821 5.1342 3.99753 4.97374 3.91951 4.80592C3.89536 4.75395 3.87134 4.70409 3.84814 4.65594C3.69291 4.33369 3.57446 4.08779 3.69657 3.7969C3.93505 3.22876 5.00775 2.66845 5.98562 2.37037C6.17013 2.28866 6.36221 2.21204 6.5527 2.13854L6.63121 2.20993C6.71597 2.19418 6.79791 2.18136 6.87622 2.17169L6.99162 2.4996H7.37038C7.37038 2.4996 7.60848 3.38773 7.60848 3.88096C7.60848 4.37418 7.37038 4.78206 7.37038 4.78206V5.12252C7.41195 5.12688 7.45558 5.13219 7.50093 5.13835C7.50094 5.10827 7.50298 5.07659 7.50726 5.04418C7.52878 4.88148 7.59871 4.76192 7.66346 4.77714C7.72821 4.79237 7.76326 4.9366 7.74174 5.09931C7.73831 5.12525 7.73365 5.1501 7.72797 5.17348C7.98321 5.21712 8.26913 5.27799 8.53998 5.3406C8.64326 5.0891 8.76917 4.84062 8.88939 4.60337C9.20014 3.99012 9.47286 3.45191 9.21834 3.13062C9.16975 3.06929 9.08157 3.01227 8.96783 2.95949C8.59338 2.83852 8.18542 2.74408 7.78926 2.69519L7.77888 2.62654C7.70295 2.61107 7.63004 2.59664 7.56195 2.58323ZM9.40443 5.55561C9.54074 5.5917 9.62331 5.61463 9.62331 5.61463L9.62419 5.80384C10.1045 5.34638 10.4408 4.3113 10.4697 3.9725C10.4868 3.77125 10.2345 3.53699 9.83836 3.32247C10.0194 3.7722 9.76608 4.21955 9.44881 4.77972C9.32852 4.99209 9.19905 5.22069 9.08059 5.47177L9.19999 5.50225C9.1982 5.45477 9.20242 5.4013 9.21345 5.34643C9.24552 5.18684 9.323 5.07587 9.38651 5.09856C9.45001 5.12125 9.4755 5.26901 9.44343 5.42859C9.43391 5.47596 9.42039 5.51904 9.40443 5.55561ZM6.92759 5.12483V4.74565C6.92759 4.74565 6.72145 4.45618 6.68949 3.85331C6.66624 3.41462 6.73987 2.89758 6.78169 2.6485C6.4935 2.69748 6.19076 2.77031 5.8956 2.85879C5.65854 2.93756 5.46659 3.02807 5.38535 3.13062C5.13082 3.45191 5.40354 3.99012 5.71429 4.60337C5.83042 4.83253 5.95185 5.07218 6.05306 5.3149C6.22791 5.26733 6.40361 5.2233 6.56767 5.18825C6.5608 5.15656 6.55592 5.12198 6.55353 5.08558C6.54273 4.92099 6.58707 4.78138 6.65257 4.77374C6.71806 4.7661 6.77992 4.89333 6.79072 5.05791C6.79269 5.08804 6.79282 5.11734 6.79131 5.14514C6.83861 5.13717 6.88416 5.13034 6.92759 5.12483ZM5.52196 5.46938C5.40381 5.21923 5.27478 4.99142 5.15488 4.77972C4.83024 4.20653 4.5725 3.75147 4.77865 3.29111C4.31363 3.52312 4.00094 3.77253 4.01805 3.97351C4.04519 4.29245 4.34487 5.22842 4.78058 5.71869L4.78055 5.71188C4.78055 5.71188 4.95861 5.64909 5.22185 5.56403C5.20442 5.52856 5.18917 5.48638 5.17778 5.43962C5.13949 5.28249 5.15914 5.13316 5.22167 5.10607C5.2842 5.07898 5.36593 5.18439 5.40422 5.34152C5.41772 5.39693 5.42402 5.45137 5.42377 5.49983L5.52196 5.46938Z" fill="#F6C540"/>
<path fill-rule="evenodd" clip-rule="evenodd" d="M6.17638 2.57202C6.20958 2.60239 6.25046 2.6203 6.29466 2.6203C6.40578 2.6203 6.49585 2.50713 6.49585 2.36752C6.49585 2.22792 6.40578 2.11475 6.29466 2.11475C6.21587 2.11475 6.14765 2.17166 6.11463 2.25456C6.08143 2.22419 6.04055 2.20628 5.99634 2.20628C5.92546 2.20628 5.86314 2.25234 5.8273 2.32193C5.79254 2.28594 5.74799 2.26432 5.69943 2.26432C5.58831 2.26432 5.49824 2.37749 5.49824 2.5171C5.49824 2.52488 5.49852 2.53258 5.49906 2.54018C5.46219 2.48265 5.40566 2.44583 5.34228 2.44583C5.24157 2.44583 5.15815 2.5388 5.14341 2.66016C5.10657 2.60128 5.04937 2.56346 4.98514 2.56346C4.88859 2.56346 4.80792 2.64892 4.78843 2.76292C4.7554 2.73304 4.71485 2.71545 4.67104 2.71545C4.58188 2.71545 4.50627 2.78831 4.47987 2.88923C4.4528 2.8722 4.42224 2.86261 4.3899 2.86261C4.29063 2.86261 4.20815 2.95294 4.1917 3.07175C4.1788 3.0685 4.16546 3.06679 4.15181 3.06679C4.04175 3.06679 3.95234 3.17781 3.95064 3.31558C3.93867 3.31279 3.92633 3.31133 3.91371 3.31133C3.8026 3.31133 3.71252 3.4245 3.71252 3.56411C3.71252 3.5818 3.71397 3.59908 3.71672 3.61575C3.70345 3.61229 3.6897 3.61047 3.67562 3.61047C3.5645 3.61047 3.47443 3.72364 3.47443 3.86325C3.47443 3.96932 3.52642 4.06013 3.60014 4.09764C3.59579 4.11831 3.59347 4.14001 3.59347 4.1624C3.59347 4.26846 3.64547 4.35927 3.71918 4.39678C3.71484 4.41745 3.71252 4.43916 3.71252 4.46154C3.71252 4.59783 3.79837 4.70893 3.90583 4.71413C3.86051 4.76048 3.83157 4.83112 3.83157 4.91026C3.83157 5.04986 3.92165 5.16304 4.03276 5.16304C4.14387 5.16304 4.23395 5.04986 4.23395 4.91026C4.23395 4.77397 4.1481 4.66287 4.04064 4.65767C4.08596 4.61132 4.1149 4.54068 4.1149 4.46154C4.1149 4.35547 4.06291 4.26466 3.98919 4.22715C3.99354 4.20649 3.99585 4.18478 3.99585 4.1624C3.99585 4.05633 3.94386 3.96552 3.87014 3.92801C3.87449 3.90734 3.87681 3.88564 3.87681 3.86325C3.87681 3.84555 3.87536 3.82828 3.8726 3.8116C3.88587 3.81506 3.89962 3.81688 3.91371 3.81688C4.02377 3.81688 4.11318 3.70586 4.11488 3.56809C4.12685 3.57088 4.13919 3.57234 4.15181 3.57234C4.25108 3.57234 4.33356 3.48201 4.35001 3.3632C4.36291 3.36646 4.37625 3.36817 4.3899 3.36817C4.47906 3.36817 4.55467 3.2953 4.58107 3.19438C4.60815 3.21142 4.6387 3.221 4.67104 3.221C4.71518 3.221 4.756 3.20314 4.78917 3.17286C4.79543 3.20667 4.80708 3.23787 4.82294 3.26496C4.79843 3.30684 4.78395 3.35856 4.78395 3.41453C4.78395 3.55082 4.8698 3.66192 4.97726 3.66712C4.93194 3.71347 4.903 3.78411 4.903 3.86325C4.903 3.96932 4.95499 4.06013 5.02871 4.09764C5.02436 4.1183 5.02205 4.14001 5.02205 4.1624C5.02205 4.26846 5.07404 4.35927 5.14776 4.39678C5.14341 4.41745 5.14109 4.43916 5.14109 4.46154C5.14109 4.60115 5.23117 4.71432 5.34228 4.71432C5.4534 4.71432 5.54347 4.60115 5.54347 4.46154C5.54347 4.35547 5.49148 4.26466 5.41776 4.22715C5.42211 4.20649 5.42443 4.18478 5.42443 4.1624C5.42443 4.05633 5.37243 3.96552 5.29872 3.92801C5.30306 3.90734 5.30538 3.88564 5.30538 3.86325C5.30538 3.72696 5.21953 3.61587 5.11207 3.61066C5.15739 3.56431 5.18633 3.49367 5.18633 3.41453C5.18633 3.35856 5.17185 3.30684 5.14735 3.26496C5.17185 3.22308 5.18633 3.17136 5.18633 3.11539C5.18633 3.05942 5.17185 3.0077 5.14735 2.96581C5.16613 2.93371 5.17902 2.89584 5.18402 2.8547C5.22085 2.91357 5.27805 2.95139 5.34228 2.95139C5.4534 2.95139 5.54347 2.83822 5.54347 2.69861C5.54347 2.69083 5.54319 2.68313 5.54265 2.67553C5.57952 2.73306 5.63605 2.76987 5.69943 2.76987C5.77031 2.76987 5.83264 2.72382 5.86847 2.65422C5.90323 2.69021 5.94778 2.71183 5.99634 2.71183C6.07514 2.71183 6.14336 2.65492 6.17638 2.57202ZM4.98514 3.06902C5.05171 3.06902 5.11073 3.0284 5.14735 2.96581C5.11073 2.90323 5.05171 2.86261 4.98514 2.86261C5.00552 2.86261 5.02205 2.84185 5.02205 2.81624C5.02205 2.79063 5.00552 2.76987 4.98514 2.76987C4.96476 2.76987 4.94824 2.79063 4.94824 2.81624C4.94824 2.84185 4.96476 2.86261 4.98514 2.86261C4.941 2.86261 4.90018 2.88047 4.86701 2.91075C4.85581 2.85025 4.82732 2.79808 4.78843 2.76292C4.7855 2.78011 4.78395 2.79795 4.78395 2.81624C4.78395 2.87221 4.79843 2.92393 4.82294 2.96581C4.79843 3.0077 4.78395 3.05942 4.78395 3.11539C4.78395 3.13516 4.78576 3.1544 4.78917 3.17286C4.82856 3.1369 4.85717 3.08343 4.86775 3.02155C4.90078 3.05142 4.94133 3.06902 4.98514 3.06902ZM4.98514 3.16175C4.91857 3.16175 4.85956 3.20237 4.82294 3.26496C4.85956 3.32755 4.91857 3.36817 4.98514 3.36817C4.96476 3.36816 4.94824 3.38892 4.94824 3.41453C4.94824 3.44014 4.96476 3.4609 4.98514 3.4609C5.00552 3.4609 5.02205 3.44014 5.02205 3.41453C5.02205 3.38892 5.00552 3.36816 4.98514 3.36817C5.05171 3.36817 5.11073 3.32755 5.14735 3.26496C5.11073 3.20237 5.05171 3.16175 4.98514 3.16175ZM4.98514 3.16175C5.00552 3.16175 5.02205 3.141 5.02205 3.11539C5.02205 3.08978 5.00552 3.06902 4.98514 3.06902C4.96476 3.06902 4.94824 3.08978 4.94824 3.11539C4.94824 3.141 4.96476 3.16175 4.98514 3.16175ZM4.86775 3.02155C4.85059 3.00603 4.83545 2.98721 4.82294 2.96581C4.83527 2.94473 4.85015 2.92614 4.86701 2.91075C4.87042 2.92922 4.87223 2.94845 4.87223 2.96823C4.87223 2.98652 4.87068 3.00436 4.86775 3.02155ZM5.41776 4.22715C5.39446 4.21529 5.36898 4.20876 5.34228 4.20876C5.24899 4.20876 5.17052 4.28855 5.14776 4.39678C5.17106 4.40864 5.19654 4.41517 5.22324 4.41517C5.31653 4.41517 5.395 4.33538 5.41776 4.22715ZM5.29872 3.92801C5.27541 3.91615 5.24993 3.90962 5.22324 3.90962C5.12994 3.90962 5.05147 3.98941 5.02871 4.09764C5.05202 4.1095 5.0775 4.11603 5.10419 4.11603C5.19749 4.11603 5.27595 4.03624 5.29872 3.92801ZM5.11207 3.61066L5.10419 3.61047C5.05606 3.61047 5.01188 3.6317 4.97726 3.66712L4.98514 3.66731C5.03327 3.66731 5.07745 3.64608 5.11207 3.61066ZM4.04064 4.65767L4.03276 4.65748C3.98463 4.65748 3.94045 4.67871 3.90583 4.71413L3.91371 4.71432C3.96184 4.71432 4.00602 4.69309 4.04064 4.65767ZM3.98919 4.22715C3.96643 4.33538 3.88796 4.41517 3.79466 4.41517C3.76797 4.41517 3.74249 4.40864 3.71918 4.39678C3.74195 4.28855 3.82041 4.20876 3.91371 4.20876C3.94041 4.20876 3.96588 4.21529 3.98919 4.22715ZM3.87014 3.92801C3.84738 4.03624 3.76891 4.11603 3.67562 4.11603C3.64892 4.11603 3.62344 4.1095 3.60014 4.09764C3.6229 3.98941 3.70137 3.90962 3.79466 3.90962C3.82136 3.90962 3.84684 3.91615 3.87014 3.92801ZM3.71672 3.61575C3.73295 3.71391 3.79448 3.79122 3.8726 3.8116C3.85638 3.71344 3.79485 3.63613 3.71672 3.61575ZM4.11488 3.56809C4.0214 3.54631 3.95062 3.44332 3.95062 3.31956L3.95064 3.31558C4.04412 3.33736 4.1149 3.44035 4.1149 3.56411L4.11488 3.56809ZM4.35001 3.3632C4.25801 3.33994 4.18871 3.23783 4.18871 3.11539C4.18871 3.10051 4.18974 3.08593 4.1917 3.07175C4.2837 3.09501 4.353 3.19712 4.353 3.31956C4.353 3.33444 4.35197 3.34902 4.35001 3.3632ZM4.58107 3.19438C4.51512 3.15289 4.46985 3.0672 4.46985 2.96823C4.46985 2.94064 4.47337 2.91408 4.47987 2.88923C4.54582 2.93072 4.59109 3.01641 4.59109 3.11539C4.59109 3.14297 4.58758 3.16953 4.58107 3.19438ZM5.18402 2.8547C5.15713 2.81172 5.14109 2.75752 5.14109 2.69861C5.14109 2.68554 5.14188 2.6727 5.14341 2.66016C5.17029 2.70314 5.18633 2.75734 5.18633 2.81624C5.18633 2.82932 5.18554 2.84216 5.18402 2.8547ZM5.49906 2.54018C5.50274 2.59118 5.51847 2.63781 5.54265 2.67553C5.53897 2.62453 5.52324 2.5779 5.49906 2.54018ZM5.86847 2.65422C5.8237 2.60786 5.79515 2.53764 5.79515 2.45905C5.79515 2.40851 5.80696 2.36143 5.8273 2.32193C5.87207 2.3683 5.90062 2.43851 5.90062 2.5171C5.90062 2.56764 5.88881 2.61472 5.86847 2.65422ZM6.17638 2.57202C6.12613 2.52606 6.09347 2.45158 6.09347 2.36752C6.09347 2.32692 6.10109 2.28856 6.11463 2.25456C6.16488 2.30052 6.19754 2.37499 6.19754 2.45905C6.19754 2.49966 6.18992 2.53802 6.17638 2.57202ZM4.15181 3.36593C4.17219 3.36593 4.18871 3.34517 4.18871 3.31956C4.18871 3.29396 4.17219 3.2732 4.15181 3.2732C4.13143 3.2732 4.1149 3.29396 4.1149 3.31956C4.1149 3.34517 4.13143 3.36593 4.15181 3.36593ZM3.91371 3.61047C3.93409 3.61047 3.95062 3.58971 3.95062 3.5641C3.95062 3.5385 3.93409 3.51774 3.91371 3.51774C3.89333 3.51774 3.87681 3.5385 3.87681 3.5641C3.87681 3.58971 3.89333 3.61047 3.91371 3.61047ZM3.67562 3.90962C3.696 3.90962 3.71252 3.88886 3.71252 3.86325C3.71252 3.83764 3.696 3.81688 3.67562 3.81688C3.65523 3.81688 3.63871 3.83764 3.63871 3.86325C3.63871 3.88886 3.65523 3.90962 3.67562 3.90962ZM3.79466 4.20876C3.81505 4.20876 3.83157 4.188 3.83157 4.1624C3.83157 4.13679 3.81505 4.11603 3.79466 4.11603C3.77428 4.11603 3.75776 4.13679 3.75776 4.1624C3.75776 4.188 3.77428 4.20876 3.79466 4.20876ZM3.91371 4.50791C3.93409 4.50791 3.95062 4.48715 3.95062 4.46154C3.95062 4.43593 3.93409 4.41517 3.91371 4.41517C3.89333 4.41517 3.87681 4.43593 3.87681 4.46154C3.87681 4.48715 3.89333 4.50791 3.91371 4.50791ZM4.06966 4.91026C4.06966 4.93587 4.05314 4.95663 4.03276 4.95663C4.01238 4.95663 3.99585 4.93587 3.99585 4.91026C3.99585 4.88465 4.01238 4.86389 4.03276 4.86389C4.05314 4.86389 4.06966 4.88465 4.06966 4.91026ZM4.3899 3.16175C4.41028 3.16175 4.42681 3.141 4.42681 3.11539C4.42681 3.08978 4.41028 3.06902 4.3899 3.06902C4.36952 3.06902 4.353 3.08978 4.353 3.11539C4.353 3.141 4.36952 3.16175 4.3899 3.16175ZM4.67104 3.01459C4.69142 3.01459 4.70794 2.99383 4.70794 2.96823C4.70794 2.94262 4.69142 2.92186 4.67104 2.92186C4.65066 2.92186 4.63413 2.94262 4.63413 2.96823C4.63413 2.99383 4.65066 3.01459 4.67104 3.01459ZM5.34228 2.74498C5.36267 2.74498 5.37919 2.72422 5.37919 2.69861C5.37919 2.673 5.36267 2.65224 5.34228 2.65224C5.3219 2.65224 5.30538 2.673 5.30538 2.69861C5.30538 2.72422 5.3219 2.74498 5.34228 2.74498ZM5.69943 2.56346C5.71981 2.56346 5.73633 2.5427 5.73633 2.5171C5.73633 2.49149 5.71981 2.47073 5.69943 2.47073C5.67904 2.47073 5.66252 2.49149 5.66252 2.5171C5.66252 2.5427 5.67904 2.56346 5.69943 2.56346ZM5.99634 2.50542C6.01673 2.50542 6.03325 2.48466 6.03325 2.45906C6.03325 2.43345 6.01673 2.41269 5.99634 2.41269C5.97596 2.41269 5.95944 2.43345 5.95944 2.45906C5.95944 2.48466 5.97596 2.50542 5.99634 2.50542ZM6.29466 2.41389C6.31505 2.41389 6.33157 2.39313 6.33157 2.36752C6.33157 2.34192 6.31505 2.32116 6.29466 2.32116C6.27428 2.32116 6.25776 2.34192 6.25776 2.36752C6.25776 2.39313 6.27428 2.41389 6.29466 2.41389ZM5.10419 3.90962C5.12457 3.90962 5.14109 3.88886 5.14109 3.86325C5.14109 3.83764 5.12457 3.81688 5.10419 3.81688C5.08381 3.81688 5.06728 3.83764 5.06728 3.86325C5.06728 3.88886 5.08381 3.90962 5.10419 3.90962ZM5.22324 4.20876C5.24362 4.20876 5.26014 4.188 5.26014 4.1624C5.26014 4.13679 5.24362 4.11603 5.22324 4.11603C5.20285 4.11603 5.18633 4.13679 5.18633 4.1624C5.18633 4.188 5.20285 4.20876 5.22324 4.20876ZM5.34228 4.50791C5.36267 4.50791 5.37919 4.48715 5.37919 4.46154C5.37919 4.43593 5.36267 4.41517 5.34228 4.41517C5.3219 4.41517 5.30538 4.43593 5.30538 4.46154C5.30538 4.48715 5.3219 4.50791 5.34228 4.50791ZM10.5804 4.95663C10.6008 4.95663 10.6173 4.93587 10.6173 4.91026C10.6173 4.88465 10.6008 4.86389 10.5804 4.86389C10.56 4.86389 10.5435 4.88465 10.5435 4.91026C10.5435 4.93587 10.56 4.95663 10.5804 4.95663ZM10.3792 4.91026C10.3792 5.04986 10.4693 5.16304 10.5804 5.16304C10.6915 5.16304 10.7816 5.04986 10.7816 4.91026C10.7816 4.83112 10.7526 4.76048 10.7073 4.71413C10.8148 4.70893 10.9006 4.59783 10.9006 4.46154C10.9006 4.43916 10.8983 4.41745 10.894 4.39678C10.9677 4.35927 11.0197 4.26846 11.0197 4.1624C11.0197 4.14001 11.0173 4.1183 11.013 4.09764C11.0867 4.06013 11.1387 3.96932 11.1387 3.86325C11.1387 3.72364 11.0486 3.61047 10.9375 3.61047C10.9234 3.61047 10.9097 3.61229 10.8964 3.61575C10.8992 3.59908 10.9006 3.5818 10.9006 3.56411C10.9006 3.4245 10.8105 3.31133 10.6994 3.31133C10.6868 3.31133 10.6745 3.31279 10.6625 3.31558C10.6608 3.17781 10.5714 3.06679 10.4613 3.06679C10.4477 3.06679 10.4343 3.0685 10.4214 3.07176C10.405 2.95294 10.3225 2.86261 10.2232 2.86261C10.1909 2.86261 10.1603 2.87219 10.1333 2.88923C10.1069 2.78831 10.0313 2.71545 9.9421 2.71545C9.89828 2.71545 9.85774 2.73304 9.8247 2.76292C9.80522 2.64892 9.72455 2.56346 9.628 2.56346C9.56377 2.56346 9.50657 2.60128 9.46973 2.66016C9.45499 2.5388 9.37156 2.44583 9.27085 2.44583C9.20748 2.44583 9.15095 2.48265 9.11407 2.54018C9.11462 2.53258 9.1149 2.52488 9.1149 2.5171C9.1149 2.37749 9.02483 2.26432 8.91371 2.26432C8.86515 2.26432 8.8206 2.28594 8.78584 2.32193C8.75 2.25234 8.68768 2.20628 8.61679 2.20628C8.57259 2.20628 8.53171 2.22419 8.49851 2.25456C8.46549 2.17166 8.39727 2.11475 8.31847 2.11475C8.20736 2.11475 8.11728 2.22792 8.11728 2.36752C8.11728 2.50713 8.20736 2.6203 8.31847 2.6203C8.36268 2.6203 8.40356 2.60239 8.43676 2.57202C8.46978 2.65492 8.538 2.71183 8.61679 2.71183C8.66536 2.71183 8.7099 2.69021 8.74467 2.65422C8.7805 2.72382 8.84283 2.76987 8.91371 2.76987C8.97709 2.76987 9.03361 2.73306 9.07049 2.67553C9.06994 2.68313 9.06966 2.69083 9.06966 2.69861C9.06966 2.83822 9.15974 2.95139 9.27085 2.95139C9.33508 2.95139 9.39228 2.91357 9.42912 2.85469C9.43412 2.89584 9.44701 2.93371 9.46579 2.96581C9.44129 3.0077 9.42681 3.05942 9.42681 3.11539C9.42681 3.17136 9.44129 3.22308 9.46579 3.26496C9.44129 3.30684 9.42681 3.35856 9.42681 3.41453C9.42681 3.49367 9.45575 3.56431 9.50107 3.61066C9.39361 3.61587 9.30776 3.72696 9.30776 3.86325C9.30776 3.88564 9.31008 3.90734 9.31442 3.92801C9.24071 3.96552 9.18871 4.05633 9.18871 4.1624C9.18871 4.18478 9.19103 4.20649 9.19538 4.22715C9.12166 4.26466 9.06966 4.35547 9.06966 4.46154C9.06966 4.60115 9.15974 4.71432 9.27085 4.71432C9.38197 4.71432 9.47204 4.60115 9.47204 4.46154C9.47204 4.43916 9.46973 4.41745 9.46538 4.39678C9.5391 4.35927 9.59109 4.26846 9.59109 4.1624C9.59109 4.14001 9.58878 4.11831 9.58443 4.09764C9.65814 4.06013 9.71014 3.96932 9.71014 3.86325C9.71014 3.78411 9.6812 3.71347 9.63588 3.66712C9.74334 3.66192 9.82919 3.55082 9.82919 3.41453C9.82919 3.35856 9.81471 3.30684 9.7902 3.26496C9.80605 3.23787 9.81771 3.20667 9.82397 3.17286C9.85714 3.20314 9.89796 3.221 9.9421 3.221C9.97444 3.221 10.005 3.21142 10.0321 3.19438C10.0585 3.2953 10.1341 3.36817 10.2232 3.36817C10.2369 3.36817 10.2502 3.36646 10.2631 3.3632C10.2796 3.48201 10.3621 3.57234 10.4613 3.57234C10.4739 3.57234 10.4863 3.57088 10.4983 3.56809C10.5 3.70586 10.5894 3.81688 10.6994 3.81688C10.7135 3.81688 10.7273 3.81506 10.7405 3.8116C10.7378 3.82828 10.7363 3.84555 10.7363 3.86325C10.7363 3.88564 10.7386 3.90734 10.743 3.92801C10.6693 3.96552 10.6173 4.05633 10.6173 4.1624C10.6173 4.18478 10.6196 4.20649 10.6239 4.22715C10.5502 4.26466 10.4982 4.35547 10.4982 4.46154C10.4982 4.54068 10.5272 4.61132 10.5725 4.65767C10.465 4.66287 10.3792 4.77397 10.3792 4.91026ZM9.74539 3.02155C9.75597 3.08343 9.78458 3.1369 9.82397 3.17286C9.82738 3.1544 9.82919 3.13516 9.82919 3.11539C9.82919 3.05942 9.81471 3.0077 9.7902 2.96581C9.81471 2.92393 9.82919 2.87221 9.82919 2.81624C9.82919 2.79795 9.82764 2.78011 9.8247 2.76292C9.78582 2.79808 9.75733 2.85025 9.74613 2.91075C9.71296 2.88047 9.67214 2.86261 9.628 2.86261C9.56143 2.86261 9.50241 2.90323 9.46579 2.96581C9.50241 3.0284 9.56143 3.06902 9.628 3.06902C9.67181 3.06902 9.71235 3.05142 9.74539 3.02155ZM9.74539 3.02155C9.74246 3.00436 9.74091 2.98652 9.74091 2.96823C9.74091 2.94845 9.74271 2.92921 9.74613 2.91075C9.76299 2.92614 9.77787 2.94473 9.7902 2.96581C9.77769 2.98721 9.76255 3.00603 9.74539 3.02155ZM9.628 3.36817C9.56143 3.36817 9.50241 3.32755 9.46579 3.26496C9.50241 3.20237 9.56143 3.16175 9.628 3.16175C9.69457 3.16175 9.75358 3.20237 9.7902 3.26496C9.75358 3.32755 9.69457 3.36817 9.628 3.36817ZM9.628 3.36817C9.64838 3.36816 9.6649 3.38892 9.6649 3.41453C9.6649 3.44014 9.64838 3.4609 9.628 3.4609C9.60762 3.4609 9.59109 3.44014 9.59109 3.41453C9.59109 3.38892 9.60762 3.36816 9.628 3.36817ZM9.628 3.16175C9.60762 3.16175 9.59109 3.141 9.59109 3.11539C9.59109 3.08978 9.60762 3.06902 9.628 3.06902C9.64838 3.06902 9.6649 3.08978 9.6649 3.11539C9.6649 3.141 9.64838 3.16175 9.628 3.16175ZM9.46538 4.39678C9.44262 4.28855 9.36415 4.20876 9.27085 4.20876C9.24416 4.20876 9.21868 4.21529 9.19538 4.22715C9.21814 4.33538 9.29661 4.41517 9.3899 4.41517C9.4166 4.41517 9.44207 4.40864 9.46538 4.39678ZM9.58443 4.09764C9.56167 3.98941 9.4832 3.90962 9.3899 3.90962C9.36321 3.90962 9.33773 3.91615 9.31442 3.92801C9.33719 4.03624 9.41565 4.11603 9.50895 4.11603C9.53564 4.11603 9.56112 4.1095 9.58443 4.09764ZM9.63588 3.66712C9.60126 3.6317 9.55708 3.61047 9.50895 3.61047L9.50107 3.61066C9.53569 3.64608 9.57987 3.66731 9.628 3.66731L9.63588 3.66712ZM8.43676 2.57202C8.48701 2.52606 8.51966 2.45158 8.51966 2.36752C8.51966 2.32692 8.51205 2.28856 8.49851 2.25456C8.44826 2.30052 8.4156 2.37499 8.4156 2.45905C8.4156 2.49966 8.42322 2.53802 8.43676 2.57202ZM8.74467 2.65422C8.72433 2.61472 8.71252 2.56764 8.71252 2.5171C8.71252 2.43851 8.74107 2.3683 8.78584 2.32193C8.80618 2.36143 8.81798 2.40851 8.81798 2.45905C8.81798 2.53764 8.78944 2.60786 8.74467 2.65422ZM9.11407 2.54018C9.0899 2.5779 9.07417 2.62453 9.07049 2.67553C9.09467 2.63781 9.1104 2.59118 9.11407 2.54018ZM9.42912 2.85469C9.4276 2.84216 9.42681 2.82932 9.42681 2.81624C9.42681 2.75734 9.44284 2.70314 9.46973 2.66016C9.47126 2.6727 9.47204 2.68554 9.47204 2.69861C9.47204 2.75752 9.45601 2.81172 9.42912 2.85469ZM10.0321 3.19438C10.0256 3.16953 10.022 3.14297 10.022 3.11539C10.022 3.01641 10.0673 2.93072 10.1333 2.88923C10.1398 2.91408 10.1433 2.94064 10.1433 2.96823C10.1433 3.0672 10.098 3.15289 10.0321 3.19438ZM10.2631 3.3632C10.2612 3.34902 10.2601 3.33444 10.2601 3.31956C10.2601 3.19712 10.3294 3.09501 10.4214 3.07176C10.4234 3.08593 10.4244 3.10051 10.4244 3.11539C10.4244 3.23783 10.3551 3.33994 10.2631 3.3632ZM10.4983 3.56809L10.4982 3.56411C10.4982 3.44035 10.569 3.33736 10.6625 3.31558L10.6625 3.31956C10.6625 3.44332 10.5917 3.54631 10.4983 3.56809ZM10.8964 3.61575C10.8183 3.63613 10.7568 3.71344 10.7405 3.8116C10.8187 3.79122 10.8802 3.71392 10.8964 3.61575ZM10.743 3.92801C10.7663 3.91615 10.7918 3.90962 10.8185 3.90962C10.9118 3.90962 10.9902 3.98941 11.013 4.09764C10.9897 4.1095 10.9642 4.11603 10.9375 4.11603C10.8442 4.11603 10.7658 4.03624 10.743 3.92801ZM10.6239 4.22715C10.6473 4.21529 10.6727 4.20876 10.6994 4.20876C10.7927 4.20876 10.8712 4.28855 10.894 4.39678C10.8706 4.40864 10.8452 4.41517 10.8185 4.41517C10.7252 4.41517 10.6467 4.33538 10.6239 4.22715ZM10.5725 4.65767L10.5804 4.65748C10.6285 4.65748 10.6727 4.67871 10.7073 4.71413L10.6994 4.71432C10.6513 4.71432 10.6071 4.69309 10.5725 4.65767ZM10.6994 4.50791C10.7198 4.50791 10.7363 4.48715 10.7363 4.46154C10.7363 4.43593 10.7198 4.41517 10.6994 4.41517C10.679 4.41517 10.6625 4.43593 10.6625 4.46154C10.6625 4.48715 10.679 4.50791 10.6994 4.50791ZM10.8185 4.20876C10.8389 4.20876 10.8554 4.188 10.8554 4.1624C10.8554 4.13679 10.8389 4.11603 10.8185 4.11603C10.7981 4.11603 10.7816 4.13679 10.7816 4.1624C10.7816 4.188 10.7981 4.20876 10.8185 4.20876ZM10.9375 3.90962C10.9579 3.90962 10.9744 3.88886 10.9744 3.86325C10.9744 3.83764 10.9579 3.81688 10.9375 3.81688C10.9171 3.81688 10.9006 3.83764 10.9006 3.86325C10.9006 3.88886 10.9171 3.90962 10.9375 3.90962ZM10.6994 3.61047C10.7198 3.61047 10.7363 3.58971 10.7363 3.5641C10.7363 3.5385 10.7198 3.51774 10.6994 3.51774C10.679 3.51774 10.6625 3.5385 10.6625 3.5641C10.6625 3.58971 10.679 3.61047 10.6994 3.61047ZM10.4613 3.36593C10.4817 3.36593 10.4982 3.34517 10.4982 3.31956C10.4982 3.29396 10.4817 3.2732 10.4613 3.2732C10.4409 3.2732 10.4244 3.29396 10.4244 3.31956C10.4244 3.34517 10.4409 3.36593 10.4613 3.36593ZM10.2232 3.16175C10.2436 3.16175 10.2601 3.141 10.2601 3.11539C10.2601 3.08978 10.2436 3.06902 10.2232 3.06902C10.2029 3.06902 10.1863 3.08978 10.1863 3.11539C10.1863 3.141 10.2029 3.16175 10.2232 3.16175ZM9.9421 3.01459C9.96248 3.01459 9.979 2.99383 9.979 2.96823C9.979 2.94262 9.96248 2.92186 9.9421 2.92186C9.92172 2.92186 9.90519 2.94262 9.90519 2.96823C9.90519 2.99383 9.92172 3.01459 9.9421 3.01459ZM9.628 2.86261C9.64838 2.86261 9.6649 2.84185 9.6649 2.81624C9.6649 2.79063 9.64838 2.76987 9.628 2.76987C9.60762 2.76987 9.59109 2.79063 9.59109 2.81624C9.59109 2.84185 9.60762 2.86261 9.628 2.86261ZM9.27085 2.74498C9.29124 2.74498 9.30776 2.72422 9.30776 2.69861C9.30776 2.673 9.29124 2.65224 9.27085 2.65224C9.25047 2.65224 9.23395 2.673 9.23395 2.69861C9.23395 2.72422 9.25047 2.74498 9.27085 2.74498ZM8.91371 2.56346C8.93409 2.56346 8.95062 2.5427 8.95062 2.5171C8.95062 2.49149 8.93409 2.47073 8.91371 2.47073C8.89333 2.47073 8.87681 2.49149 8.87681 2.5171C8.87681 2.5427 8.89333 2.56346 8.91371 2.56346ZM8.61679 2.50542C8.63718 2.50542 8.6537 2.48466 8.6537 2.45906C8.6537 2.43345 8.63718 2.41269 8.61679 2.41269C8.59641 2.41269 8.57989 2.43345 8.57989 2.45906C8.57989 2.48466 8.59641 2.50542 8.61679 2.50542ZM8.31847 2.41389C8.33886 2.41389 8.35538 2.39313 8.35538 2.36752C8.35538 2.34192 8.33886 2.32116 8.31847 2.32116C8.29809 2.32116 8.28157 2.34192 8.28157 2.36752C8.28157 2.39313 8.29809 2.41389 8.31847 2.41389ZM9.50895 3.90962C9.52933 3.90962 9.54586 3.88886 9.54586 3.86325C9.54586 3.83764 9.52933 3.81688 9.50895 3.81688C9.48857 3.81688 9.47205 3.83764 9.47205 3.86325C9.47205 3.88886 9.48857 3.90962 9.50895 3.90962ZM9.3899 4.20876C9.41028 4.20876 9.42681 4.188 9.42681 4.1624C9.42681 4.13679 9.41028 4.11603 9.3899 4.11603C9.36952 4.11603 9.353 4.13679 9.353 4.1624C9.353 4.188 9.36952 4.20876 9.3899 4.20876ZM9.27085 4.50791C9.29124 4.50791 9.30776 4.48715 9.30776 4.46154C9.30776 4.43593 9.29124 4.41517 9.27085 4.41517C9.25047 4.41517 9.23395 4.43593 9.23395 4.46154C9.23395 4.48715 9.25047 4.50791 9.27085 4.50791Z" fill="white"/>
<path fill-rule="evenodd" clip-rule="evenodd" d="M7.34623 0.882724L7.03159 0.894938L7.0251 1.54909L6.4445 1.55919L6.44715 1.95621L7.02116 1.94622L7.01377 2.6918L7.32841 2.67958L7.33573 1.94074L7.90692 1.9308L7.90427 1.53379L7.33967 1.54361L7.34623 0.882724Z" fill="#F6C540"/>
<path fill-rule="evenodd" clip-rule="evenodd" d="M2.90356 7.67236H11.4464V16.7889C11.4464 16.7889 11.1881 21.3301 7.17499 21.3301C3.16191 21.3301 2.90356 16.7889 2.90356 16.7889V7.67236Z" fill="#C51918"/>
<path fill-rule="evenodd" clip-rule="evenodd" d="M5.48191 7.98779C5.40358 7.98779 5.28299 8.05848 5.12315 8.13852C4.96331 8.21857 4.79544 8.39139 4.9593 8.56448C5.12315 8.73758 5.35771 9.11748 5.35771 8.97544C5.35771 8.8334 5.63792 8.69567 5.63792 8.76453C5.63792 8.8334 5.55117 8.97544 5.77873 8.97544C6.00629 8.97544 6.12353 9.05991 5.88073 9.05991C5.63792 9.05991 5.61154 9.19946 5.45374 9.19946C5.29594 9.19946 4.9593 9.05886 4.9593 8.97544C4.9593 8.89202 5.15425 9.38556 5.35771 9.38556C5.56117 9.38556 5.67674 9.62569 5.77873 9.50563C5.88073 9.38556 5.86866 9.38556 6.03343 9.38556C6.19821 9.38556 6.13807 8.90065 6.13807 8.90065C6.13807 8.90065 5.56025 7.98779 5.48191 7.98779Z" fill="#E8AA00"/>
<path fill-rule="evenodd" clip-rule="evenodd" d="M8.77865 7.98779C8.85698 7.98779 8.97757 8.05848 9.13741 8.13852C9.29725 8.21857 9.46511 8.39139 9.30126 8.56448C9.13741 8.73758 8.90285 9.11748 8.90285 8.97544C8.90285 8.8334 8.62264 8.69567 8.62264 8.76453C8.62264 8.8334 8.70939 8.97544 8.48183 8.97544C8.25427 8.97544 8.13703 9.05991 8.37983 9.05991C8.62264 9.05991 8.64902 9.19946 8.80682 9.19946C8.96462 9.19946 9.30126 9.05886 9.30126 8.97544C9.30126 8.89202 9.10631 9.38556 8.90285 9.38556C8.69939 9.38556 8.58382 9.62569 8.48183 9.50563C8.37983 9.38556 8.3919 9.38556 8.22713 9.38556C8.06235 9.38556 8.12249 8.90065 8.12249 8.90065C8.12249 8.90065 8.70031 7.98779 8.77865 7.98779Z" fill="#E8AA00"/>
<path fill-rule="evenodd" clip-rule="evenodd" d="M4.313 8.97912C4.14924 9.45894 5.40432 11.2414 5.40432 11.2414H5.54485C5.60391 11.2414 5.71375 11.0588 5.84637 10.8384C5.93726 10.6873 6.03886 10.5184 6.14215 10.3783C6.33645 10.1148 6.23347 9.89345 6.13748 9.68709C6.10799 9.62369 6.07916 9.56171 6.0598 9.50036C6.01788 9.36747 6.01192 9.31445 6.00511 9.25387C5.99853 9.19545 5.99117 9.13001 5.95001 8.97912C5.88952 8.75739 5.67864 8.4713 5.53241 8.27292C5.47594 8.19632 5.42912 8.1328 5.40432 8.09111C5.32603 7.95952 5.38543 7.96029 5.54886 7.96239C5.57128 7.96267 5.59566 7.96299 5.62191 7.96299C5.8395 7.96299 6.25516 8.09111 6.3794 8.24076C6.50365 8.3904 6.63392 8.42232 6.82536 8.42232C7.01679 8.42232 6.89871 8.58429 6.72438 8.69367C6.91209 8.73876 6.99718 9.1319 7.03575 9.48097C7.10645 9.1319 7.22679 8.73876 7.4145 8.69367C7.24016 8.58429 7.12209 8.42232 7.31352 8.42232C7.50495 8.42232 7.63523 8.3904 7.75948 8.24076C7.88372 8.09111 8.29938 7.96299 8.51697 7.96299C8.54322 7.96299 8.5676 7.96267 8.59002 7.96239C8.75345 7.96029 8.81284 7.95952 8.73456 8.09111C8.70976 8.1328 8.66293 8.19632 8.60647 8.27292C8.46024 8.4713 8.24935 8.75739 8.18887 8.97912C8.14771 9.13001 8.14034 9.19545 8.13377 9.25387C8.12696 9.31445 8.12099 9.36747 8.07907 9.50036C8.05972 9.56171 8.03089 9.62369 8.0014 9.68709C7.9054 9.89345 7.80242 10.1148 7.99673 10.3783C8.10002 10.5184 8.20161 10.6873 8.29251 10.8384C8.42513 11.0588 8.53497 11.2414 8.59402 11.2414H8.73456C8.73456 11.2414 9.98964 9.45894 9.82587 8.97912C9.76258 8.79366 9.66048 8.6189 9.57599 8.47428C9.44189 8.24474 9.35215 8.09111 9.53227 8.09111C9.82587 8.09111 10.9963 9.02356 10.9963 11.1261C10.9963 13.2286 10.8882 14.4244 10.6372 15.2621C10.466 15.8338 10.6228 16.389 10.7397 16.8028C10.7941 16.9954 10.8399 17.1573 10.8399 17.276C10.8399 17.6498 10.3791 17.3223 10.3791 17.0882C10.3791 16.9769 10.316 17.1427 10.2498 17.3165C10.1768 17.5083 10.1001 17.7098 10.1001 17.5606C10.1001 17.4014 10.0266 17.2332 9.96192 17.0851C9.91096 16.9684 9.86543 16.8642 9.86543 16.7865C9.86543 16.7088 9.80078 16.7117 9.72845 16.7149C9.63656 16.719 9.53227 16.7236 9.53227 16.5644C9.53227 16.457 9.49908 16.4355 9.45777 16.4088C9.38964 16.3648 9.2994 16.3064 9.2994 15.8247C9.2994 15.4676 9.24251 15.5941 9.17724 15.7392C9.11718 15.8728 9.05002 16.0221 9.01361 15.8247C9.01007 15.8054 8.97237 15.7227 8.92576 15.6203C8.85793 15.4714 8.77123 15.281 8.7435 15.1849C8.74036 15.1694 8.73737 15.1539 8.73456 15.1385C8.73456 15.1491 8.73777 15.165 8.7435 15.1849C8.82899 15.6054 9.03411 16.0436 9.16436 16.2523C9.2994 16.4688 9.53227 16.9386 9.53227 16.9386C9.53227 16.9386 9.3151 17.0908 9.16436 16.9386C9.08016 16.8537 9.07448 16.9336 9.06828 17.0208C9.06338 17.0897 9.05817 17.163 9.01361 17.163C8.98564 17.163 8.9593 17.1688 8.93584 17.1739C8.91849 17.1777 8.90271 17.1811 8.88901 17.1816C8.86181 17.0946 8.83308 17.0357 8.83308 17.0882C8.83308 17.1656 8.85442 17.1829 8.88901 17.1816C8.93934 17.3427 8.98448 17.6002 8.83308 17.4281C8.72497 17.3053 8.64916 17.2554 8.59894 17.2224C8.54082 17.1841 8.51697 17.1684 8.51697 17.0882C8.51697 17.0081 8.49335 17.0352 8.45636 17.0777C8.42425 17.1146 8.38207 17.163 8.3365 17.163C8.27779 17.163 8.26556 17.0603 8.24778 16.9109C8.23587 16.8107 8.22145 16.6896 8.18887 16.5644C8.18127 16.5352 8.17414 16.5072 8.16738 16.4806C8.10183 16.2228 8.07126 16.1026 7.99673 16.4278C7.9619 16.5797 7.90038 16.6873 7.84681 16.781C7.77393 16.9085 7.71575 17.0103 7.75948 17.163C7.7766 17.2229 7.79807 17.2905 7.82106 17.3628C7.89996 17.6112 7.99673 17.9157 7.99673 18.1556C7.99673 18.2981 8.10003 18.4925 8.19712 18.6751C8.31092 18.8892 8.41617 19.0872 8.3365 19.167C8.18887 19.3147 8.36752 19.8125 8.51697 20.0679C8.51697 20.8139 6.95211 20.9093 6.95211 20.9093V20.9027C6.94913 20.9071 6.94609 20.9093 6.94298 20.9093C6.72438 20.9093 5.47247 20.3232 5.62191 20.0679C5.77136 19.8125 5.95001 19.3147 5.80237 19.167C5.7227 19.0872 5.82796 18.8892 5.94176 18.6751C6.03885 18.4925 6.14215 18.2981 6.14215 18.1556C6.14215 17.9157 6.23892 17.6112 6.31782 17.3628C6.34081 17.2905 6.36228 17.2229 6.3794 17.163C6.42313 17.0103 6.36495 16.9085 6.29207 16.781C6.23849 16.6873 6.17698 16.5797 6.14215 16.4278C6.06762 16.1026 6.03705 16.2228 5.9715 16.4806C5.96474 16.5072 5.9576 16.5352 5.95001 16.5644C5.91743 16.6896 5.90301 16.8107 5.89109 16.9109C5.87331 17.0603 5.86109 17.163 5.80237 17.163C5.75681 17.163 5.71463 17.1146 5.68252 17.0777C5.64553 17.0352 5.62191 17.0081 5.62191 17.0882C5.62191 17.1684 5.59806 17.1841 5.53994 17.2224C5.48972 17.2554 5.41391 17.3053 5.30579 17.4281C5.1544 17.6002 5.19954 17.3427 5.24986 17.1816C5.28445 17.1829 5.30579 17.1656 5.30579 17.0882C5.30579 17.0357 5.27707 17.0946 5.24986 17.1816C5.23616 17.1811 5.22039 17.1777 5.20303 17.1739C5.17957 17.1688 5.15324 17.163 5.12526 17.163C5.08071 17.163 5.0755 17.0897 5.0706 17.0208C5.0644 16.9336 5.05872 16.8537 4.97452 16.9386C4.82378 17.0908 4.60661 16.9386 4.60661 16.9386C4.60661 16.9386 4.83948 16.4688 4.97452 16.2523C5.10477 16.0436 5.30989 15.6054 5.39537 15.1849C5.40111 15.165 5.40432 15.1491 5.40432 15.1385C5.40151 15.1539 5.39852 15.1694 5.39537 15.1849C5.36765 15.281 5.28095 15.4714 5.21312 15.6203C5.16651 15.7227 5.12881 15.8054 5.12526 15.8247C5.08885 16.0221 5.0217 15.8728 4.96164 15.7392C4.89637 15.5941 4.83948 15.4676 4.83948 15.8247C4.83948 16.3064 4.74924 16.3648 4.68111 16.4088C4.63979 16.4355 4.60661 16.457 4.60661 16.5644C4.60661 16.7236 4.50232 16.719 4.41043 16.7149C4.33809 16.7117 4.27345 16.7088 4.27345 16.7865C4.27345 16.8642 4.22791 16.9684 4.17696 17.0851C4.11223 17.2332 4.03876 17.4014 4.03876 17.5606C4.03876 17.7098 3.96205 17.5083 3.88908 17.3165C3.8229 17.1427 3.7598 16.9769 3.7598 17.0882C3.7598 17.3223 3.29897 17.6498 3.29897 17.276C3.29897 17.1573 3.34473 16.9954 3.39913 16.8028C3.51605 16.389 3.67291 15.8338 3.50165 15.2621C3.25069 14.4244 3.14258 13.2286 3.14258 11.1261C3.14258 9.02356 4.313 8.09111 4.60661 8.09111C4.78673 8.09111 4.69698 8.24474 4.56288 8.47428C4.4784 8.6189 4.3763 8.79366 4.313 8.97912Z" fill="#F7FCFF"/>
<path fill-rule="evenodd" clip-rule="evenodd" d="M5.58325 11.3882H8.76671V14.5494C8.76671 14.5494 8.42496 16.1241 7.17498 16.1241C5.925 16.1241 5.58325 14.5494 5.58325 14.5494V11.3882Z" fill="#C51918"/>
<path fill-rule="evenodd" clip-rule="evenodd" d="M7.60419 11.3423H6.77086V13.1571H5.58038V13.8052H6.77086V16.1386H7.60419V13.8052H8.79467V13.1571H7.60419V11.3423Z" fill="#F7FCFF"/>
<path fill-rule="evenodd" clip-rule="evenodd" d="M4.94044 18.5218C5.32736 17.9283 5.68999 17.4005 5.36736 17.0266C5.04472 16.6526 4.65955 16.9768 4.27263 17.5703C3.88571 18.1637 3.64357 18.8018 3.9662 19.1757C4.28883 19.5497 4.55352 19.1153 4.94044 18.5218Z" fill="#E8AA00"/>
<path fill-rule="evenodd" clip-rule="evenodd" d="M9.15392 18.5218C8.767 17.9283 8.40437 17.4005 8.72701 17.0266C9.04964 16.6526 9.43481 16.9768 9.82173 17.5703C10.2087 18.1637 10.4508 18.8018 10.1282 19.1757C9.80553 19.5497 9.54084 19.1153 9.15392 18.5218Z" fill="#E8AA00"/>
</g>
</g>
<rect width="23" height="23" rx="11.5" fill="url(#paint0_linear_2754_3561)" style="mix-blend-mode:overlay"/>
<rect x="0.5" y="0.5" width="22" height="22" rx="11" stroke="black" stroke-opacity="0.1"/>
<defs>
<linearGradient id="paint0_linear_2754_3561" x1="11.5" y1="0" x2="11.5" y2="23" gradientUnits="userSpaceOnUse">
<stop stop-color="white" stop-opacity="0.7"/>
<stop offset="1" stop-opacity="0.3"/>
</linearGradient>
</defs>
</svg>
