<svg width="23" height="23" viewBox="0 0 23 23" fill="none" xmlns="http://www.w3.org/2000/svg">
<mask id="mask0_2754_3606" style="mask-type:alpha" maskUnits="userSpaceOnUse" x="0" y="0" width="23" height="23">
<rect width="23" height="23" fill="white"/>
</mask>
<g mask="url(#mask0_2754_3606)">
<rect width="23" height="23" fill="#66BE23"/>
<path d="M5.01811 4.38503C5.01811 4.38503 5.38517 6.6173 5.01811 6.18917C4.65105 5.76103 3.83552 7.39262 4.68744 6.79089C5.53936 6.18917 5.68933 5.56548 5.68933 6.79089C5.68933 8.01631 6.0967 7.39283 5.39207 8.30368C4.68744 9.21453 7.86172 9.22876 6.43992 9.7989C5.01811 10.369 4.34422 11.5846 5.39207 11.1377C6.43992 10.6907 8.12682 8.79766 7.68651 8.30368C7.24619 7.8097 7.46266 7.9109 7.46266 6.79089C7.46266 5.67089 7.18313 5.38205 6.81874 5.0928C6.45435 4.80354 8.23647 7.04919 8.83192 5.71711C9.42738 4.38503 9.35569 5.24506 9.78612 5.71711C10.2166 6.18917 10.8868 6.75889 10.8868 5.71711C10.8868 4.67533 11.7706 2.66518 11.7706 4.72804C11.7706 6.79089 12.8799 7.85735 12.8799 6.47508C12.8799 5.0928 13.9 3.73896 13.9 4.72804C13.9 5.71711 14.4857 5.67131 14.9863 5.38205C15.4868 5.0928 15.4445 4.32961 15.4445 6.47508C15.4445 8.62054 15.6542 11.9734 14.9863 11.6908C14.3184 11.4081 14.9427 10.1323 14.3173 8.30368C13.6919 6.47508 14.9546 6.46859 13.6495 8.80313C12.3444 11.1377 12.5517 10.7947 12.1611 9.7989C11.7706 8.80313 13.4354 7.80423 12.1611 8.30368C10.8868 8.80313 11.5795 11.5989 11.2332 10.6989C10.8868 9.7989 10.0021 5.01813 9.8941 7.40852C9.78612 9.7989 10.2341 11.1377 9.28613 11.1377C8.33812 11.1377 7.53623 11.2343 8.18408 10.6989C8.83192 10.1635 8.83192 8.30368 8.83192 8.30368" stroke="white" stroke-width="0.5"/>
<path fill-rule="evenodd" clip-rule="evenodd" d="M10.0148 15.1952C9.43033 15.2896 6.47671 15.2734 5.59437 14.9896C5.39669 14.934 5.5097 16.136 5.63761 16.4123C5.76553 16.6885 6.76967 16.9653 7.11978 17.029C7.42019 17.0837 8.57762 16.9976 9.78074 16.9082C9.97978 16.8933 10.1801 16.8784 10.378 16.8641C11.4313 16.7876 12.97 16.9209 13.7746 16.9906C14.0348 17.0131 14.2183 17.029 14.2837 17.029C14.5303 17.029 14.5118 17.14 14.4745 17.363C14.4713 17.3822 14.468 17.4023 14.4646 17.4232C14.4226 17.6865 14.6437 18.2518 14.7412 18.305C14.8386 18.3582 15.5636 18.305 15.9586 18.1018C16.1835 17.9861 16.2101 18.0021 16.2686 18.0374C16.3129 18.064 16.3755 18.1018 16.5561 18.1018C16.8275 18.1018 16.8416 17.5836 16.8515 17.2179C16.8569 17.0183 16.8611 16.8641 16.9052 16.8641C16.9546 16.8641 17.021 17.0597 17.0831 17.2429C17.1778 17.5222 17.2626 17.7724 17.2626 17.2554C17.2626 16.3995 16.5077 15.2785 16.2609 15.3682C16.0878 15.4311 15.8029 15.3617 15.6094 15.3146C15.5269 15.2946 15.4611 15.2785 15.4276 15.2785C15.3792 15.2785 15.3937 15.2629 15.4258 15.2284C15.4677 15.1834 15.5395 15.1061 15.5395 14.9896C15.5395 14.784 15.3927 14.7549 15.2706 14.7549C15.1484 14.7549 15.0832 14.888 15.0832 14.9896C15.0832 15.0912 15.1752 15.1952 15.1752 15.1952C15.1561 15.1952 15.0597 15.1935 14.9058 15.1908C13.9123 15.1733 10.5209 15.1135 10.0148 15.1952ZM15.0039 17.007C15.0038 17.0068 15.0816 16.9468 15.2619 16.6504C15.4615 16.3224 15.5321 16.4273 15.6056 16.5366C15.6436 16.5929 15.6823 16.6504 15.7399 16.6504C15.9093 16.6504 16.133 16.6504 16.2784 16.8151C16.4239 16.9797 16.087 17.206 15.9888 17.206C15.9401 17.206 15.9041 17.1655 15.8678 17.1246C15.831 17.0832 15.7939 17.0414 15.7428 17.0414C15.6827 17.0414 15.632 17.0995 15.5909 17.1467C15.5629 17.1789 15.5393 17.206 15.5201 17.206C15.5034 17.206 15.4663 17.1777 15.4183 17.1412C15.3304 17.0743 15.206 16.9797 15.1037 16.9797C15.0398 16.9797 15.004 17.0071 15.0039 17.007Z" fill="white"/>
<path d="M5.59437 14.9896L5.60969 14.942L5.6079 14.9415L5.59437 14.9896ZM10.0148 15.1952L10.0228 15.2446L10.0148 15.1952ZM5.63761 16.4123L5.68298 16.3913L5.63761 16.4123ZM7.11978 17.029L7.12873 16.9798H7.12873L7.11978 17.029ZM9.78074 16.9082L9.77703 16.8583L9.78074 16.9082ZM10.378 16.8641L10.3743 16.8142L10.378 16.8641ZM13.7746 16.9906L13.779 16.9408L13.7746 16.9906ZM14.4745 17.363L14.5239 17.3712V17.3712L14.4745 17.363ZM14.4646 17.4232L14.514 17.4311V17.4311L14.4646 17.4232ZM14.7412 18.305L14.7651 18.2611H14.7651L14.7412 18.305ZM15.9586 18.1018L15.9357 18.0573L15.9586 18.1018ZM16.2686 18.0374L16.2944 17.9945L16.2686 18.0374ZM16.8515 17.2179L16.9015 17.2192V17.2192L16.8515 17.2179ZM17.0831 17.2429L17.0357 17.2589L17.0831 17.2429ZM16.2609 15.3682L16.2438 15.3212V15.3212L16.2609 15.3682ZM15.6094 15.3146L15.6212 15.2661V15.2661L15.6094 15.3146ZM15.4258 15.2284L15.4624 15.2625V15.2625L15.4258 15.2284ZM15.1752 15.1952V15.2452H15.2862L15.2127 15.1621L15.1752 15.1952ZM14.9058 15.1908L14.9049 15.2408L14.9058 15.1908ZM15.2619 16.6504L15.2192 16.6244L15.2619 16.6504ZM15.0039 17.007L14.9643 17.0374L14.9643 17.0375L15.0039 17.007ZM15.6056 16.5366L15.5642 16.5645V16.5645L15.6056 16.5366ZM16.2784 16.8151L16.3159 16.782L16.2784 16.8151ZM15.8678 17.1246L15.8305 17.1578V17.1578L15.8678 17.1246ZM15.5909 17.1467L15.5532 17.1138H15.5532L15.5909 17.1467ZM15.4183 17.1412L15.4485 17.1014L15.4183 17.1412ZM5.57906 15.0372C5.80515 15.1099 6.15983 15.1645 6.57026 15.2045C6.98183 15.2446 7.45319 15.2703 7.91478 15.2842C8.83595 15.3119 9.72513 15.2927 10.0228 15.2446L10.0069 15.1459C9.72002 15.1922 8.84014 15.212 7.91779 15.1843C7.45762 15.1704 6.98862 15.1448 6.57996 15.105C6.17016 15.0651 5.82476 15.0112 5.60968 14.942L5.57906 15.0372ZM5.68298 16.3913C5.65408 16.3289 5.62386 16.2078 5.59839 16.0573C5.57321 15.9085 5.55347 15.7358 5.5438 15.5735C5.5341 15.4106 5.53474 15.2608 5.54926 15.1565C5.55665 15.1034 5.56698 15.0675 5.57795 15.0477C5.58329 15.0381 5.58664 15.0363 5.58602 15.0366C5.5837 15.038 5.5808 15.0377 5.58083 15.0377L5.6079 14.9415C5.58323 14.9345 5.55804 14.9372 5.53573 14.9502C5.51511 14.9622 5.50074 14.9807 5.4905 14.9992C5.47031 15.0356 5.45803 15.0866 5.45022 15.1427C5.43433 15.2568 5.43415 15.4143 5.44398 15.5795C5.45385 15.7453 5.47399 15.9215 5.49979 16.074C5.52531 16.2248 5.55719 16.3576 5.59224 16.4333L5.68298 16.3913ZM7.12873 16.9798C6.95645 16.9485 6.62055 16.8641 6.31228 16.7533C6.15813 16.6979 6.01255 16.6365 5.89834 16.5726C5.84125 16.5407 5.79309 16.5087 5.75594 16.4773C5.71839 16.4456 5.6947 16.4166 5.68298 16.3913L5.59224 16.4333C5.61251 16.4771 5.64818 16.5172 5.69139 16.5537C5.73501 16.5905 5.78902 16.626 5.84952 16.6599C5.97051 16.7276 6.12182 16.7911 6.27846 16.8474C6.59177 16.96 6.933 17.0459 7.11082 17.0782L7.12873 16.9798ZM9.77703 16.8583C9.17531 16.903 8.58573 16.9469 8.10904 16.9727C7.87068 16.9857 7.66107 16.994 7.49258 16.9958C7.3228 16.9976 7.19856 16.9926 7.12873 16.9798L7.11082 17.0782C7.1912 17.0929 7.32429 17.0976 7.49362 17.0958C7.66424 17.094 7.87551 17.0855 8.11445 17.0726C8.59236 17.0467 9.18305 17.0027 9.78444 16.958L9.77703 16.8583ZM10.3743 16.8142C10.1764 16.8286 9.97607 16.8435 9.77703 16.8583L9.78444 16.958C9.9835 16.9432 10.1838 16.9283 10.3816 16.9139L10.3743 16.8142ZM13.779 16.9408C12.9756 16.8712 11.4325 16.7374 10.3743 16.8142L10.3816 16.9139C11.4301 16.8378 12.9644 16.9706 13.7703 17.0404L13.779 16.9408ZM14.2837 16.979C14.2211 16.979 14.041 16.9635 13.779 16.9408L13.7703 17.0404C14.0287 17.0628 14.2154 17.079 14.2837 17.079V16.979ZM14.5239 17.3712C14.5331 17.3162 14.5417 17.265 14.545 17.2205C14.5483 17.1764 14.547 17.1326 14.5322 17.0943C14.5163 17.0532 14.4864 17.0228 14.4425 17.0039C14.4011 16.9861 14.3481 16.979 14.2837 16.979V17.079C14.3427 17.079 14.3799 17.0858 14.4031 17.0958C14.4239 17.1047 14.4334 17.116 14.439 17.1305C14.4457 17.1478 14.4482 17.1736 14.4453 17.213C14.4423 17.252 14.4347 17.2983 14.4252 17.3547L14.5239 17.3712ZM14.514 17.4311C14.5173 17.4104 14.5206 17.3905 14.5239 17.3712L14.4252 17.3547C14.422 17.374 14.4186 17.3942 14.4153 17.4153L14.514 17.4311ZM14.7651 18.2611C14.7652 18.2612 14.7645 18.2608 14.763 18.2596C14.7616 18.2584 14.7597 18.2567 14.7573 18.2543C14.7525 18.2494 14.7467 18.2425 14.7401 18.2333C14.7267 18.2148 14.7115 18.1897 14.6953 18.1586C14.6629 18.0967 14.6284 18.0152 14.5979 17.9266C14.5674 17.8381 14.5414 17.7435 14.5256 17.6557C14.5097 17.5671 14.5048 17.4888 14.514 17.4311L14.4153 17.4153C14.4035 17.4893 14.4105 17.5804 14.4272 17.6734C14.4441 17.7673 14.4716 17.8668 14.5033 17.9591C14.5351 18.0514 14.5715 18.1377 14.6066 18.205C14.6242 18.2385 14.6419 18.2683 14.6591 18.292C14.6752 18.3142 14.6947 18.3366 14.7172 18.3489L14.7651 18.2611ZM15.9357 18.0573C15.7458 18.155 15.4725 18.2182 15.2318 18.25C15.112 18.2658 15.002 18.2736 14.9166 18.2743C14.8738 18.2746 14.838 18.2731 14.8106 18.2702C14.797 18.2687 14.7861 18.2669 14.7778 18.265C14.7737 18.264 14.7706 18.2631 14.7683 18.2624C14.766 18.2616 14.7651 18.2611 14.7651 18.2611L14.7172 18.3489C14.7389 18.3607 14.7697 18.3663 14.7999 18.3696C14.8324 18.3731 14.8723 18.3746 14.9174 18.3743C15.0076 18.3736 15.1218 18.3653 15.2449 18.3491C15.4898 18.3168 15.7764 18.2517 15.9815 18.1462L15.9357 18.0573ZM16.2944 17.9945C16.2808 17.9863 16.2632 17.9755 16.2426 17.9687C16.2204 17.9615 16.1967 17.9594 16.1689 17.9634C16.1173 17.9709 16.0475 17.9998 15.9357 18.0573L15.9815 18.1462C16.0946 18.088 16.1505 18.0671 16.1831 18.0624C16.1974 18.0604 16.2054 18.0618 16.2116 18.0638C16.2195 18.0664 16.2272 18.0708 16.2428 18.0802L16.2944 17.9945ZM16.5561 18.0518C16.4692 18.0518 16.4133 18.0427 16.3753 18.0316C16.3379 18.0207 16.3156 18.0073 16.2944 17.9945L16.2428 18.0802C16.2659 18.0941 16.2971 18.1129 16.3473 18.1276C16.3967 18.142 16.4624 18.1518 16.5561 18.1518V18.0518ZM16.8015 17.2165C16.7965 17.4007 16.7905 17.6165 16.753 17.7862C16.7343 17.8712 16.7086 17.9395 16.675 17.9856C16.6427 18.0297 16.6049 18.0518 16.5561 18.0518V18.1518C16.6431 18.1518 16.7087 18.109 16.7557 18.0446C16.8013 17.9821 16.8307 17.898 16.8507 17.8077C16.8906 17.6269 16.8966 17.4008 16.9015 17.2192L16.8015 17.2165ZM16.9052 16.8141C16.8831 16.8141 16.8658 16.8244 16.8541 16.8368C16.8434 16.8481 16.8367 16.8618 16.8322 16.8735C16.8233 16.8972 16.8179 16.9279 16.8142 16.9605C16.8067 17.0266 16.8042 17.1176 16.8015 17.2165L16.9015 17.2192C16.9042 17.1185 16.9066 17.0326 16.9136 16.9718C16.9171 16.9409 16.9214 16.9205 16.9257 16.909C16.9279 16.9033 16.9289 16.9033 16.9269 16.9054C16.9239 16.9086 16.9163 16.9141 16.9052 16.9141V16.8141ZM17.1304 17.2268C17.0996 17.1359 17.0668 17.0391 17.0354 16.9652C17.0198 16.9285 17.0035 16.8949 16.9867 16.8698C16.9784 16.8573 16.9686 16.8447 16.957 16.8349C16.9458 16.8253 16.9282 16.8141 16.9052 16.8141V16.9141C16.8946 16.9141 16.8898 16.909 16.892 16.9108C16.8938 16.9124 16.8977 16.9165 16.9035 16.9253C16.915 16.9425 16.9285 16.9693 16.9434 17.0044C16.973 17.0741 17.0045 17.1668 17.0357 17.2589L17.1304 17.2268ZM17.2126 17.2554C17.2126 17.3848 17.2072 17.4613 17.1989 17.5005C17.1969 17.51 17.1951 17.5156 17.1939 17.5186C17.1924 17.5222 17.193 17.5187 17.1983 17.5143C17.2057 17.5079 17.2178 17.5035 17.2308 17.5063C17.2404 17.5084 17.2447 17.5134 17.2436 17.5123C17.2415 17.5102 17.2355 17.5021 17.2262 17.4835C17.2176 17.4663 17.2081 17.4439 17.1977 17.4172C17.1769 17.3638 17.1542 17.297 17.1304 17.2268L17.0357 17.2589C17.0593 17.3284 17.0827 17.3976 17.1045 17.4535C17.1154 17.4814 17.1262 17.507 17.1368 17.5282C17.1467 17.5481 17.1587 17.5689 17.1731 17.5832C17.1803 17.5903 17.1924 17.6003 17.2095 17.6041C17.23 17.6085 17.2492 17.6023 17.2633 17.5903C17.2751 17.5801 17.282 17.5671 17.2862 17.5571C17.2907 17.5463 17.2941 17.5341 17.2968 17.5211C17.3074 17.4706 17.3126 17.3845 17.3126 17.2554H17.2126ZM16.278 15.4152C16.2889 15.4112 16.3116 15.4113 16.3512 15.4325C16.3894 15.453 16.4352 15.4891 16.4861 15.5402C16.5877 15.6421 16.7027 15.7968 16.8111 15.9824C17.0284 16.3546 17.2126 16.8398 17.2126 17.2554H17.3126C17.3126 16.815 17.1193 16.3119 16.8975 15.932C16.7863 15.7416 16.6664 15.5794 16.557 15.4696C16.5024 15.4149 16.4487 15.3714 16.3984 15.3444C16.3495 15.3181 16.2946 15.3028 16.2438 15.3212L16.278 15.4152ZM15.5976 15.3632C15.6939 15.3867 15.8161 15.4165 15.9363 15.4322C16.055 15.4478 16.1796 15.451 16.278 15.4152L16.2438 15.3212C16.1691 15.3484 16.0647 15.3482 15.9493 15.3331C15.8354 15.3181 15.7184 15.2897 15.6212 15.2661L15.5976 15.3632ZM15.4276 15.3285C15.4386 15.3285 15.4587 15.3314 15.4898 15.338C15.5199 15.3443 15.5561 15.3531 15.5976 15.3632L15.6212 15.2661C15.5802 15.2561 15.5423 15.2468 15.5104 15.2401C15.4796 15.2337 15.4502 15.2285 15.4276 15.2285V15.3285ZM15.3892 15.1944C15.3816 15.2025 15.3733 15.2114 15.3669 15.2193C15.3622 15.2251 15.3508 15.2391 15.3474 15.2569C15.3452 15.2683 15.3457 15.2836 15.3549 15.2983C15.3634 15.3119 15.3755 15.3186 15.3836 15.3219C15.3983 15.3279 15.4151 15.3285 15.4276 15.3285V15.2285C15.4228 15.2285 15.4198 15.2283 15.4182 15.2281C15.4163 15.2279 15.4179 15.2279 15.4212 15.2292C15.4244 15.2305 15.4331 15.2347 15.4397 15.2453C15.447 15.2569 15.447 15.2686 15.4456 15.2759C15.445 15.2792 15.444 15.2816 15.4435 15.2829C15.4429 15.2843 15.4424 15.2851 15.4423 15.2852C15.4422 15.2854 15.4428 15.2845 15.4446 15.2823C15.4484 15.2776 15.4539 15.2716 15.4624 15.2625L15.3892 15.1944ZM15.4895 14.9896C15.4895 15.0846 15.4316 15.1488 15.3892 15.1944L15.4624 15.2625C15.5038 15.218 15.5895 15.1277 15.5895 14.9896H15.4895ZM15.2706 14.8049C15.3296 14.8049 15.3847 14.8124 15.4241 14.8374C15.4589 14.8595 15.4895 14.9005 15.4895 14.9896H15.5895C15.5895 14.8731 15.5467 14.7968 15.4776 14.7529C15.4131 14.712 15.3337 14.7049 15.2706 14.7049V14.8049ZM15.1332 14.9896C15.1332 14.9483 15.1468 14.8996 15.1723 14.8625C15.1972 14.8262 15.2301 14.8049 15.2706 14.8049V14.7049C15.1888 14.7049 15.1281 14.7501 15.0898 14.8059C15.0522 14.8607 15.0332 14.9294 15.0332 14.9896H15.1332ZM15.1752 15.1952C15.2127 15.1621 15.2127 15.1621 15.2127 15.1621C15.2127 15.1621 15.2127 15.1621 15.2127 15.1621C15.2127 15.1621 15.2127 15.1622 15.2127 15.1622C15.2127 15.1622 15.2127 15.1622 15.2127 15.1622C15.2127 15.1622 15.2127 15.1621 15.2127 15.1621C15.2126 15.162 15.2124 15.1618 15.2122 15.1615C15.2117 15.1609 15.2109 15.16 15.2098 15.1587C15.2077 15.1561 15.2045 15.1522 15.2006 15.1471C15.1929 15.1369 15.1825 15.1223 15.1722 15.105C15.1507 15.0688 15.1332 15.0269 15.1332 14.9896H15.0332C15.0332 15.0539 15.0617 15.1148 15.0862 15.1561C15.0989 15.1774 15.1116 15.1952 15.121 15.2077C15.1258 15.2139 15.1298 15.2189 15.1327 15.2224C15.1342 15.2242 15.1354 15.2256 15.1362 15.2266C15.1366 15.2271 15.137 15.2275 15.1373 15.2278C15.1374 15.2279 15.1375 15.2281 15.1376 15.2281C15.1376 15.2282 15.1377 15.2282 15.1377 15.2283C15.1377 15.2283 15.1377 15.2283 15.1377 15.2283C15.1377 15.2283 15.1378 15.2283 15.1378 15.2284C15.1378 15.2284 15.1378 15.2284 15.1752 15.1952ZM14.9049 15.2408C15.0584 15.2435 15.1555 15.2452 15.1752 15.2452V15.1452C15.1567 15.1452 15.0611 15.1436 14.9067 15.1408L14.9049 15.2408ZM10.0228 15.2446C10.1449 15.2249 10.4475 15.2132 10.8535 15.2076C11.2576 15.202 11.7597 15.2024 12.2772 15.2058C13.3122 15.2127 14.4081 15.2321 14.9049 15.2408L14.9067 15.1408C14.4099 15.1321 13.3135 15.1127 12.2779 15.1058C11.7601 15.1024 11.2573 15.102 10.8521 15.1076C10.4489 15.1132 10.1378 15.1247 10.0069 15.1459L10.0228 15.2446ZM15.2192 16.6244C15.1298 16.7712 15.0666 16.8584 15.0263 16.9084C15.0062 16.9333 14.9919 16.9489 14.9831 16.9578C14.9788 16.9623 14.9757 16.9652 14.974 16.9667C14.9732 16.9675 14.9726 16.968 14.9723 16.9683C14.972 16.9685 14.9721 16.9684 14.9717 16.9687C14.9717 16.9688 14.9712 16.9692 14.9707 16.9696C14.9705 16.9698 14.9696 16.9706 14.9685 16.9717C14.9682 16.972 14.9664 16.9738 14.9645 16.9763C14.9633 16.9778 14.9603 16.9825 14.9587 16.9857C14.9558 16.9933 14.9557 17.0203 14.9643 17.0374L15.0436 16.9765C15.0521 16.9936 15.052 17.0206 15.0492 17.0282C15.0476 17.0314 15.0446 17.0361 15.0434 17.0377C15.0415 17.0401 15.0397 17.0419 15.0394 17.0422C15.0383 17.0433 15.0374 17.0441 15.0373 17.0442C15.037 17.0445 15.0368 17.0446 15.0367 17.0447C15.0367 17.0447 15.0367 17.0448 15.0366 17.0448C15.0366 17.0448 15.0366 17.0448 15.0366 17.0448C15.0365 17.0449 15.0371 17.0444 15.0374 17.0441C15.0383 17.0434 15.0395 17.0423 15.0412 17.0408C15.0444 17.0379 15.0488 17.0337 15.0545 17.0279C15.0659 17.0163 15.0823 16.9983 15.1042 16.9711C15.1478 16.917 15.2136 16.826 15.3046 16.6764L15.2192 16.6244ZM15.6471 16.5086C15.6295 16.4824 15.6085 16.4509 15.5843 16.4267C15.5596 16.402 15.5252 16.3785 15.4799 16.3795C15.4359 16.3805 15.3946 16.4044 15.3547 16.4429C15.3144 16.4818 15.27 16.5409 15.2192 16.6244L15.3046 16.6764C15.3536 16.596 15.3928 16.5451 15.4242 16.5149C15.456 16.4841 15.4744 16.4796 15.4821 16.4795C15.4886 16.4793 15.4982 16.482 15.5136 16.4975C15.5296 16.5134 15.545 16.536 15.5642 16.5645L15.6471 16.5086ZM15.7399 16.6004C15.7295 16.6004 15.7174 16.5957 15.7006 16.5791C15.6832 16.5618 15.6668 16.5379 15.6471 16.5086L15.5642 16.5645C15.5824 16.5916 15.6044 16.6245 15.6302 16.6501C15.6567 16.6764 15.6927 16.7004 15.7399 16.7004V16.6004ZM16.3159 16.782C16.1532 16.5978 15.9047 16.6004 15.7399 16.6004V16.7004C15.9138 16.7004 16.1127 16.7031 16.241 16.8482L16.3159 16.782ZM15.9888 17.256C16.0093 17.256 16.0315 17.2504 16.0521 17.2431C16.0735 17.2355 16.0967 17.2247 16.1201 17.2118C16.1668 17.1861 16.2173 17.15 16.2601 17.1079C16.3022 17.0664 16.3404 17.0154 16.3564 16.9593C16.3734 16.9 16.3645 16.837 16.3159 16.782L16.241 16.8482C16.2651 16.8754 16.2687 16.9024 16.2603 16.9319C16.251 16.9645 16.2261 17.001 16.1899 17.0366C16.1543 17.0717 16.1113 17.1025 16.0718 17.1243C16.0521 17.1352 16.0339 17.1434 16.0187 17.1488C16.0026 17.1545 15.9928 17.156 15.9888 17.156V17.256ZM15.8305 17.1578C15.8479 17.1774 15.869 17.2015 15.893 17.2201C15.9178 17.2393 15.9495 17.256 15.9888 17.256V17.156C15.9794 17.156 15.9688 17.1524 15.9543 17.1411C15.939 17.1293 15.9241 17.1127 15.9052 17.0914L15.8305 17.1578ZM15.7428 17.0914C15.7536 17.0914 15.7651 17.0955 15.7801 17.107C15.796 17.1193 15.8113 17.1363 15.8305 17.1578L15.9052 17.0914C15.8875 17.0715 15.8659 17.0469 15.8412 17.0279C15.8157 17.0082 15.7831 16.9914 15.7428 16.9914V17.0914ZM15.6287 17.1795C15.6498 17.1553 15.6698 17.1324 15.6911 17.1152C15.7125 17.098 15.7292 17.0914 15.7428 17.0914V16.9914C15.6963 16.9914 15.6576 17.0138 15.6283 17.0374C15.599 17.0611 15.5732 17.0909 15.5532 17.1138L15.6287 17.1795ZM15.5201 17.256C15.5366 17.256 15.5503 17.2502 15.5601 17.2447C15.5699 17.2391 15.5786 17.232 15.5859 17.2253C15.6003 17.2122 15.6152 17.1949 15.6287 17.1795L15.5532 17.1138C15.5386 17.1307 15.5277 17.143 15.5184 17.1515C15.5139 17.1556 15.5114 17.1573 15.5106 17.1578C15.5096 17.1584 15.5132 17.156 15.5201 17.156V17.256ZM15.388 17.181C15.4115 17.1989 15.4342 17.2162 15.4531 17.2288C15.4626 17.2352 15.4724 17.2413 15.4819 17.2459C15.49 17.2499 15.504 17.256 15.5201 17.256V17.156C15.5278 17.156 15.5309 17.1586 15.5259 17.1561C15.5222 17.1543 15.5166 17.151 15.5087 17.1457C15.4929 17.1351 15.473 17.12 15.4485 17.1014L15.388 17.181ZM15.1037 17.0297C15.1412 17.0297 15.1883 17.0477 15.2412 17.0786C15.293 17.1088 15.3436 17.1472 15.388 17.181L15.4485 17.1014C15.405 17.0683 15.3495 17.026 15.2916 16.9922C15.2348 16.959 15.1686 16.9297 15.1037 16.9297V17.0297ZM14.9643 17.0375C14.9747 17.0475 14.9957 17.0563 15.0041 17.057C15.0086 17.0568 15.0156 17.0556 15.0182 17.0549C15.0224 17.0536 15.0256 17.0521 15.0263 17.0517C15.0284 17.0507 15.03 17.0497 15.0302 17.0495C15.0312 17.0489 15.0319 17.0484 15.032 17.0483C15.0322 17.0482 15.0324 17.0481 15.0325 17.048C15.0326 17.048 15.0327 17.0479 15.0327 17.0479C15.0329 17.0477 15.0331 17.0476 15.0333 17.0475C15.0337 17.0472 15.0345 17.0467 15.0358 17.0459C15.0383 17.0445 15.0426 17.0422 15.0486 17.0397C15.0605 17.035 15.0791 17.0297 15.1037 17.0297V16.9297C15.0645 16.9297 15.0332 16.9381 15.0112 16.947C15.0002 16.9514 14.9916 16.956 14.9854 16.9596C14.9822 16.9614 14.9798 16.963 14.978 16.9642C14.9771 16.9648 14.9764 16.9653 14.976 16.9655C14.9757 16.9657 14.9759 16.9656 14.9761 16.9655C14.9761 16.9655 14.9768 16.965 14.9777 16.9644C14.9779 16.9643 14.9795 16.9633 14.9816 16.9622C14.9823 16.9619 14.9854 16.9603 14.9897 16.959C14.9922 16.9584 14.9993 16.9572 15.0038 16.957C15.0122 16.9577 15.0332 16.9664 15.0436 16.9765L14.9643 17.0375Z" fill="white"/>
<path d="M18.8544 4.54785C18.8544 4.54785 20.0146 11.5001 18.8544 11.5001C17.6943 11.5001 17.6943 10.8937 17.6943 10.8937C17.6943 10.8937 18.9683 11.6749 18.616 9.6321C18.2637 7.58932 17.9349 8.99565 17.9349 7.19926C17.9349 5.40286 17.6943 4.19773 17.6943 5.11632C17.6943 6.03491 17.5346 11.5837 16.9052 10.4486C16.2759 9.31356 16.4288 5.79857 16.4288 5.45745" stroke="white" stroke-width="0.5"/>
</g>
<rect width="23" height="23" rx="11.5" fill="url(#paint0_linear_2754_3606)" style="mix-blend-mode:overlay"/>
<rect x="0.5" y="0.5" width="22" height="22" rx="11" stroke="black" stroke-opacity="0.1"/>
<defs>
<linearGradient id="paint0_linear_2754_3606" x1="11.5" y1="0" x2="11.5" y2="23" gradientUnits="userSpaceOnUse">
<stop stop-color="white" stop-opacity="0.7"/>
<stop offset="1" stop-opacity="0.3"/>
</linearGradient>
</defs>
</svg>
