<svg width="23" height="23" viewBox="0 0 23 23" fill="none" xmlns="http://www.w3.org/2000/svg">
<mask id="mask0_2754_3786" style="mask-type:alpha" maskUnits="userSpaceOnUse" x="0" y="0" width="23" height="23">
<rect width="23" height="23" fill="white"/>
</mask>
<g mask="url(#mask0_2754_3786)">
<path fill-rule="evenodd" clip-rule="evenodd" d="M0 0H23V23H0V0Z" fill="#F5FBFF"/>
<path fill-rule="evenodd" clip-rule="evenodd" d="M6.47004 13.2927L5.12549 14.375L5.43218 12.2631L4.3125 10.6825L5.82861 10.597L6.47004 8.625L7.11147 10.597H8.625L7.5079 12.2631L7.84422 14.375L6.47004 13.2927Z" fill="#3E8F00"/>
<path fill-rule="evenodd" clip-rule="evenodd" d="M16.5325 13.2927L15.188 14.375L15.4947 12.2631L14.375 10.6825L15.8911 10.597L16.5325 8.625L17.174 10.597H18.6875L17.5704 12.2631L17.9067 14.375L16.5325 13.2927Z" fill="#3E8F00"/>
<path fill-rule="evenodd" clip-rule="evenodd" d="M0 0V7.66667H23V0H0Z" fill="#E31C1C"/>
<path fill-rule="evenodd" clip-rule="evenodd" d="M0 15.3335V23.0002H23V15.3335H0Z" fill="#262626"/>
</g>
<rect width="23" height="23" rx="11.5" fill="url(#paint0_linear_2754_3786)" style="mix-blend-mode:overlay"/>
<rect x="0.5" y="0.5" width="22" height="22" rx="11" stroke="black" stroke-opacity="0.1"/>
<defs>
<linearGradient id="paint0_linear_2754_3786" x1="11.5" y1="0" x2="11.5" y2="23" gradientUnits="userSpaceOnUse">
<stop stop-color="white" stop-opacity="0.7"/>
<stop offset="1" stop-opacity="0.3"/>
</linearGradient>
</defs>
</svg>
