<svg width="23" height="23" viewBox="0 0 23 23" fill="none" xmlns="http://www.w3.org/2000/svg">
<mask id="mask0_2754_3801" style="mask-type:alpha" maskUnits="userSpaceOnUse" x="0" y="0" width="23" height="23">
<rect width="23" height="23" fill="white"/>
</mask>
<g mask="url(#mask0_2754_3801)">
<path fill-rule="evenodd" clip-rule="evenodd" d="M0 0H23V23H0V0Z" fill="#3D58DB"/>
<path d="M0 5.25H-0.5V5.75V17.25V17.75H0H23H23.5V17.25V5.75V5.25H23H0Z" fill="#C51918" stroke="#FFD018"/>
<path d="M5.13853 8.94226C5.05231 8.94226 4.98242 8.68236 4.98242 8.36176C4.98242 8.04115 5.05231 7.78125 5.13853 7.78125H17.6525C17.7387 7.78125 17.8086 8.04115 17.8086 8.36176C17.8086 8.68236 17.7387 8.94226 17.6525 8.94226H5.13853Z" fill="#FFD018"/>
<path fill-rule="evenodd" clip-rule="evenodd" d="M17.3184 8.24386L18.0451 7.00781L19.3309 8.24386L18.0451 9.51242L17.3184 8.24386Z" fill="#F7FCFF"/>
<path d="M5.13853 12.7758C5.05231 12.7758 4.98242 12.5159 4.98242 12.1953C4.98242 11.8746 5.05231 11.6147 5.13853 11.6147H17.6525C17.7387 11.6147 17.8086 11.8746 17.8086 12.1953C17.8086 12.5159 17.7387 12.7758 17.6525 12.7758H5.13853Z" fill="#FFD018"/>
<path fill-rule="evenodd" clip-rule="evenodd" d="M17.3184 12.0774L18.0451 10.8413L19.3309 12.0774L18.0451 13.3459L17.3184 12.0774Z" fill="#F7FCFF"/>
<path d="M3.12331 15.1625C3.00771 15.1625 2.914 14.8674 2.914 14.5034C2.914 14.1393 3.00771 13.8442 3.12331 13.8442H19.9019C20.0175 13.8442 20.1113 14.1393 20.1113 14.5034C20.1113 14.8674 20.0175 15.1625 19.9019 15.1625H3.12331Z" fill="#FFD018"/>
<path fill-rule="evenodd" clip-rule="evenodd" d="M6.33746 11.5507C6.33746 11.5507 8.37968 5.81982 11.3006 5.81982C14.2216 5.81982 16.3325 11.5507 16.3325 11.5507C16.3325 11.5507 13.7549 17.2062 11.335 17.2062C8.91501 17.2062 6.33746 11.5507 6.33746 11.5507Z" fill="#F7FCFF"/>
<mask id="mask1_2754_3801" style="mask-type:alpha" maskUnits="userSpaceOnUse" x="6" y="5" width="11" height="13">
<path fill-rule="evenodd" clip-rule="evenodd" d="M6.33746 11.5507C6.33746 11.5507 8.37968 5.81982 11.3006 5.81982C14.2216 5.81982 16.3325 11.5507 16.3325 11.5507C16.3325 11.5507 13.7549 17.2062 11.335 17.2062C8.91501 17.2062 6.33746 11.5507 6.33746 11.5507Z" fill="white"/>
</mask>
<g mask="url(#mask1_2754_3801)">
<path fill-rule="evenodd" clip-rule="evenodd" d="M11.4456 5.44336C11.4456 5.44336 10.7791 6.52264 11.0013 7.55181C11.2235 8.58098 11.7411 8.47227 11.7411 9.37863C11.7411 10.285 11.502 11.2093 11.7411 11.2093C11.9802 11.2093 12.063 11.8348 11.8445 12.2588C11.626 12.6828 11.4327 12.6959 11.4456 13.386C11.4586 14.0761 12.5899 14.7536 12.0419 14.7536C11.4938 14.7536 10.7715 15.4628 11.0013 15.4628C11.2311 15.4628 12.4335 16.0154 12.4335 16.7406C12.4335 17.4659 12.4335 18.0462 12.4335 18.0462H6.16064V5.44336H11.4456Z" fill="#272727"/>
<path fill-rule="evenodd" clip-rule="evenodd" d="M8.49496 9.50977H8.18274V11.2053H8.49496V9.50977ZM9.416 9.50977H9.10378V11.2053H9.416V9.50977ZM8.64326 9.50977H8.95548V11.2053H8.64326V9.50977ZM9.87652 9.50977H9.5643V11.2053H9.87652V9.50977ZM10.0248 9.50977H10.337V11.2053H10.0248V9.50977ZM10.7976 9.50977H10.4853V11.2053H10.7976V9.50977ZM8.18274 11.9425H8.49496V13.638H8.18274V11.9425ZM9.416 11.9425H9.10378V13.638H9.416V11.9425ZM8.64326 11.9425H8.95548V13.638H8.64326V11.9425ZM9.87652 11.9425H9.5643V13.638H9.87652V11.9425ZM10.0248 11.9425H10.337V13.638H10.0248V11.9425ZM10.7976 11.9425H10.4853V13.638H10.7976V11.9425Z" fill="#F7FCFF"/>
<path fill-rule="evenodd" clip-rule="evenodd" d="M12.2025 9.50977H11.8903V11.2053H12.2025V9.50977ZM13.1236 9.50977H12.8114V11.2053H13.1236V9.50977ZM12.3508 9.50977H12.6631V11.2053H12.3508V9.50977ZM13.5841 9.50977H13.2719V11.2053H13.5841V9.50977ZM13.7324 9.50977H14.0446V11.2053H13.7324V9.50977ZM14.5051 9.50977H14.1929V11.2053H14.5051V9.50977ZM11.8903 11.9425H12.2025V13.638H11.8903V11.9425ZM13.1236 11.9425H12.8114V13.638H13.1236V11.9425ZM12.3508 11.9425H12.6631V13.638H12.3508V11.9425ZM13.5841 11.9425H13.2719V13.638H13.5841V11.9425ZM13.7324 11.9425H14.0446V13.638H13.7324V11.9425ZM14.5051 11.9425H14.1929V13.638H14.5051V11.9425Z" fill="#272727"/>
<path fill-rule="evenodd" clip-rule="evenodd" d="M9.51022 6.77713C9.07286 6.9578 8.87272 8.48712 8.9216 8.85678C8.97049 9.22643 9.11888 8.8104 9.11888 8.8104C9.11888 8.8104 9.42151 9.68737 9.45271 9.92331C9.48391 10.1593 9.64328 9.56666 9.64328 9.56666C9.64328 9.56666 10.1682 10.0488 10.2392 10.5861C10.3103 11.1233 10.4172 9.97128 10.4172 9.97128L10.5361 9.94332L10.4608 9.37445L10.6876 9.63299L10.6176 9.10396C10.6176 9.10396 10.7884 9.40153 10.7451 9.07399C10.7018 8.74645 10.6776 8.56359 10.6776 8.56359L10.6184 8.11589L10.8428 8.06313C10.8428 8.06313 9.94758 6.59646 9.51022 6.77713Z" fill="#3D58DB"/>
</g>
<path fill-rule="evenodd" clip-rule="evenodd" d="M18.751 13.1255C18.2967 13.2021 17.9005 14.6619 17.9005 15.0372C17.9005 15.4126 18.1008 15.0372 18.1008 15.0372C18.1008 15.0372 18.2846 15.971 18.2846 16.2105C18.2846 16.4501 18.5187 15.9034 18.5187 15.9034C18.5187 15.9034 18.9729 16.4998 18.9729 17.0453C18.9729 17.5909 19.2281 16.4811 19.2281 16.4811H19.3489V15.9034L19.5385 16.2105V15.6733C19.5385 15.6733 19.668 16.0059 19.668 15.6733C19.668 15.3408 19.668 15.1551 19.668 15.1551V14.7005H19.8959C19.8959 14.7005 19.2052 13.0488 18.751 13.1255Z" fill="#3D58DB"/>
<path fill-rule="evenodd" clip-rule="evenodd" d="M4.0199 12.9043C4.47415 12.9809 4.87042 14.4407 4.87042 14.8161C4.87042 15.1914 4.6701 14.8161 4.6701 14.8161C4.6701 14.8161 4.48629 15.7498 4.48629 15.9893C4.48629 16.2289 4.25216 15.6822 4.25216 15.6822C4.25216 15.6822 3.79801 16.2786 3.79801 16.8241C3.79801 17.3697 3.54274 16.2599 3.54274 16.2599H3.422V15.6822L3.23235 15.9893V15.4522C3.23235 15.4522 3.10292 15.7848 3.10292 15.4522C3.10292 15.1196 3.10292 14.9339 3.10292 14.9339V14.4793H2.87501C2.87501 14.4793 3.56566 12.8276 4.0199 12.9043Z" fill="#3D58DB"/>
</g>
<rect width="23" height="23" rx="11.5" fill="url(#paint0_linear_2754_3801)" style="mix-blend-mode:overlay"/>
<rect x="0.5" y="0.5" width="22" height="22" rx="11" stroke="black" stroke-opacity="0.1"/>
<defs>
<linearGradient id="paint0_linear_2754_3801" x1="11.5" y1="0" x2="11.5" y2="23" gradientUnits="userSpaceOnUse">
<stop stop-color="white" stop-opacity="0.7"/>
<stop offset="1" stop-opacity="0.3"/>
</linearGradient>
</defs>
</svg>
