<svg width="23" height="23" viewBox="0 0 23 23" fill="none" xmlns="http://www.w3.org/2000/svg">
<mask id="mask0_2757_5721" style="mask-type:alpha" maskUnits="userSpaceOnUse" x="0" y="0" width="23" height="23">
<rect width="23" height="23" fill="white"/>
</mask>
<g mask="url(#mask0_2757_5721)">
<path fill-rule="evenodd" clip-rule="evenodd" d="M0 0V23H23V0H0Z" fill="#29C470"/>
<mask id="mask1_2757_5721" style="mask-type:alpha" maskUnits="userSpaceOnUse" x="0" y="0" width="23" height="23">
<path fill-rule="evenodd" clip-rule="evenodd" d="M0 0V23H23V0H0Z" fill="white"/>
</mask>
<g mask="url(#mask1_2757_5721)">
<rect x="1.4375" y="-0.30957" width="7.1875" height="25.2261" fill="#C51918"/>
<mask id="mask2_2757_5721" style="mask-type:alpha" maskUnits="userSpaceOnUse" x="1" y="-1" width="8" height="26">
<rect x="1.4375" y="-0.30957" width="7.1875" height="25.2261" fill="white"/>
</mask>
<g mask="url(#mask2_2757_5721)">
<path fill-rule="evenodd" clip-rule="evenodd" d="M1.86541 0.867566L1.47291 1.54005L1.4375 1.49337L1.81831 0.840919V0.709948L1.81974 0.697781L1.86402 0.516001L1.83692 0.452677L1.61235 0.752073L2.04524 -0.146853V0.160316L2.12832 0.260298L2.32675 -0.202445L2.12765 -0.647799L1.98396 -0.500562L2.04223 -0.344481L2.00216 -0.307385L1.67778 -1.03095L1.88444 -0.842539L1.92084 -0.912922L1.72281 -1.18188L1.81041 -1.31049L1.52097 -1.87372L1.55825 -1.91699L1.87331 -1.30389L1.79158 -1.18389L1.98487 -0.921372L1.89588 -0.749314L1.83661 -0.803349L1.94969 -0.55112L2.1403 -0.746436L2.38313 -0.203256L2.13963 0.364598L1.99814 0.194317V0.0716934L1.8561 0.366634L1.9163 0.507298L1.86541 0.716222V0.867566ZM1.47291 6.35365L1.86541 5.68117V5.52983L1.9163 5.32091L1.8561 5.18024L1.99814 4.8853V5.00792L2.13963 5.1782L2.38313 4.61035L2.1403 4.06717L1.94969 4.26249L1.83661 4.01026L1.89588 4.06429L1.98487 3.89223L1.79158 3.62972L1.87331 3.50971L1.55825 2.89661L1.52097 2.93988L1.81041 3.50311L1.72281 3.63173L1.92084 3.90068L1.88444 3.97107L1.67778 3.78266L2.00216 4.50622L2.04223 4.46913L1.98396 4.31304L2.12765 4.16581L2.32675 4.61116L2.12832 5.0739L2.04524 4.97392V4.66675L1.61235 5.56568L1.83692 5.26628L1.86402 5.32961L1.81974 5.51139L1.81831 5.52355V5.65453L1.4375 6.30697L1.47291 6.35365ZM1.86541 10.07L1.47291 10.7425L1.4375 10.6958L1.81831 10.0434V9.91243L1.81974 9.90026L1.86402 9.71848L1.83692 9.65516L1.61235 9.95456L2.04524 9.05563V9.3628L2.12832 9.46278L2.32675 9.00004L2.12765 8.55468L1.98396 8.70192L2.04223 8.858L2.00216 8.8951L1.67778 8.17154L1.88444 8.35994L1.92084 8.28956L1.72281 8.02061L1.81041 7.89199L1.52097 7.32876L1.55825 7.28549L1.87331 7.89859L1.79158 8.01859L1.98487 8.28111L1.89588 8.45317L1.83661 8.39913L1.94969 8.65136L2.1403 8.45605L2.38313 8.99923L2.13963 9.56708L1.99814 9.3968V9.27418L1.8561 9.56912L1.9163 9.70978L1.86541 9.9187V10.07ZM1.47291 15.2022L1.86541 14.5297V14.3784L1.9163 14.1694L1.8561 14.0288L1.99814 13.7338V13.8565L2.13963 14.0267L2.38313 13.4589L2.1403 12.9157L1.94969 13.111L1.83661 12.8588L1.89588 12.9128L1.98487 12.7408L1.79158 12.4783L1.87331 12.3583L1.55825 11.7452L1.52097 11.7884L1.81041 12.3517L1.72281 12.4803L1.92084 12.7492L1.88444 12.8196L1.67778 12.6312L2.00216 13.3548L2.04223 13.3177L1.98396 13.1616L2.12765 13.0143L2.32675 13.4597L2.12832 13.9224L2.04524 13.8225V13.5153L1.61235 14.4142L1.83692 14.1148L1.86402 14.1782L1.81974 14.3599L1.81831 14.3721V14.5031L1.4375 15.1555L1.47291 15.2022ZM1.47291 19.1663L1.86541 18.4939V18.3425L1.9163 18.1336L1.8561 17.9929L1.99814 17.698V17.8206L2.13963 17.9909L2.38313 17.423L2.1403 16.8799L1.94969 17.0752L1.83661 16.8229L1.89588 16.877L1.98487 16.7049L1.79158 16.4424L1.87331 16.3224L1.55825 15.7093L1.52097 15.7526L1.81041 16.3158L1.72281 16.4444L1.92084 16.7134L1.88444 16.7838L1.67778 16.5954L2.00216 17.3189L2.04223 17.2818L1.98396 17.1257L2.12765 16.9785L2.32675 17.4239L2.12832 17.8866L2.04524 17.7866V17.4794L1.61235 18.3784L1.83692 18.079L1.86402 18.1423L1.81974 18.3241L1.81831 18.3362V18.4672L1.4375 19.1197L1.47291 19.1663ZM8.58959 19.1663L8.19709 18.4939V18.3425L8.1462 18.1336L8.2064 17.9929L8.06436 17.698V17.8206L7.92287 17.9909L7.67937 17.423L7.9222 16.8799L8.11281 17.0752L8.22589 16.8229L8.16662 16.877L8.07763 16.7049L8.27092 16.4424L8.18919 16.3224L8.50425 15.7093L8.54153 15.7526L8.25209 16.3158L8.33969 16.4444L8.14166 16.7134L8.17806 16.7838L8.38472 16.5954L8.06034 17.3189L8.02027 17.2818L8.07854 17.1257L7.93485 16.9785L7.73575 17.4239L7.93418 17.8866L8.01726 17.7866V17.4794L8.45015 18.3784L8.22558 18.079L8.19848 18.1423L8.24276 18.3241L8.24419 18.3362V18.4672L8.625 19.1197L8.58959 19.1663ZM8.19709 14.5297L8.58959 15.2022L8.625 15.1555L8.24419 14.5031V14.3721L8.24276 14.3599L8.19848 14.1782L8.22558 14.1148L8.45015 14.4142L8.01726 13.5153V13.8225L7.93418 13.9224L7.73575 13.4597L7.93485 13.0143L8.07854 13.1616L8.02027 13.3177L8.06034 13.3548L8.38472 12.6312L8.17806 12.8196L8.14166 12.7492L8.33969 12.4803L8.25209 12.3517L8.54153 11.7884L8.50425 11.7452L8.18919 12.3583L8.27092 12.4783L8.07763 12.7408L8.16662 12.9128L8.22589 12.8588L8.11281 13.111L7.9222 12.9157L7.67937 13.4589L7.92287 14.0267L8.06436 13.8565V13.7338L8.2064 14.0288L8.1462 14.1694L8.19709 14.3784V14.5297ZM8.58959 10.7425L8.19709 10.07V9.9187L8.1462 9.70978L8.2064 9.56912L8.06436 9.27418V9.3968L7.92287 9.56708L7.67937 8.99923L7.9222 8.45605L8.11281 8.65136L8.22589 8.39913L8.16662 8.45317L8.07763 8.28111L8.27092 8.01859L8.18919 7.89859L8.50425 7.28549L8.54153 7.32876L8.25209 7.89199L8.33969 8.02061L8.14166 8.28956L8.17806 8.35994L8.38472 8.17154L8.06034 8.8951L8.02027 8.858L8.07854 8.70192L7.93485 8.55468L7.73575 9.00004L7.93418 9.46278L8.01726 9.3628V9.05563L8.45015 9.95456L8.22558 9.65516L8.19848 9.71848L8.24276 9.90026L8.24419 9.91243V10.0434L8.625 10.6958L8.58959 10.7425ZM8.19709 5.68117L8.58959 6.35365L8.625 6.30697L8.24419 5.65453V5.52355L8.24276 5.51139L8.19848 5.32961L8.22558 5.26628L8.45015 5.56568L8.01726 4.66675V4.97392L7.93418 5.0739L7.73575 4.61116L7.93485 4.16581L8.07854 4.31304L8.02027 4.46913L8.06034 4.50622L8.38472 3.78266L8.17806 3.97107L8.14166 3.90068L8.33969 3.63173L8.25209 3.50311L8.54153 2.93988L8.50425 2.89661L8.18919 3.50971L8.27092 3.62972L8.07763 3.89223L8.16662 4.06429L8.22589 4.01026L8.11281 4.26249L7.9222 4.06717L7.67937 4.61035L7.92287 5.1782L8.06436 5.00792V4.8853L8.2064 5.18024L8.1462 5.32091L8.19709 5.52983V5.68117ZM8.58959 1.54005L8.19709 0.867566V0.716222L8.1462 0.507298L8.2064 0.366634L8.06436 0.0716934V0.194317L7.92287 0.364598L7.67937 -0.203256L7.9222 -0.746436L8.11281 -0.55112L8.22589 -0.803349L8.16662 -0.749314L8.07763 -0.921372L8.27092 -1.18389L8.18919 -1.30389L8.50425 -1.91699L8.54153 -1.87372L8.25209 -1.31049L8.33969 -1.18188L8.14166 -0.912922L8.17806 -0.842539L8.38472 -1.03095L8.06034 -0.307385L8.02027 -0.344481L8.07854 -0.500562L7.93485 -0.647799L7.73575 -0.202445L7.93418 0.260298L8.01726 0.160316V-0.146853L8.45015 0.752073L8.22558 0.452677L8.19848 0.516001L8.24276 0.697781L8.24419 0.709948V0.840919L8.625 1.49337L8.58959 1.54005Z" fill="#E8AA00"/>
<path fill-rule="evenodd" clip-rule="evenodd" d="M5.25168 13.9577H6.36826V14.3071H6.62268V14.5866H6.92799V15.495H6.62268V15.7745H6.36826V16.0541H5.28147L4.9808 16.4103L4.6787 16.0541H3.67136V15.7745H3.41693V15.495H3.16251V14.5866H3.41693V14.3071H3.67136V13.9577H4.70864L4.9808 13.6367L5.25168 13.9577Z" fill="#389F5D"/>
<path d="M6.36826 13.9577H6.44326V13.8827H6.36826V13.9577ZM5.25168 13.9577L5.19436 14.0061L5.21683 14.0327H5.25168V13.9577ZM6.36826 14.3071H6.29326V14.3821H6.36826V14.3071ZM6.62268 14.3071H6.69768V14.2321H6.62268V14.3071ZM6.62268 14.5866H6.54768V14.6616H6.62268V14.5866ZM6.92799 14.5866H7.00299V14.5116H6.92799V14.5866ZM6.92799 15.495V15.57H7.00299V15.495H6.92799ZM6.62268 15.495V15.42H6.54768V15.495H6.62268ZM6.62268 15.7745V15.8495H6.69768V15.7745H6.62268ZM6.36826 15.7745V15.6995H6.29326V15.7745H6.36826ZM6.36826 16.0541V16.1291H6.44326V16.0541H6.36826ZM5.28147 16.0541V15.9791H5.24663L5.22415 16.0057L5.28147 16.0541ZM4.9808 16.4103L4.9236 16.4588L4.98094 16.5265L5.03812 16.4587L4.9808 16.4103ZM4.6787 16.0541L4.73591 16.0055L4.71344 15.9791H4.6787V16.0541ZM3.67136 16.0541H3.59636V16.1291H3.67136V16.0541ZM3.67136 15.7745H3.74636V15.6995H3.67136V15.7745ZM3.41693 15.7745H3.34193V15.8495H3.41693V15.7745ZM3.41693 15.495H3.49193V15.42H3.41693V15.495ZM3.16251 15.495H3.08751V15.57H3.16251V15.495ZM3.16251 14.5866V14.5116H3.08751V14.5866H3.16251ZM3.41693 14.5866V14.6616H3.49193V14.5866H3.41693ZM3.41693 14.3071V14.2321H3.34193V14.3071H3.41693ZM3.67136 14.3071V14.3821H3.74636V14.3071H3.67136ZM3.67136 13.9577V13.8827H3.59636V13.9577H3.67136ZM4.70864 13.9577V14.0327H4.74338L4.76584 14.0062L4.70864 13.9577ZM4.9808 13.6367L5.03812 13.5883L4.98094 13.5206L4.9236 13.5882L4.9808 13.6367ZM6.36826 13.8827H5.25168V14.0327H6.36826V13.8827ZM6.44326 14.3071V13.9577H6.29326V14.3071H6.44326ZM6.62268 14.2321H6.36826V14.3821H6.62268V14.2321ZM6.69768 14.5866V14.3071H6.54768V14.5866H6.69768ZM6.92799 14.5116H6.62268V14.6616H6.92799V14.5116ZM7.00299 15.495V14.5866H6.85299V15.495H7.00299ZM6.62268 15.57H6.92799V15.42H6.62268V15.57ZM6.69768 15.7745V15.495H6.54768V15.7745H6.69768ZM6.36826 15.8495H6.62268V15.6995H6.36826V15.8495ZM6.44326 16.0541V15.7745H6.29326V16.0541H6.44326ZM5.28147 16.1291H6.36826V15.9791H5.28147V16.1291ZM5.03812 16.4587L5.33879 16.1024L5.22415 16.0057L4.92349 16.362L5.03812 16.4587ZM4.6215 16.1026L4.9236 16.4588L5.03801 16.3618L4.73591 16.0055L4.6215 16.1026ZM3.67136 16.1291H4.6787V15.9791H3.67136V16.1291ZM3.59636 15.7745V16.0541H3.74636V15.7745H3.59636ZM3.41693 15.8495H3.67136V15.6995H3.41693V15.8495ZM3.34193 15.495V15.7745H3.49193V15.495H3.34193ZM3.16251 15.57H3.41693V15.42H3.16251V15.57ZM3.08751 14.5866V15.495H3.23751V14.5866H3.08751ZM3.41693 14.5116H3.16251V14.6616H3.41693V14.5116ZM3.34193 14.3071V14.5866H3.49193V14.3071H3.34193ZM3.67136 14.2321H3.41693V14.3821H3.67136V14.2321ZM3.59636 13.9577V14.3071H3.74636V13.9577H3.59636ZM4.70864 13.8827H3.67136V14.0327H4.70864V13.8827ZM4.76584 14.0062L5.03801 13.6852L4.9236 13.5882L4.65143 13.9092L4.76584 14.0062ZM4.92349 13.6851L5.19436 14.0061L5.309 13.9093L5.03812 13.5883L4.92349 13.6851Z" fill="#E8AA00"/>
<path fill-rule="evenodd" clip-rule="evenodd" d="M3.82033 14.7657V14.1484H4.3598L3.82033 14.7657ZM6.08989 14.7657V14.1484H5.55042L6.08989 14.7657ZM3.82033 15.8838V15.2665L4.3598 15.8838H3.82033ZM6.08989 15.2665V15.8838H5.55042L6.08989 15.2665Z" fill="#C51918"/>
<path fill-rule="evenodd" clip-rule="evenodd" d="M4.77617 14.2011L4.96239 13.876L5.14627 14.2011H4.77617ZM4.77617 14.5049L4.96239 14.83L5.14627 14.5049H4.77617ZM4.96239 15.2735L4.77617 15.5987H5.14627L4.96239 15.2735ZM4.77617 15.9025L4.96239 16.2276L5.14627 15.9025H4.77617Z" fill="#E8AA00"/>
<path fill-rule="evenodd" clip-rule="evenodd" d="M4.78003 14.1621V14.3019H4.67311V14.4935H4.78003V14.6333H5.15312V14.4935H5.26003V14.3019H5.15312V14.1621H4.78003ZM5.15312 15.6994V15.5597H4.78003V15.6994H4.67311V15.8911H4.78003V16.0309H5.15312V15.8911H5.26003V15.6994H5.15312Z" fill="#AF0100"/>
<path fill-rule="evenodd" clip-rule="evenodd" d="M4.06378 14.9018L4.24104 14.5752L4.41607 14.9018H4.06378ZM4.06378 15.2069L4.24104 15.5335L4.41607 15.2069H4.06378ZM5.7167 14.5752L5.53945 14.9018H5.89173L5.7167 14.5752ZM5.53945 15.2069L5.7167 15.5335L5.89173 15.2069H5.53945Z" fill="#AF0100"/>
<path fill-rule="evenodd" clip-rule="evenodd" d="M4.06249 14.8613V15.0039H3.96072V15.1994H4.06249V15.3419H4.41763V15.1994H4.5194V15.0039H4.41763V14.8613H4.06249ZM5.8933 15.0039V14.8613H5.53816V15.0039H5.43639V15.1994H5.53816V15.3419H5.8933V15.1994H5.99507V15.0039H5.8933Z" fill="#E8AA00"/>
<mask id="mask3_2757_5721" style="mask-type:alpha" maskUnits="userSpaceOnUse" x="3" y="16" width="5" height="5">
<path fill-rule="evenodd" clip-rule="evenodd" d="M4.46848 16.5322L3.19516 17.4895V19.0761L4.46848 20.0721H5.8476L7.1512 19.0761V17.4895L5.8476 16.5322H4.46848Z" fill="white"/>
</mask>
<g mask="url(#mask3_2757_5721)">
<path d="M3.21338 18.3008H5.19789V20.0477H3.21338V18.3008Z" fill="#E8AA00"/>
<rect x="3.00984" y="16.5537" width="2.18805" height="1.74696" fill="#F9E8E7"/>
<path d="M3.51869 17.5719L4.17744 17.043V17.5719H3.51869Z" fill="#E8AA00"/>
<rect width="2.18805" height="1.74696" transform="matrix(-1 0 0 1 7.38594 16.5537)" fill="#E8AA00"/>
<path d="M6.72444 17.5719L6.0657 17.043V17.5719H6.72444Z" fill="#F9E8E7"/>
<rect x="7.1824" y="20.0469" width="1.98451" height="1.74696" transform="rotate(-180 7.1824 20.0469)" fill="#F9E8E7"/>
<path d="M6.67355 19.0287L6.01481 19.5576V19.0287H6.67355Z" fill="#E8AA00"/>
<path d="M3.51869 18.9184L4.17744 19.4473V18.9184H3.51869Z" fill="#FCFCFC"/>
</g>
<path fill-rule="evenodd" clip-rule="evenodd" d="M4.4855 17.6017H4.81626L5.14701 17.4619L5.47776 17.6017H5.80851V18.9294H5.47776L5.14701 19.139L4.81626 18.9294H4.4855V17.6017Z" fill="#C51918"/>
<path fill-rule="evenodd" clip-rule="evenodd" d="M5.60497 16.8066H5.78465V17.077H5.85829V17.2687H5.78465V17.3718H5.60497V16.8066ZM3.80014 17.6452H3.62045V18.2104H3.80014V18.1072H3.87377V17.9156H3.80014V17.6452ZM4.05456 17.6452H3.87488V18.2104H4.05456V17.6452ZM3.80014 18.344H3.62045V18.9092H3.80014V18.806H3.87377V18.6143H3.80014V18.344ZM3.87488 18.344H4.05456V18.9092H3.87488V18.344ZM6.41913 17.6452H6.59881V17.9156H6.67244V18.1072H6.59881V18.2104H6.41913V17.6452ZM6.85324 17.6452H6.67355V18.2104H6.85324V17.6452ZM6.59881 18.344H6.41913V18.9092H6.59881V18.806H6.67244V18.6143H6.59881V18.344ZM6.67355 18.344H6.85324V18.9092H6.67355V18.344ZM6.03908 16.8066H5.85939V17.3718H6.03908V16.8066ZM4.56341 16.8066H4.38373V17.3718H4.56341V17.2687H4.63705V17.077H4.56341V16.8066ZM4.63815 16.8066H4.81784V17.3718H4.63815V16.8066ZM5.60497 19.1825H5.78465V19.4529H5.85829V19.6445H5.78465V19.7477H5.60497V19.1825ZM6.03908 19.1825H5.85939V19.7477H6.03908V19.1825ZM4.56341 19.1825H4.38373V19.7477H4.56341V19.6445H4.63705V19.4529H4.56341V19.1825ZM4.63815 19.1825H4.81784V19.7477H4.63815V19.1825Z" fill="#C9343F"/>
<path fill-rule="evenodd" clip-rule="evenodd" d="M5.0493 17.8882H5.10018V17.6982H4.84594V17.9155H4.63643V18.2268H4.83124V18.157H4.68731V17.9854H4.86011L5.12021 18.2855L4.86011 18.5856H4.68731V18.414H4.83124V18.3441H4.63643V18.6554H4.84594V18.8727H5.10018V18.6827H5.0493V18.8028H4.89683V18.6345L5.16132 18.3293L5.42582 18.6345V18.8028H5.27335V18.6827H5.22247V18.8727H5.47671V18.6554H5.68622V18.3441H5.4914V18.414H5.63533V18.5856H5.46253L5.20244 18.2855L5.46253 17.9854H5.63533V18.157H5.4914V18.2268H5.68622V17.9155H5.47671V17.6982H5.22247V17.8882H5.27335V17.7681H5.42582V17.9365L5.16132 18.2416L4.89683 17.9365V17.7681H5.0493V17.8882Z" fill="white"/>
<path fill-rule="evenodd" clip-rule="evenodd" d="M5.45129 4.59961H4.55519V8.43294H5.45129V4.59961ZM3.43506 5.41051H3.99512V7.47461H3.43506V5.41051ZM6.06736 5.41051H6.62743V7.47461H6.06736V5.41051Z" fill="#E8AA00"/>
<path fill-rule="evenodd" clip-rule="evenodd" d="M4.55519 4.89453H3.99513V7.84325H4.55519V4.89453ZM3.43507 5.70543H2.875V7.10607H3.43507V5.70543ZM6.62744 5.70543H7.1875V7.10607H6.62744V5.70543ZM6.01136 4.89453H5.4513V7.84325H6.01136V4.89453Z" fill="#389F5D"/>
<path fill-rule="evenodd" clip-rule="evenodd" d="M4.44318 5.26315C4.44318 5.38529 4.36796 5.4843 4.27516 5.4843C4.18237 5.4843 4.10714 5.38529 4.10714 5.26315C4.10714 5.14101 4.18237 5.04199 4.27516 5.04199C4.36796 5.04199 4.44318 5.14101 4.44318 5.26315ZM3.32305 6.00033C3.32305 6.12247 3.24783 6.22148 3.15503 6.22148C3.06224 6.22148 2.98701 6.12247 2.98701 6.00033C2.98701 5.87819 3.06224 5.77917 3.15503 5.77917C3.24783 5.77917 3.32305 5.87819 3.32305 6.00033ZM3.32305 6.81122C3.32305 6.93336 3.24783 7.03238 3.15503 7.03238C3.06224 7.03238 2.98701 6.93336 2.98701 6.81122C2.98701 6.68908 3.06224 6.59007 3.15503 6.59007C3.24783 6.59007 3.32305 6.68908 3.32305 6.81122ZM4.27516 7.69584C4.36796 7.69584 4.44318 7.59682 4.44318 7.47468C4.44318 7.35254 4.36796 7.25353 4.27516 7.25353C4.18237 7.25353 4.10714 7.35254 4.10714 7.47468C4.10714 7.59682 4.18237 7.69584 4.27516 7.69584ZM6.90747 6.22148C7.00026 6.22148 7.07549 6.12247 7.07549 6.00033C7.07549 5.87819 7.00026 5.77917 6.90747 5.77917C6.81467 5.77917 6.73945 5.87819 6.73945 6.00033C6.73945 6.12247 6.81467 6.22148 6.90747 6.22148ZM7.07549 6.81122C7.07549 6.93336 7.00026 7.03238 6.90747 7.03238C6.81467 7.03238 6.73945 6.93336 6.73945 6.81122C6.73945 6.68908 6.81467 6.59007 6.90747 6.59007C7.00026 6.59007 7.07549 6.68908 7.07549 6.81122ZM5.73133 7.69584C5.82413 7.69584 5.89935 7.59682 5.89935 7.47468C5.89935 7.35254 5.82413 7.25353 5.73133 7.25353C5.63854 7.25353 5.56331 7.35254 5.56331 7.47468C5.56331 7.59682 5.63854 7.69584 5.73133 7.69584ZM5.89935 5.26315C5.89935 5.38529 5.82413 5.4843 5.73133 5.4843C5.63854 5.4843 5.56331 5.38529 5.56331 5.26315C5.56331 5.14101 5.63854 5.04199 5.73133 5.04199C5.82413 5.04199 5.89935 5.14101 5.89935 5.26315Z" fill="#E1E5E8"/>
<path fill-rule="evenodd" clip-rule="evenodd" d="M5.17126 4.96822C5.17126 5.09036 5.09604 5.18938 5.00324 5.18938C4.91045 5.18938 4.83522 5.09036 4.83522 4.96822C4.83522 4.84608 4.91045 4.74707 5.00324 4.74707C5.09604 4.74707 5.17126 4.84608 5.17126 4.96822ZM3.88311 5.77912C3.88311 5.90126 3.80789 6.00028 3.71509 6.00028C3.6223 6.00028 3.54707 5.90126 3.54707 5.77912C3.54707 5.65698 3.6223 5.55797 3.71509 5.55797C3.80789 5.55797 3.88311 5.65698 3.88311 5.77912ZM5.00324 8.35925C5.09604 8.35925 5.17126 8.26024 5.17126 8.1381C5.17126 8.01596 5.09604 7.91694 5.00324 7.91694C4.91045 7.91694 4.83522 8.01596 4.83522 8.1381C4.83522 8.26024 4.91045 8.35925 5.00324 8.35925ZM6.51542 5.77912C6.51542 5.90126 6.44019 6.00028 6.3474 6.00028C6.2546 6.00028 6.17938 5.90126 6.17938 5.77912C6.17938 5.65698 6.2546 5.55797 6.3474 5.55797C6.44019 5.55797 6.51542 5.65698 6.51542 5.77912ZM3.71509 7.3272C3.80789 7.3272 3.88311 7.22818 3.88311 7.10604C3.88311 6.9839 3.80789 6.88489 3.71509 6.88489C3.6223 6.88489 3.54707 6.9839 3.54707 7.10604C3.54707 7.22818 3.6223 7.3272 3.71509 7.3272ZM6.51542 7.10604C6.51542 7.22818 6.44019 7.3272 6.3474 7.3272C6.2546 7.3272 6.17938 7.22818 6.17938 7.10604C6.17938 6.9839 6.2546 6.88489 6.3474 6.88489C6.44019 6.88489 6.51542 6.9839 6.51542 7.10604Z" fill="#C51918"/>
<path fill-rule="evenodd" clip-rule="evenodd" d="M4.02969 6.12431L4.57492 5.46777H5.46018L6.0815 6.22099H6.90747V6.51586H6.10389V6.53125L5.46018 7.40416H4.57492L4.02969 6.61633V6.51586H3.09903V6.22099H4.02969V6.12431Z" fill="#C51918"/>
<path fill-rule="evenodd" clip-rule="evenodd" d="M5.03919 6.01414L5.30395 6.37191L5.026 6.72297L4.74804 6.37191L5.01281 6.01414L5.026 5.99791L5.03919 6.01414ZM5.0874 6.87795L5.11841 6.83968L5.08667 6.79959L5.36257 6.45112L5.65035 6.83998L5.52084 7.02209H5.44405L5.30122 7.1419L5.0874 6.87795ZM5.026 6.95375L4.76066 7.28131L4.58345 7.13267H4.49472L4.28549 6.83846L4.6288 6.37456L4.28328 5.93816L4.51 5.64481L4.59217 5.73088L4.71106 5.57076L4.67532 5.52247L4.7355 5.44531L5.026 5.83785L5.31649 5.44531L5.37667 5.52247L5.34093 5.57076L5.45982 5.73088L5.54199 5.64481L5.76872 5.93816L5.42319 6.37456L5.7665 6.83846L5.55728 7.13267H5.46854L5.29134 7.28131L5.026 6.95375ZM5.17407 6.03792L5.17755 6.03301L5.09799 5.93513L5.088 5.92163L5.29495 5.66703L5.45277 5.87958L5.53613 5.79228L5.64814 5.9372L5.36457 6.29534L5.17407 6.03792ZM4.99634 6.83876L4.75078 7.1419L4.60794 7.02209H4.53115L4.40165 6.83998L4.68942 6.45112L4.99634 6.83876ZM4.40386 5.9372L4.68742 6.29534L4.96399 5.92163L4.75705 5.66703L4.59923 5.87958L4.51587 5.79228L4.40386 5.9372Z" fill="#E8AA00"/>
<path fill-rule="evenodd" clip-rule="evenodd" d="M3.19726 20.5483C3.04702 20.294 2.94563 20.1224 2.91891 20.125C2.83506 20.1332 2.75642 21.317 3.84635 22.2176C3.84635 22.2176 4.00724 22.3369 4.10094 22.2176C4.19464 22.0983 4.10094 21.9228 4.10094 21.9228C3.74862 21.4814 3.4195 20.9244 3.19726 20.5483ZM6.86524 20.5483C7.01548 20.294 7.11687 20.1224 7.14359 20.125C7.22744 20.1332 7.30608 21.317 6.21615 22.2176C6.21615 22.2176 6.05526 22.3369 5.96156 22.2176C5.86786 22.0983 5.96156 21.9228 5.96156 21.9228C6.31388 21.4814 6.643 20.9244 6.86524 20.5483ZM6.78551 22.141C6.42736 22.2821 6.01256 22.3117 5.85394 22.2205C5.80335 22.1914 5.74963 22.1685 5.69319 22.1514C5.5354 22.1037 5.3816 22.1033 5.19909 22.1299C5.18356 22.1322 5.14519 22.1382 5.13176 22.1403C5.12901 22.1407 5.12731 22.141 5.12705 22.141C5.10986 22.1436 5.09994 22.1448 5.09805 22.1448C5.08735 22.1448 5.07562 22.1469 5.06276 22.1508C5.0499 22.1469 5.03818 22.1448 5.02748 22.1448C5.02558 22.1448 5.01566 22.1436 4.99847 22.141C4.99822 22.141 4.99651 22.1407 4.99377 22.1403C4.98034 22.1382 4.94197 22.1322 4.92644 22.1299C4.74392 22.1033 4.59012 22.1037 4.43234 22.1514C4.37589 22.1685 4.32218 22.1914 4.27158 22.2205C4.11297 22.3117 3.69817 22.2821 3.34001 22.141C3.34001 22.141 3.99176 22.49 4.37883 22.3354C4.41637 22.3138 4.45595 22.2969 4.49761 22.2843C4.6078 22.251 4.72065 22.248 4.85641 22.265C4.79931 22.3004 4.73293 22.341 4.65571 22.3827V22.425C4.80814 22.3425 4.98678 22.3035 5.06276 22.2915C5.13875 22.3035 5.31738 22.3425 5.46981 22.425V22.3827C5.3926 22.341 5.32621 22.3004 5.26912 22.265C5.40488 22.248 5.51773 22.251 5.62792 22.2843C5.66957 22.2969 5.70916 22.3138 5.74669 22.3354C6.13377 22.49 6.78551 22.141 6.78551 22.141Z" fill="#E8AA00"/>
<path fill-rule="evenodd" clip-rule="evenodd" d="M4.14287 9.56152L3.24304 10.6188V11.6258L4.0297 12.6798H5.63595L6.52156 11.5552V10.6979L5.63595 9.56152H4.14287Z" fill="#389F5D"/>
<path fill-rule="evenodd" clip-rule="evenodd" d="M4.45243 9.67383H4.24889V9.88346H4.45243V9.67383ZM4.45243 12.4147H4.24889V12.6243H4.45243V12.4147ZM4.75774 12.4147H4.96128V12.6243H4.75774V12.4147ZM4.96128 9.67383H4.75774V9.88346H4.96128V9.67383ZM5.26659 12.4147H5.47013V12.6243H5.26659V12.4147ZM5.47013 9.67383H5.26659V9.88346H5.47013V9.67383Z" fill="#C51918"/>
<path fill-rule="evenodd" clip-rule="evenodd" d="M4.7105 9.61914H4.50331V9.82878H4.7105V9.61914ZM4.7105 12.4143H4.50331V12.6239H4.7105V12.4143ZM5.02129 9.61914H5.22848V9.82878H5.02129V9.61914ZM5.22848 12.4143H5.02129V12.6239H5.22848V12.4143Z" fill="#E8AA00"/>
<path fill-rule="evenodd" clip-rule="evenodd" d="M3.53173 9.43164H6.24863V9.99143H6.63765V12.3056H6.24863V12.784H3.53173V12.3056H3.1093V9.99143H3.53173V9.43164ZM3.68439 10.2011H3.26195V12.096H3.68439V12.5744H6.09597V12.096H6.485V10.2011H6.09597V9.64128H3.68439V10.2011Z" fill="#750100"/>
<path fill-rule="evenodd" clip-rule="evenodd" d="M4.60508 9.2002H4.35066V9.54959H4.60508V9.2002ZM5.01216 9.2002H4.75774V9.54959H5.01216V9.2002ZM5.16482 9.2002H5.41924V9.54959H5.16482V9.2002ZM4.60508 12.6941H4.35066V13.0435H4.60508V12.6941ZM4.75774 12.6941H5.01216V13.0435H4.75774V12.6941ZM5.41924 12.6941H5.16482V13.0435H5.41924V12.6941ZM2.87119 11.9204V11.5811H3.13323V11.9204H2.87119ZM2.87119 11.0221V11.3613H3.13323V11.0221H2.87119ZM2.87119 10.8023V10.4631H3.13323V10.8023H2.87119ZM6.5349 11.5811V11.9204H6.79695V11.5811H6.5349ZM6.5349 11.3613V11.0221H6.79695V11.3613H6.5349ZM6.5349 10.4631V10.8023H6.79695V10.4631H6.5349Z" fill="#389F5D"/>
<path fill-rule="evenodd" clip-rule="evenodd" d="M4.1532 9.85645L3.71439 10.3653V12.012L4.07857 12.3556H5.6574L6.02104 12.012V10.3653L5.61063 9.85645H4.1532Z" fill="#C51918"/>
<path fill-rule="evenodd" clip-rule="evenodd" d="M4.88985 10.5391L4.36035 11.1423H4.88985V10.5391Z" fill="#E1E5E8"/>
<path d="M4.88985 11.6895L4.36035 11.0862H4.88985V11.6895Z" fill="#E8AA00"/>
<path fill-rule="evenodd" clip-rule="evenodd" d="M4.84372 10.5391L5.37321 11.1423H4.84372V10.5391Z" fill="#E8AA00"/>
<path fill-rule="evenodd" clip-rule="evenodd" d="M4.86722 11.3046C4.95579 11.3046 5.02759 11.2089 5.02759 11.0908C5.02759 10.9727 4.95579 10.877 4.86722 10.877C4.77865 10.877 4.70685 10.9727 4.70685 11.0908C4.70685 11.2089 4.77865 11.3046 4.86722 11.3046Z" fill="#29AE66"/>
<path d="M4.84372 11.6895L5.37321 11.0862H4.84372V11.6895Z" fill="#E1E5E8"/>
<path fill-rule="evenodd" clip-rule="evenodd" d="M3.74004 10.877H3.28207V11.0725H3.74004V10.877ZM3.74004 11.2333H3.28207V11.4288H3.74004V11.2333ZM6.02986 10.877H6.48783V11.0725H6.02986V10.877ZM6.48783 11.2333H6.02986V11.4288H6.48783V11.2333Z" fill="#C51918"/>
<path fill-rule="evenodd" clip-rule="evenodd" d="M3.68915 10.668H3.28207V10.8818H3.68915V10.668ZM3.68915 11.0243H3.28207V11.2382H3.68915V11.0243ZM3.28207 11.3807H3.68915V11.5946H3.28207V11.3807ZM6.43694 10.668H6.02986V10.8818H6.43694V10.668ZM6.02986 11.0243H6.43694V11.2382H6.02986V11.0243ZM6.43694 11.3807H6.02986V11.5946H6.43694V11.3807Z" fill="#E8AA00"/>
<path fill-rule="evenodd" clip-rule="evenodd" d="M7.1767 1.52357L7.17516 1.91187H5.04843L5.04691 3.6752H4.38005C4.26365 3.6752 3.94448 3.37716 3.94448 3.37716H3.40301L3.15304 3.03666V2.69453L2.88475 2.26979L2.8863 1.8815H5.01302L5.01454 0.118164H5.6814C5.79781 0.118164 6.11697 0.4162 6.11697 0.4162H6.65845L6.90842 0.756701V1.09883L7.1767 1.52357Z" fill="#E8AA00"/>
<path fill-rule="evenodd" clip-rule="evenodd" d="M2.88474 1.52357L2.88629 1.91187H5.01302L5.01454 3.6752H5.68139C5.7978 3.6752 6.11697 3.37716 6.11697 3.37716H6.65844L6.90841 3.03666V2.69453L7.1767 2.26979L7.17515 1.8815H5.04842L5.0469 0.118164H4.38005C4.26364 0.118164 3.94447 0.4162 3.94447 0.4162H3.403L3.15303 0.756701V1.09883L2.88474 1.52357Z" fill="#E1E5E8"/>
<path fill-rule="evenodd" clip-rule="evenodd" d="M4.31406 0.656667L4.29078 0.506694L4.74953 0.366037C4.8046 0.33058 4.90017 0.22957 5.03182 0.0654297L5.09349 0.157981L5.10408 0.142097C5.23572 0.306237 5.3313 0.407247 5.38637 0.442704L5.84512 0.583361L5.82183 0.733334L5.56742 0.663263L5.59176 0.692281C5.57428 0.706247 5.55526 0.726605 5.53488 0.753233L5.42748 0.732145L5.43746 0.683714L5.41049 0.677859C5.39074 0.727548 5.36814 0.79864 5.34401 0.889863L5.23659 0.847692L5.28008 0.569886L5.03729 0.266265L4.8672 0.47898C4.88837 0.504557 4.90946 0.533918 4.93059 0.567134C4.91255 0.576289 4.89529 0.584368 4.87883 0.591376L4.87154 0.593693L4.89931 0.771026L4.79188 0.813197C4.77786 0.760195 4.76436 0.713989 4.75163 0.674829L4.74278 0.676567C4.7224 0.649939 4.70338 0.629581 4.6859 0.615615L4.71631 0.579368C4.71132 0.567994 4.70654 0.558136 4.70201 0.549819L4.31406 0.656667ZM4.33294 1.20579L4.39419 1.07741L4.07736 0.794162L4.11259 0.728467L4.0223 0.637721L3.98343 0.710194L3.85769 0.597786L3.79645 0.726167L3.91704 0.833977L3.8922 0.880287L3.98249 0.971033L4.01097 0.917945L4.33294 1.20579ZM3.9409 1.35912L4.00215 1.23074L3.68531 0.947495L3.72055 0.8818L3.63026 0.791054L3.59139 0.863527L3.46565 0.75112L3.4044 0.8795L3.52499 0.98731L3.50016 1.03362L3.59045 1.12437L3.61892 1.07128L3.9409 1.35912ZM3.77288 1.81912L3.83413 1.69074L3.51729 1.4075L3.55253 1.3418L3.46224 1.25105L3.42337 1.32353L3.29763 1.21112L3.23638 1.3395L3.35697 1.44731L3.33214 1.49362L3.42243 1.58437L3.4509 1.53128L3.77288 1.81912ZM3.77812 2.18714L3.71687 2.05876L3.39489 2.34661L3.36642 2.29352L3.27613 2.38427L3.30097 2.43058L3.18037 2.53839L3.24162 2.66677L3.36736 2.55436L3.40623 2.62683L3.49652 2.53609L3.46128 2.47039L3.77812 2.18714ZM3.88489 2.51876L3.94614 2.64714L3.6293 2.93039L3.66454 2.99609L3.57425 3.08683L3.53538 3.01436L3.40964 3.12677L3.34839 2.99839L3.46899 2.89058L3.44415 2.84427L3.53444 2.75352L3.56291 2.80661L3.88489 2.51876ZM4.27694 2.6721L4.33818 2.80048L4.02135 3.08372L4.05659 3.14942L3.96629 3.24017L3.92742 3.16769L3.80169 3.2801L3.74044 3.15172L3.86103 3.04391L3.83619 2.9976L3.92649 2.90685L3.95496 2.95994L4.27694 2.6721ZM4.87459 3.40488C4.85654 3.39573 4.83929 3.38765 4.82282 3.38064L4.8015 3.37386L4.8433 3.10686L4.73588 3.06469C4.70156 3.19441 4.67035 3.28342 4.646 3.32807L4.25806 3.22122L4.23477 3.37119L4.67694 3.50676L4.67681 3.50733L4.74076 3.56395L4.74917 3.55696C4.80491 3.60878 4.88101 3.69425 4.97581 3.81246L5.01194 3.75824L5.04807 3.81246C5.17971 3.64832 5.27529 3.54731 5.33036 3.51185L5.34525 3.50728C5.36458 3.52929 5.38398 3.54816 5.40354 3.56395L5.46749 3.50733L5.46103 3.4781L5.46816 3.4696L5.78911 3.37119L5.76582 3.22122L5.37788 3.32807C5.35353 3.28342 5.32232 3.19441 5.288 3.06469L5.18058 3.10686L5.22408 3.38467L5.01194 3.64995L4.8479 3.44481C4.85679 3.43218 4.86569 3.41887 4.87459 3.40488ZM6.24576 2.18714L6.30701 2.05876L6.62899 2.34661L6.65746 2.29352L6.74775 2.38427L6.72291 2.43058L6.84351 2.53839L6.78226 2.66677L6.65652 2.55436L6.61765 2.62683L6.52736 2.53609L6.5626 2.47039L6.24576 2.18714ZM6.07774 2.64714L6.13899 2.51876L6.46097 2.80661L6.48944 2.75352L6.57973 2.84427L6.55489 2.89058L6.67549 2.99839L6.61424 3.12677L6.4885 3.01436L6.44963 3.08683L6.35934 2.99609L6.39458 2.93039L6.07774 2.64714ZM5.6857 2.80048L5.74695 2.6721L6.06892 2.95994L6.0974 2.90685L6.18769 2.9976L6.16285 3.04391L6.28344 3.15172L6.22219 3.2801L6.09646 3.16769L6.05759 3.24017L5.9673 3.14942L6.00253 3.08372L5.6857 2.80048ZM6.30177 1.76741L6.36302 1.89579L6.685 1.60794L6.71347 1.66103L6.80376 1.57029L6.77892 1.52398L6.89951 1.41617L6.83827 1.28779L6.71253 1.40019L6.67366 1.32772L6.58337 1.41847L6.6186 1.48416L6.30177 1.76741ZM6.13375 1.30741L6.195 1.43579L6.51698 1.14794L6.54545 1.20103L6.63574 1.11029L6.6109 1.06398L6.7315 0.956167L6.67025 0.827786L6.54451 0.940193L6.50564 0.867721L6.41535 0.958467L6.45058 1.02416L6.13375 1.30741ZM5.7417 1.15408L5.80295 1.28246L6.12493 0.994612L6.1534 1.0477L6.24369 0.956954L6.21886 0.910644L6.33945 0.802834L6.2782 0.674453L6.15246 0.78686L6.11359 0.714388L6.0233 0.805134L6.05854 0.870829L5.7417 1.15408Z" fill="#C51918"/>
<path fill-rule="evenodd" clip-rule="evenodd" d="M4.46171 1.10476L5.09603 0.65625V1.88292H6.66421L6.29055 2.24175V2.71122H5.69913L5.06481 3.15973V1.93306H3.49663L3.87029 1.57423V1.10476H4.46171Z" fill="#C51918"/>
<path fill-rule="evenodd" clip-rule="evenodd" d="M5.69913 1.10476L5.06481 0.65625V1.88292H3.49663L3.8703 2.24175V2.71122H4.46171L5.09603 3.15973V1.93306H6.66422L6.29055 1.57423V1.10476H5.69913Z" fill="#29AE66"/>
<path fill-rule="evenodd" clip-rule="evenodd" d="M4.15356 1.42236L4.25707 1.15039L4.52038 1.33816L4.59292 1.19426L4.7773 1.36843L4.72059 1.48094L5.49993 2.03673L5.54798 1.94142L5.73236 2.11559L5.70014 2.17951L5.78433 2.23955L5.68082 2.51152L5.57193 2.43386L5.48353 2.60921L5.29914 2.43504L5.37171 2.29108L4.59237 1.73529L4.52847 1.86206L4.34408 1.68788L4.39216 1.59251L4.15356 1.42236Z" fill="#29AE66"/>
<path fill-rule="evenodd" clip-rule="evenodd" d="M5.81442 1.34769L5.69694 1.086L5.4441 1.29781L5.3642 1.161L5.18938 1.3519L5.25184 1.45886L4.50347 2.08578L4.45056 1.99517L4.27573 2.18607L4.31122 2.24683L4.23038 2.31455L4.34786 2.57624L4.45243 2.48864L4.54979 2.65534L4.72461 2.46445L4.64469 2.32758L5.39306 1.70067L5.46343 1.82118L5.63826 1.63028L5.58531 1.53961L5.81442 1.34769Z" fill="#C51918"/>
</g>
<path fill-rule="evenodd" clip-rule="evenodd" d="M13.709 1.91699C13.709 1.91699 15.3838 7.20853 13.8958 9.45574C12.4078 11.703 8.625 11.2697 8.625 11.2697C8.625 11.2697 13.4812 14.1942 15.597 10.1673C17.7128 6.14049 13.709 1.91699 13.709 1.91699Z" fill="#F7FCFF"/>
<path fill-rule="evenodd" clip-rule="evenodd" d="M10.6693 5.02997L10.2262 5.44586L10.3825 4.74893L9.95231 4.30904L10.4921 4.2942L10.6693 3.60645L10.8466 4.2942L11.3864 4.30904L10.9561 4.74893L11.1125 5.44586L10.6693 5.02997ZM10.7551 6.95175L10.3119 7.36764L10.4682 6.67071L10.038 6.23082L10.5778 6.21598L10.7551 5.52822L10.9323 6.21598L11.4721 6.23082L11.0419 6.67071L11.1982 7.36764L10.7551 6.95175ZM8.96475 7.51606L9.40789 7.10017L9.85104 7.51606L9.6947 6.81914L10.1249 6.37924L9.58515 6.36441L9.40789 5.67665L9.23064 6.36441L8.69087 6.37924L9.12108 6.81914L8.96475 7.51606ZM10.7551 8.96757L10.3119 9.38346L10.4682 8.68653L10.038 8.24664L10.5778 8.2318L10.7551 7.54405L10.9323 8.2318L11.4721 8.24664L11.0419 8.68653L11.1982 9.38346L10.7551 8.96757ZM11.7764 6.7803L12.2196 6.36441L12.6627 6.7803L12.5064 6.08337L12.9366 5.64348L12.3968 5.62864L12.2196 4.94088L12.0423 5.62864L11.5026 5.64348L11.9328 6.08337L11.7764 6.7803Z" fill="#F7FCFF"/>
</g>
</g>
<rect width="23" height="23" rx="11.5" fill="url(#paint0_linear_2757_5721)" style="mix-blend-mode:overlay"/>
<rect x="0.5" y="0.5" width="22" height="22" rx="11" stroke="black" stroke-opacity="0.1"/>
<defs>
<linearGradient id="paint0_linear_2757_5721" x1="11.5" y1="0" x2="11.5" y2="23" gradientUnits="userSpaceOnUse">
<stop stop-color="white" stop-opacity="0.7"/>
<stop offset="1" stop-opacity="0.3"/>
</linearGradient>
</defs>
</svg>
