<svg width="23" height="23" viewBox="0 0 23 23" fill="none" xmlns="http://www.w3.org/2000/svg">
<mask id="mask0_2757_5781" style="mask-type:alpha" maskUnits="userSpaceOnUse" x="0" y="0" width="23" height="23">
<rect width="23" height="23" fill="white"/>
</mask>
<g mask="url(#mask0_2757_5781)">
<path fill-rule="evenodd" clip-rule="evenodd" d="M0 0V23H23V0H0Z" fill="#E31D1C"/>
<mask id="mask1_2757_5781" style="mask-type:alpha" maskUnits="userSpaceOnUse" x="0" y="0" width="23" height="23">
<path fill-rule="evenodd" clip-rule="evenodd" d="M0 0V23H23V0H0Z" fill="white"/>
</mask>
<g mask="url(#mask1_2757_5781)">
<path d="M21.1663 27.9989L20.9001 28.2892L20.639 27.9176L-1.17078 -3.13119L-1.36628 -3.4095L-1.16693 -3.62688L1.05857 -6.05368L1.32477 -6.34397L1.58584 -5.97231L23.3957 25.0764L23.5912 25.3547L23.3918 25.5721L21.1663 27.9989Z" fill="#272727" stroke="#F7FCFF" stroke-width="0.732"/>
</g>
</g>
<rect width="23" height="23" rx="11.5" fill="url(#paint0_linear_2757_5781)" style="mix-blend-mode:overlay"/>
<rect x="0.5" y="0.5" width="22" height="22" rx="11" stroke="black" stroke-opacity="0.1"/>
<defs>
<linearGradient id="paint0_linear_2757_5781" x1="11.5" y1="0" x2="11.5" y2="23" gradientUnits="userSpaceOnUse">
<stop stop-color="white" stop-opacity="0.7"/>
<stop offset="1" stop-opacity="0.3"/>
</linearGradient>
</defs>
</svg>
