<svg width="23" height="23" viewBox="0 0 23 23" fill="none" xmlns="http://www.w3.org/2000/svg">
<mask id="mask0_2757_6126" style="mask-type:alpha" maskUnits="userSpaceOnUse" x="0" y="0" width="23" height="23">
<rect width="23" height="23" fill="white"/>
</mask>
<g mask="url(#mask0_2757_6126)">
<path fill-rule="evenodd" clip-rule="evenodd" d="M0 0V23H23V0H0Z" fill="#5DA923"/>
<mask id="mask1_2757_6126" style="mask-type:alpha" maskUnits="userSpaceOnUse" x="0" y="0" width="23" height="23">
<path fill-rule="evenodd" clip-rule="evenodd" d="M0 0V23H23V0H0Z" fill="white"/>
</mask>
<g mask="url(#mask1_2757_6126)">
<rect x="18.6875" y="9.58301" width="4.3125" height="13.4167" fill="#FF7F24"/>
<rect x="14.375" y="9.58301" width="4.3125" height="13.4167" fill="#262626"/>
<rect x="10.0625" y="9.58301" width="4.3125" height="13.4167" fill="#C31818"/>
<path fill-rule="evenodd" clip-rule="evenodd" d="M15.536 2.98688C15.9251 3.17761 15.536 3.46957 15.536 3.46957C15.536 3.46957 15.4591 3.35053 15.4591 3.25112C15.4591 3.15171 15.1611 3.25112 15.0074 3.61186C14.8617 3.95373 15.1302 3.95274 15.4124 3.9517C15.4279 3.95165 15.4436 3.95159 15.4591 3.95159C15.6186 3.95159 15.868 3.93064 16.1 3.91117C16.3017 3.89423 16.4901 3.87841 16.5949 3.87841C16.8201 3.87841 16.9267 3.87841 17.2238 3.61186C17.4169 3.43858 18.0556 3.22649 18.5305 3.0688C18.7861 2.98391 18.9942 2.91478 19.0598 2.87597C19.2473 2.76507 18.8724 3.35053 18.8724 3.35053C18.8724 3.35053 20.3185 2.57287 20.6083 2.30732C20.7873 2.14325 20.7062 2.28328 20.5738 2.51192C20.4918 2.65334 20.3903 2.82866 20.3185 2.98688C20.1963 3.25645 20.4453 2.99945 20.7219 2.71401C20.8701 2.56107 21.0262 2.39996 21.1373 2.30732C21.4559 2.04176 21.0563 2.76207 20.8807 2.98688C20.7051 3.21168 21.293 2.98688 21.4966 2.76207C21.6464 2.59665 21.5096 2.8858 21.3944 3.12922C21.3531 3.2166 21.3145 3.29808 21.293 3.35053L21.2896 3.35889C21.2109 3.55085 21.1858 3.61186 21.3745 3.61186C21.5658 3.61186 20.8807 4.32203 20.8807 4.32203C20.8807 4.32203 21.0848 4.27883 20.8807 4.7517C20.7604 5.03045 20.1745 5.31203 19.6988 5.54065C19.3676 5.69986 19.0897 5.83338 19.0598 5.92238C19.0061 6.08217 18.4726 6.26725 18.2239 6.3535C18.1353 6.38426 18.0828 6.40245 18.1013 6.40245C18.1715 6.40245 18.2882 6.52085 18.1615 6.52085C18.0348 6.52085 17.8123 6.61635 17.8123 6.61635C17.8123 6.61635 17.9293 6.61635 17.8123 6.83887C17.7562 6.94545 17.6578 6.92857 17.5888 6.91673C17.5138 6.90386 17.4735 6.89695 17.5602 7.06138C17.6414 7.21548 17.6691 7.26775 17.6564 7.28089C17.6431 7.29465 17.5854 7.26545 17.4984 7.26545C17.4177 7.26545 17.3315 7.2194 17.241 7.17106C17.1409 7.11763 17.0356 7.06138 16.9267 7.06138C16.7275 7.06138 16.9274 7.24941 17.0523 7.36687C17.0575 7.37178 17.0626 7.37656 17.0676 7.3812C17.1791 7.48636 17.1326 7.48615 16.9308 7.48523C16.9104 7.48514 16.8885 7.48503 16.865 7.48503C16.7398 7.48503 16.6725 7.46682 16.6364 7.45705C16.5984 7.44678 16.5949 7.44582 16.5949 7.48503C16.5949 7.52265 16.5005 7.47029 16.387 7.40729C16.2695 7.34207 16.1314 7.26545 16.0562 7.26545C15.9083 7.26545 16.3696 7.67217 16.3696 7.67217C16.3696 7.67217 16.1293 7.56856 15.9992 7.48503C15.9253 7.43756 16.0193 7.66152 16.1041 7.86369C16.1685 8.0172 16.2277 8.15814 16.204 8.15814C16.1861 8.15814 16.1465 8.1328 16.1014 8.10393C16.0088 8.04466 15.8929 7.97049 15.8929 8.06984C15.8929 8.2176 15.9992 8.32739 16.1293 8.32739C16.2595 8.32739 16.2809 8.55817 16.204 8.55817C16.1774 8.55817 16.1446 8.5429 16.1131 8.52824C16.0538 8.50061 15.9992 8.47517 15.9992 8.55817C15.9992 8.61172 16.0223 8.65181 16.0491 8.6982C16.0858 8.7619 16.1293 8.83746 16.1293 8.97603C16.1293 9.21554 15.9357 9.24962 15.9992 9.09089C16.0627 8.93216 15.7788 8.54901 15.7788 8.73653V8.97603C15.7788 9.14536 15.7543 9.15618 15.7161 9.17308C15.6926 9.18348 15.6638 9.19619 15.6323 9.24962C15.5854 9.32936 15.5783 9.37474 15.5743 9.40015C15.5704 9.42532 15.5696 9.43091 15.536 9.43091C15.5093 9.43091 15.4872 9.37799 15.4574 9.30686C15.4116 9.19768 15.3479 9.04558 15.2224 8.97603C15.1033 8.90997 15.097 8.95791 15.0862 9.04076C15.0782 9.10195 15.0677 9.18219 15.0074 9.24962C14.9167 9.35095 14.9418 9.39298 14.9718 9.44323C14.9888 9.47169 15.0074 9.50279 15.0074 9.5488C15.0074 9.67603 14.8488 9.42157 14.8488 9.24962C14.8488 9.07767 14.6686 8.84892 14.6686 8.97603C14.6686 9.10315 14.6686 9.24962 14.576 9.24962C14.5314 9.24962 14.5297 9.29201 14.5275 9.34894C14.5251 9.41028 14.522 9.4885 14.4639 9.5488C14.4066 9.60821 14.4078 9.57655 14.4106 9.50697C14.4132 9.44039 14.4173 9.33907 14.3727 9.24962C14.3169 9.1377 14.3635 8.96448 14.3872 8.8764C14.4022 8.82052 14.4081 8.7989 14.3727 8.84892C14.2827 8.97609 14.1679 8.97606 14.0903 8.97604L14.0872 8.97603C14.0481 8.97603 14.014 9.04232 13.9897 9.08945C13.9657 9.13598 13.9514 9.16385 13.9514 9.09089C13.9514 8.94403 14.0663 8.55817 14.2827 8.55817C14.4494 8.55817 14.5333 8.46804 14.6054 8.39058C14.6269 8.36748 14.6473 8.34551 14.6686 8.32739C14.7612 8.24853 14.6686 8.14566 14.576 8.06984C14.5339 8.03539 14.5491 7.92434 14.5784 7.82514C14.6297 7.78104 14.6686 7.72661 14.6686 7.67217C14.6686 7.60398 14.6134 7.70602 14.5784 7.82514C14.5118 7.88228 14.4241 7.92208 14.3727 7.92208C14.3232 7.92208 14.3542 7.80288 14.3929 7.65375C14.4256 7.52773 14.4639 7.38034 14.4639 7.26545C14.4639 7.15603 14.4775 7.06091 14.487 6.99513C14.4992 6.9101 14.5043 6.8741 14.4639 6.91964C14.4136 6.97618 14.1457 6.91399 13.9631 6.87158C13.8848 6.85341 13.8221 6.83887 13.799 6.83887C13.7649 6.83887 13.7924 6.75332 13.8197 6.66826C13.8541 6.56118 13.8883 6.45487 13.799 6.52085C13.6591 6.62426 13.3745 6.61989 13.1945 6.61712C13.1684 6.61672 13.1445 6.61635 13.1236 6.61635C13.0183 6.61635 13.0905 6.4926 13.1293 6.42624C13.1514 6.38834 13.1626 6.36916 13.1236 6.40245C13.0162 6.49402 12.9094 6.52085 12.7886 6.52085C12.7341 6.52085 12.7186 6.4778 12.7015 6.43069C12.6808 6.37329 12.6578 6.30986 12.5597 6.31088C12.3811 6.31273 12.341 6.30902 12.2426 6.20558C12.1914 6.15175 12.2202 6.12009 12.2365 6.10212C12.2515 6.08555 12.256 6.0806 12.1778 6.0806H11.6931C11.4517 6.0806 11.6939 5.82991 11.7809 5.82991C11.8679 5.82991 11.9688 5.6043 11.7809 5.7056C11.6606 5.77044 11.5319 5.75228 11.3798 5.7308C11.2942 5.71872 11.2012 5.7056 11.0981 5.7056C10.8117 5.7056 10.7568 5.52915 10.9262 5.52915C11.0955 5.52915 11.1055 5.3999 10.8423 5.3999C10.6772 5.3999 10.5414 5.34013 10.4402 5.29558C10.3801 5.26912 10.3322 5.24803 10.2976 5.24803C10.2047 5.24803 10.1043 5.07406 10.2976 5.07406C10.4909 5.07406 10.7389 4.92905 10.5273 4.92905C10.4078 4.92905 10.2085 4.84426 10.0351 4.77048C9.90157 4.71367 9.78341 4.6634 9.72884 4.6634C9.68696 4.6634 9.75246 4.64465 9.83971 4.61968C10.0137 4.56989 10.2743 4.49533 9.94199 4.49533C9.58717 4.49533 9.21538 4.10976 8.95859 3.84345C8.85434 3.73533 8.76904 3.64687 8.71153 3.61186C8.51237 3.49059 8.71153 3.25112 8.7689 3.35053C8.82627 3.44994 9.22797 3.6028 9.05398 3.46957C8.87999 3.33635 8.7689 3.10962 8.71153 2.98688C8.65416 2.86413 8.69833 2.77934 8.7689 2.87597C8.83947 2.97261 9.16513 3.25112 9.16513 3.25112C9.16513 3.25112 8.99089 2.98688 8.85257 2.57287C8.71425 2.15886 8.99089 2.2597 9.22797 2.57287C9.46505 2.88604 9.68731 2.96889 9.79891 2.98688C9.91052 3.00486 9.68731 2.76131 9.47249 2.57287C9.25768 2.38443 9.30643 1.70981 9.47249 1.97918C9.55888 2.11931 9.96817 2.38637 10.3685 2.64757C10.7376 2.88845 11.0992 3.12435 11.1928 3.25112C11.3548 3.47051 11.2244 3.14345 11.0832 2.78916C11.0544 2.71672 11.025 2.64314 10.9977 2.57287C10.9039 2.33218 11.2807 2.60565 11.7093 2.91678C12.018 3.14083 12.3536 3.38441 12.5597 3.46957C12.7017 3.52824 12.8713 3.62216 13.0407 3.71601C13.4589 3.94758 13.8761 4.17868 13.8761 3.87841C13.8761 3.45643 14.2585 2.79615 14.6686 2.57287C14.9289 2.43116 15.0514 2.55926 15.2057 2.72053C15.2945 2.81337 15.3938 2.9172 15.536 2.98688ZM15.0948 7.93951C15.1873 7.93951 15.162 6.6573 15.162 6.6573C15.162 6.6573 15.4352 7.44358 15.4352 7.78382C15.4352 7.93986 15.4268 7.98552 15.4295 8.03052C15.4327 8.08363 15.4513 8.13582 15.5171 8.36755C15.5845 8.60474 15.5399 8.57906 15.4181 8.50901C15.3202 8.45265 15.1723 8.36755 14.9926 8.36755C14.5897 8.36755 15.0022 7.93951 15.0948 7.93951Z" fill="#FF7F24"/>
</g>
</g>
<rect width="23" height="23" rx="11.5" fill="url(#paint0_linear_2757_6126)" style="mix-blend-mode:overlay"/>
<rect x="0.5" y="0.5" width="22" height="22" rx="11" stroke="black" stroke-opacity="0.1"/>
<defs>
<linearGradient id="paint0_linear_2757_6126" x1="11.5" y1="0" x2="11.5" y2="23" gradientUnits="userSpaceOnUse">
<stop stop-color="white" stop-opacity="0.7"/>
<stop offset="1" stop-opacity="0.3"/>
</linearGradient>
</defs>
</svg>
